<svg width="18" height="18" viewBox="0 0 18 18" fill="none" xmlns="http://www.w3.org/2000/svg">
<path fill-rule="evenodd" clip-rule="evenodd" d="M17.3334 8.99999C17.3334 4.39999 13.6084 0.666656 9.00008 0.666656C4.40008 0.666656 0.666748 4.39999 0.666748 8.99999C0.666748 13.6083 4.40008 17.3333 9.00008 17.3333C13.6084 17.3333 17.3334 13.6083 17.3334 8.99999ZM12.408 7.46411C12.6522 7.21994 12.6522 6.82495 12.408 6.58078C12.1638 6.33661 11.7688 6.33661 11.5247 6.58078L8.01134 10.0933L6.47467 8.55828C6.2305 8.31411 5.8355 8.31411 5.59134 8.55828C5.34717 8.80245 5.34717 9.19744 5.59134 9.44161L7.56967 11.4191C7.69134 11.5416 7.85217 11.6024 8.01134 11.6024C8.17134 11.6024 8.33134 11.5416 8.453 11.4191L12.408 7.46411Z" fill="white"/>
</svg>
