<svg width="16" height="16" viewBox="0 0 16 16" fill="none" xmlns="http://www.w3.org/2000/svg">
<path d="M2.88388 1.11612C2.39573 0.627961 1.60427 0.627961 1.11612 1.11612C0.627961 1.60427 0.627961 2.39573 1.11612 2.88388L6.23223 8L1.11612 13.1161C0.627961 13.6043 0.627961 14.3957 1.11612 14.8839C1.60427 15.372 2.39573 15.372 2.88388 14.8839L8 9.76777L13.1161 14.8839C13.6043 15.372 14.3957 15.372 14.8839 14.8839C15.372 14.3957 15.372 13.6043 14.8839 13.1161L9.76777 8L14.8839 2.88388C15.372 2.39573 15.372 1.60427 14.8839 1.11612C14.3957 0.627961 13.6043 0.627961 13.1161 1.11612L8 6.23223L2.88388 1.11612Z" fill="#343232"/>
</svg>
