<svg width="20" height="18" viewBox="0 0 20 18" fill="none" xmlns="http://www.w3.org/2000/svg">
<path d="M18.1655 1.83418L18.166 1.83474C19.0223 2.69013 19.5004 3.84295 19.5004 5.05V12.95C19.5004 15.4625 17.4556 17.5 14.9394 17.5H5.0604C2.54432 17.5 0.500401 15.4626 0.500401 12.95V5.05C0.500401 2.53672 2.53496 0.5 5.0604 0.5H14.9394C16.1488 0.5 17.3111 0.978001 18.1655 1.83418ZM16.1204 4.70251L16.1085 4.70131L16.0966 4.70068C15.7625 4.68319 15.4359 4.79416 15.1848 5.01934L10.6884 8.60926L10.6884 8.60919L10.6812 8.61513C10.2877 8.94145 9.72304 8.94459 9.31666 8.61273L9.31668 8.61271L9.31275 8.60957L4.81275 5.00957L4.80534 5.00364L4.79771 4.99799C4.29658 4.62738 3.58562 4.66272 3.14318 5.12013C2.70186 5.56506 2.65002 6.27303 3.03196 6.77338L3.05281 6.8007L3.0772 6.8249L3.2082 6.95491L3.22935 6.97589L3.25283 6.99421L7.80149 10.5432C7.80169 10.5433 7.8019 10.5435 7.8021 10.5436C8.44805 11.051 9.23507 11.33 10.0604 11.33C10.8821 11.33 11.6819 11.052 12.3287 10.5429L12.3287 10.5429L12.3318 10.5404L16.8428 6.93038L16.8644 6.91311L16.884 6.89355L16.964 6.81355L16.981 6.79655L16.9963 6.77799C17.3883 6.30234 17.389 5.61016 16.9781 5.13353L16.9717 5.1261L16.965 5.11893C16.7401 4.87785 16.4354 4.73417 16.1204 4.70251Z" fill="#9B9797" stroke="#9B9797"/>
</svg>
