<svg width="20" height="18" viewBox="0 0 20 18" fill="none" xmlns="http://www.w3.org/2000/svg">
<path d="M16.0906 3.91775C17.4444 5.1613 18.6062 6.85075 19.4806 8.90219C19.5081 8.96917 19.5038 9.04245 19.4839 9.08765L19.4838 9.08763L19.4814 9.09328C17.4441 13.877 13.8729 16.6259 9.99868 16.6259H9.98892C8.21919 16.6259 6.51401 16.0438 5.00015 14.9661L4.65408 14.7198L4.35505 15.0215L2.46212 16.9314L2.81725 17.2834L2.46212 16.9314C2.41414 16.9798 2.35863 17 2.30011 17C2.23078 17 2.17724 16.9733 2.15001 16.9439L2.14416 16.9376L2.1381 16.9314C2.06148 16.8541 2.051 16.7298 2.10417 16.6458L2.10453 16.6454L16.5107 2.10968L16.1693 1.77132L16.5107 2.10967L16.5124 2.10797C16.521 2.09934 16.5414 2.07876 16.5614 2.05575C16.5703 2.04544 16.5826 2.03083 16.5962 2.01233C16.6008 2.00733 16.6055 2.00207 16.6102 1.99668C16.6183 1.9873 16.6292 1.97436 16.6414 1.95818L17.5218 1.06986C17.6235 0.972833 17.766 0.981878 17.8495 1.0661L17.8495 1.06615L17.8555 1.07207C17.9471 1.16135 17.9471 1.31049 17.8555 1.39977L17.8555 1.39972L17.8495 1.40574L16.0737 3.19755L15.7081 3.56642L16.0906 3.91775ZM5.6361 9.5808L2.59162 12.6526C1.79472 11.6388 1.09237 10.448 0.518751 9.09756L0.518791 9.09755L0.51612 9.09148C0.496207 9.04628 0.491935 8.97297 0.519468 8.90597C2.55677 4.12402 6.1273 1.38534 9.99156 1.38534H10.0013C11.0835 1.38534 12.1421 1.59896 13.1421 2.00734L10.5656 4.60699C10.3858 4.58449 10.1953 4.5695 10.0013 4.5695C7.56458 4.5695 5.59836 6.55985 5.59836 9.00753C5.59836 9.20457 5.61348 9.39821 5.6361 9.5808ZM13.6348 6.51142L13.295 6.00117L12.8635 6.43658L11.7999 7.50969L11.5422 7.76975L11.7123 8.09397C11.8489 8.3542 11.9283 8.66786 11.9283 9.00369C11.9283 10.0806 11.0551 10.9551 9.99868 10.9551C9.66807 10.9551 9.35909 10.8755 9.10241 10.7384L8.77388 10.5629L8.51169 10.8275L7.44814 11.9006L7.02412 12.3284L7.52271 12.6664C8.225 13.1425 9.08293 13.4319 9.99868 13.4319C12.4257 13.4319 14.3919 11.4415 14.3919 9.00369C14.3919 8.08274 14.1061 7.21916 13.6348 6.51142Z" fill="#9B9797" stroke="#9B9797"/>
</svg>
