<svg width="18" height="18" viewBox="0 0 18 18" fill="none" xmlns="http://www.w3.org/2000/svg">
<path d="M8.5773 0.666656C10.6461 0.666656 12.3334 2.32499 12.3334 4.36666V8.35832H7.24614C6.88156 8.35832 6.59329 8.64166 6.59329 8.99999C6.59329 9.34999 6.88156 9.64166 7.24614 9.64166H12.3334V13.625C12.3334 15.6667 10.6461 17.3333 8.56034 17.3333H4.43122C2.35394 17.3333 0.666687 15.675 0.666687 13.6333V4.37499C0.666687 2.32499 2.36242 0.666656 4.4397 0.666656H8.5773ZM14.4502 6.12516C14.7002 5.86682 15.1085 5.86682 15.3585 6.11682L17.7919 8.54182C17.9169 8.66682 17.9835 8.82516 17.9835 9.00016C17.9835 9.16682 17.9169 9.33349 17.7919 9.45016L15.3585 11.8752C15.2335 12.0002 15.0669 12.0668 14.9085 12.0668C14.7419 12.0668 14.5752 12.0002 14.4502 11.8752C14.2002 11.6252 14.2002 11.2168 14.4502 10.9668L15.7835 9.64182H12.3335V8.35849H15.7835L14.4502 7.03349C14.2002 6.78349 14.2002 6.37516 14.4502 6.12516Z" fill="#9B9797"/>
</svg>
