<svg width="20" height="20" viewBox="0 0 20 20" fill="none" xmlns="http://www.w3.org/2000/svg">
<path d="M12.3561 0.00792976C12.133 -0.0240483 11.9089 0.0419064 11.7307 0.183809C11.5474 0.32771 11.4329 0.535567 11.408 0.768408C11.3552 1.23908 11.6948 1.66479 12.1649 1.71776C15.4065 2.07951 17.9262 4.60477 18.2907 7.85654C18.3395 8.29224 18.705 8.62101 19.1412 8.62101C19.174 8.62101 19.2059 8.61902 19.2388 8.61502C19.4668 8.59004 19.67 8.47711 19.8134 8.29724C19.9558 8.11736 20.0206 7.89351 19.9947 7.66467C19.5405 3.60746 16.4005 0.45862 12.3561 0.00792976Z" fill="#9B9797"/>
<path d="M12.4183 3.48988C11.9422 3.40194 11.505 3.70573 11.4144 4.17041C11.3238 4.6351 11.6285 5.08878 12.0916 5.17972C13.4859 5.45153 14.5624 6.53079 14.8353 7.92983C14.913 8.33256 15.2675 8.62635 15.6759 8.62635C15.7306 8.62635 15.7854 8.62136 15.8412 8.61136C16.3043 8.51843 16.609 8.06574 16.5184 7.60006C16.1111 5.51049 14.5027 3.8966 12.4183 3.48988Z" fill="#9B9797"/>
<path d="M13.6378 12.3543C12.5152 12.7476 11.2506 13.1906 9.03174 10.9724C6.81304 8.75431 7.255 7.48904 7.64729 6.36597C7.96031 5.46983 8.24171 4.66423 7.11449 3.53733C6.80949 3.23241 6.535 2.94351 6.28214 2.67738C4.50501 0.806958 3.79649 0.061244 1.07397 2.78395C1.05361 2.80927 1.01862 2.84345 0.973396 2.88761C0.324873 3.52102 -2.42781 6.20951 5.6846 14.3197C13.7947 22.4275 16.4815 19.6749 17.1153 19.0256C17.1596 18.9802 17.1938 18.9451 17.2192 18.9247C19.9403 16.2044 19.1921 15.4928 17.3149 13.7072C17.0519 13.457 16.7666 13.1857 16.4656 12.8848C15.3385 11.7585 14.5334 12.0406 13.6378 12.3543Z" fill="#9B9797"/>
</svg>
