<svg width="18" height="18" viewBox="0 0 18 18" fill="none" xmlns="http://www.w3.org/2000/svg">
<path d="M9.00002 0.666656C4.48252 0.666656 0.666687 4.48249 0.666687 8.99999C0.666687 13.5175 4.48252 17.3333 9.00002 17.3333C13.5175 17.3333 17.3334 13.5175 17.3334 8.99999C17.3334 4.48249 13.5175 0.666656 9.00002 0.666656ZM9.00002 4.83332C10.4392 4.83332 11.5 5.89332 11.5 7.33332C11.5 8.77332 10.4392 9.83332 9.00002 9.83332C7.56169 9.83332 6.50002 8.77332 6.50002 7.33332C6.50002 5.89332 7.56169 4.83332 9.00002 4.83332ZM4.74502 12.9767C5.49252 11.8767 6.73919 11.1433 8.16669 11.1433H9.83335C11.2617 11.1433 12.5075 11.8767 13.255 12.9767C12.19 14.1167 10.6792 14.8333 9.00002 14.8333C7.32085 14.8333 5.81002 14.1167 4.74502 12.9767Z" fill="#9B9797"/>
</svg>
