<svg width="16" height="13" viewBox="0 0 16 13" fill="none" xmlns="http://www.w3.org/2000/svg">
<path fill-rule="evenodd" clip-rule="evenodd" d="M0.916626 6.76562C0.916626 6.19033 1.383 5.72396 1.95829 5.72396H14.4583C15.0336 5.72396 15.5 6.19033 15.5 6.76562C15.5 7.34092 15.0336 7.80729 14.4583 7.80729H1.95829C1.383 7.80729 0.916626 7.34092 0.916626 6.76562Z" fill="#343232"/>
<path fill-rule="evenodd" clip-rule="evenodd" d="M8.68917 0.996503C9.09597 0.589707 9.75551 0.589707 10.1623 0.996503L15.1949 6.02906C15.6017 6.43585 15.6017 7.0954 15.1949 7.50219L10.1623 12.5347C9.75551 12.9415 9.09597 12.9415 8.68917 12.5347C8.28238 12.128 8.28238 11.4684 8.68917 11.0616L12.9852 6.76562L8.68917 2.46964C8.28238 2.06285 8.28238 1.4033 8.68917 0.996503Z" fill="#343232"/>
</svg>
