<svg width="16" height="18" viewBox="0 0 16 18" fill="none" xmlns="http://www.w3.org/2000/svg">
<path d="M7.98224 0.666664C9.95524 0.666664 11.6988 1.88507 12.3423 3.68989C12.4101 3.87211 12.3931 4.0709 12.3084 4.24484C12.2238 4.41878 12.0722 4.5513 11.8851 4.61011C11.504 4.74181 11.0806 4.54385 10.9367 4.16284C10.5048 2.93615 9.32015 2.11616 7.99917 2.11616C6.27089 2.11616 4.87455 3.47536 4.86523 5.13938V6.25756L4.85507 6.25922H11.526C13.4906 6.25922 15.0834 7.81721 15.0834 9.73882V13.8537C15.0834 15.7753 13.4906 17.3333 11.526 17.3333H4.47317C2.50948 17.3333 0.916687 15.7753 0.916687 13.8537V9.73882C0.916687 8.15846 2.00057 6.83901 3.47566 6.41493L3.38336 6.4257V5.15595C3.4003 2.68021 5.45883 0.666664 7.98224 0.666664ZM7.99579 10.1521C7.58933 10.1521 7.25909 10.4752 7.25909 10.8727V12.7115C7.25909 13.1174 7.58933 13.4404 7.99579 13.4404C8.41071 13.4404 8.74096 13.1174 8.74096 12.7115V10.8727C8.74096 10.4752 8.41071 10.1521 7.99579 10.1521Z" fill="#CDCBCB"/>
</svg>
