<svg width="16" height="18" viewBox="0 0 16 18" fill="none" xmlns="http://www.w3.org/2000/svg">
<path d="M7.98218 0.666664C9.95518 0.666664 11.6987 1.88507 12.3423 3.68989C12.41 3.87211 12.3931 4.0709 12.3084 4.24484C12.2237 4.41878 12.0721 4.5513 11.885 4.61011C11.5039 4.74181 11.0806 4.54385 10.9366 4.16284C10.5047 2.93615 9.32009 2.11616 7.99911 2.11616C6.27083 2.11616 4.87449 3.47536 4.86517 5.13938V6.25756L4.85501 6.25922H11.526C13.4905 6.25922 15.0833 7.81721 15.0833 9.73882V13.8537C15.0833 15.7753 13.4905 17.3333 11.526 17.3333H4.47311C2.50942 17.3333 0.916626 15.7753 0.916626 13.8537V9.73882C0.916626 8.15846 2.00051 6.83901 3.4756 6.41493L3.3833 6.4257V5.15595C3.40024 2.68021 5.45877 0.666664 7.98218 0.666664ZM7.99573 10.1521C7.58927 10.1521 7.25903 10.4752 7.25903 10.8727V12.7115C7.25903 13.1174 7.58927 13.4404 7.99573 13.4404C8.41065 13.4404 8.74089 13.1174 8.74089 12.7115V10.8727C8.74089 10.4752 8.41065 10.1521 7.99573 10.1521Z" fill="white"/>
</svg>
