<svg width="18" height="16" viewBox="0 0 18 16" fill="none" xmlns="http://www.w3.org/2000/svg">
<path d="M7.85667 0.794245C8.98981 0.16585 10.4312 0.578725 11.0645 1.70174L17.1218 12.2143C17.2551 12.5281 17.3134 12.7833 17.3301 13.0484C17.3634 13.6677 17.1468 14.2696 16.7218 14.7329C16.2969 15.1945 15.722 15.467 15.0971 15.5H2.89917C2.64088 15.4843 2.38259 15.4257 2.14096 15.3349C0.932833 14.8477 0.349598 13.4769 0.841181 12.2887L6.94015 1.69431C7.14845 1.3219 7.46507 1.00068 7.85667 0.794245ZM8.99814 10.7272C8.59821 10.7272 8.26493 11.0575 8.26493 11.4547C8.26493 11.8502 8.59821 12.1813 8.99814 12.1813C9.39807 12.1813 9.72302 11.8502 9.72302 11.4456C9.72302 11.05 9.39807 10.7272 8.99814 10.7272ZM8.99814 5.57533C8.59821 5.57533 8.26493 5.89654 8.26493 6.29373V8.62977C8.26493 9.02613 8.59821 9.35726 8.99814 9.35726C9.39807 9.35726 9.72302 9.02613 9.72302 8.62977V6.29373C9.72302 5.89654 9.39807 5.57533 8.99814 5.57533Z" fill="white"/>
</svg>
