<!-- <svg width="20" height="19" viewBox="0 0 20 19" fill="none" xmlns="http://www.w3.org/2000/svg">
<path fill-rule="evenodd" clip-rule="evenodd" d="M8.1108 0.330314C7.5198 0.129314 6.9098 0.0193143 6.2798 0.000154665H6.1698C5.8898 0.000154665 5.6108 0.0193143 5.3298 0.0603143H5.2098C4.9098 0.0993143 4.6108 0.169314 4.3208 0.269314C0.589799 1.49031 -0.740201 5.54031 0.389799 9.08031C1.0298 10.8893 2.0608 12.5303 3.4008 13.8793C5.3498 15.7593 7.4808 17.4193 9.7698 18.8393L10.0298 19.0003L10.2798 18.8493C12.5608 17.4193 14.6798 15.7593 16.6108 13.8893C17.9598 12.5403 18.9898 10.8893 19.6198 9.08031C20.7308 5.54031 19.4008 1.49031 15.7098 0.290314C15.1108 0.0893143 14.4808 0.000154665 13.8498 0.000154665C12.4598 -0.00968566 11.1108 0.450314 9.9998 1.29931C9.92449 1.24157 9.83517 1.18944 9.74942 1.13938C9.7327 1.12962 9.71612 1.11994 9.6998 1.11031C9.66101 1.08666 9.61019 1.04976 9.55376 1.00878C9.46468 0.944114 9.36162 0.869286 9.2698 0.820314L8.8898 0.650314C8.6898 0.540314 8.4808 0.460314 8.2598 0.389314C8.2398 0.370314 8.2098 0.349314 8.1698 0.330314H8.1108ZM7.2022 2.14322C6.89287 2.05991 6.57549 2.01217 6.24661 2.00015H6.1698C5.9819 2.00015 5.79955 2.01295 5.61856 2.03936L5.47494 2.06031H5.35845C5.22883 2.08309 5.09933 2.11642 4.97278 2.16006L4.95786 2.16521L4.94285 2.17012C2.55295 2.95223 1.40663 5.6455 2.28591 8.44318C2.82613 9.95622 3.68916 11.3273 4.80514 12.4551C6.42051 14.0114 8.16656 15.4075 10.0283 16.6315C11.8795 15.4018 13.6113 14.0086 15.2076 12.4641C16.3278 11.3405 17.1892 9.96393 17.7206 8.45244C18.5902 5.63787 17.4296 2.95249 15.0914 2.19232L15.0825 2.18941L15.0735 2.18641C14.7061 2.06312 14.2944 2.00015 13.8498 2.00015H13.8427L13.8356 2.0001C12.8994 1.99348 11.9806 2.30276 11.2142 2.88844L9.99782 3.81794L8.80975 2.90709C8.79974 2.90101 8.78639 2.89309 8.76573 2.88099L8.72901 2.85955L8.6835 2.83285L8.67084 2.82538L8.65828 2.81772C8.56651 2.76174 8.48609 2.70447 8.44825 2.67742C8.42502 2.66081 8.40217 2.64423 8.38441 2.63134L8.33529 2.59576C8.33204 2.59342 8.32897 2.59122 8.32605 2.58913L7.99801 2.44237L7.92596 2.40275C7.88176 2.37843 7.8059 2.34417 7.64806 2.29346L7.21334 2.1538L7.2022 2.14322Z" fill="red"/>
<path d="M14.3125 4.03082C13.9025 3.88982 13.3298 4.24034 13.1798 4.66034C13.0398 5.08034 13.2598 5.54034 13.6798 5.68934C14.3208 5.92934 14.7498 6.56034 14.7498 7.25934V7.29034C14.7308 7.51934 14.7998 7.74034 14.9398 7.91034C15.0798 8.08034 15.2898 8.17934 15.5098 8.20034C15.9198 8.18934 16.3762 7.71134 16.4062 7.29034V7.17134C16.4363 5.77034 15.6035 4.52082 14.3125 4.03082Z" fill="red"/>
</svg> -->

<svg width="18" height="17" viewBox="0 0 18 17" fill="none" xmlns="http://www.w3.org/2000/svg">
<path d="M5.89985 0.500129C6.42485 0.516095 6.93318 0.607762 7.42568 0.775262H7.47485C7.50818 0.791095 7.53318 0.808595 7.54985 0.824429C7.73402 0.883595 7.90818 0.950262 8.07485 1.04193L8.39152 1.1836C8.51652 1.25026 8.66652 1.37443 8.74985 1.42526C8.83318 1.47443 8.92485 1.52526 8.99985 1.58276C9.92568 0.875262 11.0499 0.491929 12.2082 0.500129C12.734 0.500129 13.259 0.574429 13.7582 0.741929C16.834 1.74193 17.9424 5.11693 17.0165 8.06693C16.4915 9.57443 15.6332 10.9503 14.509 12.0744C12.8999 13.6328 11.134 15.0161 9.23318 16.2078L9.02485 16.3336L8.80818 16.1994C6.90068 15.0161 5.12485 13.6328 3.50068 12.0661C2.38402 10.9419 1.52485 9.57443 0.991518 8.06693C0.049851 5.11693 1.15818 1.74193 4.26735 0.724429C4.50902 0.641095 4.75818 0.582762 5.00818 0.550262H5.10818C5.34235 0.516095 5.57485 0.500129 5.80818 0.500129H5.89985ZM13.3249 3.1336C12.9832 3.0161 12.6082 3.20026 12.4832 3.55026C12.3665 3.90026 12.5499 4.2836 12.8999 4.40776C13.434 4.60776 13.7915 5.13359 13.7915 5.71609V5.74193C13.7757 5.93276 13.8332 6.11693 13.9499 6.25859C14.0665 6.40026 14.2415 6.48276 14.4249 6.50026C14.7665 6.4911 15.0582 6.21693 15.0832 5.8661V5.76693C15.1082 4.59943 14.4007 3.54193 13.3249 3.1336Z" fill="red"/>
</svg>
