<svg width="17" height="16" viewBox="0 0 17 16" fill="none" xmlns="http://www.w3.org/2000/svg">
<path fill-rule="evenodd" clip-rule="evenodd" d="M8.07472 1.51008C7.65672 0.974749 7.01946 0.659417 6.33673 0.666625H5.17807C2.51608 0.666625 1.16675 2.20674 1.16675 5.24273V10.75C1.16675 13.588 2.91941 15.3334 5.74273 15.3334H11.25C14.088 15.3334 15.8334 13.588 15.8334 10.7574V7.18606C15.8407 4.2234 14.5207 2.77874 11.8147 2.77874H9.56338C9.23338 2.77874 8.92538 2.62474 8.72005 2.36808L8.07472 1.51008ZM7.76671 5.79991C7.76671 5.49309 8.09505 5.06962 8.50004 5.06658C8.90812 5.06351 9.24449 5.49309 9.24449 5.79991V7.9999H11.4334C11.7402 7.9999 12.1667 8.32822 12.1667 8.73323C12.1667 9.13824 11.7402 9.46656 11.4334 9.46656H9.23337L9.24449 11.6666C9.24449 11.9734 8.90812 12.403 8.50004 12.3999C8.09505 12.3968 7.76671 11.9734 7.76671 11.6666V9.46656H5.56672C5.2599 9.46656 4.83339 9.13824 4.83339 8.73323C4.83339 8.32822 5.2599 7.9999 5.56672 7.9999H7.76671V5.79991Z" fill="#ffffff"/>
</svg>
