<svg width="14" height="16" viewBox="0 0 14 16" fill="none" xmlns="http://www.w3.org/2000/svg">
<path d="M11.9491 6.08094C12.1153 6.08094 12.266 6.15344 12.3852 6.27594C12.4962 6.40677 12.5521 6.56927 12.5359 6.74094C12.5359 6.7976 12.0918 10.7475 11.8381 13.1117C11.6793 14.5625 10.744 15.4433 9.34108 15.4675C8.26235 15.4917 8.04128 15.5 7.00308 15.5C5.90085 15.5 5.65627 15.4917 4.60997 15.4675C3.25407 15.435 2.31799 14.5383 2.16724 13.1117C1.90627 10.7392 1.47025 6.7976 1.46214 6.74094C1.45404 6.56927 1.50915 6.40677 1.62099 6.27594C1.73121 6.15344 1.89007 6.08094 2.05702 6.08094H11.9491ZM8.72052 0.5C9.45723 0.5 10.1153 1.01416 10.3058 1.74749L10.4419 2.35581C10.5522 2.85164 10.9817 3.20247 11.4761 3.20247H13.0725C13.3967 3.20247 13.6666 3.47164 13.6666 3.81413V4.1308C13.6666 4.46496 13.3967 4.74246 13.0725 4.74246H0.92813C0.603135 4.74246 0.333252 4.46496 0.333252 4.1308V3.81413C0.333252 3.47164 0.603135 3.20247 0.92813 3.20247H2.52456C3.01813 3.20247 3.44767 2.85164 3.5587 2.35665L3.68595 1.78832C3.8837 1.01416 4.5345 0.5 5.27931 0.5H8.72052Z" fill="white"/>
</svg>
