<svg width="68" height="68" viewBox="0 0 68 68" fill="none" xmlns="http://www.w3.org/2000/svg">
<path d="M48.446 0.666668C59.7437 0.666668 67.3333 8.59371 67.3333 20.3891V47.6109C67.3333 59.4063 59.7437 67.3333 48.4427 67.3333H19.5539C8.25631 67.3333 0.666656 59.4063 0.666656 47.6109V20.3891C0.666656 8.59371 8.25631 0.666668 19.5539 0.666668H48.446ZM52.122 35.8335C48.5488 33.6044 45.7902 36.7348 45.0461 37.7358C44.3287 38.7024 43.712 39.7688 43.0617 40.8352C41.4729 43.4668 39.6528 46.5009 36.502 48.2656C31.9233 50.8008 28.4473 48.4651 25.9468 46.7657C25.0083 46.1328 24.0965 45.5342 23.1882 45.1352C20.9491 44.1686 18.9346 45.2694 15.9447 49.0671C14.376 51.0519 12.8207 53.0196 11.2453 54.9804C10.3034 56.1534 10.528 57.9629 11.7983 58.7472C13.8263 59.9959 16.3 60.6667 19.0955 60.6667H47.1879C48.7734 60.6667 50.3622 60.45 51.8773 59.9546C55.2895 58.84 57.9979 56.2876 59.4124 52.9164C60.6057 50.0819 61.1856 46.6419 60.0694 43.7798C59.6973 42.8304 59.1409 41.9463 58.3599 41.1689C56.3119 39.1359 54.3979 37.237 52.122 35.8335ZM22.3295 14C17.734 14 14 17.7391 14 22.3333C14 26.9276 17.734 30.6667 22.3295 30.6667C26.9217 30.6667 30.659 26.9276 30.659 22.3333C30.659 17.7391 26.9217 14 22.3295 14Z" fill="#686464"/>
</svg>
