<svg width="16" height="16" viewBox="0 0 16 16" fill="none" xmlns="http://www.w3.org/2000/svg">
<path d="M8.00016 1.33325C11.6746 1.33325 14.6668 4.32409 14.6668 8.00378C14.6668 11.6758 11.6746 14.6666 8.00016 14.6666C4.32577 14.6666 1.3335 11.6758 1.3335 8.00378C1.3335 4.32409 4.32577 1.33325 8.00016 1.33325ZM7.24083 5.35319C7.09926 5.35319 6.96413 5.38535 6.83543 5.44967C6.67455 5.53972 6.54585 5.68122 6.47507 5.84845C6.43002 5.96422 6.35924 6.31154 6.35924 6.31798C6.28845 6.69746 6.24984 7.31492 6.24984 7.9967C6.24984 8.64697 6.28845 9.23806 6.34637 9.62397C6.3528 9.63041 6.42359 10.0613 6.50081 10.2093C6.64238 10.4794 6.91908 10.6466 7.21509 10.6466H7.24083C7.43388 10.6402 7.83929 10.473 7.83929 10.4666C8.5214 10.1835 9.86631 9.30238 10.4069 8.71708L10.4455 8.67848C10.5163 8.60773 10.6063 8.49839 10.6256 8.47266C10.7286 8.33759 10.7801 8.17036 10.7801 8.00378C10.7801 7.81661 10.7222 7.64295 10.6128 7.50145C10.587 7.47572 10.4905 7.36638 10.4004 7.27633C9.87275 6.71032 8.49566 5.78413 7.77494 5.50112C7.66554 5.45674 7.38884 5.35962 7.24083 5.35319Z" fill="white"/>
</svg>
