<svg width="14" height="14" viewBox="0 0 14 14" fill="none" xmlns="http://www.w3.org/2000/svg">
<path fill-rule="evenodd" clip-rule="evenodd" d="M12.3333 7.00004C12.3333 9.94556 9.94544 12.3334 6.99992 12.3334C4.0544 12.3334 1.66659 9.94556 1.66659 7.00004C1.66659 4.05452 4.0544 1.66671 6.99992 1.66671C9.94544 1.66671 12.3333 4.05452 12.3333 7.00004ZM13.6666 7.00004C13.6666 10.6819 10.6818 13.6667 6.99992 13.6667C3.31802 13.6667 0.333252 10.6819 0.333252 7.00004C0.333252 3.31814 3.31802 0.333374 6.99992 0.333374C10.6818 0.333374 13.6666 3.31814 13.6666 7.00004ZM6.39015 4.94097C6.39015 4.6045 6.661 4.33337 6.99711 4.33337C7.33322 4.33337 7.60406 4.6045 7.60406 4.94097V6.38682H9.05963C9.39574 6.38682 9.66659 6.65795 9.66659 6.99442C9.66659 7.33145 9.39582 7.60035 9.06268 7.6076L9.05963 7.60767L7.60406 7.60764V9.05911C7.60406 9.39558 7.33322 9.66671 6.99711 9.66671C6.661 9.66671 6.39015 9.39558 6.39015 9.05911V7.60764H4.93715C4.60401 7.60039 4.33325 7.33145 4.33325 6.99442C4.33325 6.83136 4.39954 6.68011 4.50613 6.56629L4.50923 6.56298L4.51254 6.55988C4.6263 6.45311 4.77797 6.38682 4.94021 6.38682H6.39015V4.94097Z" fill="white"/>
</svg>
