<svg width="18" height="20" viewBox="0 0 18 20" fill="none" xmlns="http://www.w3.org/2000/svg">
<path fill-rule="evenodd" clip-rule="evenodd" d="M13 3.3237e-05C13.4922 0.000377375 13.998 0.32884 13.999 0.76862L14 2.01028C16.7546 2.22617 17.9862 3.6112 17.9891 6.48976L18 14.9155C18.0039 18.054 16.0322 19.985 12.8718 19.99L5.15189 20C2.0112 20.004 0.0148258 18.027 0.0108765 14.8796L9.25629e-06 6.55272C-0.00393341 3.65518 1.25151 2.27515 4.00616 2.02228L4.00517 0.780615C4.00418 0.340836 4.50616 0.000657151 4.99998 9.45014e-07C5.49401 -0.000653648 5.99603 0.338837 5.99702 0.778616L5.99801 1.9703L12 1.9623L11.999 0.770618C11.998 0.330839 12.5067 -0.000311662 13 3.3237e-05ZM12.002 3.99206L6 4.00006L6.00099 5.23844C6.00099 5.66923 5.4912 6.00234 5 6.00006C4.51243 5.9978 4.00914 5.67123 4.00914 5.24044L4.00816 3.99206C3 4.00006 1.99997 4.50006 1.99997 6.55072V9.00006H16V6.50003C16 4.50006 15 3.99206 14.01 4.00006L14.003 5.22942C14.003 5.6592 13.4981 5.99853 13.0059 6.00006C12.5125 6.0016 12.003 5.6612 12.003 5.23142L12.002 3.99206ZM4 14.0001C4 14.5523 4.44772 15.0001 5 15.0001C5.55228 15.0001 6 14.5523 6 14.0001C6 13.4478 5.55228 13.0001 5 13.0001C4.44772 13.0001 4 13.4478 4 14.0001ZM10 14.0001C10 13.4478 10.4477 13.0001 11 13.0001H13C13.5523 13.0001 14 13.4478 14 14.0001C14 14.5523 13.5523 15.0001 13 15.0001H11C10.4477 15.0001 10 14.5523 10 14.0001Z" fill="#827D7D"/>
</svg>
