<svg width="8" height="7" viewBox="0 0 8 7" fill="none" xmlns="http://www.w3.org/2000/svg">
<path d="M1.86837 0.631675C1.66497 0.428276 1.33519 0.428276 1.1318 0.631675C0.928399 0.835073 0.928399 1.16485 1.1318 1.36824L3.26351 3.49996L1.1318 5.63167C0.928399 5.83507 0.928399 6.16484 1.1318 6.36824C1.33519 6.57164 1.66497 6.57164 1.86837 6.36824L4.00008 4.23653L6.1318 6.36824C6.33519 6.57164 6.66497 6.57164 6.86837 6.36824C7.07176 6.16484 7.07176 5.83507 6.86837 5.63167L4.73665 3.49996L6.86837 1.36824C7.07176 1.16485 7.07176 0.835073 6.86837 0.631675C6.66497 0.428276 6.33519 0.428276 6.1318 0.631675L4.00008 2.76339L1.86837 0.631675Z" fill="black"/>
</svg>
