<svg width="14" height="14" viewBox="0 0 14 14" fill="none" xmlns="http://www.w3.org/2000/svg">
<path d="M6.4869 3.86043V1.18775C6.4869 0.903568 6.71356 0.666748 7.00023 0.666748C7.2569 0.666748 7.47435 0.865742 7.50881 1.1178L7.51356 1.18775V3.86043L10.7002 3.86063C12.2868 3.86063 13.5904 5.15994 13.6636 6.78035L13.6668 6.92414V10.2837C13.6668 11.9154 12.4086 13.2549 10.8455 13.3301L10.7068 13.3334H3.2935C1.70683 13.3334 0.409556 12.0406 0.336721 10.4142L0.333496 10.2699V6.91726C0.333496 5.28548 1.58544 3.93956 3.14816 3.86398L3.28683 3.86063H6.48683V8.12889L5.42016 7.02741C5.22016 6.82088 4.8935 6.82088 4.6935 7.02741C4.5935 7.13067 4.54683 7.26836 4.54683 7.40604C4.54683 7.51068 4.5767 7.61973 4.63984 7.71203L4.6935 7.77779L6.6335 9.788C6.72683 9.89127 6.86016 9.94634 7.00016 9.94634C7.11127 9.94634 7.22238 9.9081 7.31035 9.83559L7.36016 9.788L9.30016 7.77779C9.50016 7.57126 9.50016 7.23393 9.30016 7.02741C9.11834 6.83965 8.83184 6.82258 8.63099 6.9762L8.5735 7.02741L7.5135 8.12889V3.86063L6.4869 3.86043Z" fill="white"/>
</svg>
