<svg width="18" height="18" viewBox="0 0 18 18" fill="none" xmlns="http://www.w3.org/2000/svg">
<path fill-rule="evenodd" clip-rule="evenodd" d="M12.3665 0.842022L14.5929 3.27302C15.0989 3.82543 15.5444 4.43462 15.9214 5.08942C16.8453 6.69406 17.3333 8.5302 17.3333 10.4015V13.4167C17.3333 13.969 16.8856 14.4167 16.3333 14.4167H15.6274C14.9257 14.4167 14.1853 14.205 14 13.9243C13.8148 13.6435 13.8148 12.0682 13.8148 12.0682C13.8148 10.1969 13.3268 8.36073 12.4029 6.75609C12.0259 6.10129 11.5803 5.4921 11.0744 4.93969L9.53308 3.25671L11.7445 0.842022C11.9163 0.608242 12.1948 0.608242 12.3665 0.842022ZM8.48194 6.18967L6.25553 3.75867C6.08378 3.52489 5.8053 3.52489 5.63354 3.75867L3.40714 6.18967C2.90122 6.74208 2.45567 7.35127 2.07867 8.00607C1.15478 9.61071 0.666748 11.4468 0.666748 13.3182V16.3334C0.666748 16.8856 1.11446 17.3334 1.66675 17.3334H10.2223C10.7746 17.3334 11.2223 16.8856 11.2223 16.3333V13.3182C11.2223 11.4468 10.7343 9.61071 9.81041 8.00607C9.4334 7.35127 8.98786 6.74208 8.48194 6.18967Z" fill="white"/>
</svg>
