<svg width="16" height="16" viewBox="0 0 16 16" fill="none" xmlns="http://www.w3.org/2000/svg">
<path fill-rule="evenodd" clip-rule="evenodd" d="M7.33317 1.16669C3.92741 1.16669 1.1665 3.9276 1.1665 7.33335C1.1665 10.7391 3.92741 13.5 7.33317 13.5C8.73526 13.5 10.0287 13.0317 11.0646 12.2433L13.4106 14.5893C13.736 14.9147 14.2637 14.9147 14.5891 14.5893C14.9145 14.2638 14.9145 13.7362 14.5891 13.4108L12.2431 11.0648C13.0315 10.0289 13.4998 8.73544 13.4998 7.33335C13.4998 3.9276 10.7389 1.16669 7.33317 1.16669ZM2.83317 7.33335C2.83317 4.84807 4.84789 2.83335 7.33317 2.83335C9.81845 2.83335 11.8332 4.84807 11.8332 7.33335C11.8332 8.54176 11.3573 9.63834 10.582 10.447C10.5572 10.4667 10.5334 10.488 10.5106 10.5108C10.4878 10.5335 10.4666 10.5574 10.4468 10.5822C9.63815 11.3575 8.54157 11.8334 7.33317 11.8334C4.84789 11.8334 2.83317 9.81863 2.83317 7.33335Z" fill="#9B9797"/>
</svg>
