<svg width="20" height="20" viewBox="0 0 20 20" fill="none" xmlns="http://www.w3.org/2000/svg">
<path fill-rule="evenodd" clip-rule="evenodd" d="M9.46822 1.88772C8.94572 1.21856 8.14914 0.824393 7.29572 0.833403H5.8474C2.51991 0.833403 0.833252 2.75855 0.833252 6.55354V13.4377C0.833252 16.9852 3.02408 19.1668 6.55323 19.1668H13.4374C16.9848 19.1668 19.1665 16.9852 19.1665 13.4468V8.98269C19.1757 5.27937 17.5257 3.47355 14.1432 3.47355H11.329C10.9165 3.47355 10.5315 3.28105 10.2749 2.96022L9.46822 1.88772ZM13.0759 7.76682L11.8514 6.42978C11.7569 6.3012 11.6038 6.3012 11.5093 6.42978L10.293 7.75785L11.1408 8.68348C11.419 8.98731 11.664 9.32236 11.8714 9.6825C12.3795 10.565 12.6479 11.5749 12.6479 12.6041V13.6666C12.9504 13.8958 13.3476 13.8958 13.6449 13.8958H14.0831C14.3592 13.8958 14.5831 13.672 14.5831 13.3958V11.6875C14.5831 10.6583 14.3147 9.64838 13.8065 8.76583C13.5992 8.4057 13.3541 8.07064 13.0759 7.76682ZM8.49033 8.03394L9.71483 9.37098C9.99308 9.6748 10.2381 10.0099 10.4455 10.37C10.9536 11.2525 11.222 12.2624 11.222 13.2916V15C11.222 15.2761 10.9982 15.5 10.722 15.5H5.91656C5.64042 15.5 5.41656 15.2761 5.41656 15V13.2916C5.41656 12.2624 5.68498 11.2525 6.1931 10.37C6.40045 10.0099 6.6455 9.6748 6.92375 9.37098L8.14824 8.03394C8.24271 7.90536 8.39587 7.90536 8.49033 8.03394Z" fill="white"/>
</svg>
