<svg width="24" height="32" viewBox="0 0 24 32" fill="none" xmlns="http://www.w3.org/2000/svg">
<path d="M0 0H20C22.2091 0 24 1.79086 24 4V28C24 30.2091 22.2091 32 20 32H0V0Z" fill="#413F3F"/>
<path d="M14.003 11.8294C14.2453 11.503 14.2187 11.0401 13.9226 10.7441C13.5972 10.4186 13.0695 10.4186 12.7441 10.7441L8.0688 15.4194L8.00436 15.494L7.99703 15.5039C7.75479 15.8304 7.78137 16.2932 8.07743 16.5893L12.7527 21.2646L12.8274 21.329L12.8373 21.3363C13.1637 21.5786 13.6265 21.552 13.9226 21.2559L13.9312 21.2473L13.9957 21.1726L14.003 21.1628C14.2453 20.8363 14.2187 20.3735 13.9226 20.0774L9.84541 16L13.9312 11.914L13.9957 11.8393L14.003 11.8294Z" fill="#686464"/>
</svg>
