<svg width="18" height="18" viewBox="0 0 18 18" fill="none" xmlns="http://www.w3.org/2000/svg">
<path d="M14.7017 10.1491H12.9473V12.7807H10.3157V14.5351H12.9473V17.1667H14.7017V14.5351H17.3333V12.7807H14.7017V10.1491ZM1.54382 14.5351H4.1754V12.7807H2.42101V11.0263H0.666626V13.6579C0.666626 14.143 1.05873 14.5351 1.54382 14.5351ZM14.7017 1.37719C14.7017 0.892105 14.3096 0.5 13.8245 0.5H11.1929V2.25439H12.9473V4.00877H14.7017V1.37719ZM2.42101 2.25439H4.1754V0.5H1.54382C1.05873 0.5 0.666626 0.892105 0.666626 1.37719V4.00877H2.42101V2.25439ZM0.666626 5.76316H2.42101V9.27193H0.666626V5.76316ZM12.9473 5.76316H14.7017V8.39474H12.9473V5.76316ZM5.92978 0.5H9.43856V2.25439H5.92978V0.5ZM5.92978 12.7807H8.56136V14.5351H5.92978V12.7807Z" fill="#343232"/>
</svg>
