<svg width="14" height="14" viewBox="0 0 14 14" fill="none" xmlns="http://www.w3.org/2000/svg">
<path d="M6.99992 0.333252C10.6743 0.333252 13.6666 3.32409 13.6666 7.00378C13.6666 10.6758 10.6743 13.6666 6.99992 13.6666C3.32553 13.6666 0.333252 10.6758 0.333252 7.00378C0.333252 3.32409 3.32553 0.333252 6.99992 0.333252ZM6.24059 4.35319C6.09902 4.35319 5.96388 4.38535 5.83518 4.44967C5.67431 4.53972 5.54561 4.68122 5.47482 4.84845C5.42978 4.96422 5.35899 5.31154 5.35899 5.31798C5.28821 5.69746 5.2496 6.31492 5.2496 6.9967C5.2496 7.64697 5.28821 8.23806 5.34612 8.62397C5.35256 8.63041 5.42334 9.06134 5.50056 9.20928C5.64213 9.47942 5.91884 9.64665 6.21485 9.64665H6.24059C6.43364 9.64021 6.83904 9.47299 6.83904 9.46655C7.52115 9.18355 8.86607 8.30238 9.40661 7.71708L9.44522 7.67848C9.51601 7.60773 9.6061 7.49839 9.6254 7.47266C9.72836 7.33759 9.77984 7.17036 9.77984 7.00378C9.77984 6.81661 9.72193 6.64295 9.61253 6.50145C9.58679 6.47572 9.49027 6.36638 9.40018 6.27633C8.87251 5.71032 7.49541 4.78413 6.77469 4.50112C6.6653 4.45674 6.38859 4.35962 6.24059 4.35319Z" fill="white"/>
</svg>
