<?xml version="1.0" encoding="UTF-8" standalone="no"?>
<!DOCTYPE svg PUBLIC "-//W3C//DTD SVG 1.1//EN" "http://www.w3.org/Graphics/SVG/1.1/DTD/svg11.dtd">
<svg width="100%" height="100%" viewBox="0 0 119 91" version="1.1" xmlns="http://www.w3.org/2000/svg" xmlns:xlink="http://www.w3.org/1999/xlink" xml:space="preserve" xmlns:serif="http://www.serif.com/" style="fill-rule:evenodd;clip-rule:evenodd;stroke-linejoin:round;stroke-miterlimit:2;">
    <g transform="matrix(0.243767,0,0,0.243767,44.9959,34.4086)">
        <g transform="matrix(2.00087,0,0,2.00087,-2127.28,-2559.99)">
            <path d="M1026.48,1282.61C1026.32,1282.59 1026.16,1282.56 1026,1282.53C1024.9,1282.35 1024.03,1281.5 1023.83,1280.42C1023.03,1276.47 1019.53,1273.49 1015.34,1273.49C1012.17,1273.49 1009.39,1275.2 1007.88,1277.75L1007.89,1277.74C1007.33,1278.7 1006.24,1279.21 1005.15,1279.03C999.86,1278.14 975.472,1274.05 975.472,1274.05C972.849,1273.61 970.928,1271.34 970.928,1268.68C970.928,1267.82 970.928,1266.91 970.928,1266.08C970.928,1263.83 972.757,1262 975.013,1262L1061.62,1262C1062.31,1262 1062.87,1262.56 1062.87,1263.25L1062.87,1287.25C1062.87,1287.62 1062.71,1287.96 1062.43,1288.2C1062.15,1288.44 1061.78,1288.54 1061.42,1288.48C1061.42,1288.48 1051.11,1286.75 1047.72,1286.18C1046.56,1285.99 1045.67,1285.06 1045.52,1283.91C1044.92,1279.72 1041.31,1276.5 1036.95,1276.5C1033.6,1276.5 1030.69,1278.4 1029.25,1281.18C1028.73,1282.2 1027.62,1282.78 1026.48,1282.61ZM1060.37,1264.5L975.013,1264.5C974.137,1264.5 973.427,1265.21 973.427,1266.08C973.427,1266.91 973.427,1267.82 973.427,1268.68C973.427,1270.12 974.466,1271.35 975.886,1271.59C975.886,1271.59 1000.27,1275.68 1005.56,1276.56C1005.63,1276.57 1005.69,1276.54 1005.73,1276.48L1005.73,1276.47C1007.68,1273.19 1011.26,1270.99 1015.34,1270.99C1020.74,1270.99 1025.25,1274.83 1026.28,1279.93C1026.29,1280 1026.35,1280.06 1026.42,1280.07C1026.54,1280.09 1026.66,1280.11 1026.78,1280.12C1026.81,1280.13 1026.83,1280.13 1026.85,1280.13C1026.92,1280.15 1026.99,1280.11 1027.03,1280.04C1028.89,1276.45 1032.63,1274 1036.95,1274C1042.57,1274 1047.22,1278.15 1047.99,1283.57C1048,1283.64 1048.06,1283.7 1048.13,1283.72L1060.37,1285.77L1060.37,1264.5Z" style="fill:rgb(77,77,79);"/>
        </g>
        <g transform="matrix(1.86601,0,0,1.86601,-1976.76,-2390.24)">
            <path d="M1031.22,1278.82C1026.08,1278.82 1021.9,1283 1021.9,1288.14C1021.9,1293.29 1026.08,1297.47 1031.22,1297.47C1036.37,1297.47 1040.55,1293.29 1040.55,1288.14C1040.55,1283 1036.37,1278.82 1031.22,1278.82ZM1031.22,1281.5C1034.89,1281.5 1037.87,1284.48 1037.87,1288.14C1037.87,1291.81 1034.89,1294.79 1031.22,1294.79C1027.56,1294.79 1024.58,1291.81 1024.58,1288.14C1024.58,1284.48 1027.56,1281.5 1031.22,1281.5Z" style="fill:rgb(77,77,79);"/>
        </g>
        <g transform="matrix(1.86601,0,0,1.86601,-2019.99,-2396.26)">
            <path d="M1031.22,1278.82C1026.08,1278.82 1021.9,1283 1021.9,1288.14C1021.9,1293.29 1026.08,1297.47 1031.22,1297.47C1036.37,1297.47 1040.55,1293.29 1040.55,1288.14C1040.55,1283 1036.37,1278.82 1031.22,1278.82ZM1031.22,1281.5C1034.89,1281.5 1037.87,1284.48 1037.87,1288.14C1037.87,1291.81 1034.89,1294.79 1031.22,1294.79C1027.56,1294.79 1024.58,1291.81 1024.58,1288.14C1024.58,1284.48 1027.56,1281.5 1031.22,1281.5Z" style="fill:rgb(77,77,79);"/>
        </g>
        <g transform="matrix(1.67514,0,0,1.45524,-1774.27,-1866.73)">
            <path d="M1096.19,1265.55C1096.2,1264.49 1095.84,1263.47 1095.19,1262.71C1094.54,1261.95 1093.65,1261.53 1092.73,1261.53C1086.83,1261.53 1069.46,1261.53 1063.59,1261.53C1062.67,1261.53 1061.79,1261.95 1061.14,1262.7C1060.5,1263.44 1060.13,1264.46 1060.13,1265.51C1060.13,1270.13 1060.13,1280.58 1060.13,1285.1C1060.13,1287.22 1061.57,1288.97 1063.41,1289.08C1069.13,1289.42 1086.39,1290.48 1092.36,1290.84C1093.3,1290.9 1094.22,1290.51 1094.91,1289.77C1095.59,1289.02 1095.99,1287.99 1096,1286.9L1096.19,1265.55ZM1093.2,1265.52C1093.2,1265.37 1093.15,1265.23 1093.07,1265.13C1092.98,1265.02 1092.85,1264.97 1092.73,1264.97C1086.83,1264.97 1069.46,1264.97 1063.59,1264.97C1063.46,1264.97 1063.34,1265.02 1063.26,1265.13C1063.17,1265.23 1063.12,1265.37 1063.12,1265.51C1063.12,1270.13 1063.12,1280.58 1063.12,1285.1C1063.12,1285.39 1063.31,1285.63 1063.57,1285.65C1069.28,1285.99 1086.55,1287.05 1092.51,1287.41C1092.64,1287.42 1092.77,1287.36 1092.86,1287.26C1092.96,1287.16 1093.01,1287.02 1093.01,1286.87L1093.2,1265.52Z" style="fill:rgb(77,77,79);"/>
        </g>
        <g transform="matrix(-1.67514,0,0,1.45524,1893.27,-1866.73)">
            <path d="M1096.19,1265.55L1096,1286.9C1095.99,1287.99 1095.59,1289.02 1094.91,1289.77C1094.22,1290.51 1093.3,1290.9 1092.36,1290.84C1086.39,1290.48 1069.13,1289.42 1063.41,1289.08C1061.57,1288.97 1060.13,1287.22 1060.13,1285.1C1060.13,1280.58 1060.13,1270.13 1060.13,1265.51C1060.13,1264.46 1060.5,1263.44 1061.14,1262.7C1061.79,1261.95 1062.67,1261.53 1063.59,1261.53C1069.46,1261.53 1086.83,1261.53 1092.73,1261.53C1093.65,1261.53 1094.54,1261.95 1095.19,1262.71C1095.84,1263.47 1096.2,1264.49 1096.19,1265.55ZM1093.2,1265.52C1093.2,1265.37 1093.15,1265.23 1093.07,1265.13C1092.98,1265.02 1092.85,1264.97 1092.73,1264.97C1086.83,1264.97 1069.46,1264.97 1063.59,1264.97C1063.46,1264.97 1063.34,1265.02 1063.26,1265.13C1063.17,1265.23 1063.12,1265.37 1063.12,1265.51C1063.12,1270.13 1063.12,1280.58 1063.12,1285.1C1063.12,1285.39 1063.31,1285.63 1063.57,1285.65C1069.28,1285.99 1086.55,1287.05 1092.51,1287.41C1092.64,1287.42 1092.77,1287.36 1092.86,1287.26C1092.96,1287.16 1093.01,1287.02 1093.01,1286.87L1093.2,1265.52Z" style="fill:rgb(77,77,79);"/>
        </g>
        <g transform="matrix(-2.00087,0,0,2.00087,2246.28,-2559.99)">
            <path d="M1026.48,1282.61C1027.62,1282.78 1028.73,1282.2 1029.25,1281.19C1030.69,1278.4 1033.6,1276.5 1036.95,1276.5C1041.31,1276.5 1044.92,1279.72 1045.51,1283.9C1045.67,1285.06 1046.56,1285.99 1047.72,1286.18C1051.11,1286.75 1061.42,1288.48 1061.42,1288.48C1061.78,1288.54 1062.15,1288.44 1062.43,1288.2C1062.71,1287.96 1062.87,1287.62 1062.87,1287.25L1062.87,1263.25C1062.87,1262.56 1062.31,1262 1061.62,1262L975.013,1262C972.757,1262 970.928,1263.83 970.928,1266.08C970.928,1266.91 970.928,1267.82 970.928,1268.68C970.928,1271.34 972.849,1273.61 975.472,1274.05C975.472,1274.05 975.472,1274.05 975.472,1274.05C975.472,1274.05 999.86,1278.14 1005.15,1279.03C1006.24,1279.21 1007.33,1278.7 1007.89,1277.74L1007.88,1277.75C1009.39,1275.2 1012.17,1273.49 1015.34,1273.49C1019.53,1273.49 1023.03,1276.47 1023.82,1280.41C1024.03,1281.5 1024.9,1282.35 1026,1282.53C1026.16,1282.56 1026.32,1282.59 1026.48,1282.61ZM1060.37,1285.77L1048.13,1283.72C1048.06,1283.7 1048,1283.64 1047.99,1283.56C1047.22,1278.15 1042.57,1274 1036.95,1274C1032.63,1274 1028.89,1276.45 1027.02,1280.05C1026.99,1280.11 1026.92,1280.15 1026.85,1280.13C1026.83,1280.13 1026.81,1280.13 1026.78,1280.12C1026.66,1280.11 1026.54,1280.09 1026.42,1280.07C1026.35,1280.06 1026.29,1280 1026.27,1279.92C1025.25,1274.83 1020.74,1270.99 1015.34,1270.99C1011.26,1270.99 1007.68,1273.19 1005.73,1276.47L1005.73,1276.48C1005.69,1276.54 1005.63,1276.57 1005.56,1276.56C1000.27,1275.68 975.886,1271.59 975.886,1271.59C974.466,1271.35 973.427,1270.12 973.427,1268.68C973.427,1267.82 973.427,1266.91 973.427,1266.08C973.427,1265.21 974.137,1264.5 975.013,1264.5L1060.37,1264.5L1060.37,1285.77Z" style="fill:rgb(77,77,79);"/>
        </g>
        <g transform="matrix(-1.86601,0,0,1.86601,2095.76,-2390.24)">
            <path d="M1031.22,1278.82C1036.37,1278.82 1040.55,1283 1040.55,1288.14C1040.55,1293.29 1036.37,1297.47 1031.22,1297.47C1026.08,1297.47 1021.9,1293.29 1021.9,1288.14C1021.9,1283 1026.08,1278.82 1031.22,1278.82ZM1031.22,1281.5C1027.56,1281.5 1024.58,1284.48 1024.58,1288.14C1024.58,1291.81 1027.56,1294.79 1031.22,1294.79C1034.89,1294.79 1037.87,1291.81 1037.87,1288.14C1037.87,1284.48 1034.89,1281.5 1031.22,1281.5Z" style="fill:rgb(77,77,79);"/>
        </g>
        <g transform="matrix(-1.86601,0,0,1.86601,2138.99,-2396.26)">
            <path d="M1031.22,1278.82C1036.37,1278.82 1040.55,1283 1040.55,1288.14C1040.55,1293.29 1036.37,1297.47 1031.22,1297.47C1026.08,1297.47 1021.9,1293.29 1021.9,1288.14C1021.9,1283 1026.08,1278.82 1031.22,1278.82ZM1031.22,1281.5C1027.56,1281.5 1024.58,1284.48 1024.58,1288.14C1024.58,1291.81 1027.56,1294.79 1031.22,1294.79C1034.89,1294.79 1037.87,1291.81 1037.87,1288.14C1037.87,1284.48 1034.89,1281.5 1031.22,1281.5Z" style="fill:rgb(77,77,79);"/>
        </g>
        <g transform="matrix(2.00087,0,0,2.00087,-2127.28,-2559.99)">
            <path d="M1084.05,1242.53C1084.01,1242.91 1084.14,1243.29 1084.42,1243.56C1084.69,1243.83 1085.08,1243.95 1085.46,1243.9C1087.71,1243.6 1090.19,1243.43 1092.92,1243.43C1092.92,1243.43 1093.1,1243.43 1093.1,1243.43C1095.46,1243.43 1097.64,1243.57 1099.65,1243.81C1100.03,1243.86 1100.41,1243.73 1100.68,1243.46C1100.95,1243.19 1101.08,1242.81 1101.04,1242.43L1097.95,1213.93C1097.71,1211.71 1095.83,1210.02 1093.59,1210.02C1092.91,1210.02 1092.19,1210.02 1091.51,1210.02C1089.27,1210.02 1087.39,1211.71 1087.15,1213.93C1087.15,1213.93 1084.05,1242.53 1084.05,1242.53ZM1098.39,1241.17L1095.47,1214.2C1095.36,1213.25 1094.55,1212.52 1093.59,1212.52C1092.91,1212.52 1092.19,1212.52 1091.51,1212.52C1090.55,1212.52 1089.74,1213.25 1089.63,1214.2L1086.7,1241.24C1088.62,1241.04 1090.69,1240.93 1092.92,1240.93L1093.1,1240.93C1094.97,1240.93 1096.74,1241.02 1098.39,1241.17Z" style="fill:rgb(77,77,79);"/>
        </g>
        <g transform="matrix(2.00087,0,0,2.00087,-2127.28,-2559.99)">
            <path d="M1092.33,1319.39L1093.51,1319.39C1096.44,1319.39 1099.34,1318.8 1102.04,1317.66C1110.03,1314.15 1125.46,1305.07 1125.46,1287.25L1125.46,1263.25C1125.46,1263.24 1125.46,1263.23 1125.46,1263.22C1125.46,1263.22 1125.3,1255.16 1118.11,1248.7C1113.45,1244.52 1105.78,1240.96 1093.1,1240.93L1092.92,1240.93C1080.17,1240.93 1072.46,1244.48 1067.77,1248.66C1060.53,1255.12 1060.38,1263.22 1060.38,1263.22C1060.37,1263.23 1060.37,1263.24 1060.37,1263.25L1060.37,1287.25C1060.37,1305.07 1075.8,1314.15 1083.78,1317.65C1086.5,1318.8 1089.4,1319.39 1092.33,1319.39L1092.33,1319.39ZM1093.51,1316.89L1092.33,1316.89C1089.73,1316.89 1087.16,1316.37 1084.77,1315.36C1077.37,1312.11 1062.87,1303.8 1062.87,1287.25C1062.87,1287.25 1062.87,1263.25 1062.87,1263.25C1062.87,1263.28 1063.08,1256.2 1069.43,1250.53C1073.8,1246.62 1081.03,1243.43 1092.92,1243.43C1092.92,1243.43 1093.1,1243.43 1093.1,1243.43C1104.91,1243.46 1112.09,1246.66 1116.44,1250.56C1122.76,1256.23 1122.96,1263.28 1122.96,1263.28C1122.96,1263.25 1122.96,1287.25 1122.96,1287.25C1122.96,1303.8 1108.46,1312.11 1101.05,1315.36C1098.67,1316.37 1096.1,1316.89 1093.51,1316.89Z" style="fill:rgb(77,77,79);"/>
        </g>
        <g transform="matrix(2.00087,0,0,2.00087,-2129.14,-2578.14)">
            <path d="M1112.14,1334.3C1112.14,1334.3 1114.86,1338.99 1120.57,1343.67C1126.07,1348.2 1190.88,1403.12 1190.88,1403.12C1191.41,1403.57 1192.2,1403.5 1192.64,1402.97C1193.09,1402.45 1193.02,1401.66 1192.5,1401.21C1192.5,1401.21 1127.66,1346.27 1122.15,1341.74C1116.84,1337.39 1114.3,1333.04 1114.3,1333.04C1113.95,1332.44 1113.18,1332.24 1112.59,1332.59C1111.99,1332.94 1111.79,1333.7 1112.14,1334.3Z" style="fill:rgb(77,77,79);"/>
        </g>
        <g transform="matrix(-2.00087,0,0,2.00087,2248.14,-2578.14)">
            <path d="M1114.3,1333.04C1114.3,1333.04 1116.84,1337.39 1122.15,1341.74C1127.66,1346.27 1192.5,1401.21 1192.5,1401.21C1193.02,1401.66 1193.09,1402.45 1192.64,1402.97C1192.2,1403.5 1191.41,1403.57 1190.88,1403.12C1190.88,1403.12 1126.07,1348.2 1120.57,1343.67C1114.86,1338.99 1112.14,1334.3 1112.14,1334.3C1111.79,1333.7 1111.99,1332.94 1112.59,1332.59C1113.18,1332.24 1113.95,1332.44 1114.3,1333.04Z" style="fill:rgb(77,77,79);"/>
        </g>
        <g transform="matrix(2.00087,0,0,2.00087,-2127.28,-2580)">
            <path d="M1091.67,1379.58L1091.67,1394.57C1091.67,1395.26 1092.23,1395.82 1092.92,1395.82C1093.61,1395.82 1094.17,1395.26 1094.17,1394.57L1094.17,1379.58C1094.17,1378.89 1093.61,1378.33 1092.92,1378.33C1092.23,1378.33 1091.67,1378.89 1091.67,1379.58ZM1091.67,1334.6L1091.67,1349.59C1091.67,1350.28 1092.23,1350.84 1092.92,1350.84C1093.61,1350.84 1094.17,1350.28 1094.17,1349.59L1094.17,1334.6C1094.17,1333.91 1093.61,1333.35 1092.92,1333.35C1092.23,1333.35 1091.67,1333.91 1091.67,1334.6Z" style="fill:rgb(77,77,79);"/>
        </g>
    </g>
</svg>
