<?xml version="1.0" encoding="UTF-8" standalone="no"?>
<!DOCTYPE svg PUBLIC "-//W3C//DTD SVG 1.1//EN" "http://www.w3.org/Graphics/SVG/1.1/DTD/svg11.dtd">
<svg width="100%" height="100%" viewBox="0 0 119 91" version="1.1" xmlns="http://www.w3.org/2000/svg" xmlns:xlink="http://www.w3.org/1999/xlink" xml:space="preserve" xmlns:serif="http://www.serif.com/" style="fill-rule:evenodd;clip-rule:evenodd;stroke-linejoin:round;stroke-miterlimit:2;">
    <g transform="matrix(0.244625,0,0,0.244625,44.9448,34.3696)">
        <g transform="matrix(1.06936,0,0,0.38999,-1352.49,-895.681)">
            <path d="M1317.48,2039.25L1401.69,2039.25C1403.54,2039.25 1405.09,2035.39 1405.26,2030.33C1405.44,2025.27 1404.18,2020.68 1402.36,2019.74C1380.23,2008.26 1336.68,1985.67 1324.24,1979.21C1321.72,1977.9 1319.13,1977.86 1316.6,1979.09C1303.67,1985.36 1257.1,2007.93 1233.48,2019.38C1231.65,2020.26 1230.37,2024.84 1230.53,2029.92C1230.69,2035 1232.24,2038.9 1234.1,2038.91C1261.14,2039.02 1317.48,2039.25 1317.48,2039.25ZM1390.11,2026.43L1323.37,1991.81C1321.41,1990.79 1319.39,1990.76 1317.42,1991.71L1246.38,2026.14L1317.49,2026.43L1390.11,2026.43Z" style="fill:rgb(95,95,97);"/>
        </g>
        <g transform="matrix(1.09373,0,0,2.31278,-827.362,-3085.85)">
            <path d="M923.057,1286.11C923.057,1284.68 920.914,1283.45 917.947,1283.18C903.081,1281.82 841.493,1276.18 820.013,1274.21C814.82,1273.74 809.484,1273.73 804.287,1274.19C782.426,1276.15 718.956,1281.83 703.806,1283.18C700.826,1283.45 698.669,1284.68 698.669,1286.11C698.669,1302.04 698.669,1433.28 698.669,1433.28C698.669,1433.87 699.693,1434.36 700.955,1434.36L920.771,1434.36C922.033,1434.36 923.057,1433.87 923.057,1433.28L923.057,1286.11ZM918.485,1432.19L918.485,1286.11C918.485,1285.71 917.895,1285.38 917.078,1285.3C902.212,1283.94 840.624,1278.3 819.144,1276.33C814.519,1275.91 809.766,1275.9 805.137,1276.32C783.276,1278.27 719.806,1283.95 704.655,1285.31C703.835,1285.38 703.241,1285.72 703.241,1286.11L703.241,1432.19L918.485,1432.19Z" style="fill:rgb(95,95,97);"/>
        </g>
        <g transform="matrix(0.325495,0,0,1.62659,-360.416,-2138.64)">
            <path d="M928.451,1277.3C928.451,1274.95 918.96,1273.06 907.252,1273.06C867.915,1273.06 753.811,1273.06 714.473,1273.06C702.766,1273.06 693.274,1274.95 693.274,1277.3C693.274,1298.21 693.274,1433.28 693.274,1433.28C693.274,1434.12 696.713,1434.81 700.955,1434.81L920.771,1434.81C925.013,1434.81 928.451,1434.12 928.451,1433.28L928.451,1277.3ZM913.09,1277.3C913.09,1276.65 910.477,1276.13 907.252,1276.13C867.915,1276.13 753.811,1276.13 714.473,1276.13C711.249,1276.13 708.636,1276.65 708.636,1277.3L708.636,1431.74L913.09,1431.74L913.09,1277.3Z" style="fill:rgb(95,95,97);"/>
        </g>
        <g transform="matrix(0.511439,0,0,0.228731,-531.627,-98.8355)">
            <path d="M925.659,1274.59C925.659,1268.56 923.471,1263.66 920.771,1263.66L709.559,1263.66C705.98,1263.66 702.549,1266.84 700.018,1272.5C697.488,1278.15 696.067,1285.83 696.067,1293.83C696.067,1336.09 696.067,1433.28 696.067,1433.28C696.067,1439.31 698.255,1444.2 700.955,1444.2L920.771,1444.2C923.471,1444.2 925.659,1439.31 925.659,1433.28L925.659,1274.59ZM915.883,1285.52L709.559,1285.52C708.573,1285.52 707.628,1286.4 706.931,1287.95C706.235,1289.51 705.843,1291.63 705.843,1293.83L705.843,1422.35L915.883,1422.35L915.883,1285.52Z" style="fill:rgb(95,95,97);"/>
        </g>
        <g transform="matrix(0.243489,0,0,0.228731,-284.907,-393.242)">
            <path d="M931.038,1293.83C931.038,1277.17 918.351,1263.66 902.7,1263.66C861.373,1263.66 760.353,1263.66 719.026,1263.66C703.375,1263.66 690.688,1277.17 690.688,1293.83C690.688,1336.09 690.688,1433.28 690.688,1433.28C690.688,1439.31 695.284,1444.2 700.955,1444.2L920.771,1444.2C926.441,1444.2 931.038,1439.31 931.038,1433.28L931.038,1293.83ZM910.503,1422.35L910.503,1293.83C910.503,1289.24 907.01,1285.52 902.7,1285.52C861.373,1285.52 760.353,1285.52 719.026,1285.52C714.716,1285.52 711.222,1289.24 711.222,1293.83L711.222,1422.35L910.503,1422.35Z" style="fill:rgb(95,95,97);"/>
        </g>
        <g transform="matrix(0.118387,0,0,0.179302,-124.674,-310.929)">
            <path d="M941.888,1274.59C941.888,1266.89 932.434,1260.65 920.771,1260.65L700.955,1260.65C689.292,1260.65 679.838,1266.89 679.838,1274.59C679.838,1274.59 679.838,1433.28 679.838,1433.28C679.838,1440.98 689.292,1447.22 700.955,1447.22L920.771,1447.22C932.434,1447.22 941.888,1440.98 941.888,1433.28C941.888,1433.28 941.888,1274.59 941.888,1274.59ZM722.072,1288.54L722.072,1419.33L899.654,1419.33L899.654,1288.54L722.072,1288.54Z" style="fill:rgb(95,95,97);"/>
        </g>
        <g transform="matrix(0.118387,0,0,0.179302,-124.674,-273.195)">
            <path d="M941.888,1274.59C941.888,1266.89 932.434,1260.65 920.771,1260.65L700.955,1260.65C689.292,1260.65 679.838,1266.89 679.838,1274.59C679.838,1274.59 679.838,1433.28 679.838,1433.28C679.838,1440.98 689.292,1447.22 700.955,1447.22L920.771,1447.22C932.434,1447.22 941.888,1440.98 941.888,1433.28C941.888,1433.28 941.888,1274.59 941.888,1274.59ZM722.072,1288.54L722.072,1419.33L899.654,1419.33L899.654,1288.54L722.072,1288.54Z" style="fill:rgb(95,95,97);"/>
        </g>
        <g transform="matrix(0.186879,0,0,0.179302,-248.017,-273.195)">
            <path d="M934.149,1274.59C934.149,1266.89 928.159,1260.65 920.771,1260.65L700.955,1260.65C693.567,1260.65 687.577,1266.89 687.577,1274.59L687.577,1433.28C687.577,1440.98 693.567,1447.22 700.955,1447.22L920.771,1447.22C928.159,1447.22 934.149,1440.98 934.149,1433.28C934.149,1433.28 934.149,1274.59 934.149,1274.59ZM714.333,1288.54L714.333,1419.33L907.393,1419.33L907.393,1288.54L714.333,1288.54Z" style="fill:rgb(95,95,97);"/>
        </g>
        <g transform="matrix(0.118387,0,0,0.179302,-124.674,-235.46)">
            <path d="M941.888,1274.59C941.888,1266.89 932.434,1260.65 920.771,1260.65L700.955,1260.65C689.292,1260.65 679.838,1266.89 679.838,1274.59C679.838,1274.59 679.838,1433.28 679.838,1433.28C679.838,1440.98 689.292,1447.22 700.955,1447.22L920.771,1447.22C932.434,1447.22 941.888,1440.98 941.888,1433.28C941.888,1433.28 941.888,1274.59 941.888,1274.59ZM722.072,1288.54L722.072,1419.33L899.654,1419.33L899.654,1288.54L722.072,1288.54Z" style="fill:rgb(95,95,97);"/>
        </g>
        <g transform="matrix(0.186879,0,0,0.179302,-248.017,-235.46)">
            <path d="M934.149,1274.59C934.149,1266.89 928.159,1260.65 920.771,1260.65L700.955,1260.65C693.567,1260.65 687.577,1266.89 687.577,1274.59L687.577,1433.28C687.577,1440.98 693.567,1447.22 700.955,1447.22L920.771,1447.22C928.159,1447.22 934.149,1440.98 934.149,1433.28C934.149,1433.28 934.149,1274.59 934.149,1274.59ZM714.333,1288.54L714.333,1419.33L907.393,1419.33L907.393,1288.54L714.333,1288.54Z" style="fill:rgb(95,95,97);"/>
        </g>
        <g transform="matrix(0.118387,0,0,0.179302,-124.674,-197.726)">
            <path d="M941.888,1274.59C941.888,1266.89 932.434,1260.65 920.771,1260.65L700.955,1260.65C689.292,1260.65 679.838,1266.89 679.838,1274.59C679.838,1274.59 679.838,1433.28 679.838,1433.28C679.838,1440.98 689.292,1447.22 700.955,1447.22L920.771,1447.22C932.434,1447.22 941.888,1440.98 941.888,1433.28C941.888,1433.28 941.888,1274.59 941.888,1274.59ZM722.072,1288.54L722.072,1419.33L899.654,1419.33L899.654,1288.54L722.072,1288.54Z" style="fill:rgb(95,95,97);"/>
        </g>
        <g transform="matrix(0.186879,0,0,0.179302,-248.017,-197.726)">
            <path d="M934.149,1274.59C934.149,1266.89 928.159,1260.65 920.771,1260.65L700.955,1260.65C693.567,1260.65 687.577,1266.89 687.577,1274.59L687.577,1433.28C687.577,1440.98 693.567,1447.22 700.955,1447.22L920.771,1447.22C928.159,1447.22 934.149,1440.98 934.149,1433.28C934.149,1433.28 934.149,1274.59 934.149,1274.59ZM714.333,1288.54L714.333,1419.33L907.393,1419.33L907.393,1288.54L714.333,1288.54Z" style="fill:rgb(95,95,97);"/>
        </g>
        <g transform="matrix(0.118387,0,0,0.179302,-124.674,-159.991)">
            <path d="M941.888,1274.59C941.888,1266.89 932.434,1260.65 920.771,1260.65L700.955,1260.65C689.292,1260.65 679.838,1266.89 679.838,1274.59C679.838,1274.59 679.838,1433.28 679.838,1433.28C679.838,1440.98 689.292,1447.22 700.955,1447.22L920.771,1447.22C932.434,1447.22 941.888,1440.98 941.888,1433.28C941.888,1433.28 941.888,1274.59 941.888,1274.59ZM722.072,1288.54L722.072,1419.33L899.654,1419.33L899.654,1288.54L722.072,1288.54Z" style="fill:rgb(95,95,97);"/>
        </g>
        <g transform="matrix(0.186879,0,0,0.179302,-248.017,-159.991)">
            <path d="M934.149,1274.59C934.149,1266.89 928.159,1260.65 920.771,1260.65L700.955,1260.65C693.567,1260.65 687.577,1266.89 687.577,1274.59L687.577,1433.28C687.577,1440.98 693.567,1447.22 700.955,1447.22L920.771,1447.22C928.159,1447.22 934.149,1440.98 934.149,1433.28C934.149,1433.28 934.149,1274.59 934.149,1274.59ZM714.333,1288.54L714.333,1419.33L907.393,1419.33L907.393,1288.54L714.333,1288.54Z" style="fill:rgb(95,95,97);"/>
        </g>
        <g transform="matrix(0.118387,0,0,0.179302,-54.1314,-310.929)">
            <path d="M941.888,1274.59C941.888,1266.89 932.434,1260.65 920.771,1260.65L700.955,1260.65C689.292,1260.65 679.838,1266.89 679.838,1274.59C679.838,1274.59 679.838,1433.28 679.838,1433.28C679.838,1440.98 689.292,1447.22 700.955,1447.22L920.771,1447.22C932.434,1447.22 941.888,1440.98 941.888,1433.28C941.888,1433.28 941.888,1274.59 941.888,1274.59ZM722.072,1288.54L722.072,1419.33L899.654,1419.33L899.654,1288.54L722.072,1288.54Z" style="fill:rgb(95,95,97);"/>
        </g>
        <g transform="matrix(0.118387,0,0,0.179302,-54.1314,-273.195)">
            <path d="M941.888,1274.59C941.888,1266.89 932.434,1260.65 920.771,1260.65L700.955,1260.65C689.292,1260.65 679.838,1266.89 679.838,1274.59C679.838,1274.59 679.838,1433.28 679.838,1433.28C679.838,1440.98 689.292,1447.22 700.955,1447.22L920.771,1447.22C932.434,1447.22 941.888,1440.98 941.888,1433.28C941.888,1433.28 941.888,1274.59 941.888,1274.59ZM722.072,1288.54L722.072,1419.33L899.654,1419.33L899.654,1288.54L722.072,1288.54Z" style="fill:rgb(95,95,97);"/>
        </g>
        <g transform="matrix(0.118387,0,0,0.179302,-54.1314,-235.46)">
            <path d="M941.888,1274.59C941.888,1266.89 932.434,1260.65 920.771,1260.65L700.955,1260.65C689.292,1260.65 679.838,1266.89 679.838,1274.59C679.838,1274.59 679.838,1433.28 679.838,1433.28C679.838,1440.98 689.292,1447.22 700.955,1447.22L920.771,1447.22C932.434,1447.22 941.888,1440.98 941.888,1433.28C941.888,1433.28 941.888,1274.59 941.888,1274.59ZM722.072,1288.54L722.072,1419.33L899.654,1419.33L899.654,1288.54L722.072,1288.54Z" style="fill:rgb(95,95,97);"/>
        </g>
        <g transform="matrix(0.118387,0,0,0.179302,-54.1314,-197.726)">
            <path d="M941.888,1274.59C941.888,1266.89 932.434,1260.65 920.771,1260.65L700.955,1260.65C689.292,1260.65 679.838,1266.89 679.838,1274.59C679.838,1274.59 679.838,1433.28 679.838,1433.28C679.838,1440.98 689.292,1447.22 700.955,1447.22L920.771,1447.22C932.434,1447.22 941.888,1440.98 941.888,1433.28C941.888,1433.28 941.888,1274.59 941.888,1274.59ZM722.072,1288.54L722.072,1419.33L899.654,1419.33L899.654,1288.54L722.072,1288.54Z" style="fill:rgb(95,95,97);"/>
        </g>
        <g transform="matrix(0.118387,0,0,0.179302,-54.1314,-159.991)">
            <path d="M941.888,1274.59C941.888,1266.89 932.434,1260.65 920.771,1260.65L700.955,1260.65C689.292,1260.65 679.838,1266.89 679.838,1274.59C679.838,1274.59 679.838,1433.28 679.838,1433.28C679.838,1440.98 689.292,1447.22 700.955,1447.22L920.771,1447.22C932.434,1447.22 941.888,1440.98 941.888,1433.28C941.888,1433.28 941.888,1274.59 941.888,1274.59ZM722.072,1288.54L722.072,1419.33L899.654,1419.33L899.654,1288.54L722.072,1288.54Z" style="fill:rgb(95,95,97);"/>
        </g>
        <g transform="matrix(0.118387,0,0,0.179302,16.4116,-310.929)">
            <path d="M941.888,1274.59C941.888,1266.89 932.434,1260.65 920.771,1260.65L700.955,1260.65C689.292,1260.65 679.838,1266.89 679.838,1274.59C679.838,1274.59 679.838,1433.28 679.838,1433.28C679.838,1440.98 689.292,1447.22 700.955,1447.22L920.771,1447.22C932.434,1447.22 941.888,1440.98 941.888,1433.28C941.888,1433.28 941.888,1274.59 941.888,1274.59ZM722.072,1288.54L722.072,1419.33L899.654,1419.33L899.654,1288.54L722.072,1288.54Z" style="fill:rgb(95,95,97);"/>
        </g>
        <g transform="matrix(0.118387,0,0,0.179302,16.4116,-273.195)">
            <path d="M941.888,1274.59C941.888,1266.89 932.434,1260.65 920.771,1260.65L700.955,1260.65C689.292,1260.65 679.838,1266.89 679.838,1274.59C679.838,1274.59 679.838,1433.28 679.838,1433.28C679.838,1440.98 689.292,1447.22 700.955,1447.22L920.771,1447.22C932.434,1447.22 941.888,1440.98 941.888,1433.28C941.888,1433.28 941.888,1274.59 941.888,1274.59ZM722.072,1288.54L722.072,1419.33L899.654,1419.33L899.654,1288.54L722.072,1288.54Z" style="fill:rgb(95,95,97);"/>
        </g>
        <g transform="matrix(0.118387,0,0,0.179302,16.4116,-235.46)">
            <path d="M941.888,1274.59C941.888,1266.89 932.434,1260.65 920.771,1260.65L700.955,1260.65C689.292,1260.65 679.838,1266.89 679.838,1274.59C679.838,1274.59 679.838,1433.28 679.838,1433.28C679.838,1440.98 689.292,1447.22 700.955,1447.22L920.771,1447.22C932.434,1447.22 941.888,1440.98 941.888,1433.28C941.888,1433.28 941.888,1274.59 941.888,1274.59ZM722.072,1288.54L722.072,1419.33L899.654,1419.33L899.654,1288.54L722.072,1288.54Z" style="fill:rgb(95,95,97);"/>
        </g>
        <g transform="matrix(0.118387,0,0,0.179302,16.4116,-197.726)">
            <path d="M941.888,1274.59C941.888,1266.89 932.434,1260.65 920.771,1260.65L700.955,1260.65C689.292,1260.65 679.838,1266.89 679.838,1274.59C679.838,1274.59 679.838,1433.28 679.838,1433.28C679.838,1440.98 689.292,1447.22 700.955,1447.22L920.771,1447.22C932.434,1447.22 941.888,1440.98 941.888,1433.28C941.888,1433.28 941.888,1274.59 941.888,1274.59ZM722.072,1288.54L722.072,1419.33L899.654,1419.33L899.654,1288.54L722.072,1288.54Z" style="fill:rgb(95,95,97);"/>
        </g>
        <g transform="matrix(0.118387,0,0,0.179302,16.4116,-159.991)">
            <path d="M941.888,1274.59C941.888,1266.89 932.434,1260.65 920.771,1260.65L700.955,1260.65C689.292,1260.65 679.838,1266.89 679.838,1274.59C679.838,1274.59 679.838,1433.28 679.838,1433.28C679.838,1440.98 689.292,1447.22 700.955,1447.22L920.771,1447.22C932.434,1447.22 941.888,1440.98 941.888,1433.28C941.888,1433.28 941.888,1274.59 941.888,1274.59ZM722.072,1288.54L722.072,1419.33L899.654,1419.33L899.654,1288.54L722.072,1288.54Z" style="fill:rgb(95,95,97);"/>
        </g>
        <g transform="matrix(0.118387,0,0,0.179302,-89.4029,-310.929)">
            <path d="M941.888,1274.59C941.888,1266.89 932.434,1260.65 920.771,1260.65L700.955,1260.65C689.292,1260.65 679.838,1266.89 679.838,1274.59C679.838,1274.59 679.838,1433.28 679.838,1433.28C679.838,1440.98 689.292,1447.22 700.955,1447.22L920.771,1447.22C932.434,1447.22 941.888,1440.98 941.888,1433.28C941.888,1433.28 941.888,1274.59 941.888,1274.59ZM722.072,1288.54L722.072,1419.33L899.654,1419.33L899.654,1288.54L722.072,1288.54Z" style="fill:rgb(95,95,97);"/>
        </g>
        <g transform="matrix(0.118387,0,0,0.179302,-89.4029,-273.195)">
            <path d="M941.888,1274.59C941.888,1266.89 932.434,1260.65 920.771,1260.65L700.955,1260.65C689.292,1260.65 679.838,1266.89 679.838,1274.59C679.838,1274.59 679.838,1433.28 679.838,1433.28C679.838,1440.98 689.292,1447.22 700.955,1447.22L920.771,1447.22C932.434,1447.22 941.888,1440.98 941.888,1433.28C941.888,1433.28 941.888,1274.59 941.888,1274.59ZM722.072,1288.54L722.072,1419.33L899.654,1419.33L899.654,1288.54L722.072,1288.54Z" style="fill:rgb(95,95,97);"/>
        </g>
        <g transform="matrix(0.118387,0,0,0.179302,-89.4029,-235.46)">
            <path d="M941.888,1274.59C941.888,1266.89 932.434,1260.65 920.771,1260.65L700.955,1260.65C689.292,1260.65 679.838,1266.89 679.838,1274.59C679.838,1274.59 679.838,1433.28 679.838,1433.28C679.838,1440.98 689.292,1447.22 700.955,1447.22L920.771,1447.22C932.434,1447.22 941.888,1440.98 941.888,1433.28C941.888,1433.28 941.888,1274.59 941.888,1274.59ZM722.072,1288.54L722.072,1419.33L899.654,1419.33L899.654,1288.54L722.072,1288.54Z" style="fill:rgb(95,95,97);"/>
        </g>
        <g transform="matrix(0.118387,0,0,0.179302,-89.4029,-197.726)">
            <path d="M941.888,1274.59C941.888,1266.89 932.434,1260.65 920.771,1260.65L700.955,1260.65C689.292,1260.65 679.838,1266.89 679.838,1274.59C679.838,1274.59 679.838,1433.28 679.838,1433.28C679.838,1440.98 689.292,1447.22 700.955,1447.22L920.771,1447.22C932.434,1447.22 941.888,1440.98 941.888,1433.28C941.888,1433.28 941.888,1274.59 941.888,1274.59ZM722.072,1288.54L722.072,1419.33L899.654,1419.33L899.654,1288.54L722.072,1288.54Z" style="fill:rgb(95,95,97);"/>
        </g>
        <g transform="matrix(0.118387,0,0,0.179302,-89.4029,-159.991)">
            <path d="M941.888,1274.59C941.888,1266.89 932.434,1260.65 920.771,1260.65L700.955,1260.65C689.292,1260.65 679.838,1266.89 679.838,1274.59C679.838,1274.59 679.838,1433.28 679.838,1433.28C679.838,1440.98 689.292,1447.22 700.955,1447.22L920.771,1447.22C932.434,1447.22 941.888,1440.98 941.888,1433.28C941.888,1433.28 941.888,1274.59 941.888,1274.59ZM722.072,1288.54L722.072,1419.33L899.654,1419.33L899.654,1288.54L722.072,1288.54Z" style="fill:rgb(95,95,97);"/>
        </g>
        <g transform="matrix(0.118387,0,0,0.179302,-18.8599,-310.929)">
            <path d="M941.888,1274.59C941.888,1266.89 932.434,1260.65 920.771,1260.65L700.955,1260.65C689.292,1260.65 679.838,1266.89 679.838,1274.59C679.838,1274.59 679.838,1433.28 679.838,1433.28C679.838,1440.98 689.292,1447.22 700.955,1447.22L920.771,1447.22C932.434,1447.22 941.888,1440.98 941.888,1433.28C941.888,1433.28 941.888,1274.59 941.888,1274.59ZM722.072,1288.54L722.072,1419.33L899.654,1419.33L899.654,1288.54L722.072,1288.54Z" style="fill:rgb(95,95,97);"/>
        </g>
        <g transform="matrix(0.118387,0,0,0.179302,-18.8599,-273.195)">
            <path d="M941.888,1274.59C941.888,1266.89 932.434,1260.65 920.771,1260.65L700.955,1260.65C689.292,1260.65 679.838,1266.89 679.838,1274.59C679.838,1274.59 679.838,1433.28 679.838,1433.28C679.838,1440.98 689.292,1447.22 700.955,1447.22L920.771,1447.22C932.434,1447.22 941.888,1440.98 941.888,1433.28C941.888,1433.28 941.888,1274.59 941.888,1274.59ZM722.072,1288.54L722.072,1419.33L899.654,1419.33L899.654,1288.54L722.072,1288.54Z" style="fill:rgb(95,95,97);"/>
        </g>
        <g transform="matrix(0.118387,0,0,0.179302,-18.8599,-235.46)">
            <path d="M941.888,1274.59C941.888,1266.89 932.434,1260.65 920.771,1260.65L700.955,1260.65C689.292,1260.65 679.838,1266.89 679.838,1274.59C679.838,1274.59 679.838,1433.28 679.838,1433.28C679.838,1440.98 689.292,1447.22 700.955,1447.22L920.771,1447.22C932.434,1447.22 941.888,1440.98 941.888,1433.28C941.888,1433.28 941.888,1274.59 941.888,1274.59ZM722.072,1288.54L722.072,1419.33L899.654,1419.33L899.654,1288.54L722.072,1288.54Z" style="fill:rgb(95,95,97);"/>
        </g>
        <g transform="matrix(0.118387,0,0,0.179302,-18.8599,-197.726)">
            <path d="M941.888,1274.59C941.888,1266.89 932.434,1260.65 920.771,1260.65L700.955,1260.65C689.292,1260.65 679.838,1266.89 679.838,1274.59C679.838,1274.59 679.838,1433.28 679.838,1433.28C679.838,1440.98 689.292,1447.22 700.955,1447.22L920.771,1447.22C932.434,1447.22 941.888,1440.98 941.888,1433.28C941.888,1433.28 941.888,1274.59 941.888,1274.59ZM722.072,1288.54L722.072,1419.33L899.654,1419.33L899.654,1288.54L722.072,1288.54Z" style="fill:rgb(95,95,97);"/>
        </g>
        <g transform="matrix(0.118387,0,0,0.179302,-18.8599,-159.991)">
            <path d="M941.888,1274.59C941.888,1266.89 932.434,1260.65 920.771,1260.65L700.955,1260.65C689.292,1260.65 679.838,1266.89 679.838,1274.59C679.838,1274.59 679.838,1433.28 679.838,1433.28C679.838,1440.98 689.292,1447.22 700.955,1447.22L920.771,1447.22C932.434,1447.22 941.888,1440.98 941.888,1433.28C941.888,1433.28 941.888,1274.59 941.888,1274.59ZM722.072,1288.54L722.072,1419.33L899.654,1419.33L899.654,1288.54L722.072,1288.54Z" style="fill:rgb(95,95,97);"/>
        </g>
        <g transform="matrix(0.118387,0,0,0.179302,51.6831,-310.929)">
            <path d="M941.888,1274.59C941.888,1266.89 932.434,1260.65 920.771,1260.65L700.955,1260.65C689.292,1260.65 679.838,1266.89 679.838,1274.59C679.838,1274.59 679.838,1433.28 679.838,1433.28C679.838,1440.98 689.292,1447.22 700.955,1447.22L920.771,1447.22C932.434,1447.22 941.888,1440.98 941.888,1433.28C941.888,1433.28 941.888,1274.59 941.888,1274.59ZM722.072,1288.54L722.072,1419.33L899.654,1419.33L899.654,1288.54L722.072,1288.54Z" style="fill:rgb(95,95,97);"/>
        </g>
        <g transform="matrix(0.118387,0,0,0.179302,51.6831,-273.195)">
            <path d="M941.888,1274.59C941.888,1266.89 932.434,1260.65 920.771,1260.65L700.955,1260.65C689.292,1260.65 679.838,1266.89 679.838,1274.59C679.838,1274.59 679.838,1433.28 679.838,1433.28C679.838,1440.98 689.292,1447.22 700.955,1447.22L920.771,1447.22C932.434,1447.22 941.888,1440.98 941.888,1433.28C941.888,1433.28 941.888,1274.59 941.888,1274.59ZM722.072,1288.54L722.072,1419.33L899.654,1419.33L899.654,1288.54L722.072,1288.54Z" style="fill:rgb(95,95,97);"/>
        </g>
        <g transform="matrix(0.118387,0,0,0.179302,51.6831,-235.46)">
            <path d="M941.888,1274.59C941.888,1266.89 932.434,1260.65 920.771,1260.65L700.955,1260.65C689.292,1260.65 679.838,1266.89 679.838,1274.59C679.838,1274.59 679.838,1433.28 679.838,1433.28C679.838,1440.98 689.292,1447.22 700.955,1447.22L920.771,1447.22C932.434,1447.22 941.888,1440.98 941.888,1433.28C941.888,1433.28 941.888,1274.59 941.888,1274.59ZM722.072,1288.54L722.072,1419.33L899.654,1419.33L899.654,1288.54L722.072,1288.54Z" style="fill:rgb(95,95,97);"/>
        </g>
        <g transform="matrix(0.118387,0,0,0.179302,51.6831,-197.726)">
            <path d="M941.888,1274.59C941.888,1266.89 932.434,1260.65 920.771,1260.65L700.955,1260.65C689.292,1260.65 679.838,1266.89 679.838,1274.59C679.838,1274.59 679.838,1433.28 679.838,1433.28C679.838,1440.98 689.292,1447.22 700.955,1447.22L920.771,1447.22C932.434,1447.22 941.888,1440.98 941.888,1433.28C941.888,1433.28 941.888,1274.59 941.888,1274.59ZM722.072,1288.54L722.072,1419.33L899.654,1419.33L899.654,1288.54L722.072,1288.54Z" style="fill:rgb(95,95,97);"/>
        </g>
        <g transform="matrix(0.118387,0,0,0.179302,51.6831,-159.991)">
            <path d="M941.888,1274.59C941.888,1266.89 932.434,1260.65 920.771,1260.65L700.955,1260.65C689.292,1260.65 679.838,1266.89 679.838,1274.59C679.838,1274.59 679.838,1433.28 679.838,1433.28C679.838,1440.98 689.292,1447.22 700.955,1447.22L920.771,1447.22C932.434,1447.22 941.888,1440.98 941.888,1433.28C941.888,1433.28 941.888,1274.59 941.888,1274.59ZM722.072,1288.54L722.072,1419.33L899.654,1419.33L899.654,1288.54L722.072,1288.54Z" style="fill:rgb(95,95,97);"/>
        </g>
        <g transform="matrix(0.186879,0,0,0.179302,63.9501,-273.195)">
            <path d="M934.149,1274.59C934.149,1266.89 928.159,1260.65 920.771,1260.65L700.955,1260.65C693.567,1260.65 687.577,1266.89 687.577,1274.59L687.577,1433.28C687.577,1440.98 693.567,1447.22 700.955,1447.22L920.771,1447.22C928.159,1447.22 934.149,1440.98 934.149,1433.28L934.149,1274.59ZM714.333,1288.54L714.333,1419.33L907.393,1419.33L907.393,1288.54L714.333,1288.54Z" style="fill:rgb(95,95,97);"/>
        </g>
        <g transform="matrix(0.186879,0,0,0.179302,63.9501,-235.46)">
            <path d="M934.149,1274.59C934.149,1266.89 928.159,1260.65 920.771,1260.65L700.955,1260.65C693.567,1260.65 687.577,1266.89 687.577,1274.59L687.577,1433.28C687.577,1440.98 693.567,1447.22 700.955,1447.22L920.771,1447.22C928.159,1447.22 934.149,1440.98 934.149,1433.28L934.149,1274.59ZM714.333,1288.54L714.333,1419.33L907.393,1419.33L907.393,1288.54L714.333,1288.54Z" style="fill:rgb(95,95,97);"/>
        </g>
        <g transform="matrix(0.186879,0,0,0.179302,63.9501,-197.726)">
            <path d="M934.149,1274.59C934.149,1266.89 928.159,1260.65 920.771,1260.65L700.955,1260.65C693.567,1260.65 687.577,1266.89 687.577,1274.59L687.577,1433.28C687.577,1440.98 693.567,1447.22 700.955,1447.22L920.771,1447.22C928.159,1447.22 934.149,1440.98 934.149,1433.28L934.149,1274.59ZM714.333,1288.54L714.333,1419.33L907.393,1419.33L907.393,1288.54L714.333,1288.54Z" style="fill:rgb(95,95,97);"/>
        </g>
        <g transform="matrix(0.186879,0,0,0.179302,63.9501,-159.991)">
            <path d="M934.149,1274.59C934.149,1266.89 928.159,1260.65 920.771,1260.65L700.955,1260.65C693.567,1260.65 687.577,1266.89 687.577,1274.59L687.577,1433.28C687.577,1440.98 693.567,1447.22 700.955,1447.22L920.771,1447.22C928.159,1447.22 934.149,1440.98 934.149,1433.28L934.149,1274.59ZM714.333,1288.54L714.333,1419.33L907.393,1419.33L907.393,1288.54L714.333,1288.54Z" style="fill:rgb(95,95,97);"/>
        </g>
        <g transform="matrix(0.118387,0,0,0.179302,-124.674,-122.256)">
            <path d="M941.888,1274.59C941.888,1266.89 932.434,1260.65 920.771,1260.65L700.955,1260.65C689.292,1260.65 679.838,1266.89 679.838,1274.59C679.838,1274.59 679.838,1433.28 679.838,1433.28C679.838,1440.98 689.292,1447.22 700.955,1447.22L920.771,1447.22C932.434,1447.22 941.888,1440.98 941.888,1433.28C941.888,1433.28 941.888,1274.59 941.888,1274.59ZM722.072,1288.54L722.072,1419.33L899.654,1419.33L899.654,1288.54L722.072,1288.54Z" style="fill:rgb(95,95,97);"/>
        </g>
        <g transform="matrix(0.186879,0,0,0.179302,-248.017,-122.256)">
            <path d="M934.149,1274.59C934.149,1266.89 928.159,1260.65 920.771,1260.65L700.955,1260.65C693.567,1260.65 687.577,1266.89 687.577,1274.59L687.577,1433.28C687.577,1440.98 693.567,1447.22 700.955,1447.22L920.771,1447.22C928.159,1447.22 934.149,1440.98 934.149,1433.28C934.149,1433.28 934.149,1274.59 934.149,1274.59ZM714.333,1288.54L714.333,1419.33L907.393,1419.33L907.393,1288.54L714.333,1288.54Z" style="fill:rgb(95,95,97);"/>
        </g>
        <g transform="matrix(0.118387,0,0,0.179302,-54.1314,-122.256)">
            <path d="M941.888,1274.59C941.888,1266.89 932.434,1260.65 920.771,1260.65L700.955,1260.65C689.292,1260.65 679.838,1266.89 679.838,1274.59C679.838,1274.59 679.838,1433.28 679.838,1433.28C679.838,1440.98 689.292,1447.22 700.955,1447.22L920.771,1447.22C932.434,1447.22 941.888,1440.98 941.888,1433.28C941.888,1433.28 941.888,1274.59 941.888,1274.59ZM722.072,1288.54L722.072,1419.33L899.654,1419.33L899.654,1288.54L722.072,1288.54Z" style="fill:rgb(95,95,97);"/>
        </g>
        <g transform="matrix(0.118387,0,0,0.179302,16.4116,-122.256)">
            <path d="M941.888,1274.59C941.888,1266.89 932.434,1260.65 920.771,1260.65L700.955,1260.65C689.292,1260.65 679.838,1266.89 679.838,1274.59C679.838,1274.59 679.838,1433.28 679.838,1433.28C679.838,1440.98 689.292,1447.22 700.955,1447.22L920.771,1447.22C932.434,1447.22 941.888,1440.98 941.888,1433.28C941.888,1433.28 941.888,1274.59 941.888,1274.59ZM722.072,1288.54L722.072,1419.33L899.654,1419.33L899.654,1288.54L722.072,1288.54Z" style="fill:rgb(95,95,97);"/>
        </g>
        <g transform="matrix(0.118387,0,0,0.179302,-89.4029,-122.256)">
            <path d="M941.888,1274.59C941.888,1266.89 932.434,1260.65 920.771,1260.65L700.955,1260.65C689.292,1260.65 679.838,1266.89 679.838,1274.59C679.838,1274.59 679.838,1433.28 679.838,1433.28C679.838,1440.98 689.292,1447.22 700.955,1447.22L920.771,1447.22C932.434,1447.22 941.888,1440.98 941.888,1433.28C941.888,1433.28 941.888,1274.59 941.888,1274.59ZM722.072,1288.54L722.072,1419.33L899.654,1419.33L899.654,1288.54L722.072,1288.54Z" style="fill:rgb(95,95,97);"/>
        </g>
        <g transform="matrix(0.118387,0,0,0.179302,-18.8599,-122.256)">
            <path d="M941.888,1274.59C941.888,1266.89 932.434,1260.65 920.771,1260.65L700.955,1260.65C689.292,1260.65 679.838,1266.89 679.838,1274.59C679.838,1274.59 679.838,1433.28 679.838,1433.28C679.838,1440.98 689.292,1447.22 700.955,1447.22L920.771,1447.22C932.434,1447.22 941.888,1440.98 941.888,1433.28C941.888,1433.28 941.888,1274.59 941.888,1274.59ZM722.072,1288.54L722.072,1419.33L899.654,1419.33L899.654,1288.54L722.072,1288.54Z" style="fill:rgb(95,95,97);"/>
        </g>
        <g transform="matrix(0.118387,0,0,0.179302,51.6831,-122.256)">
            <path d="M941.888,1274.59C941.888,1266.89 932.434,1260.65 920.771,1260.65L700.955,1260.65C689.292,1260.65 679.838,1266.89 679.838,1274.59C679.838,1274.59 679.838,1433.28 679.838,1433.28C679.838,1440.98 689.292,1447.22 700.955,1447.22L920.771,1447.22C932.434,1447.22 941.888,1440.98 941.888,1433.28C941.888,1433.28 941.888,1274.59 941.888,1274.59ZM722.072,1288.54L722.072,1419.33L899.654,1419.33L899.654,1288.54L722.072,1288.54Z" style="fill:rgb(95,95,97);"/>
        </g>
        <g transform="matrix(0.186879,0,0,0.179302,63.9501,-122.256)">
            <path d="M934.149,1274.59C934.149,1266.89 928.159,1260.65 920.771,1260.65L700.955,1260.65C693.567,1260.65 687.577,1266.89 687.577,1274.59L687.577,1433.28C687.577,1440.98 693.567,1447.22 700.955,1447.22L920.771,1447.22C928.159,1447.22 934.149,1440.98 934.149,1433.28L934.149,1274.59ZM714.333,1288.54L714.333,1419.33L907.393,1419.33L907.393,1288.54L714.333,1288.54Z" style="fill:rgb(95,95,97);"/>
        </g>
        <g transform="matrix(0.186879,0,0,0.179302,-248.017,-84.5219)">
            <path d="M934.149,1274.59C934.149,1266.89 928.159,1260.65 920.771,1260.65L700.955,1260.65C693.567,1260.65 687.577,1266.89 687.577,1274.59L687.577,1433.28C687.577,1440.98 693.567,1447.22 700.955,1447.22L920.771,1447.22C928.159,1447.22 934.149,1440.98 934.149,1433.28C934.149,1433.28 934.149,1274.59 934.149,1274.59ZM714.333,1288.54L714.333,1419.33L907.393,1419.33L907.393,1288.54L714.333,1288.54Z" style="fill:rgb(95,95,97);"/>
        </g>
        <g transform="matrix(0.186879,0,0,0.179302,63.9501,-84.5219)">
            <path d="M934.149,1274.59C934.149,1266.89 928.159,1260.65 920.771,1260.65L700.955,1260.65C693.567,1260.65 687.577,1266.89 687.577,1274.59L687.577,1433.28C687.577,1440.98 693.567,1447.22 700.955,1447.22L920.771,1447.22C928.159,1447.22 934.149,1440.98 934.149,1433.28L934.149,1274.59ZM714.333,1288.54L714.333,1419.33L907.393,1419.33L907.393,1288.54L714.333,1288.54Z" style="fill:rgb(95,95,97);"/>
        </g>
        <g transform="matrix(0.224873,0,0,0.428844,-147.556,-385.652)">
            <path d="M931.888,1274.59C931.888,1271.37 926.911,1268.76 920.771,1268.76L700.955,1268.76C694.815,1268.76 689.838,1271.37 689.838,1274.59L689.838,1433.28C689.838,1436.49 694.815,1439.1 700.955,1439.1L920.771,1439.1C926.911,1439.1 931.888,1436.49 931.888,1433.28L931.888,1274.59ZM712.072,1280.42L712.072,1427.44L909.654,1427.44L909.654,1280.42L712.072,1280.42Z" style="fill:rgb(95,95,97);"/>
        </g>
        <g transform="matrix(0.224873,0,0,0.428844,-98.1258,-385.652)">
            <path d="M931.888,1274.59C931.888,1271.37 926.911,1268.76 920.771,1268.76L700.955,1268.76C694.815,1268.76 689.838,1271.37 689.838,1274.59L689.838,1433.28C689.838,1436.49 694.815,1439.1 700.955,1439.1L920.771,1439.1C926.911,1439.1 931.888,1436.49 931.888,1433.28L931.888,1274.59ZM712.072,1280.42L712.072,1427.44L909.654,1427.44L909.654,1280.42L712.072,1280.42Z" style="fill:rgb(95,95,97);"/>
        </g>
        <g transform="matrix(1.08907,0,0,0.0724485,-824.096,57.1103)">
            <path d="M923.066,1274.59C923.066,1255.53 922.039,1240.09 920.771,1240.09L700.955,1240.09C699.687,1240.09 698.659,1255.53 698.659,1274.59L698.659,1433.28C698.659,1452.33 699.687,1467.78 700.955,1467.78L920.771,1467.78C922.039,1467.78 923.066,1452.33 923.066,1433.28L923.066,1274.59ZM703.251,1309.1L703.251,1398.77L918.475,1398.77L918.475,1309.1L703.251,1309.1Z" style="fill:rgb(95,95,97);"/>
        </g>
        <g transform="matrix(1,0,0,1,-1727.75,-3168.23)">
            <path d="M1642.78,3065.97L1642.78,3030.23C1642.78,3028.85 1641.66,3027.73 1640.28,3027.73C1638.9,3027.73 1637.78,3028.85 1637.78,3030.23L1637.78,3065.97C1637.78,3067.36 1638.9,3068.47 1640.28,3068.47C1641.66,3068.47 1642.78,3067.36 1642.78,3065.97Z" style="fill:rgb(95,95,97);"/>
        </g>
        <g transform="matrix(-0.325495,0,0,1.62659,479.416,-2138.64)">
            <path d="M928.451,1277.3L928.451,1433.28C928.451,1434.12 925.013,1434.81 920.771,1434.81L700.955,1434.81C696.713,1434.81 693.274,1434.12 693.274,1433.28C693.274,1433.28 693.274,1298.21 693.274,1277.3C693.274,1274.95 702.766,1273.06 714.473,1273.06C753.811,1273.06 867.915,1273.06 907.252,1273.06C918.96,1273.06 928.451,1274.95 928.451,1277.3ZM708.636,1431.74L708.636,1277.3C708.636,1276.65 711.249,1276.13 714.473,1276.13C753.811,1276.13 867.915,1276.13 907.252,1276.13C910.477,1276.13 913.09,1276.65 913.09,1277.3L913.09,1431.74L708.636,1431.74Z" style="fill:rgb(95,95,97);"/>
        </g>
        <g transform="matrix(-0.511439,0,0,0.228731,650.627,-98.8355)">
            <path d="M920.771,1263.66C923.471,1263.66 925.659,1268.56 925.659,1274.59L925.659,1433.28C925.659,1439.31 923.471,1444.2 920.771,1444.2L700.955,1444.2C698.255,1444.2 696.067,1439.31 696.067,1433.28C696.067,1433.28 696.067,1336.09 696.067,1293.83C696.067,1285.83 697.488,1278.15 700.018,1272.5C702.549,1266.84 705.98,1263.66 709.559,1263.66C750.175,1263.66 920.771,1263.66 920.771,1263.66ZM915.883,1285.52L915.883,1422.35L705.843,1422.35L705.843,1293.83C705.843,1291.63 706.235,1289.51 706.931,1287.95C707.628,1286.4 708.573,1285.52 709.559,1285.52L915.883,1285.52Z" style="fill:rgb(95,95,97);"/>
        </g>
        <g transform="matrix(-0.243489,0,0,0.228731,403.907,-393.242)">
            <path d="M931.038,1293.83L931.038,1433.28C931.038,1439.31 926.441,1444.2 920.771,1444.2L700.955,1444.2C695.284,1444.2 690.688,1439.31 690.688,1433.28C690.688,1433.28 690.688,1336.09 690.688,1293.83C690.688,1277.17 703.375,1263.66 719.026,1263.66C760.353,1263.66 861.373,1263.66 902.7,1263.66C918.351,1263.66 931.038,1277.17 931.038,1293.83L931.038,1293.83ZM711.222,1422.35L711.222,1293.83C711.222,1289.24 714.716,1285.52 719.026,1285.52C760.353,1285.52 861.373,1285.52 902.7,1285.52C907.01,1285.52 910.503,1289.24 910.503,1293.83L910.503,1422.35L711.222,1422.35Z" style="fill:rgb(95,95,97);"/>
        </g>
        <g transform="matrix(-1,0,0,1,1846.75,-3168.23)">
            <path d="M1637.78,3065.97L1637.78,3030.23C1637.78,3028.85 1638.9,3027.73 1640.28,3027.73C1641.66,3027.73 1642.78,3028.85 1642.78,3030.23L1642.78,3065.97C1642.78,3067.36 1641.66,3068.47 1640.28,3068.47C1638.9,3068.47 1637.78,3067.36 1637.78,3065.97Z" style="fill:rgb(95,95,97);"/>
        </g>
        <g transform="matrix(0.833761,0,0,0.833761,-1468.76,-2610.94)">
            <path d="M1715.36,3361.63L1712.8,3356.44C1712.4,3355.62 1712.39,3354.66 1712.78,3353.84C1713.17,3353.01 1713.92,3352.41 1714.81,3352.2L1730.22,3348.61C1730.66,3348.51 1731.13,3348.51 1731.58,3348.61L1746.98,3352.2C1747.87,3352.41 1748.62,3353.01 1749.01,3353.84C1749.4,3354.66 1749.39,3355.62 1748.99,3356.44L1746.43,3361.63L1746.43,3377.35C1746.43,3378.57 1745.7,3379.66 1744.58,3380.12L1732.05,3385.33C1731.31,3385.64 1730.48,3385.64 1729.75,3385.33L1717.21,3380.12C1716.09,3379.66 1715.36,3378.57 1715.36,3377.35L1715.36,3361.63ZM1741.94,3357.18L1730.89,3354.61L1719.85,3357.18L1721.05,3359.61C1721.25,3360.02 1721.36,3360.47 1721.36,3360.93L1721.36,3375.35L1730.89,3379.32L1740.43,3375.35L1740.43,3360.93C1740.43,3360.47 1740.54,3360.02 1740.74,3359.61L1741.94,3357.18Z" style="fill:rgb(95,95,97);"/>
        </g>
        <g transform="matrix(0.833761,0,0,0.833761,-1296.93,-2610.94)">
            <path d="M1715.36,3361.63L1712.8,3356.44C1712.4,3355.62 1712.39,3354.66 1712.78,3353.84C1713.17,3353.01 1713.92,3352.41 1714.81,3352.2L1730.22,3348.61C1730.66,3348.51 1731.13,3348.51 1731.58,3348.61L1746.98,3352.2C1747.87,3352.41 1748.62,3353.01 1749.01,3353.84C1749.4,3354.66 1749.39,3355.62 1748.99,3356.44L1746.43,3361.63L1746.43,3377.35C1746.43,3378.57 1745.7,3379.66 1744.58,3380.12L1732.05,3385.33C1731.31,3385.64 1730.48,3385.64 1729.75,3385.33L1717.21,3380.12C1716.09,3379.66 1715.36,3378.57 1715.36,3377.35L1715.36,3361.63ZM1741.94,3357.18L1730.89,3354.61L1719.85,3357.18L1721.05,3359.61C1721.25,3360.02 1721.36,3360.47 1721.36,3360.93L1721.36,3375.35L1730.89,3379.32L1740.43,3375.35L1740.43,3360.93C1740.43,3360.47 1740.54,3360.02 1740.74,3359.61L1741.94,3357.18Z" style="fill:rgb(95,95,97);"/>
        </g>
    </g>
</svg>
