<?xml version="1.0" encoding="UTF-8" standalone="no"?>
<!DOCTYPE svg PUBLIC "-//W3C//DTD SVG 1.1//EN" "http://www.w3.org/Graphics/SVG/1.1/DTD/svg11.dtd">
<svg width="100%" height="100%" viewBox="0 0 119 91" version="1.1" xmlns="http://www.w3.org/2000/svg" xmlns:xlink="http://www.w3.org/1999/xlink" xml:space="preserve" xmlns:serif="http://www.serif.com/" style="fill-rule:evenodd;clip-rule:evenodd;stroke-linejoin:round;stroke-miterlimit:2;">
    <g transform="matrix(0.244304,0,0,0.244304,44.9639,52.3046)">
        <g transform="matrix(2.00087,0,0,2.00087,-2817.92,-2664.54)">
            <path d="M1317.62,1375.68L1329.74,1375.68C1329.98,1375.68 1330.17,1375.87 1330.17,1376.11C1330.17,1380.23 1330.17,1390.51 1330.17,1390.51C1330.17,1391.2 1330.73,1391.76 1331.42,1391.76C1332.11,1391.76 1332.67,1391.2 1332.67,1390.51C1332.67,1390.51 1332.67,1380.23 1332.67,1376.11C1332.67,1374.49 1331.36,1373.18 1329.74,1373.18C1326.06,1373.18 1317.62,1373.18 1317.62,1373.18C1316.93,1373.18 1316.37,1373.74 1316.37,1374.43C1316.37,1375.12 1316.93,1375.68 1317.62,1375.68Z" style="fill:rgb(77,77,79);"/>
        </g>
        <g transform="matrix(2.00087,0,0,2.00087,-2802.86,-2664.54)">
            <path d="M1384.57,1368.95L1384.57,1390.51C1384.57,1391.2 1384.01,1391.76 1383.32,1391.76C1382.63,1391.76 1382.07,1391.2 1382.07,1390.51C1382.07,1390.51 1382.07,1372.84 1382.07,1368.6C1382.07,1367.41 1383.04,1366.45 1384.23,1366.45C1390.31,1366.45 1425.06,1366.45 1431.14,1366.45C1432.33,1366.45 1433.3,1367.41 1433.3,1368.6C1433.3,1372.84 1433.3,1390.51 1433.3,1390.51C1433.3,1391.2 1432.74,1391.76 1432.05,1391.76C1431.36,1391.76 1430.8,1391.2 1430.8,1390.51L1430.8,1368.95L1384.57,1368.95Z" style="fill:rgb(77,77,79);"/>
        </g>
        <g transform="matrix(1.43718,0,0,0.860108,-2008.74,-1085.63)">
            <path d="M1420.44,1379.1C1420.44,1377.5 1419.66,1376.2 1418.7,1376.2L1395.79,1376.2C1394.83,1376.2 1394.05,1377.5 1394.05,1379.1L1394.05,1387.12C1394.05,1388.73 1394.83,1390.03 1395.79,1390.03L1418.7,1390.03C1419.66,1390.03 1420.44,1388.73 1420.44,1387.12L1420.44,1379.1ZM1397.53,1382.01L1397.53,1384.22L1416.96,1384.22L1416.96,1382.01L1397.53,1382.01Z" style="fill:rgb(77,77,79);"/>
        </g>
        <g transform="matrix(2.00087,0,0,2.00087,-2817.92,-2664.54)">
            <path d="M1557.31,1370.8L1543.29,1369.1C1541.9,1368.93 1540.86,1367.75 1540.86,1366.35L1540.86,1358.35C1540.86,1357.66 1541.41,1357.1 1542.11,1357.1C1542.79,1357.1 1543.35,1357.66 1543.35,1358.35C1543.35,1358.35 1543.35,1363.76 1543.35,1366.35C1543.35,1366.49 1543.46,1366.6 1543.59,1366.62C1547.52,1367.1 1558.71,1368.46 1558.71,1368.46C1559.34,1368.53 1559.81,1369.07 1559.81,1369.7L1559.81,1378.24C1559.81,1378.93 1559.25,1379.49 1558.56,1379.49L1546.3,1379.49C1546.13,1379.49 1545.96,1379.56 1545.84,1379.68C1545.72,1379.8 1545.65,1379.96 1545.65,1380.13C1545.65,1383.58 1545.65,1390.51 1545.65,1390.51C1545.65,1391.2 1545.09,1391.76 1544.4,1391.76C1543.72,1391.76 1543.15,1391.2 1543.15,1390.51C1543.15,1390.51 1543.15,1383.58 1543.15,1380.13C1543.15,1379.3 1543.49,1378.5 1544.08,1377.91C1544.66,1377.32 1545.46,1376.99 1546.3,1376.99L1557.31,1376.99L1557.31,1370.8Z" style="fill:rgb(77,77,79);"/>
        </g>
        <g transform="matrix(1.87168,0,0,2.00087,-2647.07,-2664.54)">
            <path d="M1357.42,1305.92C1357.42,1305.19 1357.11,1304.48 1356.56,1303.96C1356,1303.44 1355.25,1303.15 1354.46,1303.15C1348.76,1303.15 1329.78,1303.15 1324.08,1303.15C1323.3,1303.15 1322.54,1303.44 1321.99,1303.96C1321.43,1304.48 1321.12,1305.19 1321.12,1305.92C1321.12,1311.72 1321.12,1332.39 1321.12,1338.19C1321.12,1338.93 1321.43,1339.63 1321.99,1340.15C1322.54,1340.67 1323.3,1340.97 1324.08,1340.97C1329.78,1340.97 1348.76,1340.97 1354.46,1340.97C1355.25,1340.97 1356,1340.67 1356.56,1340.15C1357.11,1339.63 1357.42,1338.93 1357.42,1338.19L1357.42,1305.92ZM1354.75,1305.92L1354.75,1338.19C1354.75,1338.27 1354.72,1338.34 1354.67,1338.39C1354.61,1338.44 1354.54,1338.47 1354.46,1338.47C1348.76,1338.47 1329.78,1338.47 1324.08,1338.47C1324,1338.47 1323.93,1338.44 1323.88,1338.39C1323.82,1338.34 1323.79,1338.27 1323.79,1338.19C1323.79,1332.39 1323.79,1311.72 1323.79,1305.92C1323.79,1305.85 1323.82,1305.78 1323.88,1305.73C1323.93,1305.68 1324,1305.65 1324.08,1305.65C1329.78,1305.65 1348.76,1305.65 1354.46,1305.65C1354.54,1305.65 1354.61,1305.68 1354.67,1305.73C1354.72,1305.78 1354.75,1305.85 1354.75,1305.92Z" style="fill:rgb(77,77,79);"/>
        </g>
        <g transform="matrix(1.87168,0,0,2.00087,-2565.18,-2664.54)">
            <path d="M1353.15,1305.92C1353.15,1305.19 1352.84,1304.48 1352.28,1303.96C1351.72,1303.44 1350.97,1303.15 1350.18,1303.15C1344.49,1303.15 1325.5,1303.15 1319.81,1303.15C1319.02,1303.15 1318.27,1303.44 1317.71,1303.96C1317.15,1304.48 1316.84,1305.19 1316.84,1305.92C1316.84,1311.72 1316.84,1332.39 1316.84,1338.19C1316.84,1338.93 1317.15,1339.63 1317.71,1340.15C1318.27,1340.67 1319.02,1340.97 1319.81,1340.97C1325.5,1340.97 1344.49,1340.97 1350.18,1340.97C1350.97,1340.97 1351.72,1340.67 1352.28,1340.15C1352.84,1339.63 1353.15,1338.93 1353.15,1338.19L1353.15,1305.92ZM1350.48,1305.92L1350.48,1338.19C1350.48,1338.27 1350.44,1338.34 1350.39,1338.39C1350.34,1338.44 1350.26,1338.47 1350.18,1338.47C1344.49,1338.47 1325.5,1338.47 1319.81,1338.47C1319.73,1338.47 1319.65,1338.44 1319.6,1338.39C1319.54,1338.34 1319.51,1338.27 1319.51,1338.19C1319.51,1332.39 1319.51,1311.72 1319.51,1305.92C1319.51,1305.85 1319.54,1305.78 1319.6,1305.73C1319.65,1305.68 1319.73,1305.65 1319.81,1305.65C1325.5,1305.65 1344.49,1305.65 1350.18,1305.65C1350.26,1305.65 1350.34,1305.68 1350.39,1305.73C1350.44,1305.78 1350.48,1305.85 1350.48,1305.92Z" style="fill:rgb(77,77,79);"/>
        </g>
        <g transform="matrix(1.87168,0,0,2.00087,-2484.28,-2664.54)">
            <path d="M1348.87,1305.92C1348.87,1304.39 1347.54,1303.15 1345.91,1303.15C1340.35,1303.15 1322.16,1303.15 1316.6,1303.15C1314.96,1303.15 1313.63,1304.39 1313.63,1305.92C1313.63,1311.72 1313.63,1332.39 1313.63,1338.19C1313.63,1339.73 1314.96,1340.97 1316.6,1340.97C1322.16,1340.97 1340.35,1340.97 1345.91,1340.97C1347.54,1340.97 1348.87,1339.73 1348.87,1338.19L1348.87,1305.92ZM1346.2,1305.92L1346.2,1338.19C1346.2,1338.35 1346.07,1338.47 1345.91,1338.47C1340.35,1338.47 1322.16,1338.47 1316.6,1338.47C1316.44,1338.47 1316.31,1338.35 1316.31,1338.19C1316.31,1332.39 1316.31,1311.72 1316.31,1305.92C1316.31,1305.77 1316.44,1305.65 1316.6,1305.65C1322.16,1305.65 1340.35,1305.65 1345.91,1305.65C1346.07,1305.65 1346.2,1305.77 1346.2,1305.92Z" style="fill:rgb(77,77,79);"/>
        </g>
        <g transform="matrix(1.87168,0,0,2.00087,-2402.38,-2664.54)">
            <path d="M1344.6,1305.92C1344.6,1304.39 1343.27,1303.15 1341.63,1303.15C1336.07,1303.15 1317.88,1303.15 1312.32,1303.15C1310.69,1303.15 1309.36,1304.39 1309.36,1305.92C1309.36,1311.72 1309.36,1332.39 1309.36,1338.19C1309.36,1339.73 1310.69,1340.97 1312.32,1340.97C1317.88,1340.97 1336.07,1340.97 1341.63,1340.97C1343.27,1340.97 1344.6,1339.73 1344.6,1338.19L1344.6,1305.92ZM1341.92,1305.92L1341.92,1338.19C1341.92,1338.35 1341.79,1338.47 1341.63,1338.47C1336.07,1338.47 1317.88,1338.47 1312.32,1338.47C1312.16,1338.47 1312.03,1338.35 1312.03,1338.19C1312.03,1332.39 1312.03,1311.72 1312.03,1305.92C1312.03,1305.77 1312.16,1305.65 1312.32,1305.65C1317.88,1305.65 1336.07,1305.65 1341.63,1305.65C1341.79,1305.65 1341.92,1305.77 1341.92,1305.92Z" style="fill:rgb(77,77,79);"/>
        </g>
        <g transform="matrix(2.00087,0,0,2.00087,-2817.92,-2664.54)">
            <path d="M1554.55,1351.5L1541.59,1326.74C1541.27,1326.12 1541.5,1325.37 1542.12,1325.05C1542.73,1324.73 1543.48,1324.97 1543.8,1325.58L1557.59,1351.93C1557.78,1352.3 1557.78,1352.73 1557.59,1353.09C1557.4,1353.45 1557.05,1353.7 1556.64,1353.75C1556.64,1353.75 1546.51,1355.07 1543.26,1355.49C1542.41,1355.6 1541.54,1355.5 1540.74,1355.21C1535.44,1353.28 1509.4,1343.77 1503.48,1341.61C1502.27,1341.17 1501.46,1340.01 1501.46,1338.72C1501.46,1333.54 1501.46,1314.09 1501.46,1307C1501.46,1304.87 1503.18,1303.15 1505.32,1303.15C1511.13,1303.15 1525.04,1303.15 1529.73,1303.15C1531.17,1303.15 1532.48,1303.94 1533.15,1305.22C1534.94,1308.64 1539.4,1317.17 1539.4,1317.17C1539.72,1317.78 1539.49,1318.53 1538.87,1318.85C1538.26,1319.17 1537.51,1318.94 1537.19,1318.33C1537.19,1318.33 1532.73,1309.8 1530.93,1306.38C1530.7,1305.93 1530.24,1305.65 1529.73,1305.65C1525.04,1305.65 1511.13,1305.65 1505.32,1305.65C1504.57,1305.65 1503.96,1306.25 1503.96,1307C1503.96,1314.09 1503.96,1333.54 1503.96,1338.72C1503.96,1338.96 1504.11,1339.18 1504.34,1339.26C1510.26,1341.42 1536.3,1350.93 1541.59,1352.86C1542.02,1353.02 1542.48,1353.07 1542.94,1353.01L1554.55,1351.5Z" style="fill:rgb(77,77,79);"/>
        </g>
        <g transform="matrix(2.00087,0,0,2.00087,-2817.92,-2664.54)">
            <path d="M1557.54,1355.06C1557.54,1355.06 1548.71,1356.22 1544.34,1356.8C1542.95,1356.98 1541.53,1356.85 1540.2,1356.4C1533.13,1354.07 1512.71,1346.98 1505.32,1344.54C1504.35,1344.22 1503.28,1344.38 1502.45,1344.98C1501.62,1345.58 1501.13,1346.54 1501.13,1347.56C1501.13,1347.56 1501.13,1384.75 1501.13,1384.75C1501.13,1385.44 1501.69,1386 1502.38,1386C1503.07,1386 1503.63,1385.44 1503.63,1384.75L1503.63,1347.56C1503.63,1347.34 1503.74,1347.13 1503.91,1347.01C1504.09,1346.88 1504.32,1346.84 1504.53,1346.91C1511.92,1349.36 1532.34,1356.44 1539.42,1358.78C1541.11,1359.34 1542.9,1359.51 1544.66,1359.27C1549.04,1358.7 1557.87,1357.54 1557.87,1357.54C1558.55,1357.44 1559.03,1356.82 1558.94,1356.13C1558.85,1355.45 1558.23,1354.97 1557.54,1355.06Z" style="fill:rgb(77,77,79);"/>
        </g>
        <g transform="matrix(2.00087,0,0,2.00087,-2817.92,-2664.54)">
            <path d="M1465.46,1389.26L1497.62,1389.26C1498.31,1389.26 1498.87,1389.82 1498.87,1390.51C1498.87,1391.2 1498.31,1391.76 1497.62,1391.76L1464.21,1391.76C1463.52,1391.76 1462.96,1391.2 1462.96,1390.51C1462.96,1390.51 1462.96,1358.01 1462.96,1347.87C1462.96,1346.91 1462.18,1346.13 1461.23,1346.13L1317.62,1346.13C1316.93,1346.13 1316.37,1345.58 1316.37,1344.88C1316.37,1344.2 1316.93,1343.64 1317.62,1343.64C1317.62,1343.64 1442.26,1343.64 1461.23,1343.64C1463.56,1343.64 1465.46,1345.53 1465.46,1347.87L1465.46,1389.26Z" style="fill:rgb(77,77,79);"/>
        </g>
        <g transform="matrix(1.65757,0,0,1.65757,-2245.88,-2184.34)">
            <path d="M1489.81,1372.92C1478.76,1372.92 1469.78,1381.9 1469.78,1392.95C1469.78,1404.01 1478.76,1412.99 1489.81,1412.99C1500.87,1412.99 1509.85,1404.01 1509.85,1392.95C1509.85,1381.9 1500.87,1372.92 1489.81,1372.92ZM1489.81,1375.94C1499.2,1375.94 1506.83,1383.56 1506.83,1392.95C1506.83,1402.35 1499.2,1409.97 1489.81,1409.97C1480.42,1409.97 1472.8,1402.35 1472.8,1392.95C1472.8,1383.56 1480.42,1375.94 1489.81,1375.94Z" style="fill:rgb(77,77,79);"/>
        </g>
        <g transform="matrix(1.65757,0,0,1.65757,-2572.21,-2184.34)">
            <path d="M1489.81,1372.92C1478.76,1372.92 1469.78,1381.9 1469.78,1392.95C1469.78,1404.01 1478.76,1412.99 1489.81,1412.99C1500.87,1412.99 1509.85,1404.01 1509.85,1392.95C1509.85,1381.9 1500.87,1372.92 1489.81,1372.92ZM1489.81,1375.94C1499.2,1375.94 1506.83,1383.56 1506.83,1392.95C1506.83,1402.35 1499.2,1409.97 1489.81,1409.97C1480.42,1409.97 1472.8,1402.35 1472.8,1392.95C1472.8,1383.56 1480.42,1375.94 1489.81,1375.94Z" style="fill:rgb(77,77,79);"/>
        </g>
        <g transform="matrix(0.841675,0,0,0.841675,-1356.68,-1047.84)">
            <path d="M1489.81,1371.46C1477.95,1371.46 1468.32,1381.09 1468.32,1392.95C1468.32,1404.82 1477.95,1414.45 1489.81,1414.45C1501.68,1414.45 1511.31,1404.82 1511.31,1392.95C1511.31,1381.09 1501.68,1371.46 1489.81,1371.46ZM1489.81,1377.4C1498.4,1377.4 1505.37,1384.37 1505.37,1392.95C1505.37,1401.54 1498.4,1408.51 1489.81,1408.51C1481.23,1408.51 1474.26,1401.54 1474.26,1392.95C1474.26,1384.37 1481.23,1377.4 1489.81,1377.4Z" style="fill:rgb(77,77,79);"/>
        </g>
        <g transform="matrix(0.841675,0,0,0.841675,-1030.35,-1047.84)">
            <path d="M1489.81,1371.46C1477.95,1371.46 1468.32,1381.09 1468.32,1392.95C1468.32,1404.82 1477.95,1414.45 1489.81,1414.45C1501.68,1414.45 1511.31,1404.82 1511.31,1392.95C1511.31,1381.09 1501.68,1371.46 1489.81,1371.46ZM1489.81,1377.4C1498.4,1377.4 1505.37,1384.37 1505.37,1392.95C1505.37,1401.54 1498.4,1408.51 1489.81,1408.51C1481.23,1408.51 1474.26,1401.54 1474.26,1392.95C1474.26,1384.37 1481.23,1377.4 1489.81,1377.4Z" style="fill:rgb(77,77,79);"/>
        </g>
        <g transform="matrix(2.00087,0,0,2.00087,-2817.92,-2664.54)">
            <path d="M1541.44,1305.65L1523.77,1305.65C1523.08,1305.65 1522.52,1305.09 1522.52,1304.4C1522.52,1303.71 1523.08,1303.15 1523.77,1303.15C1523.77,1303.15 1537.64,1303.15 1541.63,1303.15C1542.91,1303.15 1543.94,1304.18 1543.94,1305.46C1543.94,1309.55 1543.94,1324.23 1543.94,1328.32C1543.94,1328.94 1543.7,1329.53 1543.27,1329.96C1542.83,1330.39 1542.24,1330.64 1541.63,1330.64C1540.92,1330.64 1539.99,1330.64 1539.29,1330.64C1538.05,1330.64 1537.05,1329.63 1537.05,1328.39C1537.05,1324.94 1537.05,1313.55 1537.05,1310.11C1537.05,1308.87 1538.05,1307.86 1539.29,1307.86L1541.44,1307.86L1541.44,1305.65ZM1539.54,1328.14L1541.44,1328.14L1541.44,1310.36L1539.54,1310.36L1539.54,1328.14Z" style="fill:rgb(77,77,79);"/>
        </g>
        <g transform="matrix(2.00087,0,0,2.00087,-2296.56,-2687.53)">
            <path d="M1280,1400.75L1294.42,1400.75C1295.03,1400.75 1295.63,1400.5 1296.06,1400.07C1296.5,1399.63 1296.74,1399.04 1296.74,1398.42C1296.74,1391.58 1296.74,1376.77 1296.74,1370.67C1296.74,1369.1 1296.36,1367.55 1295.63,1366.15L1281.36,1338.87C1281.04,1338.26 1281.27,1337.5 1281.88,1337.18C1282.5,1336.86 1283.25,1337.1 1283.57,1337.71C1283.57,1337.71 1297.85,1364.99 1297.85,1364.99C1298.76,1366.75 1299.24,1368.69 1299.24,1370.67C1299.24,1376.77 1299.24,1391.58 1299.24,1398.42C1299.24,1399.7 1298.73,1400.93 1297.83,1401.83C1296.92,1402.74 1295.7,1403.25 1294.42,1403.25L1278.97,1403.25C1278.37,1403.25 1277.85,1402.81 1277.74,1402.21C1276.21,1393.48 1268.58,1386.83 1259.41,1386.83C1250.24,1386.83 1242.61,1393.48 1241.08,1402.21C1240.98,1402.81 1240.46,1403.25 1239.85,1403.25L1116,1403.25C1115.39,1403.25 1114.87,1402.81 1114.76,1402.21C1113.23,1393.48 1105.6,1386.83 1096.43,1386.83C1087.26,1386.83 1079.63,1393.48 1078.1,1402.21C1078,1402.81 1077.48,1403.25 1076.87,1403.25C1076.87,1403.25 1060.21,1403.25 1060.21,1403.25C1059.04,1403.25 1057.92,1402.78 1057.09,1401.95C1056.26,1401.13 1055.8,1400 1055.8,1398.83C1055.8,1385.49 1055.8,1333.64 1055.8,1316.38C1055.8,1312.58 1058.88,1309.5 1062.67,1309.5C1090.61,1309.5 1240.15,1309.5 1264.04,1309.5C1266.97,1309.5 1269.66,1311.13 1271.02,1313.73L1278.5,1328.01C1278.82,1328.62 1278.58,1329.38 1277.97,1329.69C1277.36,1330.01 1276.6,1329.78 1276.28,1329.17C1276.28,1329.17 1268.81,1314.89 1268.81,1314.89C1267.88,1313.11 1266.04,1312 1264.04,1312C1240.15,1312 1090.61,1312 1062.67,1312C1060.26,1312 1058.3,1313.96 1058.3,1316.38C1058.3,1333.64 1058.3,1385.49 1058.3,1398.83C1058.3,1399.34 1058.5,1399.83 1058.86,1400.19C1059.22,1400.55 1059.7,1400.75 1060.21,1400.75L1075.85,1400.75C1077.99,1391.35 1086.4,1384.33 1096.43,1384.33C1106.47,1384.33 1114.88,1391.35 1117.02,1400.75L1238.83,1400.75C1240.97,1391.35 1249.38,1384.33 1259.41,1384.33C1269.45,1384.33 1277.86,1391.35 1280,1400.75Z" style="fill:rgb(77,77,79);"/>
        </g>
        <g transform="matrix(2.00087,0,0,2.00087,-2296.56,-2687.53)">
            <path d="M1111.78,1419.85L1063.14,1419.85C1062.46,1419.85 1061.9,1420.4 1061.9,1421.09C1061.9,1421.78 1062.46,1422.34 1063.14,1422.34L1111.78,1422.34C1112.47,1422.34 1113.03,1421.78 1113.03,1421.09C1113.03,1420.4 1112.47,1419.85 1111.78,1419.85Z" style="fill:rgb(77,77,79);"/>
        </g>
        <g transform="matrix(2.00087,0,0,2.00087,-2008.76,-2687.53)">
            <path d="M1137.95,1419.85L1089.31,1419.85C1088.62,1419.85 1088.06,1420.4 1088.06,1421.09C1088.06,1421.78 1088.62,1422.34 1089.31,1422.34L1137.95,1422.34C1138.64,1422.34 1139.2,1421.78 1139.2,1421.09C1139.2,1420.4 1138.64,1419.85 1137.95,1419.85Z" style="fill:rgb(77,77,79);"/>
        </g>
        <g transform="matrix(0.745847,0,0,4.57309,-864.72,-6019.75)">
            <path d="M1402.19,1305.1C1402.19,1304.77 1401.38,1304.45 1399.94,1304.22C1398.5,1303.98 1396.55,1303.85 1394.51,1303.85C1381.28,1303.85 1341.46,1303.85 1328.23,1303.85C1326.19,1303.85 1324.24,1303.98 1322.8,1304.22C1321.36,1304.45 1320.55,1304.77 1320.55,1305.1C1320.55,1310.27 1320.55,1342.07 1320.55,1342.07C1320.55,1342.38 1322.05,1342.62 1323.9,1342.62L1398.84,1342.62C1400.69,1342.62 1402.19,1342.38 1402.19,1342.07L1402.19,1305.1ZM1395.49,1341.53L1395.49,1305.1C1395.49,1305.06 1395.39,1305.02 1395.2,1304.99C1395.02,1304.96 1394.77,1304.94 1394.51,1304.94C1381.28,1304.94 1341.46,1304.94 1328.23,1304.94C1327.97,1304.94 1327.72,1304.96 1327.54,1304.99C1327.35,1305.02 1327.25,1305.06 1327.25,1305.1L1327.25,1341.53L1395.49,1341.53Z" style="fill:rgb(77,77,79);"/>
        </g>
    </g>
</svg>
