<?xml version="1.0" encoding="UTF-8" standalone="no"?>
<!DOCTYPE svg PUBLIC "-//W3C//DTD SVG 1.1//EN" "http://www.w3.org/Graphics/SVG/1.1/DTD/svg11.dtd">
<svg width="100%" height="100%" viewBox="0 0 119 91" version="1.1" xmlns="http://www.w3.org/2000/svg" xmlns:xlink="http://www.w3.org/1999/xlink" xml:space="preserve" xmlns:serif="http://www.serif.com/" style="fill-rule:evenodd;clip-rule:evenodd;stroke-linejoin:round;stroke-miterlimit:2;">
    <g transform="matrix(0.244625,0,0,0.244625,44.9448,34.3696)">
        <g transform="matrix(2.75672,0,0,2.12227,-738.752,-4176.01)">
            <path d="M202.454,2076.79L376.678,2076.79C377.179,2076.79 377.585,2076.26 377.585,2075.61C377.585,2074.96 377.179,2074.43 376.678,2074.43L202.454,2074.43C201.953,2074.43 201.547,2074.96 201.547,2075.61C201.547,2076.26 201.953,2076.79 202.454,2076.79Z" style="fill:rgb(77,77,79);"/>
        </g>
        <g transform="matrix(1.51821,0,0,33.5363,-350.488,-68525)">
            <path d="M324.418,2044.4C324.432,2044.38 324.265,2044.36 323.955,2044.35C323.645,2044.33 323.218,2044.32 322.772,2044.32L217.322,2044.32C216.876,2044.32 216.449,2044.33 216.139,2044.35C215.828,2044.36 215.661,2044.38 215.676,2044.4L219.778,2050.14C219.807,2050.18 220.535,2050.21 221.424,2050.21L318.67,2050.21C319.558,2050.21 320.287,2050.18 320.315,2050.14L324.418,2044.4ZM219.022,2044.47L223.018,2050.06L317.075,2050.06L321.071,2044.47L219.022,2044.47Z" style="fill:rgb(95,95,97);"/>
        </g>
        <g transform="matrix(1.51821,0,0,41.2288,-350.488,-84295.8)">
            <path d="M322.899,2046.53C322.911,2046.51 322.744,2046.49 322.436,2046.48C322.128,2046.47 321.705,2046.46 321.263,2046.46L218.835,2046.44C218.389,2046.44 217.961,2046.45 217.648,2046.46C217.336,2046.47 217.167,2046.49 217.178,2046.5L219.778,2050.14C219.802,2050.17 220.532,2050.2 221.424,2050.2L318.67,2050.2C319.562,2050.2 320.292,2050.17 320.316,2050.14L322.899,2046.53ZM223.028,2050.08L317.066,2050.08L319.562,2046.59L220.515,2046.56L223.028,2050.08Z" style="fill:rgb(95,95,97);"/>
        </g>
        <g transform="matrix(1.51821,0,0,41.2288,-350.488,-84295.8)">
            <path d="M321.872,2047.96C321.883,2047.95 321.716,2047.93 321.408,2047.92C321.1,2047.91 320.677,2047.9 320.234,2047.9L219.503,2047.88C219.056,2047.88 218.627,2047.89 218.315,2047.9C218.003,2047.91 217.835,2047.93 217.849,2047.94L219.778,2050.14C219.807,2050.17 220.535,2050.2 221.424,2050.2L318.67,2050.2C319.562,2050.2 320.292,2050.17 320.316,2050.14L321.872,2047.96ZM223.018,2050.08L317.066,2050.08L318.535,2048.02L221.196,2048L223.018,2050.08Z" style="fill:rgb(95,95,97);"/>
        </g>
        <g transform="matrix(0.753851,0,0,66.3017,-144.075,-135699)">
            <path d="M321.986,2049.11C321.986,2049.09 320.526,2049.07 318.711,2049.07L221.466,2049.05C220.579,2049.05 219.725,2049.06 219.094,2049.07C218.463,2049.07 218.108,2049.08 218.108,2049.09L218.108,2050.14C218.108,2050.16 219.593,2050.18 221.424,2050.18L318.67,2050.18C320.501,2050.18 321.986,2050.16 321.986,2050.14L321.986,2049.11ZM224.74,2050.1L315.353,2050.1L315.353,2049.14L224.74,2049.13L224.74,2050.1Z" style="fill:rgb(95,95,97);"/>
        </g>
        <g transform="matrix(1.51821,1.58536e-17,-4.12013e-17,-5.62543,-350.488,11537.1)">
            <path d="M322.772,2043.95C323.682,2043.95 324.419,2044.15 324.419,2044.4L324.419,2050.14C324.419,2050.38 323.682,2050.58 322.772,2050.58L217.322,2050.58C216.412,2050.58 215.675,2050.38 215.675,2050.14L215.675,2044.4C215.675,2044.15 216.412,2043.95 217.322,2043.95L322.772,2043.95ZM218.968,2049.69L218.968,2044.84L321.125,2044.84L321.125,2049.69L218.968,2049.69Z" style="fill:rgb(95,95,97);"/>
        </g>
        <g transform="matrix(1.51821,0,0,39.1617,-510.585,-80057.9)">
            <path d="M324.419,2044.4C324.419,2044.37 324.031,2044.35 323.431,2044.34L217.981,2042.56C217.471,2042.55 216.885,2042.55 216.42,2042.56C215.955,2042.57 215.675,2042.59 215.675,2042.61L215.675,2043.91C215.675,2043.94 216.137,2043.96 216.818,2043.97L322.268,2045.28C322.769,2045.29 323.317,2045.29 323.742,2045.28C324.167,2045.26 324.419,2045.24 324.419,2045.22L324.419,2044.4ZM218.968,2043.86L321.125,2045.14L321.125,2044.44L218.968,2042.71L218.968,2043.86Z" style="fill:rgb(95,95,97);"/>
        </g>
        <g transform="matrix(1.12286,0,0,1.38947,-2218.82,-4491.34)">
            <path d="M1835.14,3397.41C1835.26,3398.33 1836.21,3399.03 1837.35,3399.03L1963.29,3399.03C1963.89,3399.03 1964.47,3398.83 1964.89,3398.48C1965.31,3398.13 1965.54,3397.66 1965.52,3397.17L1962.93,3332.59C1962.89,3331.67 1962.02,3330.93 1960.9,3330.85L1828.22,3321.64C1827.56,3321.6 1826.91,3321.79 1826.44,3322.17C1825.98,3322.56 1825.75,3323.08 1825.81,3323.62L1835.14,3397.41ZM1839.37,3395.43L1960.99,3395.43L1958.54,3334.3L1830.52,3325.41L1839.37,3395.43Z" style="fill:rgb(95,95,97);"/>
        </g>
        <g transform="matrix(1.12286,0,0,1.38947,-2218.82,-4491.34)">
            <path d="M1835.14,3397.41C1835.26,3398.33 1836.21,3399.03 1837.35,3399.03L1963.29,3399.03C1963.89,3399.03 1964.47,3398.83 1964.89,3398.48C1965.31,3398.13 1965.54,3397.66 1965.52,3397.17L1959.97,3258.65C1959.94,3257.89 1959.32,3257.22 1958.43,3256.99L1815.85,3219.96C1815.13,3219.77 1814.35,3219.89 1813.76,3220.27C1813.18,3220.65 1812.87,3221.25 1812.95,3221.85L1835.14,3397.41ZM1839.37,3395.43L1960.99,3395.43L1955.57,3260.03L1817.73,3224.22L1839.37,3395.43Z" style="fill:rgb(95,95,97);"/>
        </g>
        <g transform="matrix(1.12286,0,0,1.38947,-2218.82,-4491.34)">
            <path d="M1835.14,3397.41C1835.26,3398.33 1836.21,3399.03 1837.35,3399.03L1963.29,3399.03C1963.89,3399.03 1964.47,3398.83 1964.89,3398.48C1965.31,3398.13 1965.54,3397.66 1965.52,3397.17L1961.21,3289.64C1961.18,3288.8 1960.43,3288.09 1959.41,3287.93L1821.45,3266.29C1820.76,3266.18 1820.05,3266.35 1819.53,3266.73C1819.01,3267.12 1818.74,3267.68 1818.81,3268.24L1835.14,3397.41ZM1839.37,3395.43L1960.99,3395.43L1956.82,3291.19L1823.55,3270.29L1839.37,3395.43Z" style="fill:rgb(95,95,97);"/>
        </g>
        <g transform="matrix(-1.51821,0,0,39.1617,629.506,-80057.9)">
            <path d="M323.431,2044.34C324.031,2044.35 324.419,2044.37 324.419,2044.4L324.419,2045.22C324.419,2045.24 324.167,2045.26 323.742,2045.28C323.317,2045.29 322.769,2045.29 322.268,2045.28L216.818,2043.97C216.137,2043.96 215.675,2043.94 215.675,2043.91L215.675,2042.61C215.675,2042.59 215.955,2042.57 216.42,2042.56C216.885,2042.55 217.471,2042.55 217.981,2042.56L323.431,2044.34ZM321.125,2044.44L321.125,2045.14L218.968,2043.86L218.968,2042.71L321.125,2044.44Z" style="fill:rgb(95,95,97);"/>
        </g>
        <g transform="matrix(-1.12286,0,0,1.38947,2337.74,-4491.34)">
            <path d="M1837.35,3399.03C1836.21,3399.03 1835.26,3398.33 1835.14,3397.41L1825.81,3323.62C1825.75,3323.08 1825.98,3322.56 1826.44,3322.17C1826.91,3321.79 1827.56,3321.6 1828.22,3321.64L1960.9,3330.85C1962.02,3330.93 1962.89,3331.67 1962.93,3332.59L1965.52,3397.17C1965.54,3397.66 1965.31,3398.13 1964.89,3398.48C1964.47,3398.83 1963.89,3399.03 1963.29,3399.03L1837.35,3399.03ZM1958.54,3334.3L1960.99,3395.43L1839.37,3395.43L1830.52,3325.41L1958.54,3334.3Z" style="fill:rgb(95,95,97);"/>
        </g>
        <g transform="matrix(-1.12286,0,0,1.38947,2337.74,-4491.34)">
            <path d="M1837.35,3399.03C1836.21,3399.03 1835.26,3398.33 1835.14,3397.41L1812.95,3221.85C1812.87,3221.25 1813.18,3220.65 1813.76,3220.27C1814.35,3219.89 1815.13,3219.77 1815.85,3219.96L1958.43,3256.99C1959.32,3257.22 1959.94,3257.89 1959.97,3258.65L1965.52,3397.17C1965.54,3397.66 1965.31,3398.13 1964.89,3398.48C1964.47,3398.83 1963.89,3399.03 1963.29,3399.03L1837.35,3399.03ZM1955.57,3260.03L1960.99,3395.43L1839.37,3395.43L1817.73,3224.22L1955.57,3260.03Z" style="fill:rgb(95,95,97);"/>
        </g>
        <g transform="matrix(-1.12286,0,0,1.38947,2337.74,-4491.34)">
            <path d="M1837.35,3399.03C1836.21,3399.03 1835.26,3398.33 1835.14,3397.41L1818.81,3268.24C1818.74,3267.68 1819.01,3267.12 1819.53,3266.73C1820.05,3266.35 1820.76,3266.18 1821.45,3266.29L1959.41,3287.93C1960.43,3288.09 1961.18,3288.8 1961.21,3289.64L1965.52,3397.17C1965.54,3397.66 1965.31,3398.13 1964.89,3398.48C1964.47,3398.83 1963.89,3399.03 1963.29,3399.03L1837.35,3399.03ZM1956.82,3291.19L1960.99,3395.43L1839.37,3395.43L1823.55,3270.29L1956.82,3291.19Z" style="fill:rgb(95,95,97);"/>
        </g>
        <g transform="matrix(1,0,0,1.23744,-1955.12,-3962.06)">
            <path d="M2045.09,3090.59C2045.19,3090.01 2044.97,3089.42 2044.5,3088.98C2044.03,3088.54 2043.34,3088.28 2042.61,3088.28L1986.64,3088.28C1985.91,3088.28 1985.23,3088.54 1984.75,3088.98C1984.28,3089.42 1984.06,3090.01 1984.16,3090.59L1989.16,3118.74C1989.34,3119.73 1990.4,3120.47 1991.64,3120.47L2037.61,3120.47C2038.85,3120.47 2039.91,3119.73 2040.09,3118.74L2045.09,3090.59ZM1989.52,3092.32L1993.81,3116.43L2035.44,3116.43L2039.73,3092.32L1989.52,3092.32Z" style="fill:rgb(95,95,97);"/>
        </g>
        <g transform="matrix(-1,0,0,1.23744,2203.99,-3949.64)">
            <path d="M2052.08,3088.33C2052.99,3088.17 2053.95,3088.43 2054.54,3089.02C2055.14,3089.6 2055.28,3090.41 2054.91,3091.1L2039.91,3119.25C2039.61,3119.81 2039.01,3120.23 2038.28,3120.4L2002.31,3128.47C2001.5,3128.65 2000.62,3128.49 1999.99,3128.04C1999.36,3127.59 1999.05,3126.91 1999.16,3126.23L2004.16,3098.09C2004.31,3097.25 2005.09,3096.58 2006.11,3096.4L2052.08,3088.33ZM2035.79,3116.76L2004.66,3123.75L2008.87,3100.05L2048.39,3093.11L2035.79,3116.76Z" style="fill:rgb(95,95,97);"/>
        </g>
        <g transform="matrix(1,0,0,1.23744,-1968.5,-3974.87)">
            <path d="M2150.88,3144.09L2168.57,3162.89C2169.4,3163.78 2170.97,3163.95 2172.07,3163.28C2173.17,3162.61 2173.38,3161.34 2172.55,3160.45L2154.86,3141.65C2154.03,3140.76 2152.46,3140.59 2151.36,3141.26C2150.26,3141.94 2150.05,3143.21 2150.88,3144.09Z" style="fill:rgb(95,95,97);"/>
        </g>
        <g transform="matrix(1,0,0,1.23744,-2084.69,-3949.64)">
            <path d="M2054.91,3091.1C2055.28,3090.41 2055.14,3089.6 2054.54,3089.02C2053.95,3088.43 2052.99,3088.17 2052.08,3088.33L2006.11,3096.4C2005.09,3096.58 2004.31,3097.25 2004.16,3098.09L1999.16,3126.23C1999.05,3126.91 1999.36,3127.59 1999.99,3128.04C2000.62,3128.49 2001.5,3128.65 2002.31,3128.47L2038.28,3120.4C2039.01,3120.23 2039.61,3119.81 2039.91,3119.25L2054.91,3091.1ZM2008.87,3100.05L2004.66,3123.75L2035.79,3116.76L2048.39,3093.11L2008.87,3100.05Z" style="fill:rgb(95,95,97);"/>
        </g>
        <g transform="matrix(1,0,0,1.23744,-1968.5,-3974.87)">
            <path d="M1900.86,3169.62L1904.11,3170.35C1905.2,3170.59 1905.96,3171.41 1905.94,3172.33C1905.92,3173.25 1905.13,3174.04 1904.03,3174.26L1853.84,3184.13C1853.3,3184.23 1852.75,3184.19 1852.24,3184.01L1821.95,3173.31C1820.94,3172.95 1820.34,3172.11 1820.46,3171.23C1820.59,3170.35 1821.4,3169.64 1822.47,3169.47L1901.55,3157.08C1902.4,3156.95 1903.28,3157.18 1903.87,3157.7C1904.46,3158.22 1904.67,3158.95 1904.43,3159.63L1900.86,3169.62ZM1898.49,3161.68L1831.31,3172.2L1853.47,3180.04L1895.45,3171.79C1895.24,3171.37 1895.2,3170.9 1895.36,3170.46L1898.49,3161.68Z" style="fill:rgb(95,95,97);"/>
        </g>
        <g transform="matrix(1,0,0,0.550409,-1968.5,-1806.81)">
            <path d="M2107.91,3153.43C2107.47,3152.02 2106.64,3151.15 2105.74,3151.15L1950.38,3151.15C1949.49,3151.15 1948.66,3152.02 1948.21,3153.43L1937.59,3186.98C1937.15,3188.39 1937.15,3190.12 1937.6,3191.52C1938.04,3192.92 1938.87,3193.79 1939.76,3193.79L2116.36,3193.79C2117.26,3193.79 2118.08,3192.92 2118.53,3191.52C2118.97,3190.12 2118.98,3188.39 2118.53,3186.98L2107.91,3153.43ZM1951.83,3160.23L1944.08,3184.7L2112.04,3184.7L2104.3,3160.23L1951.83,3160.23Z" style="fill:rgb(95,95,97);"/>
        </g>
        <g transform="matrix(1,0,0,1.23744,-1847.75,-3909.81)">
            <path d="M2029.96,3089.71C2029.6,3088.69 2028.31,3088.07 2027.03,3088.29L1981.06,3096.36C1980.28,3096.5 1979.62,3096.93 1979.3,3097.52C1978.98,3098.11 1979.02,3098.78 1979.42,3099.34L1999.47,3127.53C2000.04,3128.33 2001.21,3128.71 2002.31,3128.47L2038.28,3120.4C2038.92,3120.25 2039.47,3119.91 2039.79,3119.44C2040.12,3118.97 2040.2,3118.41 2040.01,3117.89L2029.96,3089.71ZM1985.46,3099.72L2002.84,3124.15L2034.51,3117.05L2025.8,3092.64L1985.46,3099.72Z" style="fill:rgb(95,95,97);"/>
        </g>
        <g transform="matrix(-1,0,0,1.23744,1966.87,-3909.81)">
            <path d="M2027.03,3088.29C2028.31,3088.07 2029.6,3088.69 2029.96,3089.71L2040.01,3117.89C2040.2,3118.41 2040.12,3118.97 2039.79,3119.44C2039.47,3119.91 2038.92,3120.25 2038.28,3120.4L2002.31,3128.47C2001.21,3128.71 2000.04,3128.33 1999.47,3127.53L1979.42,3099.34C1979.02,3098.78 1978.98,3098.11 1979.3,3097.52C1979.62,3096.93 1980.28,3096.5 1981.06,3096.36L2027.03,3088.29ZM2034.51,3117.05L2002.84,3124.15L1985.46,3099.72L2025.8,3092.64L2034.51,3117.05Z" style="fill:rgb(95,95,97);"/>
        </g>
        <g transform="matrix(-1,0,0,1.23744,2087.81,-3974.87)">
            <path d="M2154.86,3141.65L2172.54,3160.39C2173.38,3161.28 2173.17,3162.55 2172.07,3163.22C2170.97,3163.9 2169.4,3163.73 2168.57,3162.84L2150.89,3144.1C2150.05,3143.21 2150.26,3141.94 2151.36,3141.26C2152.45,3140.59 2154.03,3140.76 2154.86,3141.65Z" style="fill:rgb(95,95,97);"/>
        </g>
        <g transform="matrix(-1,0,0,1.23744,2096.65,-3935.04)">
            <path d="M2154.96,3141.76L2172.64,3163.47C2173.4,3164.4 2173.08,3165.66 2171.93,3166.27C2170.78,3166.88 2169.23,3166.62 2168.47,3165.69L2150.78,3143.98C2150.03,3143.05 2150.35,3141.8 2151.5,3141.18C2152.65,3140.57 2154.2,3140.83 2154.96,3141.76Z" style="fill:rgb(95,95,97);"/>
        </g>
        <g transform="matrix(1,0,0,1.23744,-1968.5,-3974.87)">
            <path d="M2155.26,3169.62L2151.71,3159.66C2151.47,3158.98 2151.68,3158.25 2152.27,3157.74C2152.85,3157.22 2153.73,3156.98 2154.59,3157.12L2233.53,3169.47C2234.61,3169.64 2235.42,3170.35 2235.54,3171.23C2235.66,3172.11 2235.06,3172.95 2234.06,3173.31L2203.76,3184.01C2203.26,3184.19 2202.7,3184.23 2202.17,3184.13L2152.1,3174.26C2150.99,3174.04 2150.21,3173.24 2150.19,3172.33C2150.17,3171.41 2150.92,3170.59 2152.02,3170.35L2155.26,3169.62ZM2157.64,3161.71L2160.77,3170.46C2160.92,3170.9 2160.89,3171.37 2160.68,3171.79L2202.53,3180.04L2224.7,3172.2L2157.64,3161.71Z" style="fill:rgb(95,95,97);"/>
        </g>
        <g transform="matrix(1,0,0,1.23744,-1977.53,-3935.04)">
            <path d="M2150.65,3143.8L2165.17,3166.62C2165.8,3167.61 2167.31,3168 2168.53,3167.49C2169.76,3166.98 2170.25,3165.76 2169.62,3164.77L2155.1,3141.95C2154.47,3140.96 2152.96,3140.57 2151.73,3141.08C2150.5,3141.59 2150.02,3142.8 2150.65,3143.8Z" style="fill:rgb(95,95,97);"/>
        </g>
        <g transform="matrix(1,0,0,1.23744,-1968.5,-3974.87)">
            <path d="M2030.5,3155.69L2030.5,3128.8C2030.5,3127.68 2029.38,3126.78 2028,3126.78C2026.62,3126.78 2025.5,3127.68 2025.5,3128.8L2025.5,3155.69C2025.5,3156.81 2026.62,3157.71 2028,3157.71C2029.38,3157.71 2030.5,3156.81 2030.5,3155.69Z" style="fill:rgb(95,95,97);"/>
        </g>
        <g transform="matrix(1,0,0,1.23744,-1968.5,-3974.87)">
            <path d="M1959.81,3205.62L1940,3214.16C1938.78,3214.68 1937.27,3214.31 1936.62,3213.32C1935.97,3212.34 1936.43,3211.12 1937.65,3210.59L1958.01,3201.81C1958.37,3201.66 1958.77,3201.58 1959.18,3201.58L2097.51,3201.58C2097.93,3201.58 2098.35,3201.66 2098.72,3201.83L2118.38,3210.58C2119.59,3211.12 2120.03,3212.35 2119.37,3213.32C2118.7,3214.3 2117.18,3214.66 2115.97,3214.12L2096.87,3205.62L1959.81,3205.62Z" style="fill:rgb(95,95,97);"/>
        </g>
        <g transform="matrix(1.26378,0,0,1.56385,-2503.45,-5038.79)">
            <path d="M1959.56,3205.19L1931.16,3214.16C1930.14,3214.48 1928.99,3214.08 1928.59,3213.26C1928.2,3212.43 1928.7,3211.51 1929.72,3211.18L1958.46,3202.11C1958.69,3202.03 1958.94,3202 1959.18,3202L2097.51,3202C2097.76,3202 2098.01,3202.03 2098.24,3202.11L2126.4,3211.13C2127.42,3211.45 2127.91,3212.39 2127.51,3213.2C2127.11,3214.03 2125.96,3214.43 2124.95,3214.1L2097.13,3205.19L1959.56,3205.19Z" style="fill:rgb(95,95,97);"/>
        </g>
    </g>
</svg>
