<?xml version="1.0" encoding="UTF-8" standalone="no"?>
<!DOCTYPE svg PUBLIC "-//W3C//DTD SVG 1.1//EN" "http://www.w3.org/Graphics/SVG/1.1/DTD/svg11.dtd">
<svg width="100%" height="100%" viewBox="0 0 119 91" version="1.1" xmlns="http://www.w3.org/2000/svg" xmlns:xlink="http://www.w3.org/1999/xlink" xml:space="preserve" xmlns:serif="http://www.serif.com/" style="fill-rule:evenodd;clip-rule:evenodd;stroke-linejoin:round;stroke-miterlimit:2;">
    <g transform="matrix(0.244513,0,0,0.244513,44.9515,34.3746)">
        <g transform="matrix(2.00087,0,0,2.00087,-1545.33,-3449.33)">
            <path d="M795.965,1686.82C795.7,1687.19 795.658,1687.67 795.855,1688.09L800.943,1698.69C801.151,1699.12 801.589,1699.4 802.069,1699.4C802.55,1699.4 802.988,1699.12 803.196,1698.69L808.283,1688.09C808.48,1687.67 808.438,1687.19 808.173,1686.82L803.086,1679.69C802.851,1679.37 802.473,1679.17 802.069,1679.17C801.666,1679.17 801.287,1679.37 801.052,1679.69L795.965,1686.82ZM798.428,1687.67L802.069,1695.26L805.711,1687.67L802.069,1682.57L798.428,1687.67Z" style="fill:rgb(77,77,79);"/>
        </g>
        <g transform="matrix(1.53442,0,0,1.53442,-1226.16,-2597.8)">
            <path d="M795.656,1686.6C795.311,1687.08 795.256,1687.71 795.513,1688.25L800.6,1698.85C800.871,1699.42 801.443,1699.78 802.069,1699.78C802.696,1699.78 803.267,1699.42 803.538,1698.85L808.625,1688.25C808.882,1687.71 808.828,1687.08 808.482,1686.6L803.395,1679.47C803.089,1679.05 802.595,1678.79 802.069,1678.79C801.543,1678.79 801.049,1679.05 800.743,1679.47L795.656,1686.6ZM798.867,1687.71L802.069,1694.38L805.271,1687.71L802.069,1683.23L798.867,1687.71Z" style="fill:rgb(77,77,79);"/>
        </g>
        <g transform="matrix(2.00087,0,0,2.00087,-1542.79,-3458.32)">
            <path d="M817.867,1711.65L838.929,1711.65C839.618,1711.65 840.178,1711.09 840.178,1710.4C840.178,1709.71 839.618,1709.15 838.929,1709.15L817.867,1709.15C817.178,1709.15 816.618,1709.71 816.618,1710.4C816.618,1711.09 817.178,1711.65 817.867,1711.65Z" style="fill:rgb(77,77,79);"/>
        </g>
        <g transform="matrix(1.53442,0,0,1.53442,-1116.27,-2597.8)">
            <path d="M795.656,1686.6C795.311,1687.08 795.256,1687.71 795.513,1688.25L800.6,1698.85C800.871,1699.42 801.443,1699.78 802.069,1699.78C802.696,1699.78 803.267,1699.42 803.538,1698.85L808.625,1688.25C808.882,1687.71 808.828,1687.08 808.482,1686.6L803.395,1679.47C803.089,1679.05 802.595,1678.79 802.069,1678.79C801.543,1678.79 801.049,1679.05 800.743,1679.47L795.656,1686.6ZM798.867,1687.71L802.069,1694.38L805.271,1687.71L802.069,1683.23L798.867,1687.71Z" style="fill:rgb(77,77,79);"/>
        </g>
        <g transform="matrix(2.00087,0,0,2.00087,-1542.79,-3458.32)">
            <path d="M796.312,1669.93C796.434,1668.71 796.688,1666.71 797.179,1664.7C797.741,1662.4 798.642,1660.13 799.913,1658.86C800.147,1658.62 800.466,1658.49 800.798,1658.49C801.13,1658.49 801.448,1658.63 801.682,1658.86C801.682,1658.86 801.748,1658.93 801.751,1658.93C802.996,1660.19 803.881,1662.45 804.432,1664.74C804.912,1666.73 805.162,1668.72 805.282,1669.93L814.707,1669.93C815.397,1669.93 815.956,1670.49 815.956,1671.18L815.956,1676.64C815.956,1677.33 815.397,1677.89 814.707,1677.89L786.885,1677.89C786.195,1677.89 785.636,1677.33 785.636,1676.64C785.636,1676.64 785.636,1674.82 785.636,1673.28C785.636,1672.39 785.989,1671.54 786.617,1670.91C787.245,1670.29 788.097,1669.93 788.985,1669.93L796.312,1669.93ZM800.804,1661.86C800.283,1662.84 799.905,1664.07 799.606,1665.3C798.878,1668.27 798.708,1671.25 798.708,1671.25C798.67,1671.91 798.123,1672.43 797.46,1672.43C797.46,1672.43 792.069,1672.43 788.985,1672.43C788.76,1672.43 788.543,1672.52 788.384,1672.68C788.224,1672.84 788.135,1673.06 788.135,1673.28L788.135,1675.39L813.457,1675.39L813.457,1672.43L804.132,1672.43C803.469,1672.43 802.921,1671.91 802.884,1671.25C802.884,1671.25 802.717,1668.29 802.003,1665.32C801.705,1664.09 801.327,1662.84 800.804,1661.86Z" style="fill:rgb(77,77,79);"/>
        </g>
        <g transform="matrix(2.00087,0,0,2.00087,-1542.79,-3458.32)">
            <path d="M773.335,1703.41C772.948,1703.88 772.271,1704.01 771.739,1703.7C771.197,1703.38 770.974,1702.71 771.217,1702.13C774.737,1693.78 779.34,1684.63 785.241,1675.94C785.474,1675.6 785.861,1675.39 786.275,1675.39L815.317,1675.39C815.731,1675.39 816.118,1675.6 816.351,1675.94C822.252,1684.63 826.855,1693.78 830.375,1702.13C830.618,1702.71 830.395,1703.38 829.853,1703.7C829.321,1704.01 828.645,1703.88 828.257,1703.41C827.221,1704.76 826.993,1705.82 826.993,1705.82C826.882,1706.4 826.366,1706.83 825.765,1706.83L819.449,1706.83C819.266,1706.83 819.117,1706.98 819.117,1707.16L819.117,1710.4C819.117,1711.09 818.557,1711.65 817.867,1711.65C817.178,1711.65 816.618,1711.09 816.618,1710.4L816.618,1707.16C816.618,1705.6 817.886,1704.33 819.449,1704.33L824.855,1704.33C825.189,1703.5 825.851,1702.24 827.124,1700.89C823.874,1693.47 819.768,1685.52 814.653,1677.89L786.939,1677.89C781.824,1685.52 777.718,1693.47 774.469,1700.89C775.741,1702.24 776.404,1703.5 776.737,1704.33L782.136,1704.33C783.704,1704.33 784.974,1705.6 784.974,1707.17L784.974,1710.4C784.974,1711.09 784.414,1711.65 783.725,1711.65C783.035,1711.65 782.475,1711.09 782.475,1710.4L782.475,1707.17C782.475,1706.99 782.323,1706.83 782.136,1706.83C779.83,1706.83 775.827,1706.83 775.827,1706.83C775.226,1706.83 774.71,1706.4 774.599,1705.82C774.599,1705.82 774.371,1704.76 773.335,1703.41Z" style="fill:rgb(77,77,79);"/>
        </g>
        <g transform="matrix(2.00087,0,0,2.00087,-1542.79,-3458.32)">
            <path d="M769.934,1704.33C770.289,1703.44 771.015,1702.07 772.452,1700.64C772.687,1700.4 773.006,1700.27 773.338,1700.27C773.67,1700.27 773.988,1700.4 774.222,1700.64C774.222,1700.64 774.271,1700.69 774.274,1700.69C775.675,1702.11 776.387,1703.46 776.737,1704.33L781.988,1704.33C782.78,1704.33 783.539,1704.65 784.1,1705.21C784.66,1705.77 784.974,1706.53 784.974,1707.32L784.974,1709.61C784.998,1709.63 785.02,1709.66 785.042,1709.69C798.259,1729.16 802.637,1753.72 802.637,1753.72C802.701,1754.08 802.602,1754.46 802.364,1754.74C802.127,1755.02 801.776,1755.19 801.407,1755.19L745.265,1755.19C744.895,1755.19 744.544,1755.02 744.307,1754.74C744.07,1754.46 743.97,1754.08 744.035,1753.72C744.035,1753.72 748.412,1729.16 761.63,1709.69C761.651,1709.66 761.673,1709.63 761.697,1709.61L761.697,1707.32C761.697,1706.53 762.012,1705.77 762.572,1705.21C763.132,1704.65 763.892,1704.33 764.684,1704.33L769.934,1704.33ZM773.336,1703.41C772.3,1704.76 772.072,1705.82 772.072,1705.82C771.961,1706.4 771.445,1706.83 770.845,1706.83C770.845,1706.83 767.009,1706.83 764.684,1706.83C764.554,1706.83 764.43,1706.88 764.339,1706.98C764.248,1707.07 764.196,1707.19 764.196,1707.32L764.196,1710.4C764.196,1710.93 763.857,1711.39 763.381,1711.57C752.582,1727.72 747.93,1747.25 746.787,1752.69L799.884,1752.69C798.741,1747.25 794.089,1727.72 783.291,1711.57C782.815,1711.39 782.475,1710.93 782.475,1710.4L782.475,1707.32C782.475,1707.19 782.424,1707.07 782.333,1706.98C782.241,1706.88 782.117,1706.83 781.988,1706.83L775.827,1706.83C775.226,1706.83 774.71,1706.4 774.599,1705.82C774.599,1705.82 774.371,1704.76 773.336,1703.41Z" style="fill:rgb(77,77,79);"/>
        </g>
        <g transform="matrix(2.00087,0,0,2.00087,-1542.79,-3458.32)">
            <path d="M824.855,1704.33C825.21,1703.44 825.936,1702.07 827.373,1700.64C827.608,1700.4 827.926,1700.27 828.258,1700.27C828.59,1700.27 828.908,1700.4 829.142,1700.64C829.142,1700.64 829.192,1700.69 829.195,1700.69C830.595,1702.11 831.308,1703.46 831.658,1704.33L836.909,1704.33C837.701,1704.33 838.46,1704.65 839.02,1705.21C839.58,1705.77 839.895,1706.53 839.895,1707.32L839.895,1709.61C839.919,1709.63 839.941,1709.66 839.962,1709.69C853.18,1729.16 857.557,1753.72 857.557,1753.72C857.622,1754.08 857.522,1754.46 857.285,1754.74C857.048,1755.02 856.697,1755.19 856.327,1755.19L800.186,1755.19C799.816,1755.19 799.465,1755.02 799.228,1754.74C798.99,1754.46 798.891,1754.08 798.956,1753.72C798.956,1753.72 803.333,1729.16 816.551,1709.69C816.572,1709.66 816.594,1709.63 816.618,1709.61L816.618,1707.32C816.618,1706.53 816.933,1705.77 817.493,1705.21C818.053,1704.65 818.812,1704.33 819.604,1704.33L824.855,1704.33ZM828.257,1703.41C827.221,1704.76 826.993,1705.82 826.993,1705.82C826.882,1706.4 826.366,1706.83 825.765,1706.83C825.765,1706.83 821.929,1706.83 819.604,1706.83C819.475,1706.83 819.351,1706.88 819.26,1706.98C819.168,1707.07 819.117,1707.19 819.117,1707.32L819.117,1710.4C819.117,1710.93 818.778,1711.39 818.301,1711.57C807.503,1727.72 802.851,1747.25 801.708,1752.69L854.805,1752.69C853.662,1747.25 849.009,1727.72 838.211,1711.57C837.735,1711.39 837.396,1710.93 837.396,1710.4L837.396,1707.32C837.396,1707.19 837.345,1707.07 837.253,1706.98C837.162,1706.88 837.038,1706.83 836.909,1706.83L830.748,1706.83C830.147,1706.83 829.631,1706.4 829.52,1705.82C829.52,1705.82 829.292,1704.76 828.257,1703.41Z" style="fill:rgb(77,77,79);"/>
        </g>
        <g transform="matrix(1.82004,0,0,2.00087,-1358.64,-3458.32)">
            <path d="M753.422,1755.48C753.422,1753.94 752.046,1752.69 750.352,1752.69C750.352,1752.69 746.961,1752.69 746.961,1752.69C745.267,1752.69 743.891,1753.94 743.891,1755.48C743.891,1755.48 743.891,1770.27 743.891,1770.27C743.891,1771.81 745.267,1773.06 746.961,1773.06L750.352,1773.06C752.046,1773.06 753.422,1771.81 753.422,1770.27C753.422,1770.27 753.422,1755.48 753.422,1755.48ZM750.674,1755.48L750.674,1770.27C750.674,1770.43 750.53,1770.57 750.352,1770.57C750.352,1770.57 746.961,1770.57 746.961,1770.57C746.783,1770.57 746.639,1770.43 746.639,1770.27L746.639,1755.48C746.639,1755.32 746.783,1755.19 746.961,1755.19L750.352,1755.19C750.53,1755.19 750.674,1755.32 750.674,1755.48Z" style="fill:rgb(77,77,79);"/>
        </g>
        <g transform="matrix(1.82004,0,0,2.00087,-1333.95,-3458.32)">
            <path d="M753.422,1755.48C753.422,1753.94 752.046,1752.69 750.352,1752.69C750.352,1752.69 746.961,1752.69 746.961,1752.69C745.267,1752.69 743.891,1753.94 743.891,1755.48L743.891,1770.27C743.891,1771.81 745.267,1773.06 746.961,1773.06L750.352,1773.06C752.046,1773.06 753.422,1771.81 753.422,1770.27C753.422,1770.27 753.422,1755.48 753.422,1755.48ZM750.674,1755.48L750.674,1770.27C750.674,1770.43 750.53,1770.57 750.352,1770.57C750.352,1770.57 746.961,1770.57 746.961,1770.57C746.783,1770.57 746.639,1770.43 746.639,1770.27C746.639,1770.27 746.639,1755.48 746.639,1755.48C746.639,1755.32 746.783,1755.19 746.961,1755.19L750.352,1755.19C750.53,1755.19 750.674,1755.32 750.674,1755.48Z" style="fill:rgb(77,77,79);"/>
        </g>
        <g transform="matrix(1.82004,0,0,2.00087,-1309.26,-3458.32)">
            <path d="M753.422,1755.48C753.422,1753.94 752.046,1752.69 750.352,1752.69C750.352,1752.69 746.961,1752.69 746.961,1752.69C745.267,1752.69 743.891,1753.94 743.891,1755.48C743.891,1755.48 743.891,1770.27 743.891,1770.27C743.891,1771.81 745.267,1773.06 746.961,1773.06L750.352,1773.06C752.046,1773.06 753.422,1771.81 753.422,1770.27L753.422,1755.48ZM750.674,1755.48L750.674,1770.27C750.674,1770.43 750.53,1770.57 750.352,1770.57C750.352,1770.57 746.961,1770.57 746.961,1770.57C746.783,1770.57 746.639,1770.43 746.639,1770.27L746.639,1755.48C746.639,1755.32 746.783,1755.19 746.961,1755.19L750.352,1755.19C750.53,1755.19 750.674,1755.32 750.674,1755.48Z" style="fill:rgb(77,77,79);"/>
        </g>
        <g transform="matrix(1.82004,0,0,2.00087,-1284.57,-3458.32)">
            <path d="M753.422,1755.48C753.422,1753.94 752.046,1752.69 750.352,1752.69C750.352,1752.69 746.961,1752.69 746.961,1752.69C745.267,1752.69 743.891,1753.94 743.891,1755.48L743.891,1770.27C743.891,1771.81 745.267,1773.06 746.961,1773.06L750.352,1773.06C752.046,1773.06 753.422,1771.81 753.422,1770.27C753.422,1770.27 753.422,1755.48 753.422,1755.48ZM750.674,1755.48L750.674,1770.27C750.674,1770.43 750.53,1770.57 750.352,1770.57C750.352,1770.57 746.961,1770.57 746.961,1770.57C746.783,1770.57 746.639,1770.43 746.639,1770.27C746.639,1770.27 746.639,1755.48 746.639,1755.48C746.639,1755.32 746.783,1755.19 746.961,1755.19L750.352,1755.19C750.53,1755.19 750.674,1755.32 750.674,1755.48Z" style="fill:rgb(77,77,79);"/>
        </g>
        <g transform="matrix(1.82004,0,0,2.00087,-1259.88,-3458.32)">
            <path d="M753.422,1755.48C753.422,1753.94 752.046,1752.69 750.352,1752.69C750.352,1752.69 746.961,1752.69 746.961,1752.69C745.267,1752.69 743.891,1753.94 743.891,1755.48L743.891,1770.27C743.891,1771.81 745.267,1773.06 746.961,1773.06L750.352,1773.06C752.046,1773.06 753.422,1771.81 753.422,1770.27L753.422,1755.48ZM750.674,1755.48L750.674,1770.27C750.674,1770.43 750.53,1770.57 750.352,1770.57C750.352,1770.57 746.961,1770.57 746.961,1770.57C746.783,1770.57 746.639,1770.43 746.639,1770.27C746.639,1770.27 746.639,1755.48 746.639,1755.48C746.639,1755.32 746.783,1755.19 746.961,1755.19L750.352,1755.19C750.53,1755.19 750.674,1755.32 750.674,1755.48Z" style="fill:rgb(77,77,79);"/>
        </g>
        <g transform="matrix(1.82004,0,0,2.00087,-1346.3,-3458.32)">
            <path d="M753.422,1755.48C753.422,1753.94 752.046,1752.69 750.352,1752.69C750.352,1752.69 746.961,1752.69 746.961,1752.69C745.267,1752.69 743.891,1753.94 743.891,1755.48L743.891,1770.27C743.891,1771.81 745.267,1773.06 746.961,1773.06L750.352,1773.06C752.046,1773.06 753.422,1771.81 753.422,1770.27C753.422,1770.27 753.422,1755.48 753.422,1755.48ZM750.674,1755.48L750.674,1770.27C750.674,1770.43 750.53,1770.57 750.352,1770.57C750.352,1770.57 746.961,1770.57 746.961,1770.57C746.783,1770.57 746.639,1770.43 746.639,1770.27C746.639,1770.27 746.639,1755.48 746.639,1755.48C746.639,1755.32 746.783,1755.19 746.961,1755.19L750.352,1755.19C750.53,1755.19 750.674,1755.32 750.674,1755.48Z" style="fill:rgb(77,77,79);"/>
        </g>
        <g transform="matrix(1.82004,0,0,2.00087,-1321.61,-3458.32)">
            <path d="M753.422,1755.48C753.422,1753.94 752.046,1752.69 750.352,1752.69C750.352,1752.69 746.961,1752.69 746.961,1752.69C745.267,1752.69 743.891,1753.94 743.891,1755.48L743.891,1770.27C743.891,1771.81 745.267,1773.06 746.961,1773.06L750.352,1773.06C752.046,1773.06 753.422,1771.81 753.422,1770.27L753.422,1755.48ZM750.674,1755.48L750.674,1770.27C750.674,1770.43 750.53,1770.57 750.352,1770.57C750.352,1770.57 746.961,1770.57 746.961,1770.57C746.783,1770.57 746.639,1770.43 746.639,1770.27C746.639,1770.27 746.639,1755.48 746.639,1755.48C746.639,1755.32 746.783,1755.19 746.961,1755.19L750.352,1755.19C750.53,1755.19 750.674,1755.32 750.674,1755.48Z" style="fill:rgb(77,77,79);"/>
        </g>
        <g transform="matrix(1.82004,0,0,2.00087,-1296.91,-3458.32)">
            <path d="M753.422,1755.48C753.422,1753.94 752.046,1752.69 750.352,1752.69C750.352,1752.69 746.961,1752.69 746.961,1752.69C745.267,1752.69 743.891,1753.94 743.891,1755.48C743.891,1755.48 743.891,1770.27 743.891,1770.27C743.891,1771.81 745.267,1773.06 746.961,1773.06L750.352,1773.06C752.046,1773.06 753.422,1771.81 753.422,1770.27C753.422,1770.27 753.422,1755.48 753.422,1755.48ZM750.674,1755.48L750.674,1770.27C750.674,1770.43 750.53,1770.57 750.352,1770.57C750.352,1770.57 746.961,1770.57 746.961,1770.57C746.783,1770.57 746.639,1770.43 746.639,1770.27L746.639,1755.48C746.639,1755.32 746.783,1755.19 746.961,1755.19L750.352,1755.19C750.53,1755.19 750.674,1755.32 750.674,1755.48Z" style="fill:rgb(77,77,79);"/>
        </g>
        <g transform="matrix(1.82004,0,0,2.00087,-1272.22,-3458.32)">
            <path d="M753.422,1755.48C753.422,1753.94 752.046,1752.69 750.352,1752.69C750.352,1752.69 746.961,1752.69 746.961,1752.69C745.267,1752.69 743.891,1753.94 743.891,1755.48L743.891,1770.27C743.891,1771.81 745.267,1773.06 746.961,1773.06L750.352,1773.06C752.046,1773.06 753.422,1771.81 753.422,1770.27C753.422,1770.27 753.422,1755.48 753.422,1755.48ZM750.674,1755.48L750.674,1770.27C750.674,1770.43 750.53,1770.57 750.352,1770.57C750.352,1770.57 746.961,1770.57 746.961,1770.57C746.783,1770.57 746.639,1770.43 746.639,1770.27C746.639,1770.27 746.639,1755.48 746.639,1755.48C746.639,1755.32 746.783,1755.19 746.961,1755.19L750.352,1755.19C750.53,1755.19 750.674,1755.32 750.674,1755.48Z" style="fill:rgb(77,77,79);"/>
        </g>
        <g transform="matrix(1.82004,0,0,2.00087,-1247.53,-3458.32)">
            <path d="M753.422,1755.48C753.422,1753.94 752.046,1752.69 750.352,1752.69C750.352,1752.69 746.961,1752.69 746.961,1752.69C745.267,1752.69 743.891,1753.94 743.891,1755.48C743.891,1755.48 743.891,1770.27 743.891,1770.27C743.891,1771.81 745.267,1773.06 746.961,1773.06L750.352,1773.06C752.046,1773.06 753.422,1771.81 753.422,1770.27L753.422,1755.48ZM750.674,1755.48L750.674,1770.27C750.674,1770.43 750.53,1770.57 750.352,1770.57C750.352,1770.57 746.961,1770.57 746.961,1770.57C746.783,1770.57 746.639,1770.43 746.639,1770.27L746.639,1755.48C746.639,1755.32 746.783,1755.19 746.961,1755.19L750.352,1755.19C750.53,1755.19 750.674,1755.32 750.674,1755.48Z" style="fill:rgb(77,77,79);"/>
        </g>
        <g transform="matrix(2.00087,0,0,2.00087,-1473.93,-3138.22)">
            <path d="M717.6,1631.8C716.944,1622.59 709.131,1619.86 709.131,1619.86C708.626,1619.69 708.287,1619.21 708.287,1618.68L708.287,1611.83C708.287,1611.14 708.846,1610.58 709.536,1610.58L744.537,1610.58C745.227,1610.58 745.787,1611.14 745.787,1611.83L745.787,1618.68C745.787,1619.21 745.448,1619.69 744.943,1619.86C744.943,1619.86 737.13,1622.59 736.474,1631.8L738.704,1631.8C739.394,1631.8 739.954,1632.36 739.954,1633.05L739.954,1636.85C739.954,1637.54 739.394,1638.1 738.704,1638.1L735.869,1638.1L735.869,1672.83L738.157,1672.83C738.847,1672.83 739.406,1673.39 739.406,1674.08L739.406,1677.01L742.579,1677.01C743.269,1677.01 743.828,1677.57 743.828,1678.26L743.828,1682.58C743.828,1683.27 743.269,1683.83 742.579,1683.83L711.495,1683.83C710.805,1683.83 710.246,1683.27 710.246,1682.58L710.246,1678.26C710.246,1677.57 710.805,1677.01 711.495,1677.01L714.668,1677.01L714.668,1674.08C714.668,1673.39 715.227,1672.83 715.917,1672.83L718.205,1672.83L718.205,1638.1L715.37,1638.1C714.68,1638.1 714.12,1637.54 714.12,1636.85L714.12,1633.05C714.12,1632.36 714.68,1631.8 715.37,1631.8L717.6,1631.8ZM743.288,1617.85L743.288,1613.08L710.786,1613.08L710.786,1617.85C713.23,1618.99 720.143,1623.09 720.143,1633.05C720.143,1633.74 719.583,1634.3 718.893,1634.3L716.619,1634.3L716.619,1635.6L719.454,1635.6C720.144,1635.6 720.704,1636.16 720.704,1636.85L720.704,1674.08C720.704,1674.77 720.144,1675.33 719.454,1675.33L717.167,1675.33L717.167,1678.26C717.167,1678.95 716.607,1679.51 715.917,1679.51L712.745,1679.51L712.745,1681.34L741.329,1681.34L741.329,1679.51L738.157,1679.51C737.466,1679.51 736.907,1678.95 736.907,1678.26L736.907,1675.33L734.62,1675.33C733.93,1675.33 733.37,1674.77 733.37,1674.08L733.37,1636.85C733.37,1636.16 733.93,1635.6 734.62,1635.6L737.455,1635.6L737.455,1634.3L735.18,1634.3C734.49,1634.3 733.931,1633.74 733.931,1633.05C733.931,1623.09 740.844,1618.99 743.288,1617.85Z" style="fill:rgb(77,77,79);"/>
        </g>
        <g transform="matrix(2.00087,0,0,2.00087,-1589.51,-3138.22)">
            <path d="M717.6,1631.8C716.944,1622.59 709.131,1619.86 709.131,1619.86C708.626,1619.69 708.287,1619.21 708.287,1618.68L708.287,1611.83C708.287,1611.14 708.846,1610.58 709.536,1610.58L744.537,1610.58C745.227,1610.58 745.787,1611.14 745.787,1611.83L745.787,1618.68C745.787,1619.21 745.448,1619.69 744.943,1619.86C744.943,1619.86 737.13,1622.59 736.474,1631.8L738.704,1631.8C739.394,1631.8 739.954,1632.36 739.954,1633.05L739.954,1636.85C739.954,1637.54 739.394,1638.1 738.704,1638.1L735.869,1638.1L735.869,1672.83L738.157,1672.83C738.847,1672.83 739.406,1673.39 739.406,1674.08L739.406,1677.01L742.579,1677.01C743.269,1677.01 743.828,1677.57 743.828,1678.26L743.828,1682.58C743.828,1683.27 743.269,1683.83 742.579,1683.83L711.495,1683.83C710.805,1683.83 710.246,1683.27 710.246,1682.58L710.246,1678.26C710.246,1677.57 710.805,1677.01 711.495,1677.01L714.668,1677.01L714.668,1674.08C714.668,1673.39 715.227,1672.83 715.917,1672.83L718.205,1672.83L718.205,1638.1L715.37,1638.1C714.68,1638.1 714.12,1637.54 714.12,1636.85L714.12,1633.05C714.12,1632.36 714.68,1631.8 715.37,1631.8L717.6,1631.8ZM743.288,1617.85L743.288,1613.08L710.786,1613.08L710.786,1617.85C713.23,1618.99 720.143,1623.09 720.143,1633.05C720.143,1633.74 719.583,1634.3 718.893,1634.3L716.619,1634.3L716.619,1635.6L719.454,1635.6C720.144,1635.6 720.704,1636.16 720.704,1636.85L720.704,1674.08C720.704,1674.77 720.144,1675.33 719.454,1675.33L717.167,1675.33L717.167,1678.26C717.167,1678.95 716.607,1679.51 715.917,1679.51L712.745,1679.51L712.745,1681.34L741.329,1681.34L741.329,1679.51L738.157,1679.51C737.466,1679.51 736.907,1678.95 736.907,1678.26L736.907,1675.33L734.62,1675.33C733.93,1675.33 733.37,1674.77 733.37,1674.08L733.37,1636.85C733.37,1636.16 733.93,1635.6 734.62,1635.6L737.455,1635.6L737.455,1634.3L735.18,1634.3C734.49,1634.3 733.931,1633.74 733.931,1633.05C733.931,1623.09 740.844,1618.99 743.288,1617.85Z" style="fill:rgb(77,77,79);"/>
        </g>
        <g transform="matrix(2.00087,0,0,4.24763,-1016.43,-4038.83)">
            <path d="M659.352,964.019C659.352,963.567 658.97,963.133 658.291,962.813C657.612,962.493 656.69,962.313 655.73,962.313L568.585,962.313C567.895,962.313 567.335,962.576 567.335,962.902L567.335,971.251C567.335,971.576 567.895,971.839 568.585,971.839L655.73,971.839C656.69,971.839 657.612,971.66 658.291,971.34C658.97,971.02 659.352,970.586 659.352,970.133L659.352,964.019ZM569.834,963.49L569.834,970.662L655.73,970.662C656.027,970.662 656.313,970.607 656.524,970.507C656.734,970.408 656.853,970.274 656.853,970.133L656.853,964.019C656.853,963.879 656.734,963.744 656.524,963.645C656.313,963.546 656.027,963.49 655.73,963.49L569.834,963.49Z" style="fill:rgb(95,95,97);"/>
        </g>
        <g transform="matrix(2.00087,0,0,4.24763,-1319,-4038.83)">
            <path d="M659.352,962.902C659.352,962.576 658.792,962.313 658.102,962.313L570.957,962.313C569.997,962.313 569.075,962.493 568.396,962.813C567.717,963.133 567.335,963.567 567.335,964.019C567.335,965.617 567.335,968.536 567.335,970.133C567.335,970.586 567.717,971.02 568.396,971.34C569.075,971.66 569.997,971.839 570.957,971.839L658.102,971.839C658.792,971.839 659.352,971.576 659.352,971.251L659.352,962.902ZM656.853,963.49L570.957,963.49C570.66,963.49 570.374,963.546 570.163,963.645C569.953,963.744 569.834,963.879 569.834,964.019C569.834,965.617 569.834,968.536 569.834,970.133C569.834,970.274 569.953,970.408 570.163,970.507C570.374,970.607 570.66,970.662 570.957,970.662L656.853,970.662L656.853,963.49Z" style="fill:rgb(95,95,97);"/>
        </g>
        <g transform="matrix(-2.00087,0,0,2.00087,1592.51,-3138.22)">
            <path d="M736.474,1631.8C737.13,1622.59 744.943,1619.86 744.943,1619.86C745.448,1619.69 745.787,1619.21 745.787,1618.68L745.787,1611.83C745.787,1611.14 745.227,1610.58 744.537,1610.58L709.536,1610.58C708.846,1610.58 708.287,1611.14 708.287,1611.83L708.287,1618.68C708.287,1619.21 708.626,1619.69 709.131,1619.86C709.131,1619.86 716.944,1622.59 717.6,1631.8L715.37,1631.8C714.68,1631.8 714.12,1632.36 714.12,1633.05L714.12,1636.85C714.12,1637.54 714.68,1638.1 715.37,1638.1L718.205,1638.1L718.205,1672.83L715.917,1672.83C715.227,1672.83 714.668,1673.39 714.668,1674.08L714.668,1677.01L711.495,1677.01C710.805,1677.01 710.246,1677.57 710.246,1678.26L710.246,1682.58C710.246,1683.27 710.805,1683.83 711.495,1683.83L742.579,1683.83C743.269,1683.83 743.828,1683.27 743.828,1682.58L743.828,1678.26C743.828,1677.57 743.269,1677.01 742.579,1677.01L739.406,1677.01L739.406,1674.08C739.406,1673.39 738.847,1672.83 738.157,1672.83L735.869,1672.83L735.869,1638.1L738.704,1638.1C739.394,1638.1 739.954,1637.54 739.954,1636.85L739.954,1633.05C739.954,1632.36 739.394,1631.8 738.704,1631.8L736.474,1631.8ZM710.786,1617.85L710.786,1613.08L743.288,1613.08L743.288,1617.85C740.844,1618.99 733.931,1623.09 733.931,1633.05C733.931,1633.74 734.49,1634.3 735.18,1634.3L737.455,1634.3L737.455,1635.6L734.62,1635.6C733.93,1635.6 733.37,1636.16 733.37,1636.85L733.37,1674.08C733.37,1674.77 733.93,1675.33 734.62,1675.33L736.907,1675.33L736.907,1678.26C736.907,1678.95 737.466,1679.51 738.157,1679.51L741.329,1679.51L741.329,1681.34L712.745,1681.34L712.745,1679.51L715.917,1679.51C716.607,1679.51 717.167,1678.95 717.167,1678.26L717.167,1675.33L719.454,1675.33C720.144,1675.33 720.704,1674.77 720.704,1674.08L720.704,1636.85C720.704,1636.16 720.144,1635.6 719.454,1635.6L716.619,1635.6L716.619,1634.3L718.893,1634.3C719.583,1634.3 720.143,1633.74 720.143,1633.05C720.143,1623.09 713.23,1618.99 710.786,1617.85Z" style="fill:rgb(77,77,79);"/>
        </g>
        <g transform="matrix(-2.00087,0,0,2.00087,1708.1,-3138.22)">
            <path d="M736.474,1631.8C737.13,1622.59 744.943,1619.86 744.943,1619.86C745.448,1619.69 745.787,1619.21 745.787,1618.68L745.787,1611.83C745.787,1611.14 745.227,1610.58 744.537,1610.58L709.536,1610.58C708.846,1610.58 708.287,1611.14 708.287,1611.83L708.287,1618.68C708.287,1619.21 708.626,1619.69 709.131,1619.86C709.131,1619.86 716.944,1622.59 717.6,1631.8L715.37,1631.8C714.68,1631.8 714.12,1632.36 714.12,1633.05L714.12,1636.85C714.12,1637.54 714.68,1638.1 715.37,1638.1L718.205,1638.1L718.205,1672.83L715.917,1672.83C715.227,1672.83 714.668,1673.39 714.668,1674.08L714.668,1677.01L711.495,1677.01C710.805,1677.01 710.246,1677.57 710.246,1678.26L710.246,1682.58C710.246,1683.27 710.805,1683.83 711.495,1683.83L742.579,1683.83C743.269,1683.83 743.828,1683.27 743.828,1682.58L743.828,1678.26C743.828,1677.57 743.269,1677.01 742.579,1677.01L739.406,1677.01L739.406,1674.08C739.406,1673.39 738.847,1672.83 738.157,1672.83L735.869,1672.83L735.869,1638.1L738.704,1638.1C739.394,1638.1 739.954,1637.54 739.954,1636.85L739.954,1633.05C739.954,1632.36 739.394,1631.8 738.704,1631.8L736.474,1631.8ZM710.786,1617.85L710.786,1613.08L743.288,1613.08L743.288,1617.85C740.844,1618.99 733.931,1623.09 733.931,1633.05C733.931,1633.74 734.49,1634.3 735.18,1634.3L737.455,1634.3L737.455,1635.6L734.62,1635.6C733.93,1635.6 733.37,1636.16 733.37,1636.85L733.37,1674.08C733.37,1674.77 733.93,1675.33 734.62,1675.33L736.907,1675.33L736.907,1678.26C736.907,1678.95 737.466,1679.51 738.157,1679.51L741.329,1679.51L741.329,1681.34L712.745,1681.34L712.745,1679.51L715.917,1679.51C716.607,1679.51 717.167,1678.95 717.167,1678.26L717.167,1675.33L719.454,1675.33C720.144,1675.33 720.704,1674.77 720.704,1674.08L720.704,1636.85C720.704,1636.16 720.144,1635.6 719.454,1635.6L716.619,1635.6L716.619,1634.3L718.893,1634.3C719.583,1634.3 720.143,1633.74 720.143,1633.05C720.143,1623.09 713.23,1618.99 710.786,1617.85Z" style="fill:rgb(77,77,79);"/>
        </g>
        <g transform="matrix(2.00087,0,0,2.00087,-928.861,-1999.93)">
            <path d="M524.962,1065.39L541.249,1065.39C541.938,1065.39 542.498,1064.84 542.498,1064.14C542.498,1063.46 541.938,1062.9 541.249,1062.9L524.962,1062.9C524.272,1062.9 523.712,1063.46 523.712,1064.14C523.712,1064.84 524.272,1065.39 524.962,1065.39Z" style="fill:rgb(77,77,79);"/>
        </g>
        <g transform="matrix(2.00087,0,0,2.00087,-813.292,-1999.93)">
            <path d="M524.962,1065.39L541.249,1065.39C541.938,1065.39 542.498,1064.84 542.498,1064.14C542.498,1063.46 541.938,1062.9 541.249,1062.9L524.962,1062.9C524.272,1062.9 523.712,1063.46 523.712,1064.14C523.712,1064.84 524.272,1065.39 524.962,1065.39Z" style="fill:rgb(77,77,79);"/>
        </g>
        <g transform="matrix(2.00087,0,0,2.00087,-928.861,-1999.93)">
            <path d="M525.522,1069.2L540.688,1069.2C541.378,1069.2 541.938,1068.64 541.938,1067.95C541.938,1067.26 541.378,1066.7 540.688,1066.7L525.522,1066.7C524.833,1066.7 524.273,1067.26 524.273,1067.95C524.273,1068.64 524.833,1069.2 525.522,1069.2Z" style="fill:rgb(77,77,79);"/>
        </g>
        <g transform="matrix(2.00087,0,0,2.00087,-813.292,-1999.93)">
            <path d="M525.522,1069.2L540.688,1069.2C541.378,1069.2 541.938,1068.64 541.938,1067.95C541.938,1067.26 541.378,1066.7 540.688,1066.7L525.522,1066.7C524.833,1066.7 524.273,1067.26 524.273,1067.95C524.273,1068.64 524.833,1069.2 525.522,1069.2Z" style="fill:rgb(77,77,79);"/>
        </g>
        <g transform="matrix(2.00087,0,0,2.00087,-1085.72,-1999.93)">
            <path d="M524.962,1065.39L541.249,1065.39C541.938,1065.39 542.498,1064.84 542.498,1064.14C542.498,1063.46 541.938,1062.9 541.249,1062.9L524.962,1062.9C524.272,1062.9 523.712,1063.46 523.712,1064.14C523.712,1064.84 524.272,1065.39 524.962,1065.39Z" style="fill:rgb(77,77,79);"/>
        </g>
        <g transform="matrix(2.00087,0,0,2.00087,-1085.72,-1999.93)">
            <path d="M525.522,1069.2L540.688,1069.2C541.378,1069.2 541.938,1068.64 541.938,1067.95C541.938,1067.26 541.378,1066.7 540.688,1066.7L525.522,1066.7C524.833,1066.7 524.273,1067.26 524.273,1067.95C524.273,1068.64 524.833,1069.2 525.522,1069.2Z" style="fill:rgb(77,77,79);"/>
        </g>
        <g transform="matrix(2.00087,0,0,2.00087,-1200.81,-1999.93)">
            <path d="M524.962,1065.39L541.249,1065.39C541.938,1065.39 542.498,1064.84 542.498,1064.14C542.498,1063.46 541.938,1062.9 541.249,1062.9L524.962,1062.9C524.272,1062.9 523.712,1063.46 523.712,1064.14C523.712,1064.84 524.272,1065.39 524.962,1065.39Z" style="fill:rgb(77,77,79);"/>
        </g>
        <g transform="matrix(2.00087,0,0,2.00087,-1200.81,-1999.93)">
            <path d="M525.522,1069.2L540.688,1069.2C541.378,1069.2 541.938,1068.64 541.938,1067.95C541.938,1067.26 541.378,1066.7 540.688,1066.7L525.522,1066.7C524.833,1066.7 524.273,1067.26 524.273,1067.95C524.273,1068.64 524.833,1069.2 525.522,1069.2Z" style="fill:rgb(77,77,79);"/>
        </g>
        <g transform="matrix(2.00087,0,0,2.00087,-928.861,-1925.31)">
            <path d="M525.522,1069.2L540.688,1069.2C541.378,1069.2 541.938,1068.64 541.938,1067.95C541.938,1067.26 541.378,1066.7 540.688,1066.7L525.522,1066.7C524.833,1066.7 524.273,1067.26 524.273,1067.95C524.273,1068.64 524.833,1069.2 525.522,1069.2Z" style="fill:rgb(77,77,79);"/>
        </g>
        <g transform="matrix(2.00087,0,0,2.00087,-813.292,-1925.31)">
            <path d="M525.522,1069.2L540.688,1069.2C541.378,1069.2 541.938,1068.64 541.938,1067.95C541.938,1067.26 541.378,1066.7 540.688,1066.7L525.522,1066.7C524.833,1066.7 524.273,1067.26 524.273,1067.95C524.273,1068.64 524.833,1069.2 525.522,1069.2Z" style="fill:rgb(77,77,79);"/>
        </g>
        <g transform="matrix(2.00087,0,0,2.00087,-1085.72,-1925.31)">
            <path d="M525.522,1069.2L540.688,1069.2C541.378,1069.2 541.938,1068.64 541.938,1067.95C541.938,1067.26 541.378,1066.7 540.688,1066.7L525.522,1066.7C524.833,1066.7 524.273,1067.26 524.273,1067.95C524.273,1068.64 524.833,1069.2 525.522,1069.2Z" style="fill:rgb(77,77,79);"/>
        </g>
        <g transform="matrix(2.00087,0,0,2.00087,-1200.81,-1925.31)">
            <path d="M525.522,1069.2L540.688,1069.2C541.378,1069.2 541.938,1068.64 541.938,1067.95C541.938,1067.26 541.378,1066.7 540.688,1066.7L525.522,1066.7C524.833,1066.7 524.273,1067.26 524.273,1067.95C524.273,1068.64 524.833,1069.2 525.522,1069.2Z" style="fill:rgb(77,77,79);"/>
        </g>
        <g transform="matrix(2.00087,0,0,2.00087,-1542.79,-3458.32)">
            <path d="M763.042,1711.62L783.725,1711.62C784.414,1711.62 784.974,1711.06 784.974,1710.37C784.974,1709.68 784.414,1709.12 783.725,1709.12L763.042,1709.12C762.353,1709.12 761.793,1709.68 761.793,1710.37C761.793,1711.06 762.353,1711.62 763.042,1711.62Z" style="fill:rgb(77,77,79);"/>
        </g>
        <g transform="matrix(1.27751,0,0,1.27751,-642.166,-1985.23)">
            <path d="M642.318,1587.39C642.151,1587.27 641.994,1587.15 641.846,1587.02C640.688,1585.98 640.062,1584.37 640.104,1582.72C640.167,1580.29 641.638,1577.85 644.566,1577.24C645.874,1576.97 646.789,1576.11 647.446,1575.2C648.58,1573.65 648.988,1571.92 648.988,1571.92C649.193,1571.04 649.979,1570.41 650.887,1570.41C651.794,1570.4 652.585,1571.02 652.797,1571.91C652.797,1571.91 652.801,1571.92 652.799,1571.92C652.841,1572.09 653.278,1573.8 654.411,1575.3C655.063,1576.16 655.958,1576.98 657.221,1577.24C660.15,1577.85 661.621,1580.29 661.684,1582.72C661.726,1584.37 661.1,1585.98 659.941,1587.02C659.793,1587.15 659.636,1587.27 659.47,1587.39C659.676,1587.66 659.871,1587.94 660.049,1588.23C661.195,1590.12 661.663,1592.45 660.18,1594.95C659.828,1595.55 659.187,1595.91 658.496,1595.91L643.292,1595.91C642.6,1595.91 641.96,1595.55 641.608,1594.95C640.124,1592.45 640.593,1590.12 641.739,1588.23C641.916,1587.94 642.112,1587.66 642.318,1587.39ZM650.894,1577.1C650.803,1577.24 650.707,1577.38 650.608,1577.51C649.426,1579.13 647.712,1580.59 645.36,1581.08C644.447,1581.27 644.036,1582.06 644.017,1582.82C644.004,1583.3 644.122,1583.8 644.461,1584.1C644.827,1584.43 645.399,1584.4 646.145,1584.12C647.095,1583.77 648.158,1584.2 648.593,1585.12C649.028,1586.03 648.692,1587.13 647.818,1587.64C647.818,1587.64 646.572,1588.38 645.588,1589.56C645.037,1590.22 644.523,1591.06 644.638,1592L657.15,1592C657.264,1591.06 656.75,1590.22 656.2,1589.56C655.216,1588.38 653.97,1587.64 653.97,1587.64C653.096,1587.13 652.759,1586.03 653.195,1585.12C653.63,1584.2 654.693,1583.77 655.643,1584.12C656.389,1584.4 656.961,1584.43 657.327,1584.1C657.666,1583.8 657.784,1583.3 657.771,1582.82C657.752,1582.06 657.341,1581.27 656.428,1581.08C654.145,1580.6 652.463,1579.22 651.285,1577.65C651.148,1577.47 651.017,1577.29 650.894,1577.1Z" style="fill:rgb(77,77,79);"/>
        </g>
        <g transform="matrix(1.27751,0,0,1.27751,-974.149,-1985.23)">
            <path d="M642.318,1587.39C642.151,1587.27 641.994,1587.15 641.846,1587.02C640.688,1585.98 640.062,1584.37 640.104,1582.72C640.167,1580.29 641.638,1577.85 644.566,1577.24C645.874,1576.97 646.789,1576.11 647.446,1575.2C648.58,1573.65 648.988,1571.92 648.988,1571.92C649.193,1571.04 649.979,1570.41 650.887,1570.41C651.794,1570.4 652.585,1571.02 652.797,1571.91C652.797,1571.91 652.801,1571.92 652.799,1571.92C652.841,1572.09 653.278,1573.8 654.411,1575.3C655.063,1576.16 655.958,1576.98 657.221,1577.24C660.15,1577.85 661.621,1580.29 661.684,1582.72C661.726,1584.37 661.1,1585.98 659.941,1587.02C659.793,1587.15 659.636,1587.27 659.47,1587.39C659.676,1587.66 659.871,1587.94 660.049,1588.23C661.195,1590.12 661.663,1592.45 660.18,1594.95C659.828,1595.55 659.187,1595.91 658.496,1595.91L643.292,1595.91C642.6,1595.91 641.96,1595.55 641.608,1594.95C640.124,1592.45 640.593,1590.12 641.739,1588.23C641.916,1587.94 642.112,1587.66 642.318,1587.39ZM650.894,1577.1C650.803,1577.24 650.707,1577.38 650.608,1577.51C649.426,1579.13 647.712,1580.59 645.36,1581.08C644.447,1581.27 644.036,1582.06 644.017,1582.82C644.004,1583.3 644.122,1583.8 644.461,1584.1C644.827,1584.43 645.399,1584.4 646.145,1584.12C647.095,1583.77 648.158,1584.2 648.593,1585.12C649.028,1586.03 648.692,1587.13 647.818,1587.64C647.818,1587.64 646.572,1588.38 645.588,1589.56C645.037,1590.22 644.523,1591.06 644.638,1592L657.15,1592C657.264,1591.06 656.75,1590.22 656.2,1589.56C655.216,1588.38 653.97,1587.64 653.97,1587.64C653.096,1587.13 652.759,1586.03 653.195,1585.12C653.63,1584.2 654.693,1583.77 655.643,1584.12C656.389,1584.4 656.961,1584.43 657.327,1584.1C657.666,1583.8 657.784,1583.3 657.771,1582.82C657.752,1582.06 657.341,1581.27 656.428,1581.08C654.145,1580.6 652.463,1579.22 651.285,1577.65C651.148,1577.47 651.017,1577.29 650.894,1577.1Z" style="fill:rgb(77,77,79);"/>
        </g>
        <g transform="matrix(1.27751,0,0,1.27751,-606.242,-1985.23)">
            <path d="M642.318,1587.39C642.151,1587.27 641.994,1587.15 641.846,1587.02C640.688,1585.98 640.062,1584.37 640.104,1582.72C640.167,1580.29 641.638,1577.85 644.566,1577.24C645.874,1576.97 646.789,1576.11 647.446,1575.2C648.58,1573.65 648.988,1571.92 648.988,1571.92C649.193,1571.04 649.979,1570.41 650.887,1570.41C651.794,1570.4 652.585,1571.02 652.797,1571.91C652.797,1571.91 652.801,1571.92 652.799,1571.92C652.841,1572.09 653.278,1573.8 654.411,1575.3C655.063,1576.16 655.958,1576.98 657.221,1577.24C660.15,1577.85 661.621,1580.29 661.684,1582.72C661.726,1584.37 661.1,1585.98 659.941,1587.02C659.793,1587.15 659.636,1587.27 659.47,1587.39C659.676,1587.66 659.871,1587.94 660.049,1588.23C661.195,1590.12 661.663,1592.45 660.18,1594.95C659.828,1595.55 659.187,1595.91 658.496,1595.91L643.292,1595.91C642.6,1595.91 641.96,1595.55 641.608,1594.95C640.124,1592.45 640.593,1590.12 641.739,1588.23C641.916,1587.94 642.112,1587.66 642.318,1587.39ZM650.894,1577.1C650.803,1577.24 650.707,1577.38 650.608,1577.51C649.426,1579.13 647.712,1580.59 645.36,1581.08C644.447,1581.27 644.036,1582.06 644.017,1582.82C644.004,1583.3 644.122,1583.8 644.461,1584.1C644.827,1584.43 645.399,1584.4 646.145,1584.12C647.095,1583.77 648.158,1584.2 648.593,1585.12C649.028,1586.03 648.692,1587.13 647.818,1587.64C647.818,1587.64 646.572,1588.38 645.588,1589.56C645.037,1590.22 644.523,1591.06 644.638,1592L657.15,1592C657.264,1591.06 656.75,1590.22 656.2,1589.56C655.216,1588.38 653.97,1587.64 653.97,1587.64C653.096,1587.13 652.759,1586.03 653.195,1585.12C653.63,1584.2 654.693,1583.77 655.643,1584.12C656.389,1584.4 656.961,1584.43 657.327,1584.1C657.666,1583.8 657.784,1583.3 657.771,1582.82C657.752,1582.06 657.341,1581.27 656.428,1581.08C654.145,1580.6 652.463,1579.22 651.285,1577.65C651.148,1577.47 651.017,1577.29 650.894,1577.1Z" style="fill:rgb(77,77,79);"/>
        </g>
        <g transform="matrix(1.27751,0,0,1.27751,-938.225,-1985.23)">
            <path d="M642.318,1587.39C642.151,1587.27 641.994,1587.15 641.846,1587.02C640.688,1585.98 640.062,1584.37 640.104,1582.72C640.167,1580.29 641.638,1577.85 644.566,1577.24C645.874,1576.97 646.789,1576.11 647.446,1575.2C648.58,1573.65 648.988,1571.92 648.988,1571.92C649.193,1571.04 649.979,1570.41 650.887,1570.41C651.794,1570.4 652.585,1571.02 652.797,1571.91C652.797,1571.91 652.801,1571.92 652.799,1571.92C652.841,1572.09 653.278,1573.8 654.411,1575.3C655.063,1576.16 655.958,1576.98 657.221,1577.24C660.15,1577.85 661.621,1580.29 661.684,1582.72C661.726,1584.37 661.1,1585.98 659.941,1587.02C659.793,1587.15 659.636,1587.27 659.47,1587.39C659.676,1587.66 659.871,1587.94 660.049,1588.23C661.195,1590.12 661.663,1592.45 660.18,1594.95C659.828,1595.55 659.187,1595.91 658.496,1595.91L643.292,1595.91C642.6,1595.91 641.96,1595.55 641.608,1594.95C640.124,1592.45 640.593,1590.12 641.739,1588.23C641.916,1587.94 642.112,1587.66 642.318,1587.39ZM650.894,1577.1C650.803,1577.24 650.707,1577.38 650.608,1577.51C649.426,1579.13 647.712,1580.59 645.36,1581.08C644.447,1581.27 644.036,1582.06 644.017,1582.82C644.004,1583.3 644.122,1583.8 644.461,1584.1C644.827,1584.43 645.399,1584.4 646.145,1584.12C647.095,1583.77 648.158,1584.2 648.593,1585.12C649.028,1586.03 648.692,1587.13 647.818,1587.64C647.818,1587.64 646.572,1588.38 645.588,1589.56C645.037,1590.22 644.523,1591.06 644.638,1592L657.15,1592C657.264,1591.06 656.75,1590.22 656.2,1589.56C655.216,1588.38 653.97,1587.64 653.97,1587.64C653.096,1587.13 652.759,1586.03 653.195,1585.12C653.63,1584.2 654.693,1583.77 655.643,1584.12C656.389,1584.4 656.961,1584.43 657.327,1584.1C657.666,1583.8 657.784,1583.3 657.771,1582.82C657.752,1582.06 657.341,1581.27 656.428,1581.08C654.145,1580.6 652.463,1579.22 651.285,1577.65C651.148,1577.47 651.017,1577.29 650.894,1577.1Z" style="fill:rgb(77,77,79);"/>
        </g>
        <g transform="matrix(1.27751,0,0,1.27751,-570.317,-1985.23)">
            <path d="M642.318,1587.39C642.151,1587.27 641.994,1587.15 641.846,1587.02C640.688,1585.98 640.062,1584.37 640.104,1582.72C640.167,1580.29 641.638,1577.85 644.566,1577.24C645.874,1576.97 646.789,1576.11 647.446,1575.2C648.58,1573.65 648.988,1571.92 648.988,1571.92C649.193,1571.04 649.979,1570.41 650.887,1570.41C651.794,1570.4 652.585,1571.02 652.797,1571.91C652.797,1571.91 652.801,1571.92 652.799,1571.92C652.841,1572.09 653.278,1573.8 654.411,1575.3C655.063,1576.16 655.958,1576.98 657.221,1577.24C660.15,1577.85 661.621,1580.29 661.684,1582.72C661.726,1584.37 661.1,1585.98 659.941,1587.02C659.793,1587.15 659.636,1587.27 659.47,1587.39C659.676,1587.66 659.871,1587.94 660.049,1588.23C661.195,1590.12 661.663,1592.45 660.18,1594.95C659.828,1595.55 659.187,1595.91 658.496,1595.91L643.292,1595.91C642.6,1595.91 641.96,1595.55 641.608,1594.95C640.124,1592.45 640.593,1590.12 641.739,1588.23C641.916,1587.94 642.112,1587.66 642.318,1587.39ZM650.894,1577.1C650.803,1577.24 650.707,1577.38 650.608,1577.51C649.426,1579.13 647.712,1580.59 645.36,1581.08C644.447,1581.27 644.036,1582.06 644.017,1582.82C644.004,1583.3 644.122,1583.8 644.461,1584.1C644.827,1584.43 645.399,1584.4 646.145,1584.12C647.095,1583.77 648.158,1584.2 648.593,1585.12C649.028,1586.03 648.692,1587.13 647.818,1587.64C647.818,1587.64 646.572,1588.38 645.588,1589.56C645.037,1590.22 644.523,1591.06 644.638,1592L657.15,1592C657.264,1591.06 656.75,1590.22 656.2,1589.56C655.216,1588.38 653.97,1587.64 653.97,1587.64C653.096,1587.13 652.759,1586.03 653.195,1585.12C653.63,1584.2 654.693,1583.77 655.643,1584.12C656.389,1584.4 656.961,1584.43 657.327,1584.1C657.666,1583.8 657.784,1583.3 657.771,1582.82C657.752,1582.06 657.341,1581.27 656.428,1581.08C654.145,1580.6 652.463,1579.22 651.285,1577.65C651.148,1577.47 651.017,1577.29 650.894,1577.1Z" style="fill:rgb(77,77,79);"/>
        </g>
        <g transform="matrix(1.27751,0,0,1.27751,-902.301,-1985.23)">
            <path d="M642.318,1587.39C642.151,1587.27 641.994,1587.15 641.846,1587.02C640.688,1585.98 640.062,1584.37 640.104,1582.72C640.167,1580.29 641.638,1577.85 644.566,1577.24C645.874,1576.97 646.789,1576.11 647.446,1575.2C648.58,1573.65 648.988,1571.92 648.988,1571.92C649.193,1571.04 649.979,1570.41 650.887,1570.41C651.794,1570.4 652.585,1571.02 652.797,1571.91C652.797,1571.91 652.801,1571.92 652.799,1571.92C652.841,1572.09 653.278,1573.8 654.411,1575.3C655.063,1576.16 655.958,1576.98 657.221,1577.24C660.15,1577.85 661.621,1580.29 661.684,1582.72C661.726,1584.37 661.1,1585.98 659.941,1587.02C659.793,1587.15 659.636,1587.27 659.47,1587.39C659.676,1587.66 659.871,1587.94 660.049,1588.23C661.195,1590.12 661.663,1592.45 660.18,1594.95C659.828,1595.55 659.187,1595.91 658.496,1595.91L643.292,1595.91C642.6,1595.91 641.96,1595.55 641.608,1594.95C640.124,1592.45 640.593,1590.12 641.739,1588.23C641.916,1587.94 642.112,1587.66 642.318,1587.39ZM650.894,1577.1C650.803,1577.24 650.707,1577.38 650.608,1577.51C649.426,1579.13 647.712,1580.59 645.36,1581.08C644.447,1581.27 644.036,1582.06 644.017,1582.82C644.004,1583.3 644.122,1583.8 644.461,1584.1C644.827,1584.43 645.399,1584.4 646.145,1584.12C647.095,1583.77 648.158,1584.2 648.593,1585.12C649.028,1586.03 648.692,1587.13 647.818,1587.64C647.818,1587.64 646.572,1588.38 645.588,1589.56C645.037,1590.22 644.523,1591.06 644.638,1592L657.15,1592C657.264,1591.06 656.75,1590.22 656.2,1589.56C655.216,1588.38 653.97,1587.64 653.97,1587.64C653.096,1587.13 652.759,1586.03 653.195,1585.12C653.63,1584.2 654.693,1583.77 655.643,1584.12C656.389,1584.4 656.961,1584.43 657.327,1584.1C657.666,1583.8 657.784,1583.3 657.771,1582.82C657.752,1582.06 657.341,1581.27 656.428,1581.08C654.145,1580.6 652.463,1579.22 651.285,1577.65C651.148,1577.47 651.017,1577.29 650.894,1577.1Z" style="fill:rgb(77,77,79);"/>
        </g>
        <g transform="matrix(2.00087,0,0,2.00087,-1473.93,-3138.22)">
            <path d="M696.349,1566.5L676.757,1566.5C674.727,1566.5 673.082,1568.14 673.082,1570.17L673.082,1593.96C673.082,1594.65 673.642,1595.21 674.331,1595.21C675.021,1595.21 675.581,1594.65 675.581,1593.96C675.581,1593.96 675.581,1576.67 675.581,1570.17C675.581,1569.52 676.108,1569 676.757,1569C682.481,1569 696.349,1569 696.349,1569C697.039,1569 697.599,1568.44 697.599,1567.75C697.599,1567.06 697.039,1566.5 696.349,1566.5Z" style="fill:rgb(77,77,79);"/>
        </g>
        <g transform="matrix(2.00087,0,0,2.00087,-1536.75,-2237.44)">
            <path d="M705.73,1123.41L792.134,1123.41C792.823,1123.41 793.383,1122.86 793.383,1122.17C793.383,1121.48 792.823,1120.92 792.134,1120.92L705.73,1120.92C705.04,1120.92 704.48,1121.48 704.48,1122.17C704.48,1122.86 705.04,1123.41 705.73,1123.41Z" style="fill:rgb(77,77,79);"/>
        </g>
        <g transform="matrix(1.0295,0,0,1.0295,-774.856,-1642.35)">
            <path d="M731.55,1565.32L679.046,1565.32C677.152,1565.32 675.335,1566.07 673.995,1567.41C672.656,1568.75 671.903,1570.57 671.903,1572.46C671.903,1580.01 671.903,1593.96 671.903,1593.96C671.903,1595.3 672.991,1596.38 674.331,1596.38C675.672,1596.38 676.76,1595.3 676.76,1593.96C676.76,1593.96 676.76,1580.01 676.76,1572.46C676.76,1571.86 677.001,1571.28 677.429,1570.85C677.858,1570.42 678.44,1570.18 679.046,1570.18C692.741,1570.18 731.55,1570.18 731.55,1570.18C732.89,1570.18 733.978,1569.09 733.978,1567.75C733.978,1566.41 732.89,1565.32 731.55,1565.32Z" style="fill:rgb(77,77,79);"/>
        </g>
        <g transform="matrix(-1.0295,0,0,1.0295,895.53,-1642.35)">
            <path d="M733.176,1570.18L679.046,1570.18C678.44,1570.18 677.858,1570.42 677.429,1570.85C677.001,1571.28 676.76,1571.86 676.76,1572.46L676.76,1593.96C676.76,1595.3 675.672,1596.38 674.331,1596.38C672.991,1596.38 671.903,1595.3 671.903,1593.96L671.903,1572.46C671.903,1570.57 672.656,1568.75 673.995,1567.41C675.335,1566.07 677.152,1565.32 679.046,1565.32L733.176,1565.32C734.516,1565.32 735.604,1566.41 735.604,1567.75C735.604,1569.09 734.516,1570.18 733.176,1570.18Z" style="fill:rgb(77,77,79);"/>
        </g>
        <g transform="matrix(-2.00087,0,0,2.00087,1593.01,-3138.22)">
            <path d="M695.551,1569L676.757,1569C676.108,1569 675.581,1569.52 675.581,1570.17C675.581,1576.67 675.581,1593.96 675.581,1593.96C675.581,1594.65 675.021,1595.21 674.331,1595.21C673.642,1595.21 673.082,1594.65 673.082,1593.96C673.082,1593.96 673.082,1576.67 673.082,1570.17C673.082,1568.14 674.727,1566.5 676.757,1566.5C682.326,1566.5 695.551,1566.5 695.551,1566.5C696.24,1566.5 696.8,1567.06 696.8,1567.75C696.8,1568.44 696.24,1569 695.551,1569Z" style="fill:rgb(77,77,79);"/>
        </g>
        <g transform="matrix(2.00087,0,0,2.00087,-1536.75,-2237.44)">
            <path d="M889.873,1120.92L803.431,1120.92C802.741,1120.92 802.181,1121.48 802.181,1122.17C802.181,1122.86 802.741,1123.41 803.431,1123.41L889.873,1123.41C890.562,1123.41 891.122,1122.86 891.122,1122.17C891.122,1121.48 890.562,1120.92 889.873,1120.92Z" style="fill:rgb(77,77,79);"/>
        </g>
        <g transform="matrix(2.00087,0,0,2.00087,-1536.75,-2237.44)">
            <path d="M868.653,1107.22L840.876,1107.22C840.187,1107.22 839.627,1107.78 839.627,1108.47C839.627,1109.16 840.187,1109.72 840.876,1109.72L868.653,1109.72C869.343,1109.72 869.903,1109.16 869.903,1108.47C869.903,1107.78 869.343,1107.22 868.653,1107.22Z" style="fill:rgb(77,77,79);"/>
        </g>
        <g transform="matrix(2.00087,0,0,2.00087,-1536.75,-2237.44)">
            <path d="M727.747,1109.72L754.688,1109.72C755.377,1109.72 755.937,1109.16 755.937,1108.47C755.937,1107.78 755.377,1107.22 754.688,1107.22L727.747,1107.22C727.058,1107.22 726.498,1107.78 726.498,1108.47C726.498,1109.16 727.058,1109.72 727.747,1109.72Z" style="fill:rgb(77,77,79);"/>
        </g>
        <g transform="matrix(2.00087,0,0,2.00087,-962.39,-1994.91)">
            <path d="M498.858,1049.34C496.903,1050.25 492.776,1051.42 488.177,1048.3C487.834,1048.07 487.628,1047.68 487.628,1047.27L487.628,1040.42C487.628,1039.73 488.188,1039.17 488.878,1039.17L532.362,1039.17C533.052,1039.17 533.612,1039.73 533.612,1040.42L533.612,1047.27C533.612,1047.68 533.406,1048.07 533.063,1048.3C528.463,1051.42 524.337,1050.25 522.382,1049.34C519.308,1054.16 513.243,1057.09 511.495,1057.85C511.464,1057.88 511.431,1057.9 511.396,1057.93C511.165,1058.09 510.892,1058.16 510.62,1058.14C510.348,1058.16 510.075,1058.09 509.844,1057.93C509.809,1057.9 509.776,1057.88 509.745,1057.85C507.997,1057.09 501.932,1054.16 498.858,1049.34ZM531.113,1046.58L531.113,1041.67L490.127,1041.67L490.127,1046.58C494.753,1049.32 498.608,1046.64 498.608,1046.64C498.904,1046.43 499.278,1046.36 499.631,1046.44C499.984,1046.53 500.282,1046.77 500.446,1047.09C502.856,1051.85 508.799,1054.72 510.62,1055.51C512.441,1054.72 518.383,1051.85 520.794,1047.09C520.958,1046.77 521.256,1046.53 521.609,1046.44C521.962,1046.36 522.336,1046.43 522.632,1046.64C522.632,1046.64 526.487,1049.32 531.113,1046.58Z" style="fill:rgb(95,95,97);"/>
        </g>
        <g transform="matrix(1.05256,0,0,2.00087,-614.367,-1994.91)">
            <path d="M498.197,1049.77C497.356,1050.02 496.368,1050.22 495.271,1050.29C492.956,1050.44 490.004,1050.07 487.002,1048.03C486.678,1047.82 486.502,1047.55 486.502,1047.27L486.502,1040.42C486.502,1039.73 487.566,1039.17 488.878,1039.17L532.362,1039.17C533.674,1039.17 534.737,1039.73 534.737,1040.42L534.737,1047.27C534.737,1047.55 534.562,1047.82 534.238,1048.03C531.236,1050.07 528.284,1050.44 525.969,1050.29C524.871,1050.22 523.884,1050.02 523.043,1049.77C520.537,1052.86 516.605,1053.96 513.947,1054.51C513.358,1054.63 512.652,1054.76 512.261,1054.83C512.11,1054.9 511.941,1054.96 511.756,1055.01C511.397,1055.11 511.007,1055.15 510.62,1055.14C510.233,1055.15 509.843,1055.11 509.483,1055.01C509.299,1054.96 509.129,1054.9 508.979,1054.83C508.588,1054.76 507.882,1054.63 507.293,1054.51C504.634,1053.96 500.703,1052.86 498.197,1049.77ZM529.987,1046.82L529.987,1041.67L491.253,1041.67L491.253,1046.82C492.244,1047.42 493.15,1047.72 494.019,1047.8C496.045,1047.98 497.422,1046.91 497.422,1046.91C497.965,1046.53 498.88,1046.34 499.776,1046.43C500.673,1046.52 501.392,1046.87 501.627,1047.33C503.538,1051.11 507.841,1051.98 509.992,1052.37C510.217,1052.41 510.426,1052.45 510.62,1052.49C510.814,1052.45 511.023,1052.41 511.248,1052.37C513.399,1051.98 517.702,1051.11 519.613,1047.33C519.848,1046.87 520.567,1046.52 521.463,1046.43C522.36,1046.34 523.275,1046.53 523.817,1046.91C523.817,1046.91 525.195,1047.98 527.221,1047.8C528.09,1047.72 528.995,1047.42 529.987,1046.82Z" style="fill:rgb(95,95,97);"/>
        </g>
        <g transform="matrix(1.05256,0,0,2.00087,-341.964,-1994.91)">
            <path d="M498.197,1049.77C497.356,1050.02 496.368,1050.22 495.271,1050.29C492.956,1050.44 490.004,1050.07 487.002,1048.03C486.678,1047.82 486.502,1047.55 486.502,1047.27L486.502,1040.42C486.502,1039.73 487.566,1039.17 488.878,1039.17L532.362,1039.17C533.674,1039.17 534.737,1039.73 534.737,1040.42L534.737,1047.27C534.737,1047.55 534.562,1047.82 534.238,1048.03C531.236,1050.07 528.284,1050.44 525.969,1050.29C524.871,1050.22 523.884,1050.02 523.043,1049.77C520.537,1052.86 516.605,1053.96 513.947,1054.51C513.358,1054.63 512.652,1054.76 512.261,1054.83C512.11,1054.9 511.941,1054.96 511.756,1055.01C511.397,1055.11 511.007,1055.15 510.62,1055.14C510.233,1055.15 509.843,1055.11 509.483,1055.01C509.299,1054.96 509.129,1054.9 508.979,1054.83C508.588,1054.76 507.882,1054.63 507.293,1054.51C504.634,1053.96 500.703,1052.86 498.197,1049.77ZM529.987,1046.82L529.987,1041.67L491.253,1041.67L491.253,1046.82C492.244,1047.42 493.15,1047.72 494.019,1047.8C496.045,1047.98 497.422,1046.91 497.422,1046.91C497.965,1046.53 498.88,1046.34 499.776,1046.43C500.673,1046.52 501.392,1046.87 501.627,1047.33C503.538,1051.11 507.841,1051.98 509.992,1052.37C510.217,1052.41 510.426,1052.45 510.62,1052.49C510.814,1052.45 511.023,1052.41 511.248,1052.37C513.399,1051.98 517.702,1051.11 519.613,1047.33C519.848,1046.87 520.567,1046.52 521.463,1046.43C522.36,1046.34 523.275,1046.53 523.817,1046.91C523.817,1046.91 525.195,1047.98 527.221,1047.8C528.09,1047.72 528.995,1047.42 529.987,1046.82Z" style="fill:rgb(95,95,97);"/>
        </g>
    </g>
</svg>
