<?xml version="1.0" encoding="UTF-8" standalone="no"?>
<!DOCTYPE svg PUBLIC "-//W3C//DTD SVG 1.1//EN" "http://www.w3.org/Graphics/SVG/1.1/DTD/svg11.dtd">
<svg width="100%" height="100%" viewBox="0 0 119 91" version="1.1" xmlns="http://www.w3.org/2000/svg" xmlns:xlink="http://www.w3.org/1999/xlink" xml:space="preserve" xmlns:serif="http://www.serif.com/" style="fill-rule:evenodd;clip-rule:evenodd;stroke-linejoin:round;stroke-miterlimit:2;">
    <g transform="matrix(0.244553,0,0,0.244553,44.9491,34.3728)">
        <g transform="matrix(0.892954,0,0,2.21193,-1117.71,-1869.3)">
            <path d="M1142.68,854.524C1142.68,853.997 1141.62,853.57 1140.31,853.57L1098.98,853.57C1097.68,853.57 1096.62,853.997 1096.62,854.524L1096.62,926.095C1096.62,926.622 1097.68,927.049 1098.98,927.049L1140.31,927.049C1141.62,927.049 1142.68,926.622 1142.68,926.095L1142.68,854.524ZM1101.35,855.478L1101.35,925.141L1137.95,925.141L1137.95,855.478L1101.35,855.478Z" style="fill:rgb(95,95,97);"/>
        </g>
        <g transform="matrix(1.29599,0,0,0.231412,-1568.96,-18.59)">
            <path d="M1142.24,854.524C1142.24,848.558 1141.38,843.721 1140.31,843.721L1098.98,843.721C1097.92,843.721 1097.05,848.558 1097.05,854.524L1097.05,926.095C1097.05,932.062 1097.92,936.898 1098.98,936.898L1140.31,936.898C1141.38,936.898 1142.24,932.062 1142.24,926.095L1142.24,854.524ZM1100.91,865.327L1100.91,915.292L1138.38,915.292L1138.38,865.327L1100.91,865.327Z" style="fill:rgb(95,95,97);"/>
        </g>
        <g transform="matrix(1.29599,0,0,0.231412,-1568.96,-193.462)">
            <path d="M1142.24,854.524C1142.24,848.558 1141.38,843.721 1140.31,843.721L1098.98,843.721C1097.92,843.721 1097.05,848.558 1097.05,854.524L1097.05,926.095C1097.05,932.062 1097.92,936.898 1098.98,936.898L1140.31,936.898C1141.38,936.898 1142.24,932.062 1142.24,926.095L1142.24,854.524ZM1100.91,865.327L1100.91,915.292L1138.38,915.292L1138.38,865.327L1100.91,865.327Z" style="fill:rgb(95,95,97);"/>
        </g>
        <g transform="matrix(0.892954,0,0,2.21193,-1029.01,-1869.3)">
            <path d="M1142.68,854.524C1142.68,853.997 1141.62,853.57 1140.31,853.57L1098.98,853.57C1097.68,853.57 1096.62,853.997 1096.62,854.524L1096.62,926.095C1096.62,926.622 1097.68,927.049 1098.98,927.049L1140.31,927.049C1141.62,927.049 1142.68,926.622 1142.68,926.095L1142.68,854.524ZM1101.35,855.478L1101.35,925.141L1137.95,925.141L1137.95,855.478L1101.35,855.478Z" style="fill:rgb(95,95,97);"/>
        </g>
        <g transform="matrix(1.29599,0,0,0.231412,-1480.27,-18.59)">
            <path d="M1142.24,854.524C1142.24,848.558 1141.38,843.721 1140.31,843.721L1098.98,843.721C1097.92,843.721 1097.05,848.558 1097.05,854.524L1097.05,926.095C1097.05,932.062 1097.92,936.898 1098.98,936.898L1140.31,936.898C1141.38,936.898 1142.24,932.062 1142.24,926.095L1142.24,854.524ZM1100.91,865.327L1100.91,915.292L1138.38,915.292L1138.38,865.327L1100.91,865.327Z" style="fill:rgb(95,95,97);"/>
        </g>
        <g transform="matrix(1.29599,0,0,0.231412,-1480.27,-193.462)">
            <path d="M1142.24,854.524C1142.24,848.558 1141.38,843.721 1140.31,843.721L1098.98,843.721C1097.92,843.721 1097.05,848.558 1097.05,854.524L1097.05,926.095C1097.05,932.062 1097.92,936.898 1098.98,936.898L1140.31,936.898C1141.38,936.898 1142.24,932.062 1142.24,926.095L1142.24,854.524ZM1100.91,865.327L1100.91,915.292L1138.38,915.292L1138.38,865.327L1100.91,865.327Z" style="fill:rgb(95,95,97);"/>
        </g>
        <g transform="matrix(0.892954,0,0,2.21193,-940.317,-1869.3)">
            <path d="M1142.68,854.524C1142.68,853.997 1141.62,853.57 1140.31,853.57L1098.98,853.57C1097.68,853.57 1096.62,853.997 1096.62,854.524L1096.62,926.095C1096.62,926.622 1097.68,927.049 1098.98,927.049L1140.31,927.049C1141.62,927.049 1142.68,926.622 1142.68,926.095L1142.68,854.524ZM1101.35,855.478L1101.35,925.141L1137.95,925.141L1137.95,855.478L1101.35,855.478Z" style="fill:rgb(95,95,97);"/>
        </g>
        <g transform="matrix(1.29599,0,0,0.231412,-1391.58,-18.59)">
            <path d="M1142.24,854.524C1142.24,848.558 1141.38,843.721 1140.31,843.721L1098.98,843.721C1097.92,843.721 1097.05,848.558 1097.05,854.524L1097.05,926.095C1097.05,932.062 1097.92,936.898 1098.98,936.898L1140.31,936.898C1141.38,936.898 1142.24,932.062 1142.24,926.095L1142.24,854.524ZM1100.91,865.327L1100.91,915.292L1138.38,915.292L1138.38,865.327L1100.91,865.327Z" style="fill:rgb(95,95,97);"/>
        </g>
        <g transform="matrix(1.29599,0,0,0.231412,-1391.58,-193.462)">
            <path d="M1142.24,854.524C1142.24,848.558 1141.38,843.721 1140.31,843.721L1098.98,843.721C1097.92,843.721 1097.05,848.558 1097.05,854.524L1097.05,926.095C1097.05,932.062 1097.92,936.898 1098.98,936.898L1140.31,936.898C1141.38,936.898 1142.24,932.062 1142.24,926.095L1142.24,854.524ZM1100.91,865.327L1100.91,915.292L1138.38,915.292L1138.38,865.327L1100.91,865.327Z" style="fill:rgb(95,95,97);"/>
        </g>
        <g transform="matrix(0.892954,0,0,2.21193,-851.623,-1869.3)">
            <path d="M1142.68,854.524C1142.68,853.997 1141.62,853.57 1140.31,853.57L1098.98,853.57C1097.68,853.57 1096.62,853.997 1096.62,854.524L1096.62,926.095C1096.62,926.622 1097.68,927.049 1098.98,927.049L1140.31,927.049C1141.62,927.049 1142.68,926.622 1142.68,926.095L1142.68,854.524ZM1101.35,855.478L1101.35,925.141L1137.95,925.141L1137.95,855.478L1101.35,855.478Z" style="fill:rgb(95,95,97);"/>
        </g>
        <g transform="matrix(1.29599,0,0,0.231412,-1302.88,-18.59)">
            <path d="M1142.24,854.524C1142.24,848.558 1141.38,843.721 1140.31,843.721L1098.98,843.721C1097.92,843.721 1097.05,848.558 1097.05,854.524L1097.05,926.095C1097.05,932.062 1097.92,936.898 1098.98,936.898L1140.31,936.898C1141.38,936.898 1142.24,932.062 1142.24,926.095L1142.24,854.524ZM1100.91,865.327L1100.91,915.292L1138.38,915.292L1138.38,865.327L1100.91,865.327Z" style="fill:rgb(95,95,97);"/>
        </g>
        <g transform="matrix(1.29599,0,0,0.231412,-1302.88,-193.462)">
            <path d="M1142.24,854.524C1142.24,848.558 1141.38,843.721 1140.31,843.721L1098.98,843.721C1097.92,843.721 1097.05,848.558 1097.05,854.524L1097.05,926.095C1097.05,932.062 1097.92,936.898 1098.98,936.898L1140.31,936.898C1141.38,936.898 1142.24,932.062 1142.24,926.095L1142.24,854.524ZM1100.91,865.327L1100.91,915.292L1138.38,915.292L1138.38,865.327L1100.91,865.327Z" style="fill:rgb(95,95,97);"/>
        </g>
        <g transform="matrix(0.892954,0,0,2.21193,-762.929,-1869.3)">
            <path d="M1142.68,854.524C1142.68,853.997 1141.62,853.57 1140.31,853.57L1098.98,853.57C1097.68,853.57 1096.62,853.997 1096.62,854.524L1096.62,926.095C1096.62,926.622 1097.68,927.049 1098.98,927.049L1140.31,927.049C1141.62,927.049 1142.68,926.622 1142.68,926.095L1142.68,854.524ZM1101.35,855.478L1101.35,925.141L1137.95,925.141L1137.95,855.478L1101.35,855.478Z" style="fill:rgb(95,95,97);"/>
        </g>
        <g transform="matrix(1.29599,0,0,0.231412,-1214.19,-18.59)">
            <path d="M1142.24,854.524C1142.24,848.558 1141.38,843.721 1140.31,843.721L1098.98,843.721C1097.92,843.721 1097.05,848.558 1097.05,854.524L1097.05,926.095C1097.05,932.062 1097.92,936.898 1098.98,936.898L1140.31,936.898C1141.38,936.898 1142.24,932.062 1142.24,926.095L1142.24,854.524ZM1100.91,865.327L1100.91,915.292L1138.38,915.292L1138.38,865.327L1100.91,865.327Z" style="fill:rgb(95,95,97);"/>
        </g>
        <g transform="matrix(1.29599,0,0,0.231412,-1214.19,-193.462)">
            <path d="M1142.24,854.524C1142.24,848.558 1141.38,843.721 1140.31,843.721L1098.98,843.721C1097.92,843.721 1097.05,848.558 1097.05,854.524L1097.05,926.095C1097.05,932.062 1097.92,936.898 1098.98,936.898L1140.31,936.898C1141.38,936.898 1142.24,932.062 1142.24,926.095L1142.24,854.524ZM1100.91,865.327L1100.91,915.292L1138.38,915.292L1138.38,865.327L1100.91,865.327Z" style="fill:rgb(95,95,97);"/>
        </g>
        <g transform="matrix(10.531,0,0,0.421805,-11731.5,-386.15)">
            <path d="M1140.55,864.528C1140.55,860.303 1140.48,856.251 1140.36,853.263C1140.24,850.276 1140.08,848.597 1139.91,848.597C1135.92,848.597 1103.38,848.597 1099.38,848.597C1099.21,848.597 1099.05,850.276 1098.93,853.263C1098.81,856.251 1098.75,860.303 1098.75,864.528C1098.75,884.215 1098.75,926.095 1098.75,926.095C1098.75,929.368 1098.85,932.022 1098.98,932.022L1140.31,932.022C1140.44,932.022 1140.55,929.368 1140.55,926.095L1140.55,864.528ZM1140.08,920.168L1140.08,864.528C1140.08,863.447 1140.06,862.41 1140.03,861.645C1140,860.881 1139.95,860.451 1139.91,860.451C1135.92,860.451 1103.38,860.451 1099.38,860.451C1099.34,860.451 1099.3,860.881 1099.27,861.645C1099.24,862.41 1099.22,863.447 1099.22,864.528L1099.22,920.168L1140.08,920.168Z" style="fill:rgb(95,95,97);"/>
        </g>
        <g transform="matrix(2.00087,0,0,2.00087,-2576.63,-4093.15)">
            <path d="M1317.48,2034.09C1317.48,2034.09 1317.48,2034.09 1317.48,2034.09L1415.04,2034.09C1415.6,2034.09 1416.1,2033.71 1416.25,2033.17C1416.39,2032.62 1416.16,2032.05 1415.67,2031.76C1415.67,2031.76 1339.71,1987.12 1321.85,1976.63C1319.16,1975.05 1315.83,1975.05 1313.13,1976.62C1295.27,1987.04 1219.32,2031.36 1219.32,2031.36C1218.83,2031.65 1218.6,2032.22 1218.74,2032.77C1218.89,2033.31 1219.38,2033.69 1219.94,2033.69L1317.48,2034.09ZM1410.45,2031.59L1320.59,1978.79C1318.68,1977.66 1316.31,1977.66 1314.39,1978.78L1224.54,2031.21L1317.49,2031.59L1410.45,2031.59Z" style="fill:rgb(95,95,97);"/>
        </g>
        <g transform="matrix(1.46833,0,0,1.46833,-1875.02,-3023.85)">
            <path d="M1317.48,2034.54C1317.48,2034.54 1317.48,2034.54 1317.48,2034.54L1415.04,2034.54C1415.81,2034.54 1416.48,2034.03 1416.68,2033.29C1416.88,2032.55 1416.57,2031.76 1415.9,2031.37C1415.9,2031.37 1341.62,1987.72 1322.7,1976.6C1319.49,1974.72 1315.51,1974.71 1312.29,1976.59C1293.36,1987.63 1219.09,2030.97 1219.09,2030.97C1218.43,2031.36 1218.11,2032.14 1218.31,2032.88C1218.51,2033.63 1219.17,2034.14 1219.94,2034.15L1317.48,2034.54ZM1408.78,2031.14L1320.97,1979.54C1318.82,1978.28 1316.16,1978.27 1314,1979.53L1226.2,2030.77L1317.49,2031.14L1408.78,2031.14Z" style="fill:rgb(95,95,97);"/>
        </g>
        <g transform="matrix(2.67663,0,0,2.12227,-715.561,-4175.96)">
            <path d="M202.454,2076.79L376.678,2076.79C377.194,2076.79 377.612,2076.26 377.612,2075.61C377.612,2074.96 377.194,2074.43 376.678,2074.43L202.454,2074.43C201.938,2074.43 201.52,2074.96 201.52,2075.61C201.52,2076.26 201.938,2076.79 202.454,2076.79Z" style="fill:rgb(77,77,79);"/>
        </g>
        <g transform="matrix(2.43897,0,0,2.12227,-646.743,-4209.29)">
            <path d="M202.454,2076.72L376.678,2076.72C377.214,2076.72 377.649,2076.22 377.649,2075.61C377.649,2074.99 377.214,2074.49 376.678,2074.49L202.454,2074.49C201.918,2074.49 201.483,2074.99 201.483,2075.61C201.483,2076.22 201.918,2076.72 202.454,2076.72Z" style="fill:rgb(77,77,79);"/>
        </g>
        <g transform="matrix(2.5549,0,0,2.12227,-680.312,-4192.62)">
            <path d="M202.454,2076.75L376.678,2076.75C377.204,2076.75 377.63,2076.24 377.63,2075.61C377.63,2074.98 377.204,2074.46 376.678,2074.46L202.454,2074.46C201.928,2074.46 201.502,2074.98 201.502,2075.61C201.502,2076.24 201.928,2076.75 202.454,2076.75Z" style="fill:rgb(77,77,79);"/>
        </g>
    </g>
</svg>
