<?xml version="1.0" encoding="UTF-8" standalone="no"?>
<!DOCTYPE svg PUBLIC "-//W3C//DTD SVG 1.1//EN" "http://www.w3.org/Graphics/SVG/1.1/DTD/svg11.dtd">
<svg width="100%" height="100%" viewBox="0 0 119 91" version="1.1" xmlns="http://www.w3.org/2000/svg" xmlns:xlink="http://www.w3.org/1999/xlink" xml:space="preserve" xmlns:serif="http://www.serif.com/" style="fill-rule:evenodd;clip-rule:evenodd;stroke-linejoin:round;stroke-miterlimit:2;">
    <g transform="matrix(0.236745,0,0,0.236745,45.4137,34.7281)">
        <g transform="matrix(1.76685,0,0,1.08763,-1004.18,-1773.07)">
            <path d="M543.046,1559.03C543.046,1557.76 542.413,1556.73 541.631,1556.73L498.434,1556.73C497.653,1556.73 497.019,1557.76 497.019,1559.03L497.019,1567.14C497.019,1568.41 497.653,1569.44 498.434,1569.44L541.631,1569.44C542.413,1569.44 543.046,1568.41 543.046,1567.14L543.046,1559.03ZM499.849,1561.33L499.849,1564.84L540.216,1564.84L540.216,1561.33L499.849,1561.33Z" style="fill:rgb(95,95,97);"/>
        </g>
        <g transform="matrix(1,0,0,1,-1962.51,-1496.42)">
            <path d="M2211.76,1349.73L2211.76,1352.23L2211.77,1352.23L2211.77,1354.73C2208.43,1354.73 2205.1,1355.19 2201.9,1356.13C2196.76,1357.62 2191.99,1360.31 2188.04,1363.9C2185.76,1365.97 2183.76,1368.34 2182.09,1370.91L2182.07,1370.95C2181.61,1371.66 2180.82,1372.1 2179.97,1372.1L2027.59,1372.1C2026.21,1372.1 2025.09,1370.98 2025.09,1369.6L2025.09,1352.23C2025.09,1350.85 2026.21,1349.73 2027.59,1349.73L2211.76,1349.73ZM2192.33,1354.73L2030.09,1354.73L2030.09,1367.1L2178.63,1367.1C2180.38,1364.58 2182.41,1362.26 2184.68,1360.2C2187,1358.09 2189.58,1356.25 2192.33,1354.73Z" style="fill:rgb(95,95,97);"/>
        </g>
        <g transform="matrix(1,0,0,1,-1962.51,-1496.42)">
            <path d="M2211.76,1349.73C2189.52,1349.73 2171.47,1367.78 2171.47,1390.02C2171.47,1412.26 2189.52,1430.32 2211.76,1430.32C2234,1430.32 2252.06,1412.26 2252.06,1390.02C2252.06,1367.78 2234,1349.73 2211.76,1349.73ZM2211.76,1354.73C2231.24,1354.73 2247.06,1370.54 2247.06,1390.02C2247.06,1409.5 2231.24,1425.32 2211.76,1425.32C2192.28,1425.32 2176.47,1409.5 2176.47,1390.02C2176.47,1370.54 2192.28,1354.73 2211.76,1354.73Z" style="fill:rgb(95,95,97);"/>
        </g>
        <g transform="matrix(0.834652,0,0,4.65946,-302.92,-7370.63)">
            <path d="M544.626,1559.03C544.626,1558.73 543.285,1558.49 541.631,1558.49L498.434,1558.49C496.78,1558.49 495.439,1558.73 495.439,1559.03L495.439,1567.14C495.439,1567.44 496.78,1567.68 498.434,1567.68L541.631,1567.68C543.285,1567.68 544.626,1567.44 544.626,1567.14L544.626,1559.03ZM501.429,1559.57L501.429,1566.61L538.636,1566.61L538.636,1559.57L501.429,1559.57Z" style="fill:rgb(95,95,97);"/>
        </g>
        <g transform="matrix(10.7048,6.83233e-16,-2.43076e-16,-1.8236,-5508.31,2789.24)">
            <path d="M541.631,1557.66C541.76,1557.66 541.865,1558.27 541.865,1559.03L541.865,1564.87C541.865,1565.84 541.799,1566.76 541.683,1567.45C541.567,1568.13 541.409,1568.51 541.244,1568.51C537.208,1568.51 502.858,1568.51 498.821,1568.51C498.656,1568.51 498.499,1568.13 498.382,1567.45C498.266,1566.76 498.201,1565.84 498.201,1564.87L498.201,1559.03C498.201,1558.27 498.305,1557.66 498.434,1557.66L541.631,1557.66ZM541.398,1560.4L541.398,1564.87C541.398,1565.11 541.381,1565.34 541.353,1565.51C541.324,1565.67 541.285,1565.77 541.244,1565.77C537.208,1565.77 502.858,1565.77 498.821,1565.77C498.78,1565.77 498.741,1565.67 498.713,1565.51C498.684,1565.34 498.668,1565.11 498.668,1564.87L498.668,1560.4L541.398,1560.4Z" style="fill:rgb(95,95,97);"/>
        </g>
        <g transform="matrix(10.7048,6.83233e-16,-2.43076e-16,-1.8236,-5508.31,3000.76)">
            <path d="M541.631,1557.66C541.76,1557.66 541.865,1558.27 541.865,1559.03L541.865,1564.87C541.865,1565.84 541.799,1566.76 541.683,1567.45C541.567,1568.13 541.409,1568.51 541.244,1568.51C537.208,1568.51 502.858,1568.51 498.821,1568.51C498.656,1568.51 498.499,1568.13 498.382,1567.45C498.266,1566.76 498.201,1565.84 498.201,1564.87L498.201,1559.03C498.201,1558.27 498.305,1557.66 498.434,1557.66L541.631,1557.66ZM541.398,1560.4L541.398,1564.87C541.398,1565.11 541.381,1565.34 541.353,1565.51C541.324,1565.67 541.285,1565.77 541.244,1565.77C537.208,1565.77 502.858,1565.77 498.821,1565.77C498.78,1565.77 498.741,1565.67 498.713,1565.51C498.684,1565.34 498.668,1565.11 498.668,1564.87L498.668,1560.4L541.398,1560.4Z" style="fill:rgb(95,95,97);"/>
        </g>
        <g transform="matrix(2.97992,0,0,1.08763,-1635.02,-1781.9)">
            <path d="M542.47,1559.03C542.47,1557.76 542.094,1556.73 541.631,1556.73L498.434,1556.73C497.971,1556.73 497.595,1557.76 497.595,1559.03L497.595,1567.14C497.595,1568.41 497.971,1569.44 498.434,1569.44L541.631,1569.44C542.094,1569.44 542.47,1568.41 542.47,1567.14L542.47,1559.03ZM499.273,1561.33L499.273,1564.84L540.792,1564.84L540.792,1561.33L499.273,1561.33Z" style="fill:rgb(95,95,97);"/>
        </g>
        <g transform="matrix(0.300074,0.10212,0,1.08763,-312.25,-1837.21)">
            <path d="M549.962,1558.25C549.962,1557.26 547.692,1556.6 544.315,1556.6L501.118,1556.6C498.574,1556.6 495.769,1556.98 493.584,1557.62C491.399,1558.25 490.103,1559.07 490.103,1559.81L490.103,1567.92C490.103,1568.91 492.373,1569.57 495.75,1569.57L538.947,1569.57C541.491,1569.57 544.296,1569.19 546.481,1568.56C548.666,1567.92 549.962,1567.1 549.962,1566.36L549.962,1558.25ZM506.765,1564.71L533.3,1564.71L533.3,1561.46L506.765,1561.46L506.765,1564.71Z" style="fill:rgb(95,95,97);"/>
        </g>
        <g transform="matrix(-0.300074,0.10212,0,1.08763,141.533,-1837.21)">
            <path d="M544.315,1556.6C547.692,1556.6 549.962,1557.26 549.962,1558.25L549.962,1566.36C549.962,1567.1 548.666,1567.92 546.481,1568.56C544.296,1569.19 541.491,1569.57 538.947,1569.57L495.75,1569.57C492.373,1569.57 490.103,1568.91 490.103,1567.92L490.103,1559.81C490.103,1559.07 491.399,1558.25 493.584,1557.62C495.769,1556.98 498.574,1556.6 501.118,1556.6L544.315,1556.6ZM533.3,1561.46L533.3,1564.71L506.765,1564.71L506.765,1561.46L533.3,1561.46Z" style="fill:rgb(95,95,97);"/>
        </g>
        <g transform="matrix(2.46446,0,0,2.12227,-636.621,-4169.82)">
            <path d="M202.454,2076.79L376.678,2076.79C377.238,2076.79 377.693,2076.26 377.693,2075.61C377.693,2074.96 377.238,2074.43 376.678,2074.43L202.454,2074.43C201.894,2074.43 201.439,2074.96 201.439,2075.61C201.439,2076.26 201.894,2076.79 202.454,2076.79Z" style="fill:rgb(77,77,79);"/>
        </g>
        <g transform="matrix(7.62678,0,0,9.55146,-3861.13,-14733.3)">
            <path d="M541.959,1559.03C541.959,1558.88 541.812,1558.77 541.631,1558.77L498.434,1558.77C498.253,1558.77 498.106,1558.88 498.106,1559.03L498.106,1567.14C498.106,1567.29 498.253,1567.4 498.434,1567.4L541.631,1567.4C541.812,1567.4 541.959,1567.29 541.959,1567.14L541.959,1559.03ZM498.762,1559.29L498.762,1566.88L541.303,1566.88L541.303,1559.29L498.762,1559.29Z" style="fill:rgb(95,95,97);"/>
        </g>
        <g transform="matrix(0.82676,0,0,0.82676,-1413.93,-1371.98)">
            <path d="M1999.34,1518.41L1999.34,1503.09C1999.34,1501.42 2000.69,1500.07 2002.36,1500.07L2021.03,1500.07C2022.7,1500.07 2024.05,1501.42 2024.05,1503.09L2024.05,1518.41L2039.37,1518.41C2041.04,1518.41 2042.4,1519.77 2042.4,1521.44L2042.4,1540.11C2042.4,1541.78 2041.04,1543.13 2039.37,1543.13L2024.05,1543.13L2024.05,1558.45C2024.05,1560.12 2022.7,1561.48 2021.03,1561.48L2002.36,1561.48C2000.69,1561.48 1999.34,1560.12 1999.34,1558.45L1999.34,1543.13L1984.01,1543.13C1982.34,1543.13 1980.99,1541.78 1980.99,1540.11L1980.99,1521.44C1980.99,1519.77 1982.34,1518.41 1984.01,1518.41L1999.34,1518.41ZM2018,1506.12L2005.38,1506.12L2005.38,1521.44C2005.38,1523.11 2004.03,1524.46 2002.36,1524.46L1987.04,1524.46L1987.04,1537.08L2002.36,1537.08C2004.03,1537.08 2005.38,1538.44 2005.38,1540.11L2005.38,1555.43L2018,1555.43L2018,1540.11C2018,1538.44 2019.36,1537.08 2021.03,1537.08L2036.35,1537.08L2036.35,1524.46L2021.03,1524.46C2019.36,1524.46 2018,1523.11 2018,1521.44L2018,1506.12Z" style="fill:rgb(95,95,97);"/>
        </g>
        <g transform="matrix(0.467349,0,0,0.467349,-964.254,-516.118)">
            <path d="M1997.01,1516.09L1997.01,1503.09C1997.01,1500.14 1999.4,1497.74 2002.36,1497.74L2021.03,1497.74C2023.98,1497.74 2026.38,1500.14 2026.38,1503.09L2026.38,1516.09L2039.37,1516.09C2042.33,1516.09 2044.72,1518.49 2044.72,1521.44L2044.72,1540.11C2044.72,1543.06 2042.33,1545.46 2039.37,1545.46L2026.38,1545.46L2026.38,1558.45C2026.38,1561.41 2023.98,1563.8 2021.03,1563.8L2002.36,1563.8C1999.4,1563.8 1997.01,1561.41 1997.01,1558.45L1997.01,1545.46L1984.01,1545.46C1981.06,1545.46 1978.66,1543.06 1978.66,1540.11L1978.66,1521.44C1978.66,1518.49 1981.06,1516.09 1984.01,1516.09L1997.01,1516.09ZM2015.68,1508.44L2007.71,1508.44L2007.71,1521.44C2007.71,1524.39 2005.31,1526.79 2002.36,1526.79L1989.36,1526.79L1989.36,1534.76L2002.36,1534.76C2005.31,1534.76 2007.71,1537.15 2007.71,1540.11L2007.71,1553.11L2015.68,1553.11L2015.68,1540.11C2015.68,1537.15 2018.07,1534.76 2021.03,1534.76L2034.02,1534.76L2034.02,1526.79L2021.03,1526.79C2018.07,1526.79 2015.68,1524.39 2015.68,1521.44L2015.68,1508.44Z" style="fill:rgb(95,95,97);"/>
        </g>
        <g transform="matrix(0.467349,0,0,0.467349,-794.6,-516.118)">
            <path d="M1997.01,1516.09L1997.01,1503.09C1997.01,1500.14 1999.4,1497.74 2002.36,1497.74L2021.03,1497.74C2023.98,1497.74 2026.38,1500.14 2026.38,1503.09L2026.38,1516.09L2039.37,1516.09C2042.33,1516.09 2044.72,1518.49 2044.72,1521.44L2044.72,1540.11C2044.72,1543.06 2042.33,1545.46 2039.37,1545.46L2026.38,1545.46L2026.38,1558.45C2026.38,1561.41 2023.98,1563.8 2021.03,1563.8L2002.36,1563.8C1999.4,1563.8 1997.01,1561.41 1997.01,1558.45L1997.01,1545.46L1984.01,1545.46C1981.06,1545.46 1978.66,1543.06 1978.66,1540.11L1978.66,1521.44C1978.66,1518.49 1981.06,1516.09 1984.01,1516.09L1997.01,1516.09ZM2015.68,1508.44L2007.71,1508.44L2007.71,1521.44C2007.71,1524.39 2005.31,1526.79 2002.36,1526.79L1989.36,1526.79L1989.36,1534.76L2002.36,1534.76C2005.31,1534.76 2007.71,1537.15 2007.71,1540.11L2007.71,1553.11L2015.68,1553.11L2015.68,1540.11C2015.68,1537.15 2018.07,1534.76 2021.03,1534.76L2034.02,1534.76L2034.02,1526.79L2021.03,1526.79C2018.07,1526.79 2015.68,1524.39 2015.68,1521.44L2015.68,1508.44Z" style="fill:rgb(95,95,97);"/>
        </g>
        <g transform="matrix(3.02802,0,0,24.2519,-1646.95,-37863.3)">
            <path d="M542.457,1559.03C542.457,1558.97 542.087,1558.93 541.631,1558.93L498.434,1558.93C497.978,1558.93 497.609,1558.97 497.609,1559.03L497.609,1567.14C497.609,1567.2 497.978,1567.24 498.434,1567.24L541.631,1567.24C542.087,1567.24 542.457,1567.2 542.457,1567.14L542.457,1559.03ZM499.26,1559.13L499.26,1567.04L540.806,1567.04L540.806,1559.13L499.26,1559.13Z" style="fill:rgb(95,95,97);"/>
        </g>
        <g transform="matrix(0.189276,0,0,0.247947,-204.956,-369.836)">
            <path d="M933.979,1274.59C933.979,1269.02 928.066,1264.51 920.771,1264.51L700.955,1264.51C693.66,1264.51 687.747,1269.02 687.747,1274.59L687.747,1433.28C687.747,1438.84 693.66,1443.36 700.955,1443.36L920.771,1443.36C928.066,1443.36 933.979,1438.84 933.979,1433.28L933.979,1274.59ZM714.163,1284.67L714.163,1423.19L907.563,1423.19L907.563,1284.67L714.163,1284.67Z" style="fill:rgb(95,95,97);"/>
        </g>
        <g transform="matrix(0.189276,0,0,0.247947,-204.956,-330.492)">
            <path d="M933.979,1274.59C933.979,1269.02 928.066,1264.51 920.771,1264.51L700.955,1264.51C693.66,1264.51 687.747,1269.02 687.747,1274.59L687.747,1433.28C687.747,1438.84 693.66,1443.36 700.955,1443.36L920.771,1443.36C928.066,1443.36 933.979,1438.84 933.979,1433.28L933.979,1274.59ZM714.163,1284.67L714.163,1423.19L907.563,1423.19L907.563,1284.67L714.163,1284.67Z" style="fill:rgb(95,95,97);"/>
        </g>
        <g transform="matrix(0.189276,0,0,0.247947,-204.956,-291.147)">
            <path d="M933.979,1274.59C933.979,1269.02 928.066,1264.51 920.771,1264.51L700.955,1264.51C693.66,1264.51 687.747,1269.02 687.747,1274.59L687.747,1433.28C687.747,1438.84 693.66,1443.36 700.955,1443.36L920.771,1443.36C928.066,1443.36 933.979,1438.84 933.979,1433.28L933.979,1274.59ZM714.163,1284.67L714.163,1423.19L907.563,1423.19L907.563,1284.67L714.163,1284.67Z" style="fill:rgb(95,95,97);"/>
        </g>
        <g transform="matrix(0.189276,0,0,0.247947,-246.562,-369.836)">
            <path d="M933.979,1274.59C933.979,1269.02 928.066,1264.51 920.771,1264.51L700.955,1264.51C693.66,1264.51 687.747,1269.02 687.747,1274.59L687.747,1433.28C687.747,1438.84 693.66,1443.36 700.955,1443.36L920.771,1443.36C928.066,1443.36 933.979,1438.84 933.979,1433.28L933.979,1274.59ZM714.163,1284.67L714.163,1423.19L907.563,1423.19L907.563,1284.67L714.163,1284.67Z" style="fill:rgb(95,95,97);"/>
        </g>
        <g transform="matrix(0.189276,0,0,0.247947,-246.562,-330.492)">
            <path d="M933.979,1274.59C933.979,1269.02 928.066,1264.51 920.771,1264.51L700.955,1264.51C693.66,1264.51 687.747,1269.02 687.747,1274.59L687.747,1433.28C687.747,1438.84 693.66,1443.36 700.955,1443.36L920.771,1443.36C928.066,1443.36 933.979,1438.84 933.979,1433.28L933.979,1274.59ZM714.163,1284.67L714.163,1423.19L907.563,1423.19L907.563,1284.67L714.163,1284.67Z" style="fill:rgb(95,95,97);"/>
        </g>
        <g transform="matrix(0.189276,0,0,0.247947,-246.562,-291.147)">
            <path d="M933.979,1274.59C933.979,1269.02 928.066,1264.51 920.771,1264.51L700.955,1264.51C693.66,1264.51 687.747,1269.02 687.747,1274.59L687.747,1433.28C687.747,1438.84 693.66,1443.36 700.955,1443.36L920.771,1443.36C928.066,1443.36 933.979,1438.84 933.979,1433.28L933.979,1274.59ZM714.163,1284.67L714.163,1423.19L907.563,1423.19L907.563,1284.67L714.163,1284.67Z" style="fill:rgb(95,95,97);"/>
        </g>
        <g transform="matrix(0.189276,0,0,0.247947,-204.956,-251.802)">
            <path d="M933.979,1274.59C933.979,1269.02 928.066,1264.51 920.771,1264.51L700.955,1264.51C693.66,1264.51 687.747,1269.02 687.747,1274.59L687.747,1433.28C687.747,1438.84 693.66,1443.36 700.955,1443.36L920.771,1443.36C928.066,1443.36 933.979,1438.84 933.979,1433.28L933.979,1274.59ZM714.163,1284.67L714.163,1423.19L907.563,1423.19L907.563,1284.67L714.163,1284.67Z" style="fill:rgb(95,95,97);"/>
        </g>
        <g transform="matrix(0.189276,0,0,0.247947,-246.562,-251.802)">
            <path d="M933.979,1274.59C933.979,1269.02 928.066,1264.51 920.771,1264.51L700.955,1264.51C693.66,1264.51 687.747,1269.02 687.747,1274.59L687.747,1433.28C687.747,1438.84 693.66,1443.36 700.955,1443.36L920.771,1443.36C928.066,1443.36 933.979,1438.84 933.979,1433.28L933.979,1274.59ZM714.163,1284.67L714.163,1423.19L907.563,1423.19L907.563,1284.67L714.163,1284.67Z" style="fill:rgb(95,95,97);"/>
        </g>
        <g transform="matrix(0.189276,0,0,0.247947,-204.956,-212.457)">
            <path d="M933.979,1274.59C933.979,1269.02 928.066,1264.51 920.771,1264.51L700.955,1264.51C693.66,1264.51 687.747,1269.02 687.747,1274.59L687.747,1433.28C687.747,1438.84 693.66,1443.36 700.955,1443.36L920.771,1443.36C928.066,1443.36 933.979,1438.84 933.979,1433.28L933.979,1274.59ZM714.163,1284.67L714.163,1423.19L907.563,1423.19L907.563,1284.67L714.163,1284.67Z" style="fill:rgb(95,95,97);"/>
        </g>
        <g transform="matrix(0.189276,0,0,0.247947,-246.562,-212.457)">
            <path d="M933.979,1274.59C933.979,1269.02 928.066,1264.51 920.771,1264.51L700.955,1264.51C693.66,1264.51 687.747,1269.02 687.747,1274.59L687.747,1433.28C687.747,1438.84 693.66,1443.36 700.955,1443.36L920.771,1443.36C928.066,1443.36 933.979,1438.84 933.979,1433.28L933.979,1274.59ZM714.163,1284.67L714.163,1423.19L907.563,1423.19L907.563,1284.67L714.163,1284.67Z" style="fill:rgb(95,95,97);"/>
        </g>
        <g transform="matrix(0.189276,0,0,0.247947,56.647,-369.836)">
            <path d="M933.979,1274.59C933.979,1269.02 928.066,1264.51 920.771,1264.51L700.955,1264.51C693.66,1264.51 687.747,1269.02 687.747,1274.59C687.747,1274.59 687.747,1433.28 687.747,1433.28C687.747,1438.84 693.66,1443.36 700.955,1443.36L920.771,1443.36C928.066,1443.36 933.979,1438.84 933.979,1433.28L933.979,1274.59ZM714.163,1284.67L714.163,1423.19L907.563,1423.19L907.563,1284.67L714.163,1284.67Z" style="fill:rgb(95,95,97);"/>
        </g>
        <g transform="matrix(0.189276,0,0,0.247947,56.647,-330.492)">
            <path d="M933.979,1274.59C933.979,1269.02 928.066,1264.51 920.771,1264.51L700.955,1264.51C693.66,1264.51 687.747,1269.02 687.747,1274.59C687.747,1274.59 687.747,1433.28 687.747,1433.28C687.747,1438.84 693.66,1443.36 700.955,1443.36L920.771,1443.36C928.066,1443.36 933.979,1438.84 933.979,1433.28L933.979,1274.59ZM714.163,1284.67L714.163,1423.19L907.563,1423.19L907.563,1284.67L714.163,1284.67Z" style="fill:rgb(95,95,97);"/>
        </g>
        <g transform="matrix(0.189276,0,0,0.247947,56.647,-291.147)">
            <path d="M933.979,1274.59C933.979,1269.02 928.066,1264.51 920.771,1264.51L700.955,1264.51C693.66,1264.51 687.747,1269.02 687.747,1274.59C687.747,1274.59 687.747,1433.28 687.747,1433.28C687.747,1438.84 693.66,1443.36 700.955,1443.36L920.771,1443.36C928.066,1443.36 933.979,1438.84 933.979,1433.28L933.979,1274.59ZM714.163,1284.67L714.163,1423.19L907.563,1423.19L907.563,1284.67L714.163,1284.67Z" style="fill:rgb(95,95,97);"/>
        </g>
        <g transform="matrix(0.189276,0,0,0.247947,15.041,-369.836)">
            <path d="M933.979,1274.59C933.979,1269.02 928.066,1264.51 920.771,1264.51L700.955,1264.51C693.66,1264.51 687.747,1269.02 687.747,1274.59L687.747,1433.28C687.747,1438.84 693.66,1443.36 700.955,1443.36L920.771,1443.36C928.066,1443.36 933.979,1438.84 933.979,1433.28C933.979,1433.28 933.979,1274.59 933.979,1274.59ZM714.163,1284.67L714.163,1423.19L907.563,1423.19L907.563,1284.67L714.163,1284.67Z" style="fill:rgb(95,95,97);"/>
        </g>
        <g transform="matrix(0.189276,0,0,0.247947,15.041,-330.492)">
            <path d="M933.979,1274.59C933.979,1269.02 928.066,1264.51 920.771,1264.51L700.955,1264.51C693.66,1264.51 687.747,1269.02 687.747,1274.59L687.747,1433.28C687.747,1438.84 693.66,1443.36 700.955,1443.36L920.771,1443.36C928.066,1443.36 933.979,1438.84 933.979,1433.28C933.979,1433.28 933.979,1274.59 933.979,1274.59ZM714.163,1284.67L714.163,1423.19L907.563,1423.19L907.563,1284.67L714.163,1284.67Z" style="fill:rgb(95,95,97);"/>
        </g>
        <g transform="matrix(0.189276,0,0,0.247947,15.041,-291.147)">
            <path d="M933.979,1274.59C933.979,1269.02 928.066,1264.51 920.771,1264.51L700.955,1264.51C693.66,1264.51 687.747,1269.02 687.747,1274.59L687.747,1433.28C687.747,1438.84 693.66,1443.36 700.955,1443.36L920.771,1443.36C928.066,1443.36 933.979,1438.84 933.979,1433.28C933.979,1433.28 933.979,1274.59 933.979,1274.59ZM714.163,1284.67L714.163,1423.19L907.563,1423.19L907.563,1284.67L714.163,1284.67Z" style="fill:rgb(95,95,97);"/>
        </g>
        <g transform="matrix(0.189276,0,0,0.247947,56.647,-251.802)">
            <path d="M933.979,1274.59C933.979,1269.02 928.066,1264.51 920.771,1264.51L700.955,1264.51C693.66,1264.51 687.747,1269.02 687.747,1274.59C687.747,1274.59 687.747,1433.28 687.747,1433.28C687.747,1438.84 693.66,1443.36 700.955,1443.36L920.771,1443.36C928.066,1443.36 933.979,1438.84 933.979,1433.28L933.979,1274.59ZM714.163,1284.67L714.163,1423.19L907.563,1423.19L907.563,1284.67L714.163,1284.67Z" style="fill:rgb(95,95,97);"/>
        </g>
        <g transform="matrix(0.189276,0,0,0.247947,15.041,-251.802)">
            <path d="M933.979,1274.59C933.979,1269.02 928.066,1264.51 920.771,1264.51L700.955,1264.51C693.66,1264.51 687.747,1269.02 687.747,1274.59L687.747,1433.28C687.747,1438.84 693.66,1443.36 700.955,1443.36L920.771,1443.36C928.066,1443.36 933.979,1438.84 933.979,1433.28C933.979,1433.28 933.979,1274.59 933.979,1274.59ZM714.163,1284.67L714.163,1423.19L907.563,1423.19L907.563,1284.67L714.163,1284.67Z" style="fill:rgb(95,95,97);"/>
        </g>
        <g transform="matrix(0.189276,0,0,0.247947,56.647,-212.457)">
            <path d="M933.979,1274.59C933.979,1269.02 928.066,1264.51 920.771,1264.51L700.955,1264.51C693.66,1264.51 687.747,1269.02 687.747,1274.59C687.747,1274.59 687.747,1433.28 687.747,1433.28C687.747,1438.84 693.66,1443.36 700.955,1443.36L920.771,1443.36C928.066,1443.36 933.979,1438.84 933.979,1433.28L933.979,1274.59ZM714.163,1284.67L714.163,1423.19L907.563,1423.19L907.563,1284.67L714.163,1284.67Z" style="fill:rgb(95,95,97);"/>
        </g>
        <g transform="matrix(0.189276,0,0,0.247947,15.041,-212.457)">
            <path d="M933.979,1274.59C933.979,1269.02 928.066,1264.51 920.771,1264.51L700.955,1264.51C693.66,1264.51 687.747,1269.02 687.747,1274.59L687.747,1433.28C687.747,1438.84 693.66,1443.36 700.955,1443.36L920.771,1443.36C928.066,1443.36 933.979,1438.84 933.979,1433.28C933.979,1433.28 933.979,1274.59 933.979,1274.59ZM714.163,1284.67L714.163,1423.19L907.563,1423.19L907.563,1284.67L714.163,1284.67Z" style="fill:rgb(95,95,97);"/>
        </g>
        <g transform="matrix(0.297525,0,0,0.247947,-150.032,-369.836)">
            <path d="M929.174,1274.59C929.174,1269.02 925.412,1264.51 920.771,1264.51L700.955,1264.51C696.314,1264.51 692.552,1269.02 692.552,1274.59L692.552,1433.28C692.552,1438.84 696.314,1443.36 700.955,1443.36L920.771,1443.36C925.412,1443.36 929.174,1438.84 929.174,1433.28L929.174,1274.59ZM709.358,1284.67L709.358,1423.19L912.368,1423.19L912.368,1284.67L709.358,1284.67Z" style="fill:rgb(95,95,97);"/>
        </g>
        <g transform="matrix(0.297525,0,0,0.247947,-150.032,-330.492)">
            <path d="M929.174,1274.59C929.174,1269.02 925.412,1264.51 920.771,1264.51L700.955,1264.51C696.314,1264.51 692.552,1269.02 692.552,1274.59L692.552,1433.28C692.552,1438.84 696.314,1443.36 700.955,1443.36L920.771,1443.36C925.412,1443.36 929.174,1438.84 929.174,1433.28L929.174,1274.59ZM709.358,1284.67L709.358,1423.19L912.368,1423.19L912.368,1284.67L709.358,1284.67Z" style="fill:rgb(95,95,97);"/>
        </g>
        <g transform="matrix(0.297525,0,0,0.247947,-150.032,-291.147)">
            <path d="M929.174,1274.59C929.174,1269.02 925.412,1264.51 920.771,1264.51L700.955,1264.51C696.314,1264.51 692.552,1269.02 692.552,1274.59L692.552,1433.28C692.552,1438.84 696.314,1443.36 700.955,1443.36L920.771,1443.36C925.412,1443.36 929.174,1438.84 929.174,1433.28L929.174,1274.59ZM709.358,1284.67L709.358,1423.19L912.368,1423.19L912.368,1284.67L709.358,1284.67Z" style="fill:rgb(95,95,97);"/>
        </g>
        <g transform="matrix(0.297525,0,0,0.247947,-215.433,-369.836)">
            <path d="M929.174,1274.59C929.174,1269.02 925.412,1264.51 920.771,1264.51L700.955,1264.51C696.314,1264.51 692.552,1269.02 692.552,1274.59L692.552,1433.28C692.552,1438.84 696.314,1443.36 700.955,1443.36L920.771,1443.36C925.412,1443.36 929.174,1438.84 929.174,1433.28L929.174,1274.59ZM709.358,1284.67L709.358,1423.19L912.368,1423.19L912.368,1284.67L709.358,1284.67Z" style="fill:rgb(95,95,97);"/>
        </g>
        <g transform="matrix(0.297525,0,0,0.247947,-215.433,-330.492)">
            <path d="M929.174,1274.59C929.174,1269.02 925.412,1264.51 920.771,1264.51L700.955,1264.51C696.314,1264.51 692.552,1269.02 692.552,1274.59L692.552,1433.28C692.552,1438.84 696.314,1443.36 700.955,1443.36L920.771,1443.36C925.412,1443.36 929.174,1438.84 929.174,1433.28L929.174,1274.59ZM709.358,1284.67L709.358,1423.19L912.368,1423.19L912.368,1284.67L709.358,1284.67Z" style="fill:rgb(95,95,97);"/>
        </g>
        <g transform="matrix(0.297525,0,0,0.247947,-215.433,-291.147)">
            <path d="M929.174,1274.59C929.174,1269.02 925.412,1264.51 920.771,1264.51L700.955,1264.51C696.314,1264.51 692.552,1269.02 692.552,1274.59L692.552,1433.28C692.552,1438.84 696.314,1443.36 700.955,1443.36L920.771,1443.36C925.412,1443.36 929.174,1438.84 929.174,1433.28L929.174,1274.59ZM709.358,1284.67L709.358,1423.19L912.368,1423.19L912.368,1284.67L709.358,1284.67Z" style="fill:rgb(95,95,97);"/>
        </g>
        <g transform="matrix(0.297525,0,0,0.247947,-150.032,-251.802)">
            <path d="M929.174,1274.59C929.174,1269.02 925.412,1264.51 920.771,1264.51L700.955,1264.51C696.314,1264.51 692.552,1269.02 692.552,1274.59L692.552,1433.28C692.552,1438.84 696.314,1443.36 700.955,1443.36L920.771,1443.36C925.412,1443.36 929.174,1438.84 929.174,1433.28L929.174,1274.59ZM709.358,1284.67L709.358,1423.19L912.368,1423.19L912.368,1284.67L709.358,1284.67Z" style="fill:rgb(95,95,97);"/>
        </g>
        <g transform="matrix(0.297525,0,0,0.247947,-215.433,-251.802)">
            <path d="M929.174,1274.59C929.174,1269.02 925.412,1264.51 920.771,1264.51L700.955,1264.51C696.314,1264.51 692.552,1269.02 692.552,1274.59L692.552,1433.28C692.552,1438.84 696.314,1443.36 700.955,1443.36L920.771,1443.36C925.412,1443.36 929.174,1438.84 929.174,1433.28L929.174,1274.59ZM709.358,1284.67L709.358,1423.19L912.368,1423.19L912.368,1284.67L709.358,1284.67Z" style="fill:rgb(95,95,97);"/>
        </g>
        <g transform="matrix(0.297525,0,0,0.247947,-150.032,-212.457)">
            <path d="M929.174,1274.59C929.174,1269.02 925.412,1264.51 920.771,1264.51L700.955,1264.51C696.314,1264.51 692.552,1269.02 692.552,1274.59L692.552,1433.28C692.552,1438.84 696.314,1443.36 700.955,1443.36L920.771,1443.36C925.412,1443.36 929.174,1438.84 929.174,1433.28L929.174,1274.59ZM709.358,1284.67L709.358,1423.19L912.368,1423.19L912.368,1284.67L709.358,1284.67Z" style="fill:rgb(95,95,97);"/>
        </g>
        <g transform="matrix(0.297525,0,0,0.247947,-215.433,-212.457)">
            <path d="M929.174,1274.59C929.174,1269.02 925.412,1264.51 920.771,1264.51L700.955,1264.51C696.314,1264.51 692.552,1269.02 692.552,1274.59L692.552,1433.28C692.552,1438.84 696.314,1443.36 700.955,1443.36L920.771,1443.36C925.412,1443.36 929.174,1438.84 929.174,1433.28L929.174,1274.59ZM709.358,1284.67L709.358,1423.19L912.368,1423.19L912.368,1284.67L709.358,1284.67Z" style="fill:rgb(95,95,97);"/>
        </g>
        <g transform="matrix(3.02802,0,0,24.2519,-1385.35,-37863.3)">
            <path d="M542.457,1559.03C542.457,1558.97 542.087,1558.93 541.631,1558.93L498.434,1558.93C497.978,1558.93 497.609,1558.97 497.609,1559.03L497.609,1567.14C497.609,1567.2 497.978,1567.24 498.434,1567.24L541.631,1567.24C542.087,1567.24 542.457,1567.2 542.457,1567.14L542.457,1559.03ZM499.26,1559.13L499.26,1567.04L540.806,1567.04L540.806,1559.13L499.26,1559.13Z" style="fill:rgb(95,95,97);"/>
        </g>
        <g transform="matrix(-0.584143,0,0,24.2519,571.112,-37863.3)">
            <path d="M541.631,1558.93C543.995,1558.93 545.911,1558.97 545.911,1559.03L545.911,1567.14C545.911,1567.2 543.995,1567.24 541.631,1567.24L498.434,1567.24C496.07,1567.24 494.154,1567.2 494.154,1567.14L494.154,1559.03C494.154,1558.97 496.07,1558.93 498.434,1558.93L541.631,1558.93ZM537.351,1559.13L537.351,1567.04L502.714,1567.04L502.714,1559.13L537.351,1559.13Z" style="fill:rgb(95,95,97);"/>
        </g>
        <g transform="matrix(-0.584143,0,0,24.2519,153.474,-37863.3)">
            <path d="M541.631,1558.93C543.995,1558.93 545.911,1558.97 545.911,1559.03L545.911,1567.14C545.911,1567.2 543.995,1567.24 541.631,1567.24L498.434,1567.24C496.07,1567.24 494.154,1567.2 494.154,1567.14L494.154,1559.03C494.154,1558.97 496.07,1558.93 498.434,1558.93L541.631,1558.93ZM537.351,1559.13L537.351,1567.04L502.714,1567.04L502.714,1559.13L537.351,1559.13Z" style="fill:rgb(95,95,97);"/>
        </g>
        <g transform="matrix(4.97078,0,0,4.97924,-2449.07,-8307.17)">
            <path d="M505.817,1704.07C505.817,1703.79 505.592,1703.57 505.315,1703.57L496.107,1703.57C495.829,1703.57 495.604,1703.79 495.604,1704.07L495.604,1715.6C495.604,1715.87 495.829,1716.1 496.107,1716.1L505.315,1716.1C505.592,1716.1 505.817,1715.87 505.817,1715.6L505.817,1704.07ZM496.61,1704.57L496.61,1715.09L504.812,1715.09L504.812,1704.57L496.61,1704.57Z" style="fill:rgb(95,95,97);"/>
        </g>
        <g transform="matrix(4.97078,0,0,4.97924,-2280.88,-8307.17)">
            <path d="M505.817,1704.07C505.817,1703.79 505.592,1703.57 505.315,1703.57L496.107,1703.57C495.829,1703.57 495.604,1703.79 495.604,1704.07L495.604,1715.6C495.604,1715.87 495.829,1716.1 496.107,1716.1L505.315,1716.1C505.592,1716.1 505.817,1715.87 505.817,1715.6L505.817,1704.07ZM496.61,1704.57L496.61,1715.09L504.812,1715.09L504.812,1704.57L496.61,1704.57Z" style="fill:rgb(95,95,97);"/>
        </g>
        <g transform="matrix(4.97078,0,0,4.97924,-2403.3,-8307.17)">
            <path d="M505.817,1704.07C505.817,1703.79 505.592,1703.57 505.315,1703.57L496.107,1703.57C495.829,1703.57 495.604,1703.79 495.604,1704.07L495.604,1715.6C495.604,1715.87 495.829,1716.1 496.107,1716.1L505.315,1716.1C505.592,1716.1 505.817,1715.87 505.817,1715.6L505.817,1704.07ZM496.61,1704.57L496.61,1715.09L504.812,1715.09L504.812,1704.57L496.61,1704.57Z" style="fill:rgb(95,95,97);"/>
        </g>
        <g transform="matrix(1,0,0,1,-1962.51,-1496.42)">
            <path d="M2211.76,1425.32C2213.14,1425.32 2214.26,1426.44 2214.26,1427.82C2214.26,1429.2 2213.14,1430.32 2211.76,1430.32L2044.02,1430.32C2042.64,1430.32 2041.52,1429.2 2041.52,1427.82L2041.52,1369.6C2041.52,1368.22 2042.64,1367.1 2044.02,1367.1L2179.97,1367.1C2180.88,1367.1 2181.72,1367.6 2182.16,1368.4C2182.6,1369.2 2182.56,1370.18 2182.07,1370.95C2178.52,1376.45 2176.47,1383 2176.47,1390.02C2176.47,1409.5 2192.28,1425.32 2211.76,1425.32ZM2175.67,1372.1L2046.52,1372.1L2046.52,1425.32L2192.32,1425.32C2179.89,1418.46 2171.47,1405.22 2171.47,1390.02C2171.47,1383.59 2172.98,1377.5 2175.67,1372.1Z" style="fill:rgb(95,95,97);"/>
        </g>
    </g>
</svg>
