<?xml version="1.0" encoding="UTF-8" standalone="no"?>
<!DOCTYPE svg PUBLIC "-//W3C//DTD SVG 1.1//EN" "http://www.w3.org/Graphics/SVG/1.1/DTD/svg11.dtd">
<svg width="100%" height="100%" viewBox="0 0 119 91" version="1.1" xmlns="http://www.w3.org/2000/svg" xmlns:xlink="http://www.w3.org/1999/xlink" xml:space="preserve" xmlns:serif="http://www.serif.com/" style="fill-rule:evenodd;clip-rule:evenodd;stroke-linejoin:round;stroke-miterlimit:2;">
    <g transform="matrix(0.244625,0,0,0.244625,44.9448,34.3696)">
        <g transform="matrix(0.786398,0,0,0.0621471,-578.161,139.925)">
            <path d="M923.95,1274.59C923.95,1252.38 922.527,1234.37 920.771,1234.37L700.955,1234.37C699.199,1234.37 697.776,1252.38 697.776,1274.59L697.776,1433.28C697.776,1455.49 699.199,1473.5 700.955,1473.5L920.771,1473.5C922.527,1473.5 923.95,1455.49 923.95,1433.28L923.95,1274.59ZM704.134,1314.82L704.134,1393.05L917.592,1393.05L917.592,1314.82L704.134,1314.82Z" style="fill:rgb(95,95,97);"/>
        </g>
        <g transform="matrix(0.189276,0,0,1.65734,-232.343,-2170.03)">
            <path d="M933.979,1272.78C933.979,1272.26 931.646,1271.78 927.802,1271.51C923.958,1271.23 919.141,1271.2 915.049,1271.42C915.049,1271.42 754.578,1280.23 707.853,1282.8C695.563,1283.47 687.747,1284.89 687.747,1286.45C687.747,1302.46 687.747,1433.28 687.747,1433.28C687.747,1434.11 693.66,1434.78 700.955,1434.78L920.771,1434.78C928.066,1434.78 933.979,1434.11 933.979,1433.28L933.979,1272.78ZM907.563,1275.18L719.298,1285.52C716.159,1285.69 714.163,1286.05 714.163,1286.45L714.163,1431.77L907.563,1431.77L907.563,1275.18Z" style="fill:rgb(95,95,97);"/>
        </g>
        <g transform="matrix(0.189276,0,0,1.39681,-273.949,-1796.62)">
            <path d="M933.979,1274.59C933.979,1273.6 928.066,1272.8 920.771,1272.8L723.224,1272.8C713.815,1272.8 704.791,1273.31 698.138,1274.21C691.485,1275.11 687.747,1276.34 687.747,1277.61C687.747,1299.52 687.747,1433.28 687.747,1433.28C687.747,1434.26 693.66,1435.06 700.955,1435.06L920.771,1435.06C928.066,1435.06 933.979,1434.26 933.979,1433.28C933.979,1433.28 933.979,1274.59 933.979,1274.59ZM907.563,1276.38L723.224,1276.38C720.821,1276.38 718.516,1276.51 716.817,1276.74C715.118,1276.97 714.163,1277.28 714.163,1277.61L714.163,1431.49L907.563,1431.49L907.563,1276.38Z" style="fill:rgb(95,95,97);"/>
        </g>
        <g transform="matrix(0.189276,0,0,1.29924,-190.737,-1752.61)">
            <path d="M933.979,1274.59C933.979,1273.93 931.646,1273.32 927.802,1272.96C923.958,1272.61 919.141,1272.57 915.049,1272.86C915.049,1272.86 755.834,1284.01 708.408,1287.33C695.779,1288.21 687.747,1290.07 687.747,1292.12C687.747,1309.91 687.747,1433.28 687.747,1433.28C687.747,1434.34 693.66,1435.2 700.955,1435.2L920.771,1435.2C928.066,1435.2 933.979,1434.34 933.979,1433.28C933.979,1433.28 933.979,1274.59 933.979,1274.59ZM907.563,1277.65L719.853,1290.8C716.375,1291.04 714.163,1291.55 714.163,1292.12L714.163,1431.35L907.563,1431.35L907.563,1277.65Z" style="fill:rgb(95,95,97);"/>
        </g>
        <g transform="matrix(0.118387,0,0,0.179302,-133.256,-275.573)">
            <path d="M941.888,1274.59C941.888,1266.89 932.434,1260.65 920.771,1260.65L700.955,1260.65C689.292,1260.65 679.838,1266.89 679.838,1274.59C679.838,1274.59 679.838,1433.28 679.838,1433.28C679.838,1440.98 689.292,1447.22 700.955,1447.22L920.771,1447.22C932.434,1447.22 941.888,1440.98 941.888,1433.28C941.888,1433.28 941.888,1274.59 941.888,1274.59ZM722.072,1288.54L722.072,1419.33L899.654,1419.33L899.654,1288.54L722.072,1288.54Z" style="fill:rgb(95,95,97);"/>
        </g>
        <g transform="matrix(0.118387,0,0,0.179302,-133.256,-236.556)">
            <path d="M941.888,1274.59C941.888,1266.89 932.434,1260.65 920.771,1260.65L700.955,1260.65C689.292,1260.65 679.838,1266.89 679.838,1274.59C679.838,1274.59 679.838,1433.28 679.838,1433.28C679.838,1440.98 689.292,1447.22 700.955,1447.22L920.771,1447.22C932.434,1447.22 941.888,1440.98 941.888,1433.28C941.888,1433.28 941.888,1274.59 941.888,1274.59ZM722.072,1288.54L722.072,1419.33L899.654,1419.33L899.654,1288.54L722.072,1288.54Z" style="fill:rgb(95,95,97);"/>
        </g>
        <g transform="matrix(0.118387,0,0,0.179302,-133.256,-197.54)">
            <path d="M941.888,1274.59C941.888,1266.89 932.434,1260.65 920.771,1260.65L700.955,1260.65C689.292,1260.65 679.838,1266.89 679.838,1274.59C679.838,1274.59 679.838,1433.28 679.838,1433.28C679.838,1440.98 689.292,1447.22 700.955,1447.22L920.771,1447.22C932.434,1447.22 941.888,1440.98 941.888,1433.28C941.888,1433.28 941.888,1274.59 941.888,1274.59ZM722.072,1288.54L722.072,1419.33L899.654,1419.33L899.654,1288.54L722.072,1288.54Z" style="fill:rgb(95,95,97);"/>
        </g>
        <g transform="matrix(0.118387,0,0,0.179302,-133.256,-158.524)">
            <path d="M941.888,1274.59C941.888,1266.89 932.434,1260.65 920.771,1260.65L700.955,1260.65C689.292,1260.65 679.838,1266.89 679.838,1274.59C679.838,1274.59 679.838,1433.28 679.838,1433.28C679.838,1440.98 689.292,1447.22 700.955,1447.22L920.771,1447.22C932.434,1447.22 941.888,1440.98 941.888,1433.28C941.888,1433.28 941.888,1274.59 941.888,1274.59ZM722.072,1288.54L722.072,1419.33L899.654,1419.33L899.654,1288.54L722.072,1288.54Z" style="fill:rgb(95,95,97);"/>
        </g>
        <g transform="matrix(0.118387,0,0,0.179302,-174.862,-275.573)">
            <path d="M941.888,1274.59C941.888,1269.76 938.1,1265.27 931.876,1262.73C925.652,1260.19 917.88,1259.96 911.334,1262.12L691.518,1334.62C684.36,1336.98 679.838,1341.81 679.838,1347.1L679.838,1433.28C679.838,1440.98 689.292,1447.22 700.955,1447.22L920.771,1447.22C932.434,1447.22 941.888,1440.98 941.888,1433.28C941.888,1433.28 941.888,1274.59 941.888,1274.59ZM722.072,1355.72L722.072,1419.33L899.654,1419.33L899.654,1297.14L722.072,1355.72Z" style="fill:rgb(95,95,97);"/>
        </g>
        <g transform="matrix(0.118387,0,0,0.179302,-174.862,-236.556)">
            <path d="M941.888,1274.59C941.888,1266.89 932.434,1260.65 920.771,1260.65L700.955,1260.65C689.292,1260.65 679.838,1266.89 679.838,1274.59C679.838,1274.59 679.838,1433.28 679.838,1433.28C679.838,1440.98 689.292,1447.22 700.955,1447.22L920.771,1447.22C932.434,1447.22 941.888,1440.98 941.888,1433.28C941.888,1433.28 941.888,1274.59 941.888,1274.59ZM722.072,1288.54L722.072,1419.33L899.654,1419.33L899.654,1288.54L722.072,1288.54Z" style="fill:rgb(95,95,97);"/>
        </g>
        <g transform="matrix(0.118387,0,0,0.179302,-174.862,-197.54)">
            <path d="M941.888,1274.59C941.888,1266.89 932.434,1260.65 920.771,1260.65L700.955,1260.65C689.292,1260.65 679.838,1266.89 679.838,1274.59C679.838,1274.59 679.838,1433.28 679.838,1433.28C679.838,1440.98 689.292,1447.22 700.955,1447.22L920.771,1447.22C932.434,1447.22 941.888,1440.98 941.888,1433.28C941.888,1433.28 941.888,1274.59 941.888,1274.59ZM722.072,1288.54L722.072,1419.33L899.654,1419.33L899.654,1288.54L722.072,1288.54Z" style="fill:rgb(95,95,97);"/>
        </g>
        <g transform="matrix(0.118387,0,0,0.179302,-174.862,-158.524)">
            <path d="M941.888,1274.59C941.888,1266.89 932.434,1260.65 920.771,1260.65L700.955,1260.65C689.292,1260.65 679.838,1266.89 679.838,1274.59C679.838,1274.59 679.838,1433.28 679.838,1433.28C679.838,1440.98 689.292,1447.22 700.955,1447.22L920.771,1447.22C932.434,1447.22 941.888,1440.98 941.888,1433.28C941.888,1433.28 941.888,1274.59 941.888,1274.59ZM722.072,1288.54L722.072,1419.33L899.654,1419.33L899.654,1288.54L722.072,1288.54Z" style="fill:rgb(95,95,97);"/>
        </g>
        <g transform="matrix(0.118387,0,0,0.179302,-216.468,-236.556)">
            <path d="M941.888,1274.59C941.888,1266.89 932.434,1260.65 920.771,1260.65L700.955,1260.65C689.292,1260.65 679.838,1266.89 679.838,1274.59C679.838,1274.59 679.838,1433.28 679.838,1433.28C679.838,1440.98 689.292,1447.22 700.955,1447.22L920.771,1447.22C932.434,1447.22 941.888,1440.98 941.888,1433.28C941.888,1433.28 941.888,1274.59 941.888,1274.59ZM722.072,1288.54L722.072,1419.33L899.654,1419.33L899.654,1288.54L722.072,1288.54Z" style="fill:rgb(95,95,97);"/>
        </g>
        <g transform="matrix(0.118387,0,0,0.179302,-216.468,-197.54)">
            <path d="M941.888,1274.59C941.888,1266.89 932.434,1260.65 920.771,1260.65L700.955,1260.65C689.292,1260.65 679.838,1266.89 679.838,1274.59C679.838,1274.59 679.838,1433.28 679.838,1433.28C679.838,1440.98 689.292,1447.22 700.955,1447.22L920.771,1447.22C932.434,1447.22 941.888,1440.98 941.888,1433.28C941.888,1433.28 941.888,1274.59 941.888,1274.59ZM722.072,1288.54L722.072,1419.33L899.654,1419.33L899.654,1288.54L722.072,1288.54Z" style="fill:rgb(95,95,97);"/>
        </g>
        <g transform="matrix(0.118387,0,0,0.179302,-216.468,-158.524)">
            <path d="M941.888,1274.59C941.888,1266.89 932.434,1260.65 920.771,1260.65L700.955,1260.65C689.292,1260.65 679.838,1266.89 679.838,1274.59C679.838,1274.59 679.838,1433.28 679.838,1433.28C679.838,1440.98 689.292,1447.22 700.955,1447.22L920.771,1447.22C932.434,1447.22 941.888,1440.98 941.888,1433.28C941.888,1433.28 941.888,1274.59 941.888,1274.59ZM722.072,1288.54L722.072,1419.33L899.654,1419.33L899.654,1288.54L722.072,1288.54Z" style="fill:rgb(95,95,97);"/>
        </g>
        <g transform="matrix(2.67663,0,0,2.12227,-715.561,-4176.01)">
            <path d="M202.454,2076.79L376.678,2076.79C377.194,2076.79 377.612,2076.26 377.612,2075.61C377.612,2074.96 377.194,2074.43 376.678,2074.43L202.454,2074.43C201.938,2074.43 201.52,2074.96 201.52,2075.61C201.52,2076.26 201.938,2076.79 202.454,2076.79Z" style="fill:rgb(77,77,79);"/>
        </g>
        <g transform="matrix(0.920683,0,0,0.0724485,-687.048,39.9707)">
            <path d="M923.486,1274.59C923.486,1255.53 922.271,1240.09 920.771,1240.09L700.955,1240.09C699.455,1240.09 698.24,1255.53 698.24,1274.59L698.24,1433.28C698.24,1452.33 699.455,1467.78 700.955,1467.78L920.771,1467.78C922.271,1467.78 923.486,1452.33 923.486,1433.28L923.486,1274.59ZM703.67,1309.1L703.67,1398.77L918.056,1398.77L918.056,1309.1L703.67,1309.1Z" style="fill:rgb(95,95,97);"/>
        </g>
        <g transform="matrix(0.118387,0,0,0.179302,-89.0665,-275.573)">
            <path d="M941.888,1274.59C941.888,1266.89 932.434,1260.65 920.771,1260.65L700.955,1260.65C689.292,1260.65 679.838,1266.89 679.838,1274.59C679.838,1274.59 679.838,1433.28 679.838,1433.28C679.838,1440.98 689.292,1447.22 700.955,1447.22L920.771,1447.22C932.434,1447.22 941.888,1440.98 941.888,1433.28C941.888,1433.28 941.888,1274.59 941.888,1274.59ZM722.072,1288.54L722.072,1419.33L899.654,1419.33L899.654,1288.54L722.072,1288.54Z" style="fill:rgb(95,95,97);"/>
        </g>
        <g transform="matrix(0.118387,0,0,0.179302,-54.0193,-275.573)">
            <path d="M941.888,1274.59C941.888,1266.89 932.434,1260.65 920.771,1260.65L700.955,1260.65C689.292,1260.65 679.838,1266.89 679.838,1274.59C679.838,1274.59 679.838,1433.28 679.838,1433.28C679.838,1440.98 689.292,1447.22 700.955,1447.22L920.771,1447.22C932.434,1447.22 941.888,1440.98 941.888,1433.28C941.888,1433.28 941.888,1274.59 941.888,1274.59ZM722.072,1288.54L722.072,1419.33L899.654,1419.33L899.654,1288.54L722.072,1288.54Z" style="fill:rgb(95,95,97);"/>
        </g>
        <g transform="matrix(0.118387,0,0,0.179302,-18.972,-275.573)">
            <path d="M941.888,1274.59C941.888,1266.89 932.434,1260.65 920.771,1260.65L700.955,1260.65C689.292,1260.65 679.838,1266.89 679.838,1274.59C679.838,1274.59 679.838,1433.28 679.838,1433.28C679.838,1440.98 689.292,1447.22 700.955,1447.22L920.771,1447.22C932.434,1447.22 941.888,1440.98 941.888,1433.28C941.888,1433.28 941.888,1274.59 941.888,1274.59ZM722.072,1288.54L722.072,1419.33L899.654,1419.33L899.654,1288.54L722.072,1288.54Z" style="fill:rgb(95,95,97);"/>
        </g>
        <g transform="matrix(1,0,0,1,-1180.66,-2642.1)">
            <path d="M1273.19,2568.97C1273.19,2567.99 1272.62,2567.1 1271.73,2566.7C1270.84,2566.29 1269.8,2566.44 1269.06,2567.08C1261.3,2573.77 1251.2,2577.82 1240.16,2577.82C1229.12,2577.82 1219.01,2573.77 1211.26,2567.08C1210.52,2566.44 1209.47,2566.29 1208.58,2566.7C1207.69,2567.1 1207.12,2567.99 1207.12,2568.97L1207.12,2584.5C1207.12,2585.88 1208.24,2587 1209.62,2587L1270.69,2587C1272.07,2587 1273.19,2585.88 1273.19,2584.5L1273.19,2568.97ZM1212.12,2574.06L1212.12,2582L1231.16,2582C1224.19,2580.71 1217.73,2577.96 1212.12,2574.06ZM1268.19,2574.06C1262.58,2577.96 1256.12,2580.71 1249.15,2582L1268.19,2582L1268.19,2574.06Z" style="fill:rgb(95,95,97);"/>
        </g>
        <g transform="matrix(0.118387,0,0,0.179302,16.0752,-275.573)">
            <path d="M941.888,1274.59C941.888,1266.89 932.434,1260.65 920.771,1260.65L700.955,1260.65C689.292,1260.65 679.838,1266.89 679.838,1274.59C679.838,1274.59 679.838,1433.28 679.838,1433.28C679.838,1440.98 689.292,1447.22 700.955,1447.22L920.771,1447.22C932.434,1447.22 941.888,1440.98 941.888,1433.28C941.888,1433.28 941.888,1274.59 941.888,1274.59ZM722.072,1288.54L722.072,1419.33L899.654,1419.33L899.654,1288.54L722.072,1288.54Z" style="fill:rgb(95,95,97);"/>
        </g>
        <g transform="matrix(0.118387,0,0,0.179302,-89.0665,-236.556)">
            <path d="M941.888,1274.59C941.888,1266.89 932.434,1260.65 920.771,1260.65L700.955,1260.65C689.292,1260.65 679.838,1266.89 679.838,1274.59C679.838,1274.59 679.838,1433.28 679.838,1433.28C679.838,1440.98 689.292,1447.22 700.955,1447.22L920.771,1447.22C932.434,1447.22 941.888,1440.98 941.888,1433.28C941.888,1433.28 941.888,1274.59 941.888,1274.59ZM722.072,1288.54L722.072,1419.33L899.654,1419.33L899.654,1288.54L722.072,1288.54Z" style="fill:rgb(95,95,97);"/>
        </g>
        <g transform="matrix(0.118387,0,0,0.179302,-54.0193,-236.556)">
            <path d="M941.888,1274.59C941.888,1266.89 932.434,1260.65 920.771,1260.65L700.955,1260.65C689.292,1260.65 679.838,1266.89 679.838,1274.59C679.838,1274.59 679.838,1433.28 679.838,1433.28C679.838,1440.98 689.292,1447.22 700.955,1447.22L920.771,1447.22C932.434,1447.22 941.888,1440.98 941.888,1433.28C941.888,1433.28 941.888,1274.59 941.888,1274.59ZM722.072,1288.54L722.072,1419.33L899.654,1419.33L899.654,1288.54L722.072,1288.54Z" style="fill:rgb(95,95,97);"/>
        </g>
        <g transform="matrix(0.118387,0,0,0.179302,-18.972,-236.556)">
            <path d="M941.888,1274.59C941.888,1266.89 932.434,1260.65 920.771,1260.65L700.955,1260.65C689.292,1260.65 679.838,1266.89 679.838,1274.59C679.838,1274.59 679.838,1433.28 679.838,1433.28C679.838,1440.98 689.292,1447.22 700.955,1447.22L920.771,1447.22C932.434,1447.22 941.888,1440.98 941.888,1433.28C941.888,1433.28 941.888,1274.59 941.888,1274.59ZM722.072,1288.54L722.072,1419.33L899.654,1419.33L899.654,1288.54L722.072,1288.54Z" style="fill:rgb(95,95,97);"/>
        </g>
        <g transform="matrix(0.118387,0,0,0.179302,16.0752,-236.556)">
            <path d="M941.888,1274.59C941.888,1266.89 932.434,1260.65 920.771,1260.65L700.955,1260.65C689.292,1260.65 679.838,1266.89 679.838,1274.59C679.838,1274.59 679.838,1433.28 679.838,1433.28C679.838,1440.98 689.292,1447.22 700.955,1447.22L920.771,1447.22C932.434,1447.22 941.888,1440.98 941.888,1433.28C941.888,1433.28 941.888,1274.59 941.888,1274.59ZM722.072,1288.54L722.072,1419.33L899.654,1419.33L899.654,1288.54L722.072,1288.54Z" style="fill:rgb(95,95,97);"/>
        </g>
        <g transform="matrix(0.118387,0,0,0.179302,-89.0665,-197.54)">
            <path d="M941.888,1274.59C941.888,1266.89 932.434,1260.65 920.771,1260.65L700.955,1260.65C689.292,1260.65 679.838,1266.89 679.838,1274.59C679.838,1274.59 679.838,1433.28 679.838,1433.28C679.838,1440.98 689.292,1447.22 700.955,1447.22L920.771,1447.22C932.434,1447.22 941.888,1440.98 941.888,1433.28C941.888,1433.28 941.888,1274.59 941.888,1274.59ZM722.072,1288.54L722.072,1419.33L899.654,1419.33L899.654,1288.54L722.072,1288.54Z" style="fill:rgb(95,95,97);"/>
        </g>
        <g transform="matrix(0.118387,0,0,0.179302,-54.0193,-197.54)">
            <path d="M941.888,1274.59C941.888,1266.89 932.434,1260.65 920.771,1260.65L700.955,1260.65C689.292,1260.65 679.838,1266.89 679.838,1274.59C679.838,1274.59 679.838,1433.28 679.838,1433.28C679.838,1440.98 689.292,1447.22 700.955,1447.22L920.771,1447.22C932.434,1447.22 941.888,1440.98 941.888,1433.28C941.888,1433.28 941.888,1274.59 941.888,1274.59ZM722.072,1288.54L722.072,1419.33L899.654,1419.33L899.654,1288.54L722.072,1288.54Z" style="fill:rgb(95,95,97);"/>
        </g>
        <g transform="matrix(0.118387,0,0,0.179302,-18.972,-197.54)">
            <path d="M941.888,1274.59C941.888,1266.89 932.434,1260.65 920.771,1260.65L700.955,1260.65C689.292,1260.65 679.838,1266.89 679.838,1274.59C679.838,1274.59 679.838,1433.28 679.838,1433.28C679.838,1440.98 689.292,1447.22 700.955,1447.22L920.771,1447.22C932.434,1447.22 941.888,1440.98 941.888,1433.28C941.888,1433.28 941.888,1274.59 941.888,1274.59ZM722.072,1288.54L722.072,1419.33L899.654,1419.33L899.654,1288.54L722.072,1288.54Z" style="fill:rgb(95,95,97);"/>
        </g>
        <g transform="matrix(0.118387,0,0,0.179302,16.0752,-197.54)">
            <path d="M941.888,1274.59C941.888,1266.89 932.434,1260.65 920.771,1260.65L700.955,1260.65C689.292,1260.65 679.838,1266.89 679.838,1274.59C679.838,1274.59 679.838,1433.28 679.838,1433.28C679.838,1440.98 689.292,1447.22 700.955,1447.22L920.771,1447.22C932.434,1447.22 941.888,1440.98 941.888,1433.28C941.888,1433.28 941.888,1274.59 941.888,1274.59ZM722.072,1288.54L722.072,1419.33L899.654,1419.33L899.654,1288.54L722.072,1288.54Z" style="fill:rgb(95,95,97);"/>
        </g>
        <g transform="matrix(0.118387,0,0,0.179302,-89.0665,-158.524)">
            <path d="M941.888,1274.59C941.888,1266.89 932.434,1260.65 920.771,1260.65L700.955,1260.65C689.292,1260.65 679.838,1266.89 679.838,1274.59C679.838,1274.59 679.838,1433.28 679.838,1433.28C679.838,1440.98 689.292,1447.22 700.955,1447.22L920.771,1447.22C932.434,1447.22 941.888,1440.98 941.888,1433.28C941.888,1433.28 941.888,1274.59 941.888,1274.59ZM722.072,1288.54L722.072,1419.33L899.654,1419.33L899.654,1288.54L722.072,1288.54Z" style="fill:rgb(95,95,97);"/>
        </g>
        <g transform="matrix(0.118387,0,0,0.179302,-54.0193,-158.524)">
            <path d="M941.888,1274.59C941.888,1266.89 932.434,1260.65 920.771,1260.65L700.955,1260.65C689.292,1260.65 679.838,1266.89 679.838,1274.59C679.838,1274.59 679.838,1433.28 679.838,1433.28C679.838,1440.98 689.292,1447.22 700.955,1447.22L920.771,1447.22C932.434,1447.22 941.888,1440.98 941.888,1433.28C941.888,1433.28 941.888,1274.59 941.888,1274.59ZM722.072,1288.54L722.072,1419.33L899.654,1419.33L899.654,1288.54L722.072,1288.54Z" style="fill:rgb(95,95,97);"/>
        </g>
        <g transform="matrix(0.118387,0,0,0.179302,-18.972,-158.524)">
            <path d="M941.888,1274.59C941.888,1266.89 932.434,1260.65 920.771,1260.65L700.955,1260.65C689.292,1260.65 679.838,1266.89 679.838,1274.59C679.838,1274.59 679.838,1433.28 679.838,1433.28C679.838,1440.98 689.292,1447.22 700.955,1447.22L920.771,1447.22C932.434,1447.22 941.888,1440.98 941.888,1433.28C941.888,1433.28 941.888,1274.59 941.888,1274.59ZM722.072,1288.54L722.072,1419.33L899.654,1419.33L899.654,1288.54L722.072,1288.54Z" style="fill:rgb(95,95,97);"/>
        </g>
        <g transform="matrix(0.118387,0,0,0.179302,16.0752,-158.524)">
            <path d="M941.888,1274.59C941.888,1266.89 932.434,1260.65 920.771,1260.65L700.955,1260.65C689.292,1260.65 679.838,1266.89 679.838,1274.59C679.838,1274.59 679.838,1433.28 679.838,1433.28C679.838,1440.98 689.292,1447.22 700.955,1447.22L920.771,1447.22C932.434,1447.22 941.888,1440.98 941.888,1433.28C941.888,1433.28 941.888,1274.59 941.888,1274.59ZM722.072,1288.54L722.072,1419.33L899.654,1419.33L899.654,1288.54L722.072,1288.54Z" style="fill:rgb(95,95,97);"/>
        </g>
        <g transform="matrix(-0.189276,0,0,1.65734,351.343,-2170.03)">
            <path d="M915.049,1271.42C919.141,1271.2 923.958,1271.23 927.802,1271.51C931.646,1271.78 933.979,1272.26 933.979,1272.78C933.979,1272.78 933.979,1433.28 933.979,1433.28C933.979,1434.11 928.066,1434.78 920.771,1434.78L700.955,1434.78C693.66,1434.78 687.747,1434.11 687.747,1433.28C687.747,1433.28 687.747,1302.46 687.747,1286.45C687.747,1284.89 695.563,1283.47 707.853,1282.8C754.578,1280.23 915.049,1271.42 915.049,1271.42ZM907.563,1275.18L907.563,1431.77L714.163,1431.77L714.163,1286.45C714.163,1286.05 716.159,1285.69 719.298,1285.52L907.563,1275.18Z" style="fill:rgb(95,95,97);"/>
        </g>
        <g transform="matrix(-0.525915,0,0,0.148772,310.58,15.7676)">
            <path d="M925.525,1303.8L925.525,1433.28C925.525,1442.56 923.396,1450.08 920.771,1450.08L700.955,1450.08C698.33,1450.08 696.201,1442.56 696.201,1433.28C696.201,1433.28 696.201,1348.56 696.201,1302.92C696.201,1290.95 697.547,1279.47 699.941,1271.01C702.336,1262.54 705.583,1257.79 708.969,1257.79C743.292,1257.79 877.713,1257.79 912.51,1257.79C915.962,1257.79 919.272,1262.63 921.713,1271.26C924.153,1279.89 925.525,1291.59 925.525,1303.8L925.525,1303.8ZM705.709,1416.47L705.709,1302.92C705.709,1299.87 706.052,1296.93 706.664,1294.77C707.275,1292.61 708.105,1291.4 708.969,1291.4C743.292,1291.4 877.713,1291.4 912.51,1291.4C913.44,1291.4 914.332,1292.7 914.99,1295.03C915.648,1297.35 916.017,1300.51 916.017,1303.8L916.017,1416.47L705.709,1416.47Z" style="fill:rgb(95,95,97);"/>
        </g>
        <g transform="matrix(0.525915,0,0,0.148772,-191.58,15.7676)">
            <path d="M925.525,1303.8C925.525,1291.59 924.153,1279.89 921.713,1271.26C919.272,1262.63 915.962,1257.79 912.51,1257.79C877.713,1257.79 743.292,1257.79 708.969,1257.79C705.583,1257.79 702.336,1262.54 699.941,1271.01C697.547,1279.47 696.201,1290.95 696.201,1302.92C696.201,1348.56 696.201,1433.28 696.201,1433.28C696.201,1442.56 698.33,1450.08 700.955,1450.08L920.771,1450.08C923.396,1450.08 925.525,1442.56 925.525,1433.28L925.525,1303.8ZM916.017,1416.47L916.017,1303.8C916.017,1300.51 915.648,1297.35 914.99,1295.03C914.332,1292.7 913.44,1291.4 912.51,1291.4C877.713,1291.4 743.292,1291.4 708.969,1291.4C708.105,1291.4 707.275,1292.61 706.664,1294.77C706.052,1296.93 705.709,1299.87 705.709,1302.92L705.709,1416.47L916.017,1416.47Z" style="fill:rgb(95,95,97);"/>
        </g>
        <g transform="matrix(-0.189276,0,0,1.39681,392.949,-1796.62)">
            <path d="M920.771,1272.8C928.066,1272.8 933.979,1273.6 933.979,1274.59C933.979,1274.59 933.979,1433.28 933.979,1433.28C933.979,1434.26 928.066,1435.06 920.771,1435.06L700.955,1435.06C693.66,1435.06 687.747,1434.26 687.747,1433.28C687.747,1433.28 687.747,1299.52 687.747,1277.61C687.747,1276.34 691.485,1275.11 698.138,1274.21C704.791,1273.31 713.815,1272.8 723.224,1272.8L920.771,1272.8ZM907.563,1276.38L907.563,1431.49L714.163,1431.49L714.163,1277.61C714.163,1277.28 715.118,1276.97 716.817,1276.74C718.516,1276.51 720.821,1276.38 723.224,1276.38L907.563,1276.38Z" style="fill:rgb(95,95,97);"/>
        </g>
        <g transform="matrix(-0.189276,0,0,1.29924,309.737,-1752.61)">
            <path d="M915.049,1272.86C919.141,1272.57 923.958,1272.61 927.802,1272.96C931.646,1273.32 933.979,1273.93 933.979,1274.59L933.979,1433.28C933.979,1434.34 928.066,1435.2 920.771,1435.2L700.955,1435.2C693.66,1435.2 687.747,1434.34 687.747,1433.28C687.747,1433.28 687.747,1309.91 687.747,1292.12C687.747,1290.07 695.779,1288.21 708.408,1287.33C755.834,1284.01 915.049,1272.86 915.049,1272.86ZM907.563,1277.65L907.563,1431.35L714.163,1431.35L714.163,1292.12C714.163,1291.55 716.375,1291.04 719.853,1290.8L907.563,1277.65Z" style="fill:rgb(95,95,97);"/>
        </g>
        <g transform="matrix(-0.118387,0,0,0.179302,252.256,-275.573)">
            <path d="M920.771,1260.65C932.434,1260.65 941.888,1266.89 941.888,1274.59C941.888,1274.59 941.888,1433.28 941.888,1433.28C941.888,1440.98 932.434,1447.22 920.771,1447.22L700.955,1447.22C689.292,1447.22 679.838,1440.98 679.838,1433.28C679.838,1433.28 679.838,1274.59 679.838,1274.59C679.838,1266.89 689.292,1260.65 700.955,1260.65L920.771,1260.65ZM899.654,1288.54L899.654,1419.33L722.072,1419.33L722.072,1288.54L899.654,1288.54Z" style="fill:rgb(95,95,97);"/>
        </g>
        <g transform="matrix(0.118387,0,0,0.179302,-133.094,-314.589)">
            <path d="M941.888,1291.32C941.888,1286.49 938.1,1282.01 931.876,1279.46C925.652,1276.92 917.88,1276.69 911.334,1278.85L691.518,1351.35C684.36,1353.71 679.838,1358.54 679.838,1363.83L679.838,1433.28C679.838,1440.98 689.292,1447.22 700.955,1447.22L920.771,1447.22C932.434,1447.22 941.888,1440.98 941.888,1433.28C941.888,1433.28 941.888,1291.32 941.888,1291.32ZM722.072,1372.45L722.072,1419.33L899.654,1419.33L899.654,1313.88L722.072,1372.45Z" style="fill:rgb(95,95,97);"/>
        </g>
        <g transform="matrix(0.118387,0,0,0.160397,-88.9046,-287.492)">
            <path d="M941.888,1274.59C941.888,1265.98 932.434,1259.01 920.771,1259.01L700.955,1259.01C689.292,1259.01 679.838,1265.98 679.838,1274.59C679.838,1274.59 679.838,1433.28 679.838,1433.28C679.838,1441.88 689.292,1448.86 700.955,1448.86L920.771,1448.86C932.434,1448.86 941.888,1441.88 941.888,1433.28C941.888,1433.28 941.888,1274.59 941.888,1274.59ZM722.072,1290.18L722.072,1417.69L899.654,1417.69L899.654,1290.18L722.072,1290.18Z" style="fill:rgb(95,95,97);"/>
        </g>
        <g transform="matrix(0.118387,0,0,0.160397,16.2371,-287.492)">
            <path d="M941.888,1274.59C941.888,1265.98 932.434,1259.01 920.771,1259.01L700.955,1259.01C689.292,1259.01 679.838,1265.98 679.838,1274.59C679.838,1274.59 679.838,1433.28 679.838,1433.28C679.838,1441.88 689.292,1448.86 700.955,1448.86L920.771,1448.86C932.434,1448.86 941.888,1441.88 941.888,1433.28C941.888,1433.28 941.888,1274.59 941.888,1274.59ZM722.072,1290.18L722.072,1417.69L899.654,1417.69L899.654,1290.18L722.072,1290.18Z" style="fill:rgb(95,95,97);"/>
        </g>
        <g transform="matrix(-0.118387,0,0,0.179302,252.418,-314.589)">
            <path d="M911.334,1278.85C917.88,1276.69 925.652,1276.92 931.876,1279.46C938.1,1282.01 941.888,1286.49 941.888,1291.32L941.888,1433.28C941.888,1440.98 932.434,1447.22 920.771,1447.22L700.955,1447.22C689.292,1447.22 679.838,1440.98 679.838,1433.28C679.838,1433.28 679.838,1363.83 679.838,1363.83C679.838,1358.54 684.36,1353.71 691.518,1351.35L911.334,1278.85ZM899.654,1419.33L722.072,1419.33L722.072,1372.45L899.654,1313.88L899.654,1419.33Z" style="fill:rgb(95,95,97);"/>
        </g>
        <g transform="matrix(-0.118387,0,0,0.179302,252.256,-236.556)">
            <path d="M920.771,1260.65C932.434,1260.65 941.888,1266.89 941.888,1274.59C941.888,1274.59 941.888,1433.28 941.888,1433.28C941.888,1440.98 932.434,1447.22 920.771,1447.22L700.955,1447.22C689.292,1447.22 679.838,1440.98 679.838,1433.28C679.838,1433.28 679.838,1274.59 679.838,1274.59C679.838,1266.89 689.292,1260.65 700.955,1260.65L920.771,1260.65ZM899.654,1288.54L899.654,1419.33L722.072,1419.33L722.072,1288.54L899.654,1288.54Z" style="fill:rgb(95,95,97);"/>
        </g>
        <g transform="matrix(-0.118387,0,0,0.179302,252.256,-197.54)">
            <path d="M920.771,1260.65C932.434,1260.65 941.888,1266.89 941.888,1274.59C941.888,1274.59 941.888,1433.28 941.888,1433.28C941.888,1440.98 932.434,1447.22 920.771,1447.22L700.955,1447.22C689.292,1447.22 679.838,1440.98 679.838,1433.28C679.838,1433.28 679.838,1274.59 679.838,1274.59C679.838,1266.89 689.292,1260.65 700.955,1260.65L920.771,1260.65ZM899.654,1288.54L899.654,1419.33L722.072,1419.33L722.072,1288.54L899.654,1288.54Z" style="fill:rgb(95,95,97);"/>
        </g>
        <g transform="matrix(-0.118387,0,0,0.179302,252.256,-158.524)">
            <path d="M920.771,1260.65C932.434,1260.65 941.888,1266.89 941.888,1274.59C941.888,1274.59 941.888,1433.28 941.888,1433.28C941.888,1440.98 932.434,1447.22 920.771,1447.22L700.955,1447.22C689.292,1447.22 679.838,1440.98 679.838,1433.28C679.838,1433.28 679.838,1274.59 679.838,1274.59C679.838,1266.89 689.292,1260.65 700.955,1260.65L920.771,1260.65ZM899.654,1288.54L899.654,1419.33L722.072,1419.33L722.072,1288.54L899.654,1288.54Z" style="fill:rgb(95,95,97);"/>
        </g>
        <g transform="matrix(-0.118387,0,0,0.179302,293.862,-275.573)">
            <path d="M911.334,1262.12C917.88,1259.96 925.652,1260.19 931.876,1262.73C938.1,1265.27 941.888,1269.76 941.888,1274.59L941.888,1433.28C941.888,1440.98 932.434,1447.22 920.771,1447.22L700.955,1447.22C689.292,1447.22 679.838,1440.98 679.838,1433.28C679.838,1433.28 679.838,1347.1 679.838,1347.1C679.838,1341.81 684.36,1336.98 691.518,1334.62C691.518,1334.62 911.334,1262.12 911.334,1262.12ZM899.654,1419.33L722.072,1419.33L722.072,1355.72L899.654,1297.14L899.654,1419.33Z" style="fill:rgb(95,95,97);"/>
        </g>
        <g transform="matrix(-0.118387,0,0,0.179302,293.862,-236.556)">
            <path d="M920.771,1260.65C932.434,1260.65 941.888,1266.89 941.888,1274.59C941.888,1274.59 941.888,1433.28 941.888,1433.28C941.888,1440.98 932.434,1447.22 920.771,1447.22L700.955,1447.22C689.292,1447.22 679.838,1440.98 679.838,1433.28C679.838,1433.28 679.838,1274.59 679.838,1274.59C679.838,1266.89 689.292,1260.65 700.955,1260.65L920.771,1260.65ZM899.654,1288.54L899.654,1419.33L722.072,1419.33L722.072,1288.54L899.654,1288.54Z" style="fill:rgb(95,95,97);"/>
        </g>
        <g transform="matrix(-0.118387,0,0,0.179302,293.862,-197.54)">
            <path d="M920.771,1260.65C932.434,1260.65 941.888,1266.89 941.888,1274.59C941.888,1274.59 941.888,1433.28 941.888,1433.28C941.888,1440.98 932.434,1447.22 920.771,1447.22L700.955,1447.22C689.292,1447.22 679.838,1440.98 679.838,1433.28C679.838,1433.28 679.838,1274.59 679.838,1274.59C679.838,1266.89 689.292,1260.65 700.955,1260.65L920.771,1260.65ZM899.654,1288.54L899.654,1419.33L722.072,1419.33L722.072,1288.54L899.654,1288.54Z" style="fill:rgb(95,95,97);"/>
        </g>
        <g transform="matrix(-0.118387,0,0,0.179302,293.862,-158.524)">
            <path d="M920.771,1260.65C932.434,1260.65 941.888,1266.89 941.888,1274.59C941.888,1274.59 941.888,1433.28 941.888,1433.28C941.888,1440.98 932.434,1447.22 920.771,1447.22L700.955,1447.22C689.292,1447.22 679.838,1440.98 679.838,1433.28C679.838,1433.28 679.838,1274.59 679.838,1274.59C679.838,1266.89 689.292,1260.65 700.955,1260.65L920.771,1260.65ZM899.654,1288.54L899.654,1419.33L722.072,1419.33L722.072,1288.54L899.654,1288.54Z" style="fill:rgb(95,95,97);"/>
        </g>
        <g transform="matrix(-0.118387,0,0,0.179302,335.468,-236.556)">
            <path d="M920.771,1260.65C932.434,1260.65 941.888,1266.89 941.888,1274.59C941.888,1274.59 941.888,1433.28 941.888,1433.28C941.888,1440.98 932.434,1447.22 920.771,1447.22L700.955,1447.22C689.292,1447.22 679.838,1440.98 679.838,1433.28C679.838,1433.28 679.838,1274.59 679.838,1274.59C679.838,1266.89 689.292,1260.65 700.955,1260.65L920.771,1260.65ZM899.654,1288.54L899.654,1419.33L722.072,1419.33L722.072,1288.54L899.654,1288.54Z" style="fill:rgb(95,95,97);"/>
        </g>
        <g transform="matrix(-0.118387,0,0,0.179302,335.468,-197.54)">
            <path d="M920.771,1260.65C932.434,1260.65 941.888,1266.89 941.888,1274.59C941.888,1274.59 941.888,1433.28 941.888,1433.28C941.888,1440.98 932.434,1447.22 920.771,1447.22L700.955,1447.22C689.292,1447.22 679.838,1440.98 679.838,1433.28C679.838,1433.28 679.838,1274.59 679.838,1274.59C679.838,1266.89 689.292,1260.65 700.955,1260.65L920.771,1260.65ZM899.654,1288.54L899.654,1419.33L722.072,1419.33L722.072,1288.54L899.654,1288.54Z" style="fill:rgb(95,95,97);"/>
        </g>
        <g transform="matrix(-0.118387,0,0,0.179302,335.468,-158.524)">
            <path d="M920.771,1260.65C932.434,1260.65 941.888,1266.89 941.888,1274.59C941.888,1274.59 941.888,1433.28 941.888,1433.28C941.888,1440.98 932.434,1447.22 920.771,1447.22L700.955,1447.22C689.292,1447.22 679.838,1440.98 679.838,1433.28C679.838,1433.28 679.838,1274.59 679.838,1274.59C679.838,1266.89 689.292,1260.65 700.955,1260.65L920.771,1260.65ZM899.654,1288.54L899.654,1419.33L722.072,1419.33L722.072,1288.54L899.654,1288.54Z" style="fill:rgb(95,95,97);"/>
        </g>
        <g transform="matrix(0.118387,0,0,0.54183,-174.862,-581.061)">
            <path d="M941.888,1274.59C941.888,1272.04 932.434,1269.98 920.771,1269.98L700.955,1269.98C689.292,1269.98 679.838,1272.04 679.838,1274.59C679.838,1274.59 679.838,1433.28 679.838,1433.28C679.838,1435.82 689.292,1437.89 700.955,1437.89L920.771,1437.89C932.434,1437.89 941.888,1435.82 941.888,1433.28C941.888,1433.28 941.888,1274.59 941.888,1274.59ZM722.072,1279.21L722.072,1428.66L899.654,1428.66L899.654,1279.21L722.072,1279.21Z" style="fill:rgb(95,95,97);"/>
        </g>
        <g transform="matrix(0.118387,0,0,0.54183,-216.468,-581.061)">
            <path d="M941.888,1274.59C941.888,1272.04 932.434,1269.98 920.771,1269.98L700.955,1269.98C689.292,1269.98 679.838,1272.04 679.838,1274.59C679.838,1274.59 679.838,1433.28 679.838,1433.28C679.838,1435.82 689.292,1437.89 700.955,1437.89L920.771,1437.89C932.434,1437.89 941.888,1435.82 941.888,1433.28C941.888,1433.28 941.888,1274.59 941.888,1274.59ZM722.072,1279.21L722.072,1428.66L899.654,1428.66L899.654,1279.21L722.072,1279.21Z" style="fill:rgb(95,95,97);"/>
        </g>
        <g transform="matrix(-0.118387,0,0,0.54183,293.862,-581.061)">
            <path d="M920.771,1269.98C932.434,1269.98 941.888,1272.04 941.888,1274.59C941.888,1274.59 941.888,1433.28 941.888,1433.28C941.888,1435.82 932.434,1437.89 920.771,1437.89L700.955,1437.89C689.292,1437.89 679.838,1435.82 679.838,1433.28C679.838,1433.28 679.838,1274.59 679.838,1274.59C679.838,1272.04 689.292,1269.98 700.955,1269.98L920.771,1269.98ZM899.654,1279.21L899.654,1428.66L722.072,1428.66L722.072,1279.21L899.654,1279.21Z" style="fill:rgb(95,95,97);"/>
        </g>
        <g transform="matrix(-0.118387,0,0,0.54183,335.468,-581.061)">
            <path d="M920.771,1269.98C932.434,1269.98 941.888,1272.04 941.888,1274.59C941.888,1274.59 941.888,1433.28 941.888,1433.28C941.888,1435.82 932.434,1437.89 920.771,1437.89L700.955,1437.89C689.292,1437.89 679.838,1435.82 679.838,1433.28C679.838,1433.28 679.838,1274.59 679.838,1274.59C679.838,1272.04 689.292,1269.98 700.955,1269.98L920.771,1269.98ZM899.654,1279.21L899.654,1428.66L722.072,1428.66L722.072,1279.21L899.654,1279.21Z" style="fill:rgb(95,95,97);"/>
        </g>
        <g transform="matrix(4.97078,0,0,6.50445,-2475.19,-10939.9)">
            <path d="M505.817,1704.07C505.817,1703.86 505.592,1703.68 505.315,1703.68L496.107,1703.68C495.829,1703.68 495.604,1703.86 495.604,1704.07L495.604,1715.6C495.604,1715.81 495.829,1715.98 496.107,1715.98L505.315,1715.98C505.592,1715.98 505.817,1715.81 505.817,1715.6L505.817,1704.07ZM496.61,1704.45L496.61,1715.21L504.812,1715.21L504.812,1704.45L496.61,1704.45Z" style="fill:rgb(95,95,97);"/>
        </g>
        <g transform="matrix(4.97078,0,0,6.50445,-2429.42,-10939.9)">
            <path d="M505.817,1704.07C505.817,1703.86 505.592,1703.68 505.315,1703.68L496.107,1703.68C495.829,1703.68 495.604,1703.86 495.604,1704.07L495.604,1715.6C495.604,1715.81 495.829,1715.98 496.107,1715.98L505.315,1715.98C505.592,1715.98 505.817,1715.81 505.817,1715.6L505.817,1704.07ZM496.61,1704.45L496.61,1715.21L504.812,1715.21L504.812,1704.45L496.61,1704.45Z" style="fill:rgb(95,95,97);"/>
        </g>
        <g transform="matrix(4.97078,0,0,6.50445,-2383.65,-10939.9)">
            <path d="M505.817,1704.07C505.817,1703.86 505.592,1703.68 505.315,1703.68L496.107,1703.68C495.829,1703.68 495.604,1703.86 495.604,1704.07L495.604,1715.6C495.604,1715.81 495.829,1715.98 496.107,1715.98L505.315,1715.98C505.592,1715.98 505.817,1715.81 505.817,1715.6L505.817,1704.07ZM496.61,1704.45L496.61,1715.21L504.812,1715.21L504.812,1704.45L496.61,1704.45Z" style="fill:rgb(95,95,97);"/>
        </g>
        <g transform="matrix(1.4703,0,0,1.4703,-1438.16,-3790.37)">
            <path d="M1018.61,2482.41C1006.61,2482.41 996.875,2492.14 996.875,2504.14C996.875,2516.14 1006.61,2525.87 1018.61,2525.87C1030.6,2525.87 1040.34,2516.14 1040.34,2504.14C1040.34,2492.14 1030.6,2482.41 1018.61,2482.41ZM1018.61,2485.81C1028.73,2485.81 1036.94,2494.02 1036.94,2504.14C1036.94,2514.26 1028.73,2522.47 1018.61,2522.47C1008.49,2522.47 1000.28,2514.26 1000.28,2504.14C1000.28,2494.02 1008.49,2485.81 1018.61,2485.81Z" style="fill:rgb(95,95,97);"/>
        </g>
        <g transform="matrix(1.03945,0,0,1.03945,-999.295,-2711.48)">
            <path d="M1018.61,2481.7C1006.22,2481.7 996.17,2491.76 996.17,2504.14C996.17,2516.52 1006.22,2526.58 1018.61,2526.58C1030.99,2526.58 1041.05,2516.52 1041.05,2504.14C1041.05,2491.76 1030.99,2481.7 1018.61,2481.7ZM1018.61,2486.51C1028.34,2486.51 1036.24,2494.41 1036.24,2504.14C1036.24,2513.87 1028.34,2521.77 1018.61,2521.77C1008.88,2521.77 1000.98,2513.87 1000.98,2504.14C1000.98,2494.41 1008.88,2486.51 1018.61,2486.51Z" style="fill:rgb(95,95,97);"/>
        </g>
        <g transform="matrix(0.629786,0,0,0.629786,-488.242,-1395.43)">
            <path d="M1018.61,2480.14C1005.36,2480.14 994.606,2490.89 994.606,2504.14C994.606,2517.39 1005.36,2528.14 1018.61,2528.14C1031.86,2528.14 1042.61,2517.39 1042.61,2504.14C1042.61,2490.89 1031.86,2480.14 1018.61,2480.14ZM1018.61,2488.08C1027.47,2488.08 1034.67,2495.27 1034.67,2504.14C1034.67,2513.01 1027.47,2520.2 1018.61,2520.2C1009.74,2520.2 1002.55,2513.01 1002.55,2504.14C1002.55,2495.27 1009.74,2488.08 1018.61,2488.08Z" style="fill:rgb(95,95,97);"/>
        </g>
        <g transform="matrix(0.629786,0,0,0.629786,-674.714,-1395.43)">
            <path d="M1018.61,2480.14C1005.36,2480.14 994.606,2490.89 994.606,2504.14C994.606,2517.39 1005.36,2528.14 1018.61,2528.14C1031.86,2528.14 1042.61,2517.39 1042.61,2504.14C1042.61,2490.89 1031.86,2480.14 1018.61,2480.14ZM1018.61,2488.08C1027.47,2488.08 1034.67,2495.27 1034.67,2504.14C1034.67,2513.01 1027.47,2520.2 1018.61,2520.2C1009.74,2520.2 1002.55,2513.01 1002.55,2504.14C1002.55,2495.27 1009.74,2488.08 1018.61,2488.08Z" style="fill:rgb(95,95,97);"/>
        </g>
        <g transform="matrix(1,0,0,1,-1180.66,-2644.52)">
            <path d="M1237.66,2534.69L1237.66,2527.69C1237.66,2526.31 1238.78,2525.19 1240.16,2525.19C1241.54,2525.19 1242.66,2526.31 1242.66,2527.69L1242.66,2537.19C1242.66,2538.57 1241.54,2539.69 1240.16,2539.69L1230.16,2539.69C1228.78,2539.69 1227.66,2538.57 1227.66,2537.19L1227.66,2531.42C1227.66,2530.04 1228.78,2528.92 1230.16,2528.92C1231.54,2528.92 1232.66,2530.04 1232.66,2531.42L1232.66,2534.69L1237.66,2534.69Z" style="fill:rgb(95,95,97);"/>
        </g>
        <g transform="matrix(-1,0,0,1,1299.66,-2644.52)">
            <path d="M1232.66,2534.69L1232.66,2531.42C1232.66,2530.04 1231.54,2528.92 1230.16,2528.92C1228.78,2528.92 1227.66,2530.04 1227.66,2531.42L1227.66,2537.19C1227.66,2538.57 1228.78,2539.69 1230.16,2539.69L1240.16,2539.69C1241.54,2539.69 1242.66,2538.57 1242.66,2537.19L1242.66,2527.69C1242.66,2526.31 1241.54,2525.19 1240.16,2525.19C1238.78,2525.19 1237.66,2526.31 1237.66,2527.69L1237.66,2534.69L1232.66,2534.69Z" style="fill:rgb(95,95,97);"/>
        </g>
        <g transform="matrix(1,0,0,1,-1180.66,-2640.89)">
            <path d="M1231.34,2541.72C1231.75,2542.58 1232.63,2543.13 1233.59,2543.13L1246.73,2543.13C1247.69,2543.13 1248.56,2542.58 1248.98,2541.72L1252.4,2534.65C1252.78,2533.87 1252.73,2532.96 1252.27,2532.23C1251.81,2531.5 1251.01,2531.06 1250.15,2531.06L1230.16,2531.06C1229.3,2531.06 1228.5,2531.5 1228.04,2532.23C1227.59,2532.96 1227.54,2533.87 1227.91,2534.65L1231.34,2541.72ZM1234.15,2536.06L1235.15,2538.13L1245.16,2538.13L1246.16,2536.06L1234.15,2536.06Z" style="fill:rgb(95,95,97);"/>
        </g>
        <g transform="matrix(1,0,0,1,-1180.66,-2642.1)">
            <path d="M1279.39,2534.69C1278.1,2534.69 1277.02,2535.68 1276.9,2536.96C1275.18,2555.73 1259.37,2570.45 1240.16,2570.45C1220.94,2570.45 1205.13,2555.73 1203.41,2536.96C1203.3,2535.68 1202.22,2534.69 1200.93,2534.69L1168.6,2534.69C1166.77,2534.69 1165.02,2535.42 1163.72,2536.71C1162.43,2538.01 1161.7,2539.76 1161.7,2541.59C1161.7,2572.16 1161.7,2751.65 1161.7,2751.65C1161.7,2753.03 1162.82,2754.15 1164.2,2754.15L1316.12,2754.15C1317.5,2754.15 1318.62,2753.03 1318.62,2751.65L1318.62,2541.59C1318.62,2539.76 1317.89,2538.01 1316.59,2536.71C1315.3,2535.42 1313.55,2534.69 1311.71,2534.69C1311.71,2534.69 1279.39,2534.69 1279.39,2534.69ZM1281.61,2539.69C1278.64,2559.91 1261.2,2575.45 1240.16,2575.45C1219.12,2575.45 1201.68,2559.91 1198.71,2539.69L1168.6,2539.69C1168.1,2539.69 1167.61,2539.89 1167.26,2540.25C1166.9,2540.6 1166.7,2541.09 1166.7,2541.59L1166.7,2749.15L1313.62,2749.15L1313.62,2541.59C1313.62,2541.09 1313.41,2540.6 1313.06,2540.25C1312.7,2539.89 1312.22,2539.69 1311.71,2539.69L1281.61,2539.69Z" style="fill:rgb(95,95,97);"/>
        </g>
    </g>
</svg>
