<?xml version="1.0" encoding="UTF-8" standalone="no"?>
<!DOCTYPE svg PUBLIC "-//W3C//DTD SVG 1.1//EN" "http://www.w3.org/Graphics/SVG/1.1/DTD/svg11.dtd">
<svg width="100%" height="100%" viewBox="0 0 119 91" version="1.1" xmlns="http://www.w3.org/2000/svg" xmlns:xlink="http://www.w3.org/1999/xlink" xml:space="preserve" xmlns:serif="http://www.serif.com/" style="fill-rule:evenodd;clip-rule:evenodd;stroke-linejoin:round;stroke-miterlimit:2;">
    <g transform="matrix(0.242825,0,0,0.242825,45.0519,34.4515)">
        <g transform="matrix(2.75672,0,0,2.12227,-738.752,-4174.63)">
            <path d="M202.454,2076.79L376.678,2076.79C377.179,2076.79 377.585,2076.26 377.585,2075.61C377.585,2074.96 377.179,2074.43 376.678,2074.43L202.454,2074.43C201.953,2074.43 201.547,2074.96 201.547,2075.61C201.547,2076.26 201.953,2076.79 202.454,2076.79Z" style="fill:rgb(77,77,79);"/>
        </g>
        <g transform="matrix(3.58816,0,0,0.690321,-960.428,-1202.46)">
            <path d="M322.075,1907.75L218.714,1907.75C218.53,1907.75 218.353,1908.13 218.222,1908.81C218.092,1909.48 218.018,1910.4 218.018,1911.36L218.018,2075.61C218.018,2077.61 217.706,2079.23 217.322,2079.23C216.937,2079.23 216.625,2077.61 216.625,2075.61C216.625,2075.61 216.625,1943.97 216.625,1911.36C216.625,1908.48 216.845,1905.72 217.237,1903.68C217.629,1901.65 218.16,1900.5 218.714,1900.5C231.157,1900.5 322.772,1900.5 322.772,1900.5C323.157,1900.5 323.469,1902.12 323.469,1904.12L323.469,2075.61C323.469,2077.61 323.157,2079.23 322.772,2079.23C322.388,2079.23 322.075,2077.61 322.075,2075.61L322.075,1907.75Z" style="fill:rgb(77,77,79);"/>
        </g>
        <g transform="matrix(-0.966479,0,0,0.332333,509.681,-459.414)">
            <path d="M320.185,1911.65L320.185,2075.61C320.185,2079.76 321.345,2083.13 322.772,2083.13C324.2,2083.13 325.359,2079.76 325.359,2075.61L325.359,1904.12C325.359,1899.97 324.201,1896.6 322.772,1896.6C322.772,1896.6 241.474,1896.6 221.644,1896.6C217.828,1896.6 214.735,1905.6 214.735,1916.69L214.735,2075.61C214.735,2079.76 215.894,2083.13 217.322,2083.13C218.749,2083.13 219.908,2079.76 219.908,2075.61L219.908,1916.69C219.908,1913.91 220.686,1911.65 221.644,1911.65L320.185,1911.65Z" style="fill:rgb(77,77,79);"/>
        </g>
        <g transform="matrix(4.55463,0,0,4.28791,-1170.46,-8770.89)">
            <path d="M323.321,2043.98C323.321,2043.56 323.164,2043.16 322.885,2042.86C322.606,2042.56 322.228,2042.4 321.834,2042.4L218.26,2042.4C217.866,2042.4 217.487,2042.56 217.208,2042.86C216.929,2043.16 216.773,2043.56 216.773,2043.98L216.773,2050.14C216.773,2050.46 217.018,2050.72 217.322,2050.72L322.772,2050.72C323.075,2050.72 323.321,2050.46 323.321,2050.14L323.321,2043.98ZM322.223,2049.55L322.223,2043.98C322.223,2043.87 322.182,2043.76 322.109,2043.68C322.036,2043.61 321.937,2043.56 321.834,2043.56L218.26,2043.56C218.157,2043.56 218.058,2043.61 217.985,2043.68C217.912,2043.76 217.87,2043.87 217.87,2043.98L217.87,2049.55L322.223,2049.55Z" style="fill:rgb(77,77,79);"/>
        </g>
        <g transform="matrix(1.12073,0,0,12.8637,-282.192,-26260.4)">
            <path d="M325.003,2042.98C325.003,2042.87 324.004,2042.79 322.772,2042.79L217.322,2042.79C216.09,2042.79 215.091,2042.87 215.091,2042.98L215.091,2050.14C215.091,2050.24 216.09,2050.33 217.322,2050.33L322.772,2050.33C324.004,2050.33 325.003,2050.24 325.003,2050.14L325.003,2042.98ZM219.552,2043.17L219.552,2049.94L320.541,2049.94L320.541,2043.17L219.552,2043.17Z" style="fill:rgb(77,77,79);"/>
        </g>
        <g transform="matrix(1.12073,0,0,12.8637,-164.011,-26260.4)">
            <path d="M325.003,2042.98C325.003,2042.87 324.004,2042.79 322.772,2042.79L217.322,2042.79C216.09,2042.79 215.091,2042.87 215.091,2042.98L215.091,2050.14C215.091,2050.24 216.09,2050.33 217.322,2050.33L322.772,2050.33C324.004,2050.33 325.003,2050.24 325.003,2050.14L325.003,2042.98ZM219.552,2043.17L219.552,2049.94L320.541,2049.94L320.541,2043.17L219.552,2043.17Z" style="fill:rgb(77,77,79);"/>
        </g>
        <g transform="matrix(1.12073,0,0,12.8637,-400.373,-26260.4)">
            <path d="M325.003,2042.98C325.003,2042.87 324.004,2042.79 322.772,2042.79L217.322,2042.79C216.09,2042.79 215.091,2042.87 215.091,2042.98L215.091,2050.14C215.091,2050.24 216.09,2050.33 217.322,2050.33L322.772,2050.33C324.004,2050.33 325.003,2050.24 325.003,2050.14L325.003,2042.98ZM219.552,2043.17L219.552,2049.94L320.541,2049.94L320.541,2043.17L219.552,2043.17Z" style="fill:rgb(77,77,79);"/>
        </g>
        <g transform="matrix(0.701619,0,0,8.69146,-287.194,-17721.6)">
            <path d="M326.335,2042.98C326.335,2042.82 324.74,2042.69 322.772,2042.69L217.322,2042.69C215.354,2042.69 213.758,2042.82 213.758,2042.98L213.758,2050.14C213.758,2050.3 215.354,2050.43 217.322,2050.43L322.772,2050.43C324.74,2050.43 326.335,2050.3 326.335,2050.14L326.335,2042.98ZM220.885,2043.27L220.885,2049.85L319.209,2049.85L319.209,2043.27L220.885,2043.27Z" style="fill:rgb(77,77,79);"/>
        </g>
        <g transform="matrix(0.994999,0,0,12.3568,-381.889,-25117.7)">
            <path d="M325.285,2042.98C325.285,2042.87 324.16,2042.78 322.772,2042.78L217.322,2042.78C215.934,2042.78 214.809,2042.87 214.809,2042.98L214.809,2050.14C214.809,2050.25 215.934,2050.34 217.322,2050.34L322.772,2050.34C324.16,2050.34 325.285,2050.25 325.285,2050.14L325.285,2042.98ZM219.834,2043.18L219.834,2049.94L320.26,2049.94L320.26,2043.18L219.834,2043.18Z" style="fill:rgb(77,77,79);"/>
        </g>
        <g transform="matrix(0.701619,0,0,12.3568,-50.8319,-25117.7)">
            <path d="M326.335,2042.98C326.335,2042.87 324.74,2042.78 322.772,2042.78L217.322,2042.78C215.354,2042.78 213.758,2042.87 213.758,2042.98L213.758,2050.14C213.758,2050.25 215.354,2050.34 217.322,2050.34L322.772,2050.34C324.74,2050.34 326.335,2050.25 326.335,2050.14L326.335,2042.98ZM220.885,2043.18L220.885,2049.94L319.209,2049.94L319.209,2043.18L220.885,2043.18Z" style="fill:rgb(77,77,79);"/>
        </g>
        <g transform="matrix(0.379838,0,0,4.49114,-4.98065,-9282.53)">
            <path d="M329.354,2042.98C329.354,2042.67 326.407,2042.42 322.772,2042.42L217.322,2042.42C213.687,2042.42 210.74,2042.67 210.74,2042.98L210.74,2050.14C210.74,2050.45 213.687,2050.7 217.322,2050.7L322.772,2050.7C326.407,2050.7 329.354,2050.45 329.354,2050.14L329.354,2042.98ZM223.903,2043.54L223.903,2049.58L316.19,2049.58L316.19,2043.54L223.903,2043.54Z" style="fill:rgb(77,77,79);"/>
        </g>
        <g transform="matrix(0.379838,0,0,4.49114,-4.98065,-9314.68)">
            <path d="M329.354,2042.98C329.354,2042.67 326.407,2042.42 322.772,2042.42L217.322,2042.42C213.687,2042.42 210.74,2042.67 210.74,2042.98L210.74,2050.14C210.74,2050.45 213.687,2050.7 217.322,2050.7L322.772,2050.7C326.407,2050.7 329.354,2050.45 329.354,2050.14L329.354,2042.98ZM223.903,2043.54L223.903,2049.58L316.19,2049.58L316.19,2043.54L223.903,2043.54Z" style="fill:rgb(77,77,79);"/>
        </g>
        <g transform="matrix(0.379838,0,0,4.49114,35.0735,-9282.53)">
            <path d="M329.354,2042.98C329.354,2042.67 326.407,2042.42 322.772,2042.42L217.322,2042.42C213.687,2042.42 210.74,2042.67 210.74,2042.98L210.74,2050.14C210.74,2050.45 213.687,2050.7 217.322,2050.7L322.772,2050.7C326.407,2050.7 329.354,2050.45 329.354,2050.14L329.354,2042.98ZM223.903,2043.54L223.903,2049.58L316.19,2049.58L316.19,2043.54L223.903,2043.54Z" style="fill:rgb(77,77,79);"/>
        </g>
        <g transform="matrix(0.379838,0,0,4.49114,35.0735,-9314.68)">
            <path d="M329.354,2042.98C329.354,2042.67 326.407,2042.42 322.772,2042.42L217.322,2042.42C213.687,2042.42 210.74,2042.67 210.74,2042.98L210.74,2050.14C210.74,2050.45 213.687,2050.7 217.322,2050.7L322.772,2050.7C326.407,2050.7 329.354,2050.45 329.354,2050.14L329.354,2042.98ZM223.903,2043.54L223.903,2049.58L316.19,2049.58L316.19,2043.54L223.903,2043.54Z" style="fill:rgb(77,77,79);"/>
        </g>
        <g transform="matrix(0.379838,0,0,4.49114,-125.143,-9282.53)">
            <path d="M329.354,2042.98C329.354,2042.67 326.407,2042.42 322.772,2042.42L217.322,2042.42C213.687,2042.42 210.74,2042.67 210.74,2042.98L210.74,2050.14C210.74,2050.45 213.687,2050.7 217.322,2050.7L322.772,2050.7C326.407,2050.7 329.354,2050.45 329.354,2050.14L329.354,2042.98ZM223.903,2043.54L223.903,2049.58L316.19,2049.58L316.19,2043.54L223.903,2043.54Z" style="fill:rgb(77,77,79);"/>
        </g>
        <g transform="matrix(0.379838,0,0,4.49114,-125.143,-9314.68)">
            <path d="M329.354,2042.98C329.354,2042.67 326.407,2042.42 322.772,2042.42L217.322,2042.42C213.687,2042.42 210.74,2042.67 210.74,2042.98L210.74,2050.14C210.74,2050.45 213.687,2050.7 217.322,2050.7L322.772,2050.7C326.407,2050.7 329.354,2050.45 329.354,2050.14L329.354,2042.98ZM223.903,2043.54L223.903,2049.58L316.19,2049.58L316.19,2043.54L223.903,2043.54Z" style="fill:rgb(77,77,79);"/>
        </g>
        <g transform="matrix(0.379838,0,0,4.49114,75.1276,-9282.53)">
            <path d="M329.354,2042.98C329.354,2042.67 326.407,2042.42 322.772,2042.42L217.322,2042.42C213.687,2042.42 210.74,2042.67 210.74,2042.98L210.74,2050.14C210.74,2050.45 213.687,2050.7 217.322,2050.7L322.772,2050.7C326.407,2050.7 329.354,2050.45 329.354,2050.14L329.354,2042.98ZM223.903,2043.54L223.903,2049.58L316.19,2049.58L316.19,2043.54L223.903,2043.54Z" style="fill:rgb(77,77,79);"/>
        </g>
        <g transform="matrix(0.379838,0,0,4.49114,75.1276,-9314.68)">
            <path d="M329.354,2042.98C329.354,2042.67 326.407,2042.42 322.772,2042.42L217.322,2042.42C213.687,2042.42 210.74,2042.67 210.74,2042.98L210.74,2050.14C210.74,2050.45 213.687,2050.7 217.322,2050.7L322.772,2050.7C326.407,2050.7 329.354,2050.45 329.354,2050.14L329.354,2042.98ZM223.903,2043.54L223.903,2049.58L316.19,2049.58L316.19,2043.54L223.903,2043.54Z" style="fill:rgb(77,77,79);"/>
        </g>
        <g transform="matrix(0.379838,0,0,4.49114,-85.0889,-9282.53)">
            <path d="M329.354,2042.98C329.354,2042.67 326.407,2042.42 322.772,2042.42L217.322,2042.42C213.687,2042.42 210.74,2042.67 210.74,2042.98L210.74,2050.14C210.74,2050.45 213.687,2050.7 217.322,2050.7L322.772,2050.7C326.407,2050.7 329.354,2050.45 329.354,2050.14L329.354,2042.98ZM223.903,2043.54L223.903,2049.58L316.19,2049.58L316.19,2043.54L223.903,2043.54Z" style="fill:rgb(77,77,79);"/>
        </g>
        <g transform="matrix(0.379838,0,0,4.49114,-85.0889,-9314.68)">
            <path d="M329.354,2042.98C329.354,2042.67 326.407,2042.42 322.772,2042.42L217.322,2042.42C213.687,2042.42 210.74,2042.67 210.74,2042.98L210.74,2050.14C210.74,2050.45 213.687,2050.7 217.322,2050.7L322.772,2050.7C326.407,2050.7 329.354,2050.45 329.354,2050.14L329.354,2042.98ZM223.903,2043.54L223.903,2049.58L316.19,2049.58L316.19,2043.54L223.903,2043.54Z" style="fill:rgb(77,77,79);"/>
        </g>
        <g transform="matrix(0.379838,0,0,4.49114,-4.98065,-9250.38)">
            <path d="M329.354,2042.98C329.354,2042.67 326.407,2042.42 322.772,2042.42L217.322,2042.42C213.687,2042.42 210.74,2042.67 210.74,2042.98L210.74,2050.14C210.74,2050.45 213.687,2050.7 217.322,2050.7L322.772,2050.7C326.407,2050.7 329.354,2050.45 329.354,2050.14L329.354,2042.98ZM223.903,2043.54L223.903,2049.58L316.19,2049.58L316.19,2043.54L223.903,2043.54Z" style="fill:rgb(77,77,79);"/>
        </g>
        <g transform="matrix(0.379838,0,0,4.49114,35.0735,-9250.38)">
            <path d="M329.354,2042.98C329.354,2042.67 326.407,2042.42 322.772,2042.42L217.322,2042.42C213.687,2042.42 210.74,2042.67 210.74,2042.98L210.74,2050.14C210.74,2050.45 213.687,2050.7 217.322,2050.7L322.772,2050.7C326.407,2050.7 329.354,2050.45 329.354,2050.14L329.354,2042.98ZM223.903,2043.54L223.903,2049.58L316.19,2049.58L316.19,2043.54L223.903,2043.54Z" style="fill:rgb(77,77,79);"/>
        </g>
        <g transform="matrix(0.379838,0,0,4.49114,-125.143,-9250.38)">
            <path d="M329.354,2042.98C329.354,2042.67 326.407,2042.42 322.772,2042.42L217.322,2042.42C213.687,2042.42 210.74,2042.67 210.74,2042.98L210.74,2050.14C210.74,2050.45 213.687,2050.7 217.322,2050.7L322.772,2050.7C326.407,2050.7 329.354,2050.45 329.354,2050.14L329.354,2042.98ZM223.903,2043.54L223.903,2049.58L316.19,2049.58L316.19,2043.54L223.903,2043.54Z" style="fill:rgb(77,77,79);"/>
        </g>
        <g transform="matrix(0.379838,0,0,4.49114,75.1276,-9250.38)">
            <path d="M329.354,2042.98C329.354,2042.67 326.407,2042.42 322.772,2042.42L217.322,2042.42C213.687,2042.42 210.74,2042.67 210.74,2042.98L210.74,2050.14C210.74,2050.45 213.687,2050.7 217.322,2050.7L322.772,2050.7C326.407,2050.7 329.354,2050.45 329.354,2050.14L329.354,2042.98ZM223.903,2043.54L223.903,2049.58L316.19,2049.58L316.19,2043.54L223.903,2043.54Z" style="fill:rgb(77,77,79);"/>
        </g>
        <g transform="matrix(0.379838,0,0,4.49114,-85.0889,-9250.38)">
            <path d="M329.354,2042.98C329.354,2042.67 326.407,2042.42 322.772,2042.42L217.322,2042.42C213.687,2042.42 210.74,2042.67 210.74,2042.98L210.74,2050.14C210.74,2050.45 213.687,2050.7 217.322,2050.7L322.772,2050.7C326.407,2050.7 329.354,2050.45 329.354,2050.14L329.354,2042.98ZM223.903,2043.54L223.903,2049.58L316.19,2049.58L316.19,2043.54L223.903,2043.54Z" style="fill:rgb(77,77,79);"/>
        </g>
        <g transform="matrix(0.379838,0,0,4.49114,-4.98065,-9218.23)">
            <path d="M329.354,2042.98C329.354,2042.67 326.407,2042.42 322.772,2042.42L217.322,2042.42C213.687,2042.42 210.74,2042.67 210.74,2042.98L210.74,2050.14C210.74,2050.45 213.687,2050.7 217.322,2050.7L322.772,2050.7C326.407,2050.7 329.354,2050.45 329.354,2050.14L329.354,2042.98ZM223.903,2043.54L223.903,2049.58L316.19,2049.58L316.19,2043.54L223.903,2043.54Z" style="fill:rgb(77,77,79);"/>
        </g>
        <g transform="matrix(0.379838,0,0,4.49114,-205.251,-9282.53)">
            <path d="M329.354,2042.98C329.354,2042.67 326.407,2042.42 322.772,2042.42L217.322,2042.42C213.687,2042.42 210.74,2042.67 210.74,2042.98L210.74,2050.14C210.74,2050.45 213.687,2050.7 217.322,2050.7L322.772,2050.7C326.407,2050.7 329.354,2050.45 329.354,2050.14L329.354,2042.98ZM223.903,2043.54L223.903,2049.58L316.19,2049.58L316.19,2043.54L223.903,2043.54Z" style="fill:rgb(77,77,79);"/>
        </g>
        <g transform="matrix(0.379838,0,0,4.49114,-205.251,-9314.68)">
            <path d="M329.354,2042.98C329.354,2042.67 326.407,2042.42 322.772,2042.42L228.223,2042.42C223.586,2042.42 219.139,2042.58 215.861,2042.86C212.582,2043.13 210.74,2043.51 210.74,2043.9C210.74,2045.84 210.74,2050.14 210.74,2050.14C210.74,2050.45 213.687,2050.7 217.322,2050.7L322.772,2050.7C326.407,2050.7 329.354,2050.45 329.354,2050.14L329.354,2042.98ZM316.19,2043.54L228.223,2043.54C227.077,2043.54 225.979,2043.58 225.169,2043.64C224.358,2043.71 223.903,2043.81 223.903,2043.9L223.903,2049.58L316.19,2049.58L316.19,2043.54Z" style="fill:rgb(77,77,79);"/>
        </g>
        <g transform="matrix(0.379838,0,0,4.49114,-165.197,-9282.53)">
            <path d="M329.354,2042.98C329.354,2042.67 326.407,2042.42 322.772,2042.42L217.322,2042.42C213.687,2042.42 210.74,2042.67 210.74,2042.98L210.74,2050.14C210.74,2050.45 213.687,2050.7 217.322,2050.7L322.772,2050.7C326.407,2050.7 329.354,2050.45 329.354,2050.14L329.354,2042.98ZM223.903,2043.54L223.903,2049.58L316.19,2049.58L316.19,2043.54L223.903,2043.54Z" style="fill:rgb(77,77,79);"/>
        </g>
        <g transform="matrix(0.379838,0,0,4.49114,-165.197,-9314.68)">
            <path d="M329.354,2042.98C329.354,2042.67 326.407,2042.42 322.772,2042.42L217.322,2042.42C213.687,2042.42 210.74,2042.67 210.74,2042.98L210.74,2050.14C210.74,2050.45 213.687,2050.7 217.322,2050.7L322.772,2050.7C326.407,2050.7 329.354,2050.45 329.354,2050.14L329.354,2042.98ZM223.903,2043.54L223.903,2049.58L316.19,2049.58L316.19,2043.54L223.903,2043.54Z" style="fill:rgb(77,77,79);"/>
        </g>
        <g transform="matrix(0.379838,0,0,4.49114,-205.251,-9250.38)">
            <path d="M329.354,2042.98C329.354,2042.67 326.407,2042.42 322.772,2042.42L217.322,2042.42C213.687,2042.42 210.74,2042.67 210.74,2042.98L210.74,2050.14C210.74,2050.45 213.687,2050.7 217.322,2050.7L322.772,2050.7C326.407,2050.7 329.354,2050.45 329.354,2050.14L329.354,2042.98ZM223.903,2043.54L223.903,2049.58L316.19,2049.58L316.19,2043.54L223.903,2043.54Z" style="fill:rgb(77,77,79);"/>
        </g>
        <g transform="matrix(0.379838,0,0,4.49114,-165.197,-9250.38)">
            <path d="M329.354,2042.98C329.354,2042.67 326.407,2042.42 322.772,2042.42L217.322,2042.42C213.687,2042.42 210.74,2042.67 210.74,2042.98L210.74,2050.14C210.74,2050.45 213.687,2050.7 217.322,2050.7L322.772,2050.7C326.407,2050.7 329.354,2050.45 329.354,2050.14L329.354,2042.98ZM223.903,2043.54L223.903,2049.58L316.19,2049.58L316.19,2043.54L223.903,2043.54Z" style="fill:rgb(77,77,79);"/>
        </g>
        <g transform="matrix(0.379838,0,0,4.49114,-205.251,-9218.23)">
            <path d="M329.354,2042.98C329.354,2042.67 326.407,2042.42 322.772,2042.42L217.322,2042.42C213.687,2042.42 210.74,2042.67 210.74,2042.98L210.74,2050.14C210.74,2050.45 213.687,2050.7 217.322,2050.7L322.772,2050.7C326.407,2050.7 329.354,2050.45 329.354,2050.14L329.354,2042.98ZM223.903,2043.54L223.903,2049.58L316.19,2049.58L316.19,2043.54L223.903,2043.54Z" style="fill:rgb(77,77,79);"/>
        </g>
        <g transform="matrix(0.379838,0,0,4.49114,-165.197,-9218.23)">
            <path d="M329.354,2042.98C329.354,2042.67 326.407,2042.42 322.772,2042.42L217.322,2042.42C213.687,2042.42 210.74,2042.67 210.74,2042.98L210.74,2050.14C210.74,2050.45 213.687,2050.7 217.322,2050.7L322.772,2050.7C326.407,2050.7 329.354,2050.45 329.354,2050.14L329.354,2042.98ZM223.903,2043.54L223.903,2049.58L316.19,2049.58L316.19,2043.54L223.903,2043.54Z" style="fill:rgb(77,77,79);"/>
        </g>
        <g transform="matrix(0.379838,0,0,4.49114,35.0735,-9218.23)">
            <path d="M329.354,2042.98C329.354,2042.67 326.407,2042.42 322.772,2042.42L217.322,2042.42C213.687,2042.42 210.74,2042.67 210.74,2042.98L210.74,2050.14C210.74,2050.45 213.687,2050.7 217.322,2050.7L322.772,2050.7C326.407,2050.7 329.354,2050.45 329.354,2050.14L329.354,2042.98ZM223.903,2043.54L223.903,2049.58L316.19,2049.58L316.19,2043.54L223.903,2043.54Z" style="fill:rgb(77,77,79);"/>
        </g>
        <g transform="matrix(0.379838,0,0,4.49114,-125.143,-9218.23)">
            <path d="M329.354,2042.98C329.354,2042.67 326.407,2042.42 322.772,2042.42L217.322,2042.42C213.687,2042.42 210.74,2042.67 210.74,2042.98L210.74,2050.14C210.74,2050.45 213.687,2050.7 217.322,2050.7L322.772,2050.7C326.407,2050.7 329.354,2050.45 329.354,2050.14L329.354,2042.98ZM223.903,2043.54L223.903,2049.58L316.19,2049.58L316.19,2043.54L223.903,2043.54Z" style="fill:rgb(77,77,79);"/>
        </g>
        <g transform="matrix(0.379838,0,0,4.49114,75.1276,-9218.23)">
            <path d="M329.354,2042.98C329.354,2042.67 326.407,2042.42 322.772,2042.42L217.322,2042.42C213.687,2042.42 210.74,2042.67 210.74,2042.98L210.74,2050.14C210.74,2050.45 213.687,2050.7 217.322,2050.7L322.772,2050.7C326.407,2050.7 329.354,2050.45 329.354,2050.14L329.354,2042.98ZM223.903,2043.54L223.903,2049.58L316.19,2049.58L316.19,2043.54L223.903,2043.54Z" style="fill:rgb(77,77,79);"/>
        </g>
        <g transform="matrix(0.379838,0,0,4.49114,-85.0889,-9218.23)">
            <path d="M329.354,2042.98C329.354,2042.67 326.407,2042.42 322.772,2042.42L217.322,2042.42C213.687,2042.42 210.74,2042.67 210.74,2042.98L210.74,2050.14C210.74,2050.45 213.687,2050.7 217.322,2050.7L322.772,2050.7C326.407,2050.7 329.354,2050.45 329.354,2050.14L329.354,2042.98ZM223.903,2043.54L223.903,2049.58L316.19,2049.58L316.19,2043.54L223.903,2043.54Z" style="fill:rgb(77,77,79);"/>
        </g>
        <g transform="matrix(0.379838,0,0,4.49114,-45.0348,-9282.53)">
            <path d="M329.354,2043.78C329.354,2043.42 327.664,2043.08 324.655,2042.82C321.646,2042.57 317.565,2042.42 313.31,2042.42C287.417,2042.42 217.322,2042.42 217.322,2042.42C213.687,2042.42 210.74,2042.67 210.74,2042.98L210.74,2050.14C210.74,2050.45 213.687,2050.7 217.322,2050.7L322.772,2050.7C326.407,2050.7 329.354,2050.45 329.354,2050.14L329.354,2043.78ZM223.903,2043.54L223.903,2049.58L316.19,2049.58L316.19,2043.78C316.19,2043.72 315.887,2043.65 315.347,2043.61C314.806,2043.56 314.074,2043.54 313.31,2043.54L223.903,2043.54Z" style="fill:rgb(77,77,79);"/>
        </g>
        <g transform="matrix(0.379838,0,0,4.49114,-45.0348,-9314.68)">
            <path d="M329.354,2043.78C329.354,2043.42 327.664,2043.08 324.655,2042.82C321.646,2042.57 317.565,2042.42 313.31,2042.42C287.417,2042.42 217.322,2042.42 217.322,2042.42C213.687,2042.42 210.74,2042.67 210.74,2042.98L210.74,2050.14C210.74,2050.45 213.687,2050.7 217.322,2050.7L322.772,2050.7C326.407,2050.7 329.354,2050.45 329.354,2050.14L329.354,2043.78ZM223.903,2043.54L223.903,2049.58L316.19,2049.58L316.19,2043.78C316.19,2043.72 315.887,2043.65 315.347,2043.61C314.806,2043.56 314.074,2043.54 313.31,2043.54L223.903,2043.54Z" style="fill:rgb(77,77,79);"/>
        </g>
        <g transform="matrix(0.379838,0,0,4.49114,-45.0348,-9250.38)">
            <path d="M329.354,2042.98C329.354,2042.67 326.407,2042.42 322.772,2042.42L217.322,2042.42C213.687,2042.42 210.74,2042.67 210.74,2042.98L210.74,2050.14C210.74,2050.45 213.687,2050.7 217.322,2050.7L322.772,2050.7C326.407,2050.7 329.354,2050.45 329.354,2050.14L329.354,2042.98ZM223.903,2043.54L223.903,2049.58L316.19,2049.58L316.19,2043.54L223.903,2043.54Z" style="fill:rgb(77,77,79);"/>
        </g>
        <g transform="matrix(0.379838,0,0,4.49114,115.182,-9282.53)">
            <path d="M329.354,2042.98C329.354,2042.67 326.407,2042.42 322.772,2042.42L217.322,2042.42C213.687,2042.42 210.74,2042.67 210.74,2042.98L210.74,2050.14C210.74,2050.45 213.687,2050.7 217.322,2050.7L322.772,2050.7C326.407,2050.7 329.354,2050.45 329.354,2050.14L329.354,2042.98ZM223.903,2043.54L223.903,2049.58L316.19,2049.58L316.19,2043.54L223.903,2043.54Z" style="fill:rgb(77,77,79);"/>
        </g>
        <g transform="matrix(0.379838,0,0,4.49114,115.182,-9314.68)">
            <path d="M329.354,2042.98C329.354,2042.67 326.407,2042.42 322.772,2042.42L217.322,2042.42C213.687,2042.42 210.74,2042.67 210.74,2042.98L210.74,2050.14C210.74,2050.45 213.687,2050.7 217.322,2050.7L322.772,2050.7C326.407,2050.7 329.354,2050.45 329.354,2050.14L329.354,2042.98ZM223.903,2043.54L223.903,2049.58L316.19,2049.58L316.19,2043.54L223.903,2043.54Z" style="fill:rgb(77,77,79);"/>
        </g>
        <g transform="matrix(0.379838,0,0,4.49114,115.182,-9250.38)">
            <path d="M329.354,2042.98C329.354,2042.67 326.407,2042.42 322.772,2042.42L217.322,2042.42C213.687,2042.42 210.74,2042.67 210.74,2042.98L210.74,2050.14C210.74,2050.45 213.687,2050.7 217.322,2050.7L322.772,2050.7C326.407,2050.7 329.354,2050.45 329.354,2050.14L329.354,2042.98ZM223.903,2043.54L223.903,2049.58L316.19,2049.58L316.19,2043.54L223.903,2043.54Z" style="fill:rgb(77,77,79);"/>
        </g>
        <g transform="matrix(0.379838,0,0,4.49114,115.182,-9218.23)">
            <path d="M329.354,2042.98C329.354,2042.67 326.407,2042.42 322.772,2042.42L217.322,2042.42C213.687,2042.42 210.74,2042.67 210.74,2042.98L210.74,2050.14C210.74,2050.45 213.687,2050.7 217.322,2050.7L322.772,2050.7C326.407,2050.7 329.354,2050.45 329.354,2050.14L329.354,2042.98ZM223.903,2043.54L223.903,2049.58L316.19,2049.58L316.19,2043.54L223.903,2043.54Z" style="fill:rgb(77,77,79);"/>
        </g>
        <g transform="matrix(0.379838,0,0,4.49114,155.236,-9282.53)">
            <path d="M329.354,2043.78C329.354,2043.42 327.664,2043.08 324.655,2042.82C321.646,2042.57 317.565,2042.42 313.31,2042.42C287.417,2042.42 217.322,2042.42 217.322,2042.42C213.687,2042.42 210.74,2042.67 210.74,2042.98L210.74,2050.14C210.74,2050.45 213.687,2050.7 217.322,2050.7L322.772,2050.7C326.407,2050.7 329.354,2050.45 329.354,2050.14L329.354,2043.78ZM223.903,2043.54L223.903,2049.58L316.19,2049.58L316.19,2043.78C316.19,2043.72 315.887,2043.65 315.347,2043.61C314.806,2043.56 314.074,2043.54 313.31,2043.54L223.903,2043.54Z" style="fill:rgb(77,77,79);"/>
        </g>
        <g transform="matrix(0.379838,0,0,4.49114,155.236,-9314.68)">
            <path d="M329.354,2043.78C329.354,2043.42 327.664,2043.08 324.655,2042.82C321.646,2042.57 317.565,2042.42 313.31,2042.42C287.417,2042.42 217.322,2042.42 217.322,2042.42C213.687,2042.42 210.74,2042.67 210.74,2042.98L210.74,2050.14C210.74,2050.45 213.687,2050.7 217.322,2050.7L322.772,2050.7C326.407,2050.7 329.354,2050.45 329.354,2050.14L329.354,2043.78ZM223.903,2043.54L223.903,2049.58L316.19,2049.58L316.19,2043.78C316.19,2043.72 315.887,2043.65 315.347,2043.61C314.806,2043.56 314.074,2043.54 313.31,2043.54L223.903,2043.54Z" style="fill:rgb(77,77,79);"/>
        </g>
        <g transform="matrix(0.379838,0,0,4.49114,155.236,-9250.38)">
            <path d="M329.354,2042.98C329.354,2042.67 326.407,2042.42 322.772,2042.42L217.322,2042.42C213.687,2042.42 210.74,2042.67 210.74,2042.98L210.74,2050.14C210.74,2050.45 213.687,2050.7 217.322,2050.7L322.772,2050.7C326.407,2050.7 329.354,2050.45 329.354,2050.14L329.354,2042.98ZM223.903,2043.54L223.903,2049.58L316.19,2049.58L316.19,2043.54L223.903,2043.54Z" style="fill:rgb(77,77,79);"/>
        </g>
        <g transform="matrix(0.379838,0,0,4.49114,155.236,-9218.23)">
            <path d="M329.354,2042.98C329.354,2042.67 326.407,2042.42 322.772,2042.42L217.322,2042.42C213.687,2042.42 210.74,2042.67 210.74,2042.98L210.74,2050.14C210.74,2050.45 213.687,2050.7 217.322,2050.7L322.772,2050.7C326.407,2050.7 329.354,2050.45 329.354,2050.14L329.354,2042.98ZM223.903,2043.54L223.903,2049.58L316.19,2049.58L316.19,2043.54L223.903,2043.54Z" style="fill:rgb(77,77,79);"/>
        </g>
        <g transform="matrix(0.379838,0,0,4.49114,-45.0348,-9218.23)">
            <path d="M329.354,2042.98C329.354,2042.67 326.407,2042.42 322.772,2042.42L217.322,2042.42C213.687,2042.42 210.74,2042.67 210.74,2042.98L210.74,2050.14C210.74,2050.45 213.687,2050.7 217.322,2050.7L322.772,2050.7C326.407,2050.7 329.354,2050.45 329.354,2050.14L329.354,2042.98ZM223.903,2043.54L223.903,2049.58L316.19,2049.58L316.19,2043.54L223.903,2043.54Z" style="fill:rgb(77,77,79);"/>
        </g>
        <g transform="matrix(0.379838,0,0,4.28791,115.182,-8709.5)">
            <path d="M329.354,2042.98C329.354,2042.66 326.407,2042.4 322.772,2042.4L217.322,2042.4C213.687,2042.4 210.74,2042.66 210.74,2042.98L210.74,2050.14C210.74,2050.46 213.687,2050.72 217.322,2050.72L322.772,2050.72C326.407,2050.72 329.354,2050.46 329.354,2050.14L329.354,2042.98ZM223.903,2043.56L223.903,2049.55L316.19,2049.55L316.19,2043.56L223.903,2043.56Z" style="fill:rgb(77,77,79);"/>
        </g>
        <g transform="matrix(0.379838,0,0,4.28791,115.182,-8678.81)">
            <path d="M329.354,2042.98C329.354,2042.66 326.407,2042.4 322.772,2042.4L217.322,2042.4C213.687,2042.4 210.74,2042.66 210.74,2042.98L210.74,2050.14C210.74,2050.46 213.687,2050.72 217.322,2050.72L322.772,2050.72C326.407,2050.72 329.354,2050.46 329.354,2050.14L329.354,2042.98ZM223.903,2043.56L223.903,2049.55L316.19,2049.55L316.19,2043.56L223.903,2043.56Z" style="fill:rgb(77,77,79);"/>
        </g>
        <g transform="matrix(0.379838,0,0,4.28791,115.182,-8648.11)">
            <path d="M329.354,2042.98C329.354,2042.66 326.407,2042.4 322.772,2042.4L217.322,2042.4C213.687,2042.4 210.74,2042.66 210.74,2042.98L210.74,2050.14C210.74,2050.46 213.687,2050.72 217.322,2050.72L322.772,2050.72C326.407,2050.72 329.354,2050.46 329.354,2050.14L329.354,2042.98ZM223.903,2043.56L223.903,2049.55L316.19,2049.55L316.19,2043.56L223.903,2043.56Z" style="fill:rgb(77,77,79);"/>
        </g>
        <g transform="matrix(0.379838,0,0,4.28791,115.182,-8617.42)">
            <path d="M329.354,2042.98C329.354,2042.66 326.407,2042.4 322.772,2042.4L217.322,2042.4C213.687,2042.4 210.74,2042.66 210.74,2042.98L210.74,2050.14C210.74,2050.46 213.687,2050.72 217.322,2050.72L322.772,2050.72C326.407,2050.72 329.354,2050.46 329.354,2050.14L329.354,2042.98ZM223.903,2043.56L223.903,2049.55L316.19,2049.55L316.19,2043.56L223.903,2043.56Z" style="fill:rgb(77,77,79);"/>
        </g>
        <g transform="matrix(0.379838,0,0,4.28791,155.236,-8709.5)">
            <path d="M329.354,2042.98C329.354,2042.66 326.407,2042.4 322.772,2042.4L217.322,2042.4C213.687,2042.4 210.74,2042.66 210.74,2042.98L210.74,2050.14C210.74,2050.46 213.687,2050.72 217.322,2050.72L322.772,2050.72C326.407,2050.72 329.354,2050.46 329.354,2050.14L329.354,2042.98ZM223.903,2043.56L223.903,2049.55L316.19,2049.55L316.19,2043.56L223.903,2043.56Z" style="fill:rgb(77,77,79);"/>
        </g>
        <g transform="matrix(0.379838,0,0,4.28791,115.182,-8740.2)">
            <path d="M329.354,2042.98C329.354,2042.66 326.407,2042.4 322.772,2042.4L217.322,2042.4C213.687,2042.4 210.74,2042.66 210.74,2042.98L210.74,2050.14C210.74,2050.46 213.687,2050.72 217.322,2050.72L322.772,2050.72C326.407,2050.72 329.354,2050.46 329.354,2050.14L329.354,2042.98ZM223.903,2043.56L223.903,2049.55L316.19,2049.55L316.19,2043.56L223.903,2043.56Z" style="fill:rgb(77,77,79);"/>
        </g>
        <g transform="matrix(0.379838,0,0,4.28791,155.236,-8740.2)">
            <path d="M329.354,2042.98C329.354,2042.66 326.407,2042.4 322.772,2042.4L217.322,2042.4C213.687,2042.4 210.74,2042.66 210.74,2042.98L210.74,2050.14C210.74,2050.46 213.687,2050.72 217.322,2050.72L322.772,2050.72C326.407,2050.72 329.354,2050.46 329.354,2050.14L329.354,2042.98ZM223.903,2043.56L223.903,2049.55L316.19,2049.55L316.19,2043.56L223.903,2043.56Z" style="fill:rgb(77,77,79);"/>
        </g>
        <g transform="matrix(0.379838,0,0,4.28791,155.236,-8678.81)">
            <path d="M329.354,2042.98C329.354,2042.66 326.407,2042.4 322.772,2042.4L217.322,2042.4C213.687,2042.4 210.74,2042.66 210.74,2042.98L210.74,2050.14C210.74,2050.46 213.687,2050.72 217.322,2050.72L322.772,2050.72C326.407,2050.72 329.354,2050.46 329.354,2050.14L329.354,2042.98ZM223.903,2043.56L223.903,2049.55L316.19,2049.55L316.19,2043.56L223.903,2043.56Z" style="fill:rgb(77,77,79);"/>
        </g>
        <g transform="matrix(0.379838,0,0,4.28791,155.236,-8648.11)">
            <path d="M329.354,2042.98C329.354,2042.66 326.407,2042.4 322.772,2042.4L217.322,2042.4C213.687,2042.4 210.74,2042.66 210.74,2042.98L210.74,2050.14C210.74,2050.46 213.687,2050.72 217.322,2050.72L322.772,2050.72C326.407,2050.72 329.354,2050.46 329.354,2050.14L329.354,2042.98ZM223.903,2043.56L223.903,2049.55L316.19,2049.55L316.19,2043.56L223.903,2043.56Z" style="fill:rgb(77,77,79);"/>
        </g>
        <g transform="matrix(0.379838,0,0,4.28791,155.236,-8617.42)">
            <path d="M329.354,2042.98C329.354,2042.66 326.407,2042.4 322.772,2042.4L217.322,2042.4C213.687,2042.4 210.74,2042.66 210.74,2042.98L210.74,2050.14C210.74,2050.46 213.687,2050.72 217.322,2050.72L322.772,2050.72C326.407,2050.72 329.354,2050.46 329.354,2050.14L329.354,2042.98ZM223.903,2043.56L223.903,2049.55L316.19,2049.55L316.19,2043.56L223.903,2043.56Z" style="fill:rgb(77,77,79);"/>
        </g>
        <g transform="matrix(0.373575,0,0,14.4469,-119.82,-29387.8)">
            <path d="M329.464,2042.98C329.464,2042.88 326.468,2042.81 322.772,2042.81L217.322,2042.81C213.626,2042.81 210.629,2042.88 210.629,2042.98L210.629,2050.14C210.629,2050.23 213.626,2050.31 217.322,2050.31L322.772,2050.31C326.468,2050.31 329.464,2050.23 329.464,2050.14L329.464,2042.98ZM224.014,2043.15L224.014,2049.97L316.08,2049.97L316.08,2043.15L224.014,2043.15Z" style="fill:rgb(77,77,79);"/>
        </g>
        <g transform="matrix(0.373575,0,0,14.4469,-80.4261,-29387.8)">
            <path d="M329.464,2042.98C329.464,2042.88 326.468,2042.81 322.772,2042.81L217.322,2042.81C213.626,2042.81 210.629,2042.88 210.629,2042.98L210.629,2050.14C210.629,2050.23 213.626,2050.31 217.322,2050.31L322.772,2050.31C326.468,2050.31 329.464,2050.23 329.464,2050.14L329.464,2042.98ZM224.014,2043.15L224.014,2049.97L316.08,2049.97L316.08,2043.15L224.014,2043.15Z" style="fill:rgb(77,77,79);"/>
        </g>
        <g transform="matrix(0.373575,0,0,14.4469,-41.0323,-29387.8)">
            <path d="M329.464,2042.98C329.464,2042.88 326.468,2042.81 322.772,2042.81L217.322,2042.81C213.626,2042.81 210.629,2042.88 210.629,2042.98L210.629,2050.14C210.629,2050.23 213.626,2050.31 217.322,2050.31L322.772,2050.31C326.468,2050.31 329.464,2050.23 329.464,2050.14L329.464,2042.98ZM224.014,2043.15L224.014,2049.97L316.08,2049.97L316.08,2043.15L224.014,2043.15Z" style="fill:rgb(77,77,79);"/>
        </g>
        <g transform="matrix(0.701619,0,0,8.69146,-169.013,-17721.6)">
            <path d="M326.335,2042.98C326.335,2042.82 324.74,2042.69 322.772,2042.69L217.322,2042.69C215.354,2042.69 213.758,2042.82 213.758,2042.98L213.758,2050.14C213.758,2050.3 215.354,2050.43 217.322,2050.43L322.772,2050.43C324.74,2050.43 326.335,2050.3 326.335,2050.14L326.335,2042.98ZM220.885,2043.27L220.885,2049.85L319.209,2049.85L319.209,2043.27L220.885,2043.27Z" style="fill:rgb(77,77,79);"/>
        </g>
        <g transform="matrix(0.701619,0,0,8.69146,-50.8319,-17721.6)">
            <path d="M326.335,2042.98C326.335,2042.82 324.74,2042.69 322.772,2042.69L217.322,2042.69C215.354,2042.69 213.758,2042.82 213.758,2042.98L213.758,2050.14C213.758,2050.3 215.354,2050.43 217.322,2050.43L322.772,2050.43C324.74,2050.43 326.335,2050.3 326.335,2050.14L326.335,2042.98ZM220.885,2043.27L220.885,2049.85L319.209,2049.85L319.209,2043.27L220.885,2043.27Z" style="fill:rgb(77,77,79);"/>
        </g>
    </g>
</svg>
