<?xml version="1.0" encoding="UTF-8" standalone="no"?>
<!DOCTYPE svg PUBLIC "-//W3C//DTD SVG 1.1//EN" "http://www.w3.org/Graphics/SVG/1.1/DTD/svg11.dtd">
<svg width="100%" height="100%" viewBox="0 0 119 91" version="1.1" xmlns="http://www.w3.org/2000/svg" xmlns:xlink="http://www.w3.org/1999/xlink" xml:space="preserve" xmlns:serif="http://www.serif.com/" style="fill-rule:evenodd;clip-rule:evenodd;stroke-linejoin:round;stroke-miterlimit:2;">
    <g transform="matrix(0.245215,0,0,0.245215,44.9097,34.3427)">
        <g transform="matrix(2.75672,0,0,2.12227,-738.752,-4177.54)">
            <path d="M202.454,2076.79L376.678,2076.79C377.179,2076.79 377.585,2076.26 377.585,2075.61C377.585,2074.96 377.179,2074.43 376.678,2074.43L202.454,2074.43C201.953,2074.43 201.547,2074.96 201.547,2075.61C201.547,2076.26 201.953,2076.79 202.454,2076.79Z" style="fill:rgb(77,77,79);"/>
        </g>
        <g transform="matrix(0.652476,0,0,1.2273,-298.612,-2319.93)">
            <path d="M318.941,1906.16L223.725,1906.16C222.304,1906.16 221.153,1906.77 221.153,1907.53L221.153,2075.61C221.153,2076.73 219.436,2077.64 217.322,2077.64C215.207,2077.64 213.49,2076.73 213.49,2075.61C213.49,2075.61 213.49,1931.63 213.49,1907.53C213.49,1904.52 218.072,1902.09 223.725,1902.09C246.577,1902.09 322.772,1902.09 322.772,1902.09C324.888,1902.09 326.604,1903 326.604,1904.12L326.604,2075.61C326.604,2076.73 324.887,2077.64 322.772,2077.64C320.657,2077.64 318.941,2076.73 318.941,2075.61L318.941,1906.16Z" style="fill:rgb(77,77,79);"/>
        </g>
        <g transform="matrix(2.00087,0,0,4.28791,-454.038,-8896.58)">
            <path d="M324.022,2043.82C324.022,2043.44 323.701,2043.08 323.13,2042.81C322.558,2042.55 321.784,2042.4 320.976,2042.4C308.25,2042.4 231.844,2042.4 219.118,2042.4C218.31,2042.4 217.535,2042.55 216.964,2042.81C216.393,2043.08 216.072,2043.44 216.072,2043.82C216.072,2045.71 216.072,2050.14 216.072,2050.14C216.072,2050.46 216.632,2050.72 217.322,2050.72L322.772,2050.72C323.462,2050.72 324.022,2050.46 324.022,2050.14L324.022,2043.82ZM321.523,2049.55L321.523,2043.82C321.523,2043.75 321.465,2043.68 321.363,2043.64C321.26,2043.59 321.121,2043.56 320.976,2043.56C308.25,2043.56 231.844,2043.56 219.118,2043.56C218.973,2043.56 218.834,2043.59 218.731,2043.64C218.629,2043.68 218.571,2043.75 218.571,2043.82L218.571,2049.55L321.523,2049.55Z" style="fill:rgb(77,77,79);"/>
        </g>
        <g transform="matrix(2.00087,0,0,4.28791,-454.038,-8620.33)">
            <path d="M324.114,2042.98C324.114,2042.63 323.513,2042.35 322.772,2042.35L217.322,2042.35C216.58,2042.35 215.979,2042.63 215.979,2042.98L215.979,2050.14C215.979,2050.48 216.58,2050.76 217.322,2050.76L322.772,2050.76C323.513,2050.76 324.114,2050.48 324.114,2050.14L324.114,2042.98ZM218.664,2043.61L218.664,2049.51L321.43,2049.51L321.43,2043.61L218.664,2043.61Z" style="fill:rgb(77,77,79);"/>
        </g>
        <g transform="matrix(2.00087,0,0,4.28791,-454.038,-8651.02)">
            <path d="M324.114,2042.98C324.114,2042.63 323.513,2042.35 322.772,2042.35L217.322,2042.35C216.58,2042.35 215.979,2042.63 215.979,2042.98L215.979,2050.14C215.979,2050.48 216.58,2050.76 217.322,2050.76L322.772,2050.76C323.513,2050.76 324.114,2050.48 324.114,2050.14L324.114,2042.98ZM218.664,2043.61L218.664,2049.51L321.43,2049.51L321.43,2043.61L218.664,2043.61Z" style="fill:rgb(77,77,79);"/>
        </g>
        <g transform="matrix(2.00087,0,0,4.28791,-454.038,-8681.72)">
            <path d="M324.022,2042.98C324.022,2042.66 323.462,2042.4 322.772,2042.4L217.322,2042.4C216.632,2042.4 216.072,2042.66 216.072,2042.98L216.072,2050.14C216.072,2050.46 216.632,2050.72 217.322,2050.72L322.772,2050.72C323.462,2050.72 324.022,2050.46 324.022,2050.14L324.022,2042.98ZM218.571,2043.56L218.571,2049.55L321.523,2049.55L321.523,2043.56L218.571,2043.56Z" style="fill:rgb(77,77,79);"/>
        </g>
        <g transform="matrix(2.00087,0,0,4.28791,-454.038,-8712.41)">
            <path d="M324.022,2042.98C324.022,2042.66 323.462,2042.4 322.772,2042.4L217.322,2042.4C216.632,2042.4 216.072,2042.66 216.072,2042.98L216.072,2050.14C216.072,2050.46 216.632,2050.72 217.322,2050.72L322.772,2050.72C323.462,2050.72 324.022,2050.46 324.022,2050.14L324.022,2042.98ZM218.571,2043.56L218.571,2049.55L321.523,2049.55L321.523,2043.56L218.571,2043.56Z" style="fill:rgb(77,77,79);"/>
        </g>
        <g transform="matrix(2.00087,0,0,4.28791,-454.038,-8743.11)">
            <path d="M324.022,2042.98C324.022,2042.66 323.462,2042.4 322.772,2042.4L217.322,2042.4C216.632,2042.4 216.072,2042.66 216.072,2042.98L216.072,2050.14C216.072,2050.46 216.632,2050.72 217.322,2050.72L322.772,2050.72C323.462,2050.72 324.022,2050.46 324.022,2050.14L324.022,2042.98ZM218.571,2043.56L218.571,2049.55L321.523,2049.55L321.523,2043.56L218.571,2043.56Z" style="fill:rgb(77,77,79);"/>
        </g>
        <g transform="matrix(2.00087,0,0,4.28791,-454.038,-8773.8)">
            <path d="M324.022,2042.98C324.022,2042.66 323.462,2042.4 322.772,2042.4L217.322,2042.4C216.632,2042.4 216.072,2042.66 216.072,2042.98L216.072,2050.14C216.072,2050.46 216.632,2050.72 217.322,2050.72L322.772,2050.72C323.462,2050.72 324.022,2050.46 324.022,2050.14L324.022,2042.98ZM218.571,2043.56L218.571,2049.55L321.523,2049.55L321.523,2043.56L218.571,2043.56Z" style="fill:rgb(77,77,79);"/>
        </g>
        <g transform="matrix(0.652476,0,0,4.28791,-229.808,-8743.11)">
            <path d="M326.604,2042.98C326.604,2042.66 324.888,2042.4 322.772,2042.4L217.322,2042.4C215.205,2042.4 213.49,2042.66 213.49,2042.98L213.49,2050.14C213.49,2050.46 215.205,2050.72 217.322,2050.72L322.772,2050.72C324.888,2050.72 326.604,2050.46 326.604,2050.14L326.604,2042.98ZM221.153,2043.56L221.153,2049.55L318.941,2049.55L318.941,2043.56L221.153,2043.56Z" style="fill:rgb(77,77,79);"/>
        </g>
        <g transform="matrix(1.30495,0,0,4.28791,-440.409,-8712.41)">
            <path d="M324.688,2042.98C324.688,2042.66 323.83,2042.4 322.772,2042.4L217.322,2042.4C216.264,2042.4 215.406,2042.66 215.406,2042.98L215.406,2050.14C215.406,2050.46 216.264,2050.72 217.322,2050.72L322.772,2050.72C323.83,2050.72 324.688,2050.46 324.688,2050.14L324.688,2042.98ZM219.237,2043.56L219.237,2049.55L320.856,2049.55L320.856,2043.56L219.237,2043.56Z" style="fill:rgb(77,77,79);"/>
        </g>
        <g transform="matrix(1.30495,0,0,4.28791,-440.409,-8681.72)">
            <path d="M324.688,2042.98C324.688,2042.66 323.83,2042.4 322.772,2042.4L217.322,2042.4C216.264,2042.4 215.406,2042.66 215.406,2042.98L215.406,2050.14C215.406,2050.46 216.264,2050.72 217.322,2050.72L322.772,2050.72C323.83,2050.72 324.688,2050.46 324.688,2050.14L324.688,2042.98ZM219.237,2043.56L219.237,2049.55L320.856,2049.55L320.856,2043.56L219.237,2043.56Z" style="fill:rgb(77,77,79);"/>
        </g>
        <g transform="matrix(1.30495,0,0,4.28791,-440.409,-8651.02)">
            <path d="M324.688,2042.98C324.688,2042.66 323.83,2042.4 322.772,2042.4L217.322,2042.4C216.264,2042.4 215.406,2042.66 215.406,2042.98L215.406,2050.14C215.406,2050.46 216.264,2050.72 217.322,2050.72L322.772,2050.72C323.83,2050.72 324.688,2050.46 324.688,2050.14L324.688,2042.98ZM219.237,2043.56L219.237,2049.55L320.856,2049.55L320.856,2043.56L219.237,2043.56Z" style="fill:rgb(77,77,79);"/>
        </g>
        <g transform="matrix(0.652476,0,0,4.28791,-229.808,-8620.33)">
            <path d="M326.604,2042.98C326.604,2042.66 324.888,2042.4 322.772,2042.4L217.322,2042.4C215.205,2042.4 213.49,2042.66 213.49,2042.98L213.49,2050.14C213.49,2050.46 215.205,2050.72 217.322,2050.72L322.772,2050.72C324.888,2050.72 326.604,2050.46 326.604,2050.14L326.604,2042.98ZM221.153,2043.56L221.153,2049.55L318.941,2049.55L318.941,2043.56L221.153,2043.56Z" style="fill:rgb(77,77,79);"/>
        </g>
        <g transform="matrix(0.652476,0,0,7.96122,-229.808,-16094.1)">
            <path d="M326.604,2042.98C326.604,2042.81 324.888,2042.67 322.772,2042.67L217.322,2042.67C215.205,2042.67 213.49,2042.81 213.49,2042.98L213.49,2050.14C213.49,2050.31 215.205,2050.45 217.322,2050.45L322.772,2050.45C324.888,2050.45 326.604,2050.31 326.604,2050.14L326.604,2042.98ZM221.153,2043.29L221.153,2049.82L318.941,2049.82L318.941,2043.29L221.153,2043.29Z" style="fill:rgb(77,77,79);"/>
        </g>
        <g transform="matrix(0.652476,0,0,4.28791,-298.612,-8620.33)">
            <path d="M326.604,2042.98C326.604,2042.66 324.888,2042.4 322.772,2042.4L217.322,2042.4C215.205,2042.4 213.49,2042.66 213.49,2042.98L213.49,2050.14C213.49,2050.46 215.205,2050.72 217.322,2050.72L322.772,2050.72C324.888,2050.72 326.604,2050.46 326.604,2050.14L326.604,2042.98ZM221.153,2043.56L221.153,2049.55L318.941,2049.55L318.941,2043.56L221.153,2043.56Z" style="fill:rgb(77,77,79);"/>
        </g>
        <g transform="matrix(0.652476,0,0,4.28791,-229.808,-8589.63)">
            <path d="M326.604,2042.98C326.604,2042.66 324.888,2042.4 322.772,2042.4L217.322,2042.4C215.205,2042.4 213.49,2042.66 213.49,2042.98L213.49,2050.14C213.49,2050.46 215.205,2050.72 217.322,2050.72L322.772,2050.72C324.888,2050.72 326.604,2050.46 326.604,2050.14L326.604,2042.98ZM221.153,2043.56L221.153,2049.55L318.941,2049.55L318.941,2043.56L221.153,2043.56Z" style="fill:rgb(77,77,79);"/>
        </g>
        <g transform="matrix(0.652476,0,0,4.28791,-298.612,-8589.63)">
            <path d="M326.604,2042.98C326.604,2042.66 324.888,2042.4 322.772,2042.4L217.322,2042.4C215.205,2042.4 213.49,2042.66 213.49,2042.98L213.49,2050.14C213.49,2050.46 215.205,2050.72 217.322,2050.72L322.772,2050.72C324.888,2050.72 326.604,2050.46 326.604,2050.14L326.604,2042.98ZM221.153,2043.56L221.153,2049.55L318.941,2049.55L318.941,2043.56L221.153,2043.56Z" style="fill:rgb(77,77,79);"/>
        </g>
        <g transform="matrix(2.00087,0,0,4.28791,-454.038,-8804.5)">
            <path d="M324.022,2042.98C324.022,2042.66 323.462,2042.4 322.772,2042.4L217.322,2042.4C216.632,2042.4 216.072,2042.66 216.072,2042.98L216.072,2050.14C216.072,2050.46 216.632,2050.72 217.322,2050.72L322.772,2050.72C323.462,2050.72 324.022,2050.46 324.022,2050.14L324.022,2042.98ZM218.571,2043.56L218.571,2049.55L321.523,2049.55L321.523,2043.56L218.571,2043.56Z" style="fill:rgb(77,77,79);"/>
        </g>
        <g transform="matrix(2.00087,0,0,4.28791,-454.038,-8835.19)">
            <path d="M324.022,2042.98C324.022,2042.66 323.462,2042.4 322.772,2042.4L217.322,2042.4C216.632,2042.4 216.072,2042.66 216.072,2042.98L216.072,2050.14C216.072,2050.46 216.632,2050.72 217.322,2050.72L322.772,2050.72C323.462,2050.72 324.022,2050.46 324.022,2050.14L324.022,2042.98ZM218.571,2043.56L218.571,2049.55L321.523,2049.55L321.523,2043.56L218.571,2043.56Z" style="fill:rgb(77,77,79);"/>
        </g>
        <g transform="matrix(2.00087,0,0,4.28791,-454.038,-8865.89)">
            <path d="M324.022,2042.98C324.022,2042.66 323.462,2042.4 322.772,2042.4L217.322,2042.4C216.632,2042.4 216.072,2042.66 216.072,2042.98L216.072,2050.14C216.072,2050.46 216.632,2050.72 217.322,2050.72L322.772,2050.72C323.462,2050.72 324.022,2050.46 324.022,2050.14L324.022,2042.98ZM218.571,2043.56L218.571,2049.55L321.523,2049.55L321.523,2043.56L218.571,2043.56Z" style="fill:rgb(77,77,79);"/>
        </g>
        <g transform="matrix(0.379838,0,0,4.28791,149.292,-8865.89)">
            <path d="M329.354,2043.82C329.354,2043.44 327.664,2043.08 324.655,2042.81C321.646,2042.55 317.565,2042.4 313.31,2042.4C287.417,2042.4 217.322,2042.4 217.322,2042.4C213.687,2042.4 210.74,2042.66 210.74,2042.98L210.74,2050.14C210.74,2050.46 213.687,2050.72 217.322,2050.72L322.772,2050.72C326.407,2050.72 329.354,2050.46 329.354,2050.14L329.354,2043.82ZM223.903,2043.56L223.903,2049.55L316.19,2049.55L316.19,2043.82C316.19,2043.75 315.887,2043.68 315.347,2043.64C314.806,2043.59 314.074,2043.56 313.31,2043.56L223.903,2043.56Z" style="fill:rgb(77,77,79);"/>
        </g>
        <g transform="matrix(0.379838,0,0,4.28791,149.292,-8835.19)">
            <path d="M329.354,2042.98C329.354,2042.66 326.407,2042.4 322.772,2042.4L217.322,2042.4C213.687,2042.4 210.74,2042.66 210.74,2042.98L210.74,2050.14C210.74,2050.46 213.687,2050.72 217.322,2050.72L322.772,2050.72C326.407,2050.72 329.354,2050.46 329.354,2050.14L329.354,2042.98ZM223.903,2043.56L223.903,2049.55L316.19,2049.55L316.19,2043.56L223.903,2043.56Z" style="fill:rgb(77,77,79);"/>
        </g>
        <g transform="matrix(0.379838,0,0,4.28791,149.292,-8804.5)">
            <path d="M329.354,2042.98C329.354,2042.66 326.407,2042.4 322.772,2042.4L217.322,2042.4C213.687,2042.4 210.74,2042.66 210.74,2042.98L210.74,2050.14C210.74,2050.46 213.687,2050.72 217.322,2050.72L322.772,2050.72C326.407,2050.72 329.354,2050.46 329.354,2050.14L329.354,2042.98ZM223.903,2043.56L223.903,2049.55L316.19,2049.55L316.19,2043.56L223.903,2043.56Z" style="fill:rgb(77,77,79);"/>
        </g>
        <g transform="matrix(0.379838,0,0,4.28791,149.292,-8773.8)">
            <path d="M329.354,2042.98C329.354,2042.66 326.407,2042.4 322.772,2042.4L217.322,2042.4C213.687,2042.4 210.74,2042.66 210.74,2042.98L210.74,2050.14C210.74,2050.46 213.687,2050.72 217.322,2050.72L322.772,2050.72C326.407,2050.72 329.354,2050.46 329.354,2050.14L329.354,2042.98ZM223.903,2043.56L223.903,2049.55L316.19,2049.55L316.19,2043.56L223.903,2043.56Z" style="fill:rgb(77,77,79);"/>
        </g>
        <g transform="matrix(0.379838,0,0,4.28791,149.292,-8743.11)">
            <path d="M329.354,2042.98C329.354,2042.66 326.407,2042.4 322.772,2042.4L217.322,2042.4C213.687,2042.4 210.74,2042.66 210.74,2042.98L210.74,2050.14C210.74,2050.46 213.687,2050.72 217.322,2050.72L322.772,2050.72C326.407,2050.72 329.354,2050.46 329.354,2050.14L329.354,2042.98ZM223.903,2043.56L223.903,2049.55L316.19,2049.55L316.19,2043.56L223.903,2043.56Z" style="fill:rgb(77,77,79);"/>
        </g>
        <g transform="matrix(0.379838,0,0,4.28791,149.292,-8712.41)">
            <path d="M329.354,2042.98C329.354,2042.66 326.407,2042.4 322.772,2042.4L217.322,2042.4C213.687,2042.4 210.74,2042.66 210.74,2042.98L210.74,2050.14C210.74,2050.46 213.687,2050.72 217.322,2050.72L322.772,2050.72C326.407,2050.72 329.354,2050.46 329.354,2050.14L329.354,2042.98ZM223.903,2043.56L223.903,2049.55L316.19,2049.55L316.19,2043.56L223.903,2043.56Z" style="fill:rgb(77,77,79);"/>
        </g>
        <g transform="matrix(0.379838,0,0,4.28791,149.292,-8681.72)">
            <path d="M329.354,2042.98C329.354,2042.66 326.407,2042.4 322.772,2042.4L217.322,2042.4C213.687,2042.4 210.74,2042.66 210.74,2042.98L210.74,2050.14C210.74,2050.46 213.687,2050.72 217.322,2050.72L322.772,2050.72C326.407,2050.72 329.354,2050.46 329.354,2050.14L329.354,2042.98ZM223.903,2043.56L223.903,2049.55L316.19,2049.55L316.19,2043.56L223.903,2043.56Z" style="fill:rgb(77,77,79);"/>
        </g>
        <g transform="matrix(0.379838,0,0,4.28791,149.292,-8651.02)">
            <path d="M329.354,2042.98C329.354,2042.66 326.407,2042.4 322.772,2042.4L217.322,2042.4C213.687,2042.4 210.74,2042.66 210.74,2042.98L210.74,2050.14C210.74,2050.46 213.687,2050.72 217.322,2050.72L322.772,2050.72C326.407,2050.72 329.354,2050.46 329.354,2050.14L329.354,2042.98ZM223.903,2043.56L223.903,2049.55L316.19,2049.55L316.19,2043.56L223.903,2043.56Z" style="fill:rgb(77,77,79);"/>
        </g>
        <g transform="matrix(0.379838,0,0,4.28791,149.292,-8620.33)">
            <path d="M329.354,2042.98C329.354,2042.66 326.407,2042.4 322.772,2042.4L217.322,2042.4C213.687,2042.4 210.74,2042.66 210.74,2042.98L210.74,2050.14C210.74,2050.46 213.687,2050.72 217.322,2050.72L322.772,2050.72C326.407,2050.72 329.354,2050.46 329.354,2050.14L329.354,2042.98ZM223.903,2043.56L223.903,2049.55L316.19,2049.55L316.19,2043.56L223.903,2043.56Z" style="fill:rgb(77,77,79);"/>
        </g>
        <g transform="matrix(0.379838,0,0,3.67331,149.292,-7303.33)">
            <path d="M329.354,2042.98C329.354,2042.6 326.407,2042.3 322.772,2042.3L217.322,2042.3C213.687,2042.3 210.74,2042.6 210.74,2042.98L210.74,2050.14C210.74,2050.51 213.687,2050.82 217.322,2050.82L322.772,2050.82C326.407,2050.82 329.354,2050.51 329.354,2050.14L329.354,2042.98ZM223.903,2043.66L223.903,2049.46L316.19,2049.46L316.19,2043.66L223.903,2043.66Z" style="fill:rgb(77,77,79);"/>
        </g>
        <g transform="matrix(0.379838,0,0,4.28791,109.238,-8865.89)">
            <path d="M329.354,2042.98C329.354,2042.66 326.407,2042.4 322.772,2042.4L217.322,2042.4C213.687,2042.4 210.74,2042.66 210.74,2042.98L210.74,2050.14C210.74,2050.46 213.687,2050.72 217.322,2050.72L322.772,2050.72C326.407,2050.72 329.354,2050.46 329.354,2050.14L329.354,2042.98ZM223.903,2043.56L223.903,2049.55L316.19,2049.55L316.19,2043.56L223.903,2043.56Z" style="fill:rgb(77,77,79);"/>
        </g>
        <g transform="matrix(0.379838,0,0,4.28791,109.238,-8835.19)">
            <path d="M329.354,2042.98C329.354,2042.66 326.407,2042.4 322.772,2042.4L217.322,2042.4C213.687,2042.4 210.74,2042.66 210.74,2042.98L210.74,2050.14C210.74,2050.46 213.687,2050.72 217.322,2050.72L322.772,2050.72C326.407,2050.72 329.354,2050.46 329.354,2050.14L329.354,2042.98ZM223.903,2043.56L223.903,2049.55L316.19,2049.55L316.19,2043.56L223.903,2043.56Z" style="fill:rgb(77,77,79);"/>
        </g>
        <g transform="matrix(0.379838,0,0,4.28791,109.238,-8804.5)">
            <path d="M329.354,2042.98C329.354,2042.66 326.407,2042.4 322.772,2042.4L217.322,2042.4C213.687,2042.4 210.74,2042.66 210.74,2042.98L210.74,2050.14C210.74,2050.46 213.687,2050.72 217.322,2050.72L322.772,2050.72C326.407,2050.72 329.354,2050.46 329.354,2050.14L329.354,2042.98ZM223.903,2043.56L223.903,2049.55L316.19,2049.55L316.19,2043.56L223.903,2043.56Z" style="fill:rgb(77,77,79);"/>
        </g>
        <g transform="matrix(0.379838,0,0,4.28791,109.238,-8773.8)">
            <path d="M329.354,2042.98C329.354,2042.66 326.407,2042.4 322.772,2042.4L217.322,2042.4C213.687,2042.4 210.74,2042.66 210.74,2042.98L210.74,2050.14C210.74,2050.46 213.687,2050.72 217.322,2050.72L322.772,2050.72C326.407,2050.72 329.354,2050.46 329.354,2050.14L329.354,2042.98ZM223.903,2043.56L223.903,2049.55L316.19,2049.55L316.19,2043.56L223.903,2043.56Z" style="fill:rgb(77,77,79);"/>
        </g>
        <g transform="matrix(0.379838,0,0,4.28791,109.238,-8743.11)">
            <path d="M329.354,2042.98C329.354,2042.66 326.407,2042.4 322.772,2042.4L217.322,2042.4C213.687,2042.4 210.74,2042.66 210.74,2042.98L210.74,2050.14C210.74,2050.46 213.687,2050.72 217.322,2050.72L322.772,2050.72C326.407,2050.72 329.354,2050.46 329.354,2050.14L329.354,2042.98ZM223.903,2043.56L223.903,2049.55L316.19,2049.55L316.19,2043.56L223.903,2043.56Z" style="fill:rgb(77,77,79);"/>
        </g>
        <g transform="matrix(0.379838,0,0,4.28791,109.238,-8712.41)">
            <path d="M329.354,2042.98C329.354,2042.66 326.407,2042.4 322.772,2042.4L217.322,2042.4C213.687,2042.4 210.74,2042.66 210.74,2042.98L210.74,2050.14C210.74,2050.46 213.687,2050.72 217.322,2050.72L322.772,2050.72C326.407,2050.72 329.354,2050.46 329.354,2050.14L329.354,2042.98ZM223.903,2043.56L223.903,2049.55L316.19,2049.55L316.19,2043.56L223.903,2043.56Z" style="fill:rgb(77,77,79);"/>
        </g>
        <g transform="matrix(0.379838,0,0,4.28791,109.238,-8681.72)">
            <path d="M329.354,2042.98C329.354,2042.66 326.407,2042.4 322.772,2042.4L217.322,2042.4C213.687,2042.4 210.74,2042.66 210.74,2042.98L210.74,2050.14C210.74,2050.46 213.687,2050.72 217.322,2050.72L322.772,2050.72C326.407,2050.72 329.354,2050.46 329.354,2050.14L329.354,2042.98ZM223.903,2043.56L223.903,2049.55L316.19,2049.55L316.19,2043.56L223.903,2043.56Z" style="fill:rgb(77,77,79);"/>
        </g>
        <g transform="matrix(0.379838,0,0,4.28791,109.238,-8651.02)">
            <path d="M329.354,2042.98C329.354,2042.66 326.407,2042.4 322.772,2042.4L217.322,2042.4C213.687,2042.4 210.74,2042.66 210.74,2042.98L210.74,2050.14C210.74,2050.46 213.687,2050.72 217.322,2050.72L322.772,2050.72C326.407,2050.72 329.354,2050.46 329.354,2050.14L329.354,2042.98ZM223.903,2043.56L223.903,2049.55L316.19,2049.55L316.19,2043.56L223.903,2043.56Z" style="fill:rgb(77,77,79);"/>
        </g>
        <g transform="matrix(0.379838,0,0,4.28791,109.238,-8620.33)">
            <path d="M329.354,2042.98C329.354,2042.66 326.407,2042.4 322.772,2042.4L217.322,2042.4C213.687,2042.4 210.74,2042.66 210.74,2042.98L210.74,2050.14C210.74,2050.46 213.687,2050.72 217.322,2050.72L322.772,2050.72C326.407,2050.72 329.354,2050.46 329.354,2050.14L329.354,2042.98ZM223.903,2043.56L223.903,2049.55L316.19,2049.55L316.19,2043.56L223.903,2043.56Z" style="fill:rgb(77,77,79);"/>
        </g>
        <g transform="matrix(0.379838,0,0,3.67331,109.238,-7303.33)">
            <path d="M329.354,2042.98C329.354,2042.6 326.407,2042.3 322.772,2042.3L217.322,2042.3C213.687,2042.3 210.74,2042.6 210.74,2042.98L210.74,2050.14C210.74,2050.51 213.687,2050.82 217.322,2050.82L322.772,2050.82C326.407,2050.82 329.354,2050.51 329.354,2050.14L329.354,2042.98ZM223.903,2043.66L223.903,2049.46L316.19,2049.46L316.19,2043.66L223.903,2043.66Z" style="fill:rgb(77,77,79);"/>
        </g>
        <g transform="matrix(0.379838,0,0,4.28791,149.292,-8589.63)">
            <path d="M329.354,2042.98C329.354,2042.66 326.407,2042.4 322.772,2042.4L217.322,2042.4C213.687,2042.4 210.74,2042.66 210.74,2042.98L210.74,2050.14C210.74,2050.46 213.687,2050.72 217.322,2050.72L322.772,2050.72C326.407,2050.72 329.354,2050.46 329.354,2050.14L329.354,2042.98ZM223.903,2043.56L223.903,2049.55L316.19,2049.55L316.19,2043.56L223.903,2043.56Z" style="fill:rgb(77,77,79);"/>
        </g>
        <g transform="matrix(0.379838,0,0,4.28791,109.238,-8589.63)">
            <path d="M329.354,2042.98C329.354,2042.66 326.407,2042.4 322.772,2042.4L217.322,2042.4C213.687,2042.4 210.74,2042.66 210.74,2042.98L210.74,2050.14C210.74,2050.46 213.687,2050.72 217.322,2050.72L322.772,2050.72C326.407,2050.72 329.354,2050.46 329.354,2050.14L329.354,2042.98ZM223.903,2043.56L223.903,2049.55L316.19,2049.55L316.19,2043.56L223.903,2043.56Z" style="fill:rgb(77,77,79);"/>
        </g>
        <g transform="matrix(0.744119,0,0,7.96122,-116.971,-16094.1)">
            <path d="M326.132,2042.98C326.132,2042.81 324.628,2042.67 322.772,2042.67L217.322,2042.67C215.466,2042.67 213.962,2042.81 213.962,2042.98L213.962,2050.14C213.962,2050.31 215.466,2050.45 217.322,2050.45L322.772,2050.45C324.628,2050.45 326.132,2050.31 326.132,2050.14L326.132,2042.98ZM220.681,2043.29L220.681,2049.82L319.412,2049.82L319.412,2043.29L220.681,2043.29Z" style="fill:rgb(77,77,79);"/>
        </g>
    </g>
</svg>
