<?xml version="1.0" encoding="UTF-8" standalone="no"?>
<!DOCTYPE svg PUBLIC "-//W3C//DTD SVG 1.1//EN" "http://www.w3.org/Graphics/SVG/1.1/DTD/svg11.dtd">
<svg width="100%" height="100%" viewBox="0 0 119 91" version="1.1" xmlns="http://www.w3.org/2000/svg" xmlns:xlink="http://www.w3.org/1999/xlink" xml:space="preserve" xmlns:serif="http://www.serif.com/" style="fill-rule:evenodd;clip-rule:evenodd;stroke-linejoin:round;stroke-miterlimit:2;">
    <g transform="matrix(0.241898,0,0,0.241898,-437.273,-187.593)">
        <g transform="matrix(2.00087,0,0,2.00087,-1376.89,-1657.4)">
            <path d="M1592.84,1306.26C1592.15,1306.26 1591.59,1306.82 1591.59,1307.51L1591.59,1393.2C1591.59,1393.89 1592.15,1394.45 1592.84,1394.45C1592.84,1394.45 1794.65,1394.45 1832.54,1394.45C1834.26,1394.45 1835.86,1393.55 1836.75,1392.07C1837.64,1390.6 1837.69,1388.76 1836.89,1387.23C1828.22,1370.79 1802.3,1321.62 1795.97,1309.6C1794.88,1307.55 1792.75,1306.26 1790.43,1306.26C1765.37,1306.26 1592.84,1306.26 1592.84,1306.26ZM1594.09,1308.76L1594.09,1391.95L1832.54,1391.95C1833.38,1391.95 1834.17,1391.51 1834.61,1390.78C1835.05,1390.05 1835.08,1389.15 1834.68,1388.4C1826.01,1371.95 1800.09,1322.78 1793.76,1310.77C1793.11,1309.53 1791.83,1308.76 1790.43,1308.76L1594.09,1308.76Z" style="fill:rgb(77,77,79);"/>
        </g>
        <g transform="matrix(2.78172,0,0,2.78172,-2805.08,-2745.28)">
            <path d="M1826.33,1374.09L1806.61,1374.09C1804.46,1374.09 1802.44,1375.14 1801.2,1376.91C1797.72,1381.87 1790.14,1392.69 1790.14,1392.69C1789.85,1393.09 1789.95,1393.65 1790.36,1393.94C1790.76,1394.22 1791.32,1394.12 1791.61,1393.72C1791.61,1393.72 1799.19,1382.9 1802.67,1377.94C1803.57,1376.65 1805.04,1375.89 1806.61,1375.89L1826.33,1375.89C1826.82,1375.89 1827.23,1375.49 1827.23,1374.99C1827.23,1374.49 1826.82,1374.09 1826.33,1374.09Z" style="fill:rgb(77,77,79);"/>
        </g>
        <g transform="matrix(2.00087,0,0,2.39627,-1412.73,-2181.33)">
            <path d="M1629.01,1327.12C1629.01,1326.3 1628.62,1325.51 1627.92,1324.92C1627.22,1324.34 1626.27,1324.01 1625.28,1324.01C1620.57,1324.01 1610.76,1324.01 1610.76,1324.01C1610.07,1324.01 1609.51,1324.48 1609.51,1325.06L1609.51,1351.21C1609.51,1351.78 1610.07,1352.25 1610.76,1352.25L1625.28,1352.25C1626.27,1352.25 1627.22,1351.92 1627.92,1351.34C1628.62,1350.76 1629.01,1349.96 1629.01,1349.14L1629.01,1327.12ZM1612.01,1326.1L1612.01,1350.16L1625.28,1350.16C1625.61,1350.16 1625.92,1350.06 1626.15,1349.86C1626.38,1349.67 1626.51,1349.41 1626.51,1349.14L1626.51,1327.12C1626.51,1326.85 1626.38,1326.59 1626.15,1326.4C1625.92,1326.21 1625.61,1326.1 1625.28,1326.1L1612.01,1326.1Z" style="fill:rgb(77,77,79);"/>
        </g>
        <g transform="matrix(2.00087,0,0,2.39627,-1167.77,-2181.33)">
            <path d="M1650.8,1327.12C1650.8,1325.4 1649.13,1324.01 1647.07,1324.01C1640.34,1324.01 1621.8,1324.01 1615.07,1324.01C1613.01,1324.01 1611.34,1325.4 1611.34,1327.12L1611.34,1349.14C1611.34,1350.86 1613.01,1352.25 1615.07,1352.25C1621.8,1352.25 1640.34,1352.25 1647.07,1352.25C1649.13,1352.25 1650.8,1350.86 1650.8,1349.14L1650.8,1327.12ZM1648.3,1327.12L1648.3,1349.14C1648.3,1349.7 1647.75,1350.16 1647.07,1350.16C1640.34,1350.16 1621.8,1350.16 1615.07,1350.16C1614.39,1350.16 1613.84,1349.7 1613.84,1349.14L1613.84,1327.12C1613.84,1326.56 1614.39,1326.1 1615.07,1326.1C1621.8,1326.1 1640.34,1326.1 1647.07,1326.1C1647.75,1326.1 1648.3,1326.56 1648.3,1327.12Z" style="fill:rgb(77,77,79);"/>
        </g>
        <g transform="matrix(2.00087,0,0,2.39627,-1370.87,-2181.33)">
            <path d="M1650.8,1327.12C1650.8,1325.4 1649.13,1324.01 1647.07,1324.01C1640.34,1324.01 1621.8,1324.01 1615.07,1324.01C1613.01,1324.01 1611.34,1325.4 1611.34,1327.12L1611.34,1349.14C1611.34,1350.86 1613.01,1352.25 1615.07,1352.25C1621.8,1352.25 1640.34,1352.25 1647.07,1352.25C1649.13,1352.25 1650.8,1350.86 1650.8,1349.14L1650.8,1327.12ZM1648.3,1327.12L1648.3,1349.14C1648.3,1349.7 1647.75,1350.16 1647.07,1350.16C1640.34,1350.16 1621.8,1350.16 1615.07,1350.16C1614.39,1350.16 1613.84,1349.7 1613.84,1349.14L1613.84,1327.12C1613.84,1326.56 1614.39,1326.1 1615.07,1326.1C1621.8,1326.1 1640.34,1326.1 1647.07,1326.1C1647.75,1326.1 1648.3,1326.56 1648.3,1327.12Z" style="fill:rgb(77,77,79);"/>
        </g>
        <g transform="matrix(3.12558,0,0,5.21416,-3108.5,-5915.19)">
            <path d="M1650.35,1326.01C1650.35,1325.22 1649.28,1324.58 1647.96,1324.58C1642.27,1324.58 1622.88,1324.58 1617.18,1324.58C1615.86,1324.58 1614.79,1325.22 1614.79,1326.01C1614.79,1330.7 1614.79,1351.21 1614.79,1351.21C1614.79,1351.47 1615.15,1351.69 1615.59,1351.69L1649.55,1351.69C1649.99,1351.69 1650.35,1351.47 1650.35,1351.21L1650.35,1326.01ZM1648.75,1326.01C1648.75,1325.75 1648.39,1325.54 1647.96,1325.54C1642.27,1325.54 1622.88,1325.54 1617.18,1325.54C1616.75,1325.54 1616.39,1325.75 1616.39,1326.01L1616.39,1350.73L1648.75,1350.73L1648.75,1326.01Z" style="fill:rgb(77,77,79);"/>
        </g>
        <g transform="matrix(2.00087,0,0,2.00087,-1376.89,-1657.4)">
            <path d="M1797.12,1315.22C1797.12,1315.22 1792.08,1320.1 1789.44,1322.65C1788.68,1323.39 1787.65,1323.81 1786.58,1323.81L1762.45,1323.81C1761.46,1323.81 1760.52,1324.2 1759.82,1324.9C1759.12,1325.6 1758.73,1326.54 1758.73,1327.53C1758.73,1333.39 1758.73,1348.04 1758.73,1353.9C1758.73,1354.88 1759.12,1355.83 1759.82,1356.53C1760.52,1357.23 1761.46,1357.62 1762.45,1357.62C1770.36,1357.62 1795.07,1357.62 1804.81,1357.62C1807.16,1357.62 1809.45,1358.35 1811.38,1359.69C1816.18,1363.05 1824.56,1368.9 1824.56,1368.9C1825.12,1369.3 1825.9,1369.16 1826.3,1368.6C1826.69,1368.03 1826.56,1367.25 1825.99,1366.86C1825.99,1366.86 1817.61,1361 1812.81,1357.64C1810.46,1356 1807.67,1355.12 1804.81,1355.12C1795.07,1355.12 1770.36,1355.12 1762.45,1355.12C1762.13,1355.12 1761.81,1355 1761.58,1354.77C1761.35,1354.54 1761.22,1354.22 1761.22,1353.9C1761.22,1348.04 1761.22,1333.39 1761.22,1327.53C1761.22,1327.21 1761.35,1326.89 1761.58,1326.66C1761.81,1326.43 1762.13,1326.31 1762.45,1326.31C1768,1326.31 1781.33,1326.31 1786.58,1326.31C1788.3,1326.31 1789.95,1325.64 1791.18,1324.44C1793.82,1321.89 1798.86,1317.02 1798.86,1317.02C1799.35,1316.54 1799.37,1315.75 1798.89,1315.25C1798.41,1314.75 1797.62,1314.74 1797.12,1315.22Z" style="fill:rgb(77,77,79);"/>
        </g>
        <g transform="matrix(2.00087,0,0,2.00087,-1422.41,-1657.4)">
            <path d="M1616.84,1401.44L1741.81,1401.44C1742.5,1401.44 1743.06,1402 1743.06,1402.69C1743.06,1403.38 1742.5,1403.94 1741.81,1403.94L1615.59,1403.94C1614.9,1403.94 1614.34,1403.38 1614.34,1402.69L1614.34,1307.51C1614.34,1307.29 1614.4,1307.08 1614.51,1306.89C1614.51,1306.89 1627.46,1284.24 1632.75,1274.99C1634.34,1272.2 1637.3,1270.49 1640.51,1270.49C1649.9,1270.49 1671.58,1270.49 1680.69,1270.49C1683.69,1270.49 1686.5,1272 1688.15,1274.51C1694.06,1283.49 1709.4,1306.82 1709.4,1306.82C1709.78,1307.4 1709.62,1308.18 1709.04,1308.56C1708.46,1308.93 1707.69,1308.77 1707.31,1308.2C1707.31,1308.2 1691.97,1284.87 1686.07,1275.88C1684.88,1274.07 1682.85,1272.98 1680.69,1272.98L1640.51,1272.98C1638.2,1272.98 1636.07,1274.22 1634.92,1276.23L1616.84,1307.84L1616.84,1401.44Z" style="fill:rgb(77,77,79);"/>
        </g>
        <g transform="matrix(1.80917,0,0,1.80917,-1112.7,-1388.5)">
            <path d="M1631.09,1273.12L1616.98,1297.79L1616.98,1401.31L1741.81,1401.31C1742.58,1401.31 1743.19,1401.93 1743.19,1402.69C1743.19,1403.45 1742.58,1404.07 1741.81,1404.07L1615.59,1404.07C1614.83,1404.07 1614.21,1403.45 1614.21,1402.69L1614.21,1297.43C1614.21,1297.18 1614.27,1296.95 1614.39,1296.74L1629.08,1271.05C1629.33,1270.62 1629.79,1270.35 1630.28,1270.35L1680.25,1270.35C1683.58,1270.35 1686.68,1272.03 1688.51,1274.81C1693.21,1281.97 1702.88,1296.67 1702.88,1296.67C1703.3,1297.3 1703.12,1298.16 1702.48,1298.58C1701.84,1299 1700.99,1298.82 1700.57,1298.18C1700.57,1298.18 1690.9,1283.49 1686.2,1276.33C1684.88,1274.32 1682.64,1273.12 1680.25,1273.12L1631.09,1273.12Z" style="fill:rgb(77,77,79);"/>
        </g>
        <g transform="matrix(2.00087,0,0,2.00087,-1376.89,-1657.4)">
            <path d="M1683.58,1325.06L1683.58,1393.2C1683.58,1393.89 1684.14,1394.45 1684.83,1394.45C1685.52,1394.45 1686.08,1393.89 1686.08,1393.2L1686.08,1325.06C1686.08,1324.37 1685.52,1323.81 1684.83,1323.81C1684.14,1323.81 1683.58,1324.37 1683.58,1325.06Z" style="fill:rgb(77,77,79);"/>
        </g>
        <g transform="matrix(2.00087,0,0,2.00087,-770.466,-1684.54)">
            <path d="M1408.27,1389.8L1485.67,1389.8C1486.36,1389.8 1486.92,1389.24 1486.92,1388.55C1486.92,1387.86 1486.36,1387.3 1485.67,1387.3L1408.27,1387.3C1407.58,1387.3 1407.02,1387.86 1407.02,1388.55C1407.02,1389.24 1407.58,1389.8 1408.27,1389.8Z" style="fill:rgb(77,77,79);"/>
        </g>
        <g transform="matrix(2.00087,0,0,2.00087,-770.466,-1684.54)">
            <path d="M1355.23,1387.3L1289.76,1387.3C1289.07,1387.3 1288.51,1387.86 1288.51,1388.55C1288.51,1389.24 1289.07,1389.8 1289.76,1389.8L1355.23,1389.8C1355.92,1389.8 1356.48,1389.24 1356.48,1388.55C1356.48,1387.86 1355.92,1387.3 1355.23,1387.3Z" style="fill:rgb(77,77,79);"/>
        </g>
        <g transform="matrix(3.21568,0,0,2.00087,-1318.88,-1694.22)">
            <path d="M1111.78,1419.85L1063.14,1419.85C1062.72,1419.85 1062.37,1420.4 1062.37,1421.09C1062.37,1421.78 1062.72,1422.34 1063.14,1422.34L1111.78,1422.34C1112.21,1422.34 1112.56,1421.78 1112.56,1421.09C1112.56,1420.4 1112.21,1419.85 1111.78,1419.85Z" style="fill:rgb(77,77,79);"/>
        </g>
    </g>
</svg>
