<?xml version="1.0" encoding="UTF-8" standalone="no"?>
<!DOCTYPE svg PUBLIC "-//W3C//DTD SVG 1.1//EN" "http://www.w3.org/Graphics/SVG/1.1/DTD/svg11.dtd">
<svg width="100%" height="100%" viewBox="0 0 119 91" version="1.1" xmlns="http://www.w3.org/2000/svg" xmlns:xlink="http://www.w3.org/1999/xlink" xml:space="preserve" xmlns:serif="http://www.serif.com/" style="fill-rule:evenodd;clip-rule:evenodd;stroke-linejoin:round;stroke-miterlimit:2;">
    <g transform="matrix(0.243022,0,0,0.243022,45.0402,34.4425)">
        <g transform="matrix(2.00087,0,0,3.13776,-2335.52,-2675.47)">
            <path d="M1109.24,886.341L1130.99,886.341C1131.68,886.341 1132.24,885.984 1132.24,885.544C1132.24,885.105 1131.68,884.748 1130.99,884.748L1109.24,884.748C1108.55,884.748 1107.99,885.105 1107.99,885.544C1107.99,885.984 1108.55,886.341 1109.24,886.341Z" style="fill:rgb(95,95,97);"/>
        </g>
        <g transform="matrix(2.00087,0,0,3.13776,-2335.52,-2614.44)">
            <path d="M1109.24,886.341L1130.99,886.341C1131.68,886.341 1132.24,885.984 1132.24,885.544C1132.24,885.105 1131.68,884.748 1130.99,884.748L1109.24,884.748C1108.55,884.748 1107.99,885.105 1107.99,885.544C1107.99,885.984 1108.55,886.341 1109.24,886.341Z" style="fill:rgb(95,95,97);"/>
        </g>
        <g transform="matrix(1.89591,0,0,2.10737,-2209.01,-1808.73)">
            <path d="M1240.16,808.046L1152.9,808.046C1152.17,808.046 1151.58,808.578 1151.58,809.233C1151.58,809.887 1152.17,810.419 1152.9,810.419L1240.16,810.419C1240.88,810.419 1241.48,809.887 1241.48,809.233C1241.48,808.578 1240.88,808.046 1240.16,808.046Z" style="fill:rgb(95,95,97);"/>
        </g>
        <g transform="matrix(2.79733,0,0,2.10737,-3287.59,-1781.72)">
            <path d="M1240.16,808.046L1152.9,808.046C1152.41,808.046 1152.01,808.578 1152.01,809.233C1152.01,809.887 1152.41,810.419 1152.9,810.419L1240.16,810.419C1240.65,810.419 1241.05,809.887 1241.05,809.233C1241.05,808.578 1240.65,808.046 1240.16,808.046Z" style="fill:rgb(95,95,97);"/>
        </g>
        <g transform="matrix(3.62527,0,0,2.10737,-4278.24,-1756.9)">
            <path d="M1240.16,808.046L1152.9,808.046C1152.52,808.046 1152.21,808.578 1152.21,809.233C1152.21,809.887 1152.52,810.419 1152.9,810.419L1240.16,810.419C1240.54,810.419 1240.85,809.887 1240.85,809.233C1240.85,808.578 1240.54,808.046 1240.16,808.046Z" style="fill:rgb(95,95,97);"/>
        </g>
        <g transform="matrix(2.00087,0,0,2.10737,-2334.59,-1806.66)">
            <path d="M1229.23,793.245C1229.23,791.48 1227.72,790.05 1225.86,790.05L1211.56,790.05C1209.7,790.05 1208.19,791.48 1208.19,793.245L1208.19,808.249C1208.19,808.904 1208.75,809.435 1209.44,809.435L1227.98,809.435C1228.66,809.435 1229.23,808.904 1229.23,808.249L1229.23,793.245ZM1226.73,793.245C1226.73,792.791 1226.34,792.422 1225.86,792.422L1211.56,792.422C1211.08,792.422 1210.69,792.791 1210.69,793.245L1210.69,807.062L1226.73,807.062L1226.73,793.245Z" style="fill:rgb(95,95,97);"/>
        </g>
        <g transform="matrix(2.00087,0,0,3.13776,-2334.59,-2675.64)">
            <path d="M1141.56,854.524C1141.56,854.084 1141,853.727 1140.31,853.727L1098.98,853.727C1098.29,853.727 1097.73,854.084 1097.73,854.524L1097.73,926.095C1097.73,926.535 1098.29,926.892 1098.98,926.892L1140.31,926.892C1141,926.892 1141.56,926.535 1141.56,926.095L1141.56,854.524ZM1100.23,855.321L1100.23,925.298L1139.06,925.298L1139.06,855.321L1100.23,855.321Z" style="fill:rgb(95,95,97);"/>
        </g>
        <g transform="matrix(-2.00087,0,0,3.13776,2453.59,-2675.64)">
            <path d="M1140.31,853.727C1141,853.727 1141.56,854.084 1141.56,854.524L1141.56,926.095C1141.56,926.535 1141,926.892 1140.31,926.892L1098.98,926.892C1098.29,926.892 1097.73,926.535 1097.73,926.095L1097.73,854.524C1097.73,854.084 1098.29,853.727 1098.98,853.727L1140.31,853.727ZM1139.06,855.321L1139.06,925.298L1100.23,925.298L1100.23,855.321L1139.06,855.321Z" style="fill:rgb(95,95,97);"/>
        </g>
        <g transform="matrix(5.44317,0,0,3.13776,-6034.94,-2675.64)">
            <path d="M1140.77,854.524C1140.77,854.084 1140.57,853.727 1140.31,853.727L1098.98,853.727C1098.73,853.727 1098.52,854.084 1098.52,854.524L1098.52,926.095C1098.52,926.535 1098.73,926.892 1098.98,926.892L1140.31,926.892C1140.57,926.892 1140.77,926.535 1140.77,926.095L1140.77,854.524ZM1099.44,855.321L1099.44,925.298L1139.85,925.298L1139.85,855.321L1099.44,855.321Z" style="fill:rgb(95,95,97);"/>
        </g>
        <g transform="matrix(5.44317,0,0,1.56888,-6034.94,-1334.99)">
            <path d="M1140.77,854.524C1140.77,853.644 1140.57,852.931 1140.31,852.931L1098.98,852.931C1098.73,852.931 1098.52,853.644 1098.52,854.524L1098.52,926.095C1098.52,926.975 1098.73,927.689 1098.98,927.689L1140.31,927.689C1140.57,927.689 1140.77,926.975 1140.77,926.095L1140.77,854.524ZM1099.44,856.118L1099.44,924.502L1139.85,924.502L1139.85,856.118L1099.44,856.118Z" style="fill:rgb(95,95,97);"/>
        </g>
        <g transform="matrix(10.531,0,0,0.421805,-11731.5,-384.978)">
            <path d="M1140.55,864.528C1140.55,860.303 1140.48,856.251 1140.36,853.263C1140.24,850.276 1140.08,848.597 1139.91,848.597C1135.92,848.597 1103.38,848.597 1099.38,848.597C1099.21,848.597 1099.05,850.276 1098.93,853.263C1098.81,856.251 1098.75,860.303 1098.75,864.528C1098.75,884.215 1098.75,926.095 1098.75,926.095C1098.75,929.368 1098.85,932.022 1098.98,932.022L1140.31,932.022C1140.44,932.022 1140.55,929.368 1140.55,926.095L1140.55,864.528ZM1140.08,920.168L1140.08,864.528C1140.08,863.447 1140.06,862.41 1140.03,861.645C1140,860.881 1139.95,860.451 1139.91,860.451C1135.92,860.451 1103.38,860.451 1099.38,860.451C1099.34,860.451 1099.3,860.881 1099.27,861.645C1099.24,862.41 1099.22,863.447 1099.22,864.528L1099.22,920.168L1140.08,920.168Z" style="fill:rgb(95,95,97);"/>
        </g>
        <g transform="matrix(2.00087,0,0,3.13776,-2335.52,-2675.64)">
            <path d="M1132.24,873.816C1132.24,873.376 1131.68,873.02 1130.99,873.02L1109.24,873.02C1108.55,873.02 1107.99,873.376 1107.99,873.816L1107.99,916.831C1107.99,917.271 1108.55,917.627 1109.24,917.627L1130.99,917.627C1131.68,917.627 1132.24,917.271 1132.24,916.831L1132.24,873.816ZM1110.49,874.613L1110.49,916.034L1129.74,916.034L1129.74,874.613L1110.49,874.613Z" style="fill:rgb(95,95,97);"/>
        </g>
        <g transform="matrix(2.00087,0,0,1.27505,-2251.03,-980.488)">
            <path d="M1132.24,873.816C1132.24,872.734 1131.68,871.856 1130.99,871.856L1109.24,871.856C1108.55,871.856 1107.99,872.734 1107.99,873.816L1107.99,916.831C1107.99,917.914 1108.55,918.791 1109.24,918.791L1130.99,918.791C1131.68,918.791 1132.24,917.914 1132.24,916.831L1132.24,873.816ZM1110.49,875.777L1110.49,914.87L1129.74,914.87L1129.74,875.777L1110.49,875.777Z" style="fill:rgb(95,95,97);"/>
        </g>
        <g transform="matrix(2.00087,0,0,0.919857,-2181.7,-764.98)">
            <path d="M1132.24,873.816C1132.24,872.315 1131.68,871.099 1130.99,871.099L1109.24,871.099C1108.55,871.099 1107.99,872.315 1107.99,873.816L1107.99,916.831C1107.99,918.332 1108.55,919.548 1109.24,919.548L1130.99,919.548C1131.68,919.548 1132.24,918.332 1132.24,916.831L1132.24,873.816ZM1110.49,876.534L1110.49,914.113L1129.74,914.113L1129.74,876.534L1110.49,876.534Z" style="fill:rgb(95,95,97);"/>
        </g>
        <g transform="matrix(10.3432,0,0,0.919857,-11526.1,-725.414)">
            <path d="M1131.23,873.816C1131.23,872.315 1131.12,871.099 1130.99,871.099L1109.24,871.099C1109.11,871.099 1109,872.315 1109,873.816L1109,916.831C1109,918.332 1109.11,919.548 1109.24,919.548L1130.99,919.548C1131.12,919.548 1131.23,918.332 1131.23,916.831L1131.23,873.816ZM1109.48,876.534L1109.48,914.113L1130.75,914.113L1130.75,876.534L1109.48,876.534Z" style="fill:rgb(95,95,97);"/>
        </g>
        <g transform="matrix(2.00087,0,0,3.13776,-2339.1,-2675.64)">
            <path d="M1149.75,877.7L1149.75,890.31C1149.75,890.749 1150.31,891.106 1151,891.106C1151.69,891.106 1152.25,890.749 1152.25,890.31L1152.25,877.7C1152.25,877.26 1151.69,876.903 1151,876.903C1150.31,876.903 1149.75,877.26 1149.75,877.7Z" style="fill:rgb(95,95,97);"/>
        </g>
        <g transform="matrix(2.00087,0,0,3.13776,-2317.85,-2675.64)">
            <path d="M1149.75,877.7L1149.75,890.31C1149.75,890.749 1150.31,891.106 1151,891.106C1151.69,891.106 1152.25,890.749 1152.25,890.31L1152.25,877.7C1152.25,877.26 1151.69,876.903 1151,876.903C1150.31,876.903 1149.75,877.26 1149.75,877.7Z" style="fill:rgb(95,95,97);"/>
        </g>
        <g transform="matrix(2.00087,0,0,3.13776,-2296.61,-2675.64)">
            <path d="M1149.75,877.7L1149.75,890.31C1149.75,890.749 1150.31,891.106 1151,891.106C1151.69,891.106 1152.25,890.749 1152.25,890.31L1152.25,877.7C1152.25,877.26 1151.69,876.903 1151,876.903C1150.31,876.903 1149.75,877.26 1149.75,877.7Z" style="fill:rgb(95,95,97);"/>
        </g>
        <g transform="matrix(2.00087,0,0,3.13776,-2275.36,-2675.64)">
            <path d="M1149.75,877.7L1149.75,890.31C1149.75,890.749 1150.31,891.106 1151,891.106C1151.69,891.106 1152.25,890.749 1152.25,890.31L1152.25,877.7C1152.25,877.26 1151.69,876.903 1151,876.903C1150.31,876.903 1149.75,877.26 1149.75,877.7Z" style="fill:rgb(95,95,97);"/>
        </g>
        <g transform="matrix(2.00087,0,0,3.13776,-2254.12,-2675.64)">
            <path d="M1149.75,877.7L1149.75,890.31C1149.75,890.749 1150.31,891.106 1151,891.106C1151.69,891.106 1152.25,890.749 1152.25,890.31L1152.25,877.7C1152.25,877.26 1151.69,876.903 1151,876.903C1150.31,876.903 1149.75,877.26 1149.75,877.7Z" style="fill:rgb(95,95,97);"/>
        </g>
        <g transform="matrix(2.00087,0,0,3.13776,-2232.88,-2675.64)">
            <path d="M1149.75,877.7L1149.75,890.31C1149.75,890.749 1150.31,891.106 1151,891.106C1151.69,891.106 1152.25,890.749 1152.25,890.31L1152.25,877.7C1152.25,877.26 1151.69,876.903 1151,876.903C1150.31,876.903 1149.75,877.26 1149.75,877.7Z" style="fill:rgb(95,95,97);"/>
        </g>
        <g transform="matrix(2.00087,0,0,3.13776,-2211.63,-2675.64)">
            <path d="M1149.75,877.7L1149.75,890.31C1149.75,890.749 1150.31,891.106 1151,891.106C1151.69,891.106 1152.25,890.749 1152.25,890.31L1152.25,877.7C1152.25,877.26 1151.69,876.903 1151,876.903C1150.31,876.903 1149.75,877.26 1149.75,877.7Z" style="fill:rgb(95,95,97);"/>
        </g>
        <g transform="matrix(2.00087,0,0,3.13776,-2190.39,-2675.64)">
            <path d="M1149.75,877.7L1149.75,890.31C1149.75,890.749 1150.31,891.106 1151,891.106C1151.69,891.106 1152.25,890.749 1152.25,890.31L1152.25,877.7C1152.25,877.26 1151.69,876.903 1151,876.903C1150.31,876.903 1149.75,877.26 1149.75,877.7Z" style="fill:rgb(95,95,97);"/>
        </g>
        <g transform="matrix(2.00087,0,0,3.13776,-2169.15,-2675.64)">
            <path d="M1149.75,877.7L1149.75,890.31C1149.75,890.749 1150.31,891.106 1151,891.106C1151.69,891.106 1152.25,890.749 1152.25,890.31L1152.25,877.7C1152.25,877.26 1151.69,876.903 1151,876.903C1150.31,876.903 1149.75,877.26 1149.75,877.7Z" style="fill:rgb(95,95,97);"/>
        </g>
        <g transform="matrix(2.00087,0,0,3.13776,-2147.9,-2675.64)">
            <path d="M1149.75,877.7L1149.75,890.31C1149.75,890.749 1150.31,891.106 1151,891.106C1151.69,891.106 1152.25,890.749 1152.25,890.31L1152.25,877.7C1152.25,877.26 1151.69,876.903 1151,876.903C1150.31,876.903 1149.75,877.26 1149.75,877.7Z" style="fill:rgb(95,95,97);"/>
        </g>
        <g transform="matrix(2.00087,0,0,1.27505,-2112.36,-980.488)">
            <path d="M1132.24,873.816C1132.24,872.734 1131.68,871.856 1130.99,871.856L1109.24,871.856C1108.55,871.856 1107.99,872.734 1107.99,873.816L1107.99,916.831C1107.99,917.914 1108.55,918.791 1109.24,918.791L1130.99,918.791C1131.68,918.791 1132.24,917.914 1132.24,916.831L1132.24,873.816ZM1110.49,875.777L1110.49,914.87L1129.74,914.87L1129.74,875.777L1110.49,875.777Z" style="fill:rgb(95,95,97);"/>
        </g>
        <g transform="matrix(2.00087,0,0,2.24469,-2181.7,-1827.78)">
            <path d="M1132.24,873.816C1132.24,873.201 1131.68,872.703 1130.99,872.703L1109.24,872.703C1108.55,872.703 1107.99,873.201 1107.99,873.816L1107.99,916.831C1107.99,917.446 1108.55,917.944 1109.24,917.944L1130.99,917.944C1131.68,917.944 1132.24,917.446 1132.24,916.831L1132.24,873.816ZM1110.49,874.93L1110.49,915.717L1129.74,915.717L1129.74,874.93L1110.49,874.93Z" style="fill:rgb(95,95,97);"/>
        </g>
        <g transform="matrix(2.00087,0,0,3.13776,-2335.52,-2675.64)">
            <path d="M1121.36,916.831L1121.36,873.816C1121.36,873.377 1120.8,873.02 1120.11,873.02C1119.42,873.02 1118.86,873.377 1118.86,873.816L1118.86,916.831C1118.86,917.27 1119.42,917.627 1120.11,917.627C1120.8,917.627 1121.36,917.27 1121.36,916.831Z" style="fill:rgb(95,95,97);"/>
        </g>
        <g transform="matrix(2.00087,0,0,3.13776,-2027.87,-2675.47)">
            <path d="M1109.24,886.341L1130.99,886.341C1131.68,886.341 1132.24,885.984 1132.24,885.544C1132.24,885.105 1131.68,884.748 1130.99,884.748L1109.24,884.748C1108.55,884.748 1107.99,885.105 1107.99,885.544C1107.99,885.984 1108.55,886.341 1109.24,886.341Z" style="fill:rgb(95,95,97);"/>
        </g>
        <g transform="matrix(2.00087,0,0,3.13776,-2027.87,-2614.44)">
            <path d="M1109.24,886.341L1130.99,886.341C1131.68,886.341 1132.24,885.984 1132.24,885.544C1132.24,885.105 1131.68,884.748 1130.99,884.748L1109.24,884.748C1108.55,884.748 1107.99,885.105 1107.99,885.544C1107.99,885.984 1108.55,886.341 1109.24,886.341Z" style="fill:rgb(95,95,97);"/>
        </g>
        <g transform="matrix(2.00087,0,0,3.13776,-2027.87,-2675.64)">
            <path d="M1132.24,873.816C1132.24,873.376 1131.68,873.02 1130.99,873.02L1109.24,873.02C1108.55,873.02 1107.99,873.376 1107.99,873.816L1107.99,916.831C1107.99,917.271 1108.55,917.627 1109.24,917.627L1130.99,917.627C1131.68,917.627 1132.24,917.271 1132.24,916.831L1132.24,873.816ZM1110.49,874.613L1110.49,916.034L1129.74,916.034L1129.74,874.613L1110.49,874.613Z" style="fill:rgb(95,95,97);"/>
        </g>
        <g transform="matrix(2.00087,0,0,3.13776,-2027.87,-2675.64)">
            <path d="M1121.36,916.831L1121.36,873.816C1121.36,873.377 1120.8,873.02 1120.11,873.02C1119.42,873.02 1118.86,873.377 1118.86,873.816L1118.86,916.831C1118.86,917.27 1119.42,917.627 1120.11,917.627C1120.8,917.627 1121.36,917.27 1121.36,916.831Z" style="fill:rgb(95,95,97);"/>
        </g>
        <g transform="matrix(2.00087,0,0,1.78149,-2417.29,-1509.07)">
            <path d="M1141.02,833.57L1197.23,790.21C1197.79,789.772 1197.94,788.897 1197.55,788.259C1197.16,787.621 1196.38,787.458 1195.81,787.897L1139.61,831.256C1139.04,831.695 1138.89,832.569 1139.28,833.207C1139.67,833.846 1140.45,834.008 1141.02,833.57Z" style="fill:rgb(95,95,97);"/>
        </g>
        <g transform="matrix(-2.00087,0,0,1.78149,2536.29,-1509.07)">
            <path d="M1139.61,831.256L1195.81,787.897C1196.38,787.458 1197.16,787.621 1197.55,788.259C1197.94,788.897 1197.79,789.772 1197.23,790.21L1141.02,833.57C1140.45,834.008 1139.67,833.846 1139.28,833.207C1138.89,832.569 1139.04,831.695 1139.61,831.256Z" style="fill:rgb(95,95,97);"/>
        </g>
        <g transform="matrix(2.67663,0,0,2.12227,-715.561,-4174.78)">
            <path d="M202.454,2076.79L376.678,2076.79C377.194,2076.79 377.612,2076.26 377.612,2075.61C377.612,2074.96 377.194,2074.43 376.678,2074.43L202.454,2074.43C201.938,2074.43 201.52,2074.96 201.52,2075.61C201.52,2076.26 201.938,2076.79 202.454,2076.79Z" style="fill:rgb(77,77,79);"/>
        </g>
    </g>
</svg>
