<?xml version="1.0" encoding="UTF-8" standalone="no"?>
<!DOCTYPE svg PUBLIC "-//W3C//DTD SVG 1.1//EN" "http://www.w3.org/Graphics/SVG/1.1/DTD/svg11.dtd">
<svg width="100%" height="100%" viewBox="0 0 119 91" version="1.1" xmlns="http://www.w3.org/2000/svg" xmlns:xlink="http://www.w3.org/1999/xlink" xml:space="preserve" xmlns:serif="http://www.serif.com/" style="fill-rule:evenodd;clip-rule:evenodd;stroke-linejoin:round;stroke-miterlimit:2;">
    <g transform="matrix(0.241213,0,0,0.241213,45.1479,34.5248)">
        <g transform="matrix(2.75672,0,0,2.12227,-738.752,-4173.38)">
            <path d="M202.454,2076.79L376.678,2076.79C377.179,2076.79 377.585,2076.26 377.585,2075.61C377.585,2074.96 377.179,2074.43 376.678,2074.43L202.454,2074.43C201.953,2074.43 201.547,2074.96 201.547,2075.61C201.547,2076.26 201.953,2076.79 202.454,2076.79Z" style="fill:rgb(77,77,79);"/>
        </g>
        <g transform="matrix(1.01103,0,0,31.0551,-213.526,-63435.7)">
            <path d="M325.245,2042.98C325.245,2042.93 324.138,2042.9 322.772,2042.9L217.322,2042.9C215.956,2042.9 214.849,2042.93 214.849,2042.98L214.849,2050.14C214.849,2050.18 215.956,2050.22 217.322,2050.22L322.772,2050.22C324.138,2050.22 325.245,2050.18 325.245,2050.14L325.245,2042.98ZM219.794,2043.06L219.794,2050.06L320.299,2050.06L320.299,2043.06L219.794,2043.06Z" style="fill:rgb(77,77,79);"/>
        </g>
        <g transform="matrix(1.01103,0,0,25.3495,-213.526,-51738.4)">
            <path d="M325.245,2042.98C325.245,2042.92 324.138,2042.88 322.772,2042.88L217.322,2042.88C215.956,2042.88 214.849,2042.92 214.849,2042.98L214.849,2050.14C214.849,2050.19 215.956,2050.24 217.322,2050.24L322.772,2050.24C324.138,2050.24 325.245,2050.19 325.245,2050.14L325.245,2042.98ZM219.794,2043.08L219.794,2050.04L320.299,2050.04L320.299,2043.08L219.794,2043.08Z" style="fill:rgb(77,77,79);"/>
        </g>
        <g transform="matrix(0.738288,0,0,23.1715,-139.872,-47273.1)">
            <path d="M326.158,2042.98C326.158,2042.92 324.642,2042.87 322.772,2042.87L217.322,2042.87C215.451,2042.87 213.935,2042.92 213.935,2042.98L213.935,2050.14C213.935,2050.2 215.451,2050.25 217.322,2050.25L322.772,2050.25C324.642,2050.25 326.158,2050.2 326.158,2050.14L326.158,2042.98ZM220.708,2043.09L220.708,2050.03L319.386,2050.03L319.386,2043.09L220.708,2043.09Z" style="fill:rgb(77,77,79);"/>
        </g>
        <g transform="matrix(1.45168,0,0,31.0551,-462.367,-63435.7)">
            <path d="M324.494,2042.98C324.494,2042.93 323.723,2042.9 322.772,2042.9L217.322,2042.9C216.37,2042.9 215.599,2042.93 215.599,2042.98L215.599,2050.14C215.599,2050.18 216.37,2050.22 217.322,2050.22L322.772,2050.22C323.723,2050.22 324.494,2050.18 324.494,2050.14L324.494,2042.98ZM219.044,2043.06L219.044,2050.06L321.05,2050.06L321.05,2043.06L219.044,2043.06Z" style="fill:rgb(77,77,79);"/>
        </g>
        <g transform="matrix(1.45168,0,0,31.0551,-202.673,-63435.7)">
            <path d="M324.494,2042.98C324.494,2042.93 323.723,2042.9 322.772,2042.9L217.322,2042.9C216.37,2042.9 215.599,2042.93 215.599,2042.98L215.599,2050.14C215.599,2050.18 216.37,2050.22 217.322,2050.22L322.772,2050.22C323.723,2050.22 324.494,2050.18 324.494,2050.14L324.494,2042.98ZM219.044,2043.06L219.044,2050.06L321.05,2050.06L321.05,2043.06L219.044,2043.06Z" style="fill:rgb(77,77,79);"/>
        </g>
        <g transform="matrix(1.45168,0,0,11.1985,-462.367,-22726.9)">
            <path d="M324.494,2042.98C324.494,2042.86 323.723,2042.76 322.772,2042.76L217.322,2042.76C216.37,2042.76 215.599,2042.86 215.599,2042.98L215.599,2050.14C215.599,2050.26 216.37,2050.36 217.322,2050.36L322.772,2050.36C323.723,2050.36 324.494,2050.26 324.494,2050.14L324.494,2042.98ZM219.044,2043.2L219.044,2049.91L321.05,2049.91L321.05,2043.2L219.044,2043.2Z" style="fill:rgb(77,77,79);"/>
        </g>
        <g transform="matrix(1.45168,0,0,11.1985,-202.673,-22726.9)">
            <path d="M324.494,2042.98C324.494,2042.86 323.723,2042.76 322.772,2042.76L217.322,2042.76C216.37,2042.76 215.599,2042.86 215.599,2042.98L215.599,2050.14C215.599,2050.26 216.37,2050.36 217.322,2050.36L322.772,2050.36C323.723,2050.36 324.494,2050.26 324.494,2050.14L324.494,2042.98ZM219.044,2043.2L219.044,2049.91L321.05,2049.91L321.05,2043.2L219.044,2043.2Z" style="fill:rgb(77,77,79);"/>
        </g>
        <g transform="matrix(1.1814,0,0,9.11358,-129.687,-18546.1)">
            <path d="M324.888,2042.98C324.888,2042.83 323.941,2042.71 322.772,2042.71L217.322,2042.71C216.153,2042.71 215.205,2042.83 215.205,2042.98L215.205,2050.14C215.205,2050.29 216.153,2050.41 217.322,2050.41L322.772,2050.41C323.941,2050.41 324.888,2050.29 324.888,2050.14L324.888,2042.98ZM219.438,2043.25L219.438,2049.86L320.656,2049.86L320.656,2043.25L219.438,2043.25Z" style="fill:rgb(77,77,79);"/>
        </g>
        <g transform="matrix(1.1814,0,0,9.11358,-389.381,-18546.1)">
            <path d="M324.888,2042.98C324.888,2042.83 323.941,2042.71 322.772,2042.71L217.322,2042.71C216.153,2042.71 215.205,2042.83 215.205,2042.98L215.205,2050.14C215.205,2050.29 216.153,2050.41 217.322,2050.41L322.772,2050.41C323.941,2050.41 324.888,2050.29 324.888,2050.14L324.888,2042.98ZM219.438,2043.25L219.438,2049.86L320.656,2049.86L320.656,2043.25L219.438,2043.25Z" style="fill:rgb(77,77,79);"/>
        </g>
        <g transform="matrix(4.55463,0,0,4.94797,-1170.46,-10134.7)">
            <path d="M323.321,2043.9C323.321,2043.52 323.158,2043.16 322.869,2042.89C322.579,2042.62 322.186,2042.47 321.777,2042.47C311.704,2042.47 228.39,2042.47 218.317,2042.47C217.908,2042.47 217.515,2042.62 217.225,2042.89C216.935,2043.16 216.773,2043.52 216.773,2043.9C216.773,2045.83 216.773,2050.14 216.773,2050.14C216.773,2050.42 217.018,2050.64 217.322,2050.64L322.772,2050.64C323.075,2050.64 323.321,2050.42 323.321,2050.14L323.321,2043.9ZM322.223,2043.9C322.223,2043.79 322.176,2043.68 322.092,2043.61C322.009,2043.53 321.895,2043.49 321.777,2043.49C311.704,2043.49 228.39,2043.49 218.317,2043.49C218.199,2043.49 218.085,2043.53 218.001,2043.61C217.918,2043.68 217.87,2043.79 217.87,2043.9L217.87,2049.63L322.223,2049.63L322.223,2043.9Z" style="fill:rgb(77,77,79);"/>
        </g>
        <g transform="matrix(0.695945,0,0,1,-986.548,-2707.58)">
            <path d="M1209.66,2716.91C1209.66,2715.53 1208.05,2714.41 1206.07,2714.41L1167.12,2714.41C1165.13,2714.41 1163.53,2715.53 1163.53,2716.91L1163.53,2759.59C1163.53,2764.71 1169.5,2768.86 1176.86,2768.86L1196.33,2768.86C1203.69,2768.86 1209.66,2764.71 1209.66,2759.59C1209.66,2759.59 1209.66,2716.91 1209.66,2716.91ZM1202.47,2719.41L1170.71,2719.41L1170.71,2759.59C1170.71,2761.95 1173.46,2763.86 1176.86,2763.86C1176.86,2763.86 1196.33,2763.86 1196.33,2763.86C1199.72,2763.86 1202.47,2761.95 1202.47,2759.59L1202.47,2719.41Z" style="fill:rgb(77,77,79);"/>
        </g>
        <g transform="matrix(0.695945,0,0,1,-959.443,-2707.58)">
            <path d="M1209.66,2716.91C1209.66,2715.53 1208.05,2714.41 1206.07,2714.41L1167.12,2714.41C1165.13,2714.41 1163.53,2715.53 1163.53,2716.91L1163.53,2759.59C1163.53,2764.71 1169.5,2768.86 1176.86,2768.86L1196.33,2768.86C1203.69,2768.86 1209.66,2764.71 1209.66,2759.59C1209.66,2759.59 1209.66,2716.91 1209.66,2716.91ZM1202.47,2719.41L1170.71,2719.41L1170.71,2759.59C1170.71,2761.95 1173.46,2763.86 1176.86,2763.86C1176.86,2763.86 1196.33,2763.86 1196.33,2763.86C1199.72,2763.86 1202.47,2761.95 1202.47,2759.59L1202.47,2719.41Z" style="fill:rgb(77,77,79);"/>
        </g>
        <g transform="matrix(0.695945,0,0,1,-932.338,-2707.58)">
            <path d="M1209.66,2716.91C1209.66,2715.53 1208.05,2714.41 1206.07,2714.41L1167.12,2714.41C1165.13,2714.41 1163.53,2715.53 1163.53,2716.91L1163.53,2759.59C1163.53,2764.71 1169.5,2768.86 1176.86,2768.86L1196.33,2768.86C1203.69,2768.86 1209.66,2764.71 1209.66,2759.59C1209.66,2759.59 1209.66,2716.91 1209.66,2716.91ZM1202.47,2719.41L1170.71,2719.41L1170.71,2759.59C1170.71,2761.95 1173.46,2763.86 1176.86,2763.86C1176.86,2763.86 1196.33,2763.86 1196.33,2763.86C1199.72,2763.86 1202.47,2761.95 1202.47,2759.59L1202.47,2719.41Z" style="fill:rgb(77,77,79);"/>
        </g>
        <g transform="matrix(0.695945,0,0,1,-905.232,-2707.58)">
            <path d="M1209.66,2716.91C1209.66,2715.53 1208.05,2714.41 1206.07,2714.41L1167.12,2714.41C1165.13,2714.41 1163.53,2715.53 1163.53,2716.91L1163.53,2759.59C1163.53,2764.71 1169.5,2768.86 1176.86,2768.86L1196.33,2768.86C1203.69,2768.86 1209.66,2764.71 1209.66,2759.59C1209.66,2759.59 1209.66,2716.91 1209.66,2716.91ZM1202.47,2719.41L1170.71,2719.41L1170.71,2759.59C1170.71,2761.95 1173.46,2763.86 1176.86,2763.86C1176.86,2763.86 1196.33,2763.86 1196.33,2763.86C1199.72,2763.86 1202.47,2761.95 1202.47,2759.59L1202.47,2719.41Z" style="fill:rgb(77,77,79);"/>
        </g>
        <g transform="matrix(0.695945,0,0,1,-878.127,-2707.58)">
            <path d="M1209.66,2716.91C1209.66,2715.53 1208.05,2714.41 1206.07,2714.41L1167.12,2714.41C1165.13,2714.41 1163.53,2715.53 1163.53,2716.91L1163.53,2759.59C1163.53,2764.71 1169.5,2768.86 1176.86,2768.86L1196.33,2768.86C1203.69,2768.86 1209.66,2764.71 1209.66,2759.59C1209.66,2759.59 1209.66,2716.91 1209.66,2716.91ZM1202.47,2719.41L1170.71,2719.41L1170.71,2759.59C1170.71,2761.95 1173.46,2763.86 1176.86,2763.86C1176.86,2763.86 1196.33,2763.86 1196.33,2763.86C1199.72,2763.86 1202.47,2761.95 1202.47,2759.59L1202.47,2719.41Z" style="fill:rgb(77,77,79);"/>
        </g>
        <g transform="matrix(0.695945,0,0,1,-851.022,-2707.58)">
            <path d="M1209.66,2716.91C1209.66,2715.53 1208.05,2714.41 1206.07,2714.41L1167.12,2714.41C1165.13,2714.41 1163.53,2715.53 1163.53,2716.91L1163.53,2759.59C1163.53,2764.71 1169.5,2768.86 1176.86,2768.86L1196.33,2768.86C1203.69,2768.86 1209.66,2764.71 1209.66,2759.59L1209.66,2716.91ZM1202.47,2719.41L1170.71,2719.41L1170.71,2759.59C1170.71,2761.95 1173.46,2763.86 1176.86,2763.86C1176.86,2763.86 1196.33,2763.86 1196.33,2763.86C1199.72,2763.86 1202.47,2761.95 1202.47,2759.59L1202.47,2719.41Z" style="fill:rgb(77,77,79);"/>
        </g>
        <g transform="matrix(0.695945,0,0,1,-681.87,-2707.58)">
            <path d="M1209.66,2716.91C1209.66,2715.53 1208.05,2714.41 1206.07,2714.41L1167.12,2714.41C1165.13,2714.41 1163.53,2715.53 1163.53,2716.91L1163.53,2759.59C1163.53,2764.71 1169.5,2768.86 1176.86,2768.86L1196.33,2768.86C1203.69,2768.86 1209.66,2764.71 1209.66,2759.59L1209.66,2716.91ZM1202.47,2719.41L1170.71,2719.41L1170.71,2759.59C1170.71,2761.95 1173.46,2763.86 1176.86,2763.86C1176.86,2763.86 1196.33,2763.86 1196.33,2763.86C1199.72,2763.86 1202.47,2761.95 1202.47,2759.59L1202.47,2719.41Z" style="fill:rgb(77,77,79);"/>
        </g>
        <g transform="matrix(0.695945,0,0,1,-654.764,-2707.58)">
            <path d="M1209.66,2716.91C1209.66,2715.53 1208.05,2714.41 1206.07,2714.41L1167.12,2714.41C1165.13,2714.41 1163.53,2715.53 1163.53,2716.91L1163.53,2759.59C1163.53,2764.71 1169.5,2768.86 1176.86,2768.86L1196.33,2768.86C1203.69,2768.86 1209.66,2764.71 1209.66,2759.59C1209.66,2759.59 1209.66,2716.91 1209.66,2716.91ZM1202.47,2719.41L1170.71,2719.41L1170.71,2759.59C1170.71,2761.95 1173.46,2763.86 1176.86,2763.86C1176.86,2763.86 1196.33,2763.86 1196.33,2763.86C1199.72,2763.86 1202.47,2761.95 1202.47,2759.59L1202.47,2719.41Z" style="fill:rgb(77,77,79);"/>
        </g>
        <g transform="matrix(0.695945,0,0,1,-627.659,-2707.58)">
            <path d="M1209.66,2716.91C1209.66,2715.53 1208.05,2714.41 1206.07,2714.41L1167.12,2714.41C1165.13,2714.41 1163.53,2715.53 1163.53,2716.91L1163.53,2759.59C1163.53,2764.71 1169.5,2768.86 1176.86,2768.86L1196.33,2768.86C1203.69,2768.86 1209.66,2764.71 1209.66,2759.59C1209.66,2759.59 1209.66,2716.91 1209.66,2716.91ZM1202.47,2719.41L1170.71,2719.41L1170.71,2759.59C1170.71,2761.95 1173.46,2763.86 1176.86,2763.86C1176.86,2763.86 1196.33,2763.86 1196.33,2763.86C1199.72,2763.86 1202.47,2761.95 1202.47,2759.59L1202.47,2719.41Z" style="fill:rgb(77,77,79);"/>
        </g>
        <g transform="matrix(0.695945,0,0,1,-600.554,-2707.58)">
            <path d="M1209.66,2716.91C1209.66,2715.53 1208.05,2714.41 1206.07,2714.41L1167.12,2714.41C1165.13,2714.41 1163.53,2715.53 1163.53,2716.91L1163.53,2759.59C1163.53,2764.71 1169.5,2768.86 1176.86,2768.86L1196.33,2768.86C1203.69,2768.86 1209.66,2764.71 1209.66,2759.59L1209.66,2716.91ZM1202.47,2719.41L1170.71,2719.41L1170.71,2759.59C1170.71,2761.95 1173.46,2763.86 1176.86,2763.86C1176.86,2763.86 1196.33,2763.86 1196.33,2763.86C1199.72,2763.86 1202.47,2761.95 1202.47,2759.59L1202.47,2719.41Z" style="fill:rgb(77,77,79);"/>
        </g>
        <g transform="matrix(0.695945,0,0,1,-573.449,-2707.58)">
            <path d="M1209.66,2716.91C1209.66,2715.53 1208.05,2714.41 1206.07,2714.41L1167.12,2714.41C1165.13,2714.41 1163.53,2715.53 1163.53,2716.91L1163.53,2759.59C1163.53,2764.71 1169.5,2768.86 1176.86,2768.86L1196.33,2768.86C1203.69,2768.86 1209.66,2764.71 1209.66,2759.59C1209.66,2759.59 1209.66,2716.91 1209.66,2716.91ZM1202.47,2719.41L1170.71,2719.41L1170.71,2759.59C1170.71,2761.95 1173.46,2763.86 1176.86,2763.86C1176.86,2763.86 1196.33,2763.86 1196.33,2763.86C1199.72,2763.86 1202.47,2761.95 1202.47,2759.59L1202.47,2719.41Z" style="fill:rgb(77,77,79);"/>
        </g>
        <g transform="matrix(0.695945,0,0,1,-546.343,-2707.58)">
            <path d="M1209.66,2716.91C1209.66,2715.53 1208.05,2714.41 1206.07,2714.41L1167.12,2714.41C1165.13,2714.41 1163.53,2715.53 1163.53,2716.91L1163.53,2759.59C1163.53,2764.71 1169.5,2768.86 1176.86,2768.86L1196.33,2768.86C1203.69,2768.86 1209.66,2764.71 1209.66,2759.59C1209.66,2759.59 1209.66,2716.91 1209.66,2716.91ZM1202.47,2719.41L1170.71,2719.41L1170.71,2759.59C1170.71,2761.95 1173.46,2763.86 1176.86,2763.86C1176.86,2763.86 1196.33,2763.86 1196.33,2763.86C1199.72,2763.86 1202.47,2761.95 1202.47,2759.59L1202.47,2719.41Z" style="fill:rgb(77,77,79);"/>
        </g>
        <g transform="matrix(4.55463,0,0,4.94797,-1170.46,-10249.2)">
            <path d="M323.321,2043.9C323.321,2043.52 323.158,2043.16 322.869,2042.89C322.579,2042.62 322.186,2042.47 321.777,2042.47C311.704,2042.47 228.39,2042.47 218.317,2042.47C217.908,2042.47 217.515,2042.62 217.225,2042.89C216.935,2043.16 216.773,2043.52 216.773,2043.9C216.773,2045.83 216.773,2050.14 216.773,2050.14C216.773,2050.42 217.018,2050.64 217.322,2050.64L322.772,2050.64C323.075,2050.64 323.321,2050.42 323.321,2050.14L323.321,2043.9ZM322.223,2043.9C322.223,2043.79 322.176,2043.68 322.092,2043.61C322.009,2043.53 321.895,2043.49 321.777,2043.49C311.704,2043.49 228.39,2043.49 218.317,2043.49C218.199,2043.49 218.085,2043.53 218.001,2043.61C217.918,2043.68 217.87,2043.79 217.87,2043.9L217.87,2049.63L322.223,2049.63L322.223,2043.9Z" style="fill:rgb(77,77,79);"/>
        </g>
        <g transform="matrix(3.91438,0,0,11.052,-997.566,-22684.3)">
            <path d="M323.411,2042.98C323.411,2042.86 323.125,2042.75 322.772,2042.75L217.322,2042.75C216.969,2042.75 216.683,2042.86 216.683,2042.98L216.683,2050.14C216.683,2050.26 216.969,2050.36 217.322,2050.36L322.772,2050.36C323.125,2050.36 323.411,2050.26 323.411,2050.14L323.411,2042.98ZM217.96,2043.21L217.96,2049.91L322.133,2049.91L322.133,2043.21L217.96,2043.21Z" style="fill:rgb(77,77,79);"/>
        </g>
        <g transform="matrix(3.6745,0,0,7.8328,-932.788,-16095.9)">
            <path d="M323.453,2042.98C323.453,2042.8 323.148,2042.66 322.772,2042.66L217.322,2042.66C216.946,2042.66 216.641,2042.8 216.641,2042.98L216.641,2050.14C216.641,2050.31 216.946,2050.46 217.322,2050.46L322.772,2050.46C323.148,2050.46 323.453,2050.31 323.453,2050.14L323.453,2042.98ZM218.002,2043.3L218.002,2049.82L322.092,2049.82L322.092,2043.3L218.002,2043.3Z" style="fill:rgb(77,77,79);"/>
        </g>
    </g>
</svg>
