<?xml version="1.0" encoding="UTF-8" standalone="no"?>
<!DOCTYPE svg PUBLIC "-//W3C//DTD SVG 1.1//EN" "http://www.w3.org/Graphics/SVG/1.1/DTD/svg11.dtd">
<svg width="100%" height="100%" viewBox="0 0 119 91" version="1.1" xmlns="http://www.w3.org/2000/svg" xmlns:xlink="http://www.w3.org/1999/xlink" xml:space="preserve" xmlns:serif="http://www.serif.com/" style="fill-rule:evenodd;clip-rule:evenodd;stroke-linejoin:round;stroke-miterlimit:2;">
    <g transform="matrix(0.244701,0,0,0.244701,44.9403,34.3661)">
        <g transform="matrix(9.78074,0,0,37.6119,-5026.8,-58714.2)">
            <path d="M541.887,1559.03C541.887,1558.99 541.772,1558.96 541.631,1558.96L498.434,1558.96C498.293,1558.96 498.179,1558.99 498.179,1559.03L498.179,1567.14C498.179,1567.18 498.293,1567.21 498.434,1567.21L541.631,1567.21C541.772,1567.21 541.887,1567.18 541.887,1567.14L541.887,1559.03ZM498.69,1559.1L498.69,1567.08L541.376,1567.08L541.376,1559.1L498.69,1559.1Z" style="fill:rgb(95,95,97);"/>
        </g>
        <g transform="matrix(10.7048,0,0,-3.80846,-5507.33,5861.35)">
            <path d="M541.631,1558.37C541.76,1558.37 541.865,1558.67 541.865,1559.03C541.865,1559.03 541.865,1563.84 541.865,1566.05C541.865,1566.52 541.799,1566.96 541.683,1567.29C541.567,1567.61 541.409,1567.8 541.244,1567.8C537.208,1567.8 502.858,1567.8 498.821,1567.8C498.656,1567.8 498.499,1567.61 498.382,1567.29C498.266,1566.96 498.201,1566.52 498.201,1566.05L498.201,1559.03C498.201,1558.67 498.305,1558.37 498.434,1558.37L541.631,1558.37ZM541.398,1559.69L541.398,1566.05C541.398,1566.17 541.381,1566.28 541.353,1566.36C541.324,1566.44 541.285,1566.49 541.244,1566.49C537.208,1566.49 502.858,1566.49 498.821,1566.49C498.78,1566.49 498.741,1566.44 498.713,1566.36C498.684,1566.28 498.668,1566.17 498.668,1566.05L498.668,1559.69L541.398,1559.69Z" style="fill:rgb(95,95,97);"/>
        </g>
        <g transform="matrix(7.81317,-3.54119e-16,1.25986e-16,-3.80846,-4003.6,5830.46)">
            <path d="M541.631,1558.37C541.808,1558.37 541.951,1558.67 541.951,1559.03C541.951,1559.03 541.951,1563.84 541.951,1566.05C541.951,1566.52 541.862,1566.96 541.702,1567.29C541.543,1567.61 541.327,1567.8 541.101,1567.8C536.512,1567.8 503.554,1567.8 498.964,1567.8C498.739,1567.8 498.522,1567.61 498.363,1567.29C498.204,1566.96 498.114,1566.52 498.114,1566.05L498.114,1559.03C498.114,1558.67 498.257,1558.37 498.434,1558.37L541.631,1558.37ZM541.311,1559.69L541.311,1566.05C541.311,1566.17 541.289,1566.28 541.25,1566.36C541.21,1566.44 541.157,1566.49 541.101,1566.49C536.512,1566.49 503.554,1566.49 498.964,1566.49C498.908,1566.49 498.855,1566.44 498.816,1566.36C498.776,1566.28 498.754,1566.17 498.754,1566.05L498.754,1559.69L541.311,1559.69Z" style="fill:rgb(95,95,97);"/>
        </g>
        <g transform="matrix(2.67663,0,0,2.12227,-715.561,-4176.07)">
            <path d="M202.454,2076.79L376.678,2076.79C377.194,2076.79 377.612,2076.26 377.612,2075.61C377.612,2074.96 377.194,2074.43 376.678,2074.43L202.454,2074.43C201.938,2074.43 201.52,2074.96 201.52,2075.61C201.52,2076.26 201.938,2076.79 202.454,2076.79Z" style="fill:rgb(77,77,79);"/>
        </g>
        <g transform="matrix(0.189276,0,0,0.358605,-201.212,-507.219)">
            <path d="M933.979,1274.59C933.979,1270.74 928.066,1267.62 920.771,1267.62L700.955,1267.62C693.66,1267.62 687.747,1270.74 687.747,1274.59L687.747,1433.28C687.747,1437.12 693.66,1440.25 700.955,1440.25L920.771,1440.25C928.066,1440.25 933.979,1437.12 933.979,1433.28L933.979,1274.59ZM714.163,1281.56L714.163,1426.3L907.563,1426.3L907.563,1281.56L714.163,1281.56Z" style="fill:rgb(95,95,97);"/>
        </g>
        <g transform="matrix(0.189276,0,0,0.358605,13.2571,-507.219)">
            <path d="M933.979,1274.59C933.979,1270.74 928.066,1267.62 920.771,1267.62L700.955,1267.62C693.66,1267.62 687.747,1270.74 687.747,1274.59L687.747,1433.28C687.747,1437.12 693.66,1440.25 700.955,1440.25L920.771,1440.25C928.066,1440.25 933.979,1437.12 933.979,1433.28L933.979,1274.59ZM714.163,1281.56L714.163,1426.3L907.563,1426.3L907.563,1281.56L714.163,1281.56Z" style="fill:rgb(95,95,97);"/>
        </g>
        <g transform="matrix(0.189276,0,0,0.358605,-201.212,-450.314)">
            <path d="M933.979,1274.59C933.979,1270.74 928.066,1267.62 920.771,1267.62L700.955,1267.62C693.66,1267.62 687.747,1270.74 687.747,1274.59L687.747,1433.28C687.747,1437.12 693.66,1440.25 700.955,1440.25L920.771,1440.25C928.066,1440.25 933.979,1437.12 933.979,1433.28L933.979,1274.59ZM714.163,1281.56L714.163,1426.3L907.563,1426.3L907.563,1281.56L714.163,1281.56Z" style="fill:rgb(95,95,97);"/>
        </g>
        <g transform="matrix(0.189276,0,0,0.358605,13.2571,-450.314)">
            <path d="M933.979,1274.59C933.979,1270.74 928.066,1267.62 920.771,1267.62L700.955,1267.62C693.66,1267.62 687.747,1270.74 687.747,1274.59L687.747,1433.28C687.747,1437.12 693.66,1440.25 700.955,1440.25L920.771,1440.25C928.066,1440.25 933.979,1437.12 933.979,1433.28L933.979,1274.59ZM714.163,1281.56L714.163,1426.3L907.563,1426.3L907.563,1281.56L714.163,1281.56Z" style="fill:rgb(95,95,97);"/>
        </g>
        <g transform="matrix(0.189276,0,0,0.358605,-201.212,-393.41)">
            <path d="M933.979,1274.59C933.979,1270.74 928.066,1267.62 920.771,1267.62L700.955,1267.62C693.66,1267.62 687.747,1270.74 687.747,1274.59L687.747,1433.28C687.747,1437.12 693.66,1440.25 700.955,1440.25L920.771,1440.25C928.066,1440.25 933.979,1437.12 933.979,1433.28L933.979,1274.59ZM714.163,1281.56L714.163,1426.3L907.563,1426.3L907.563,1281.56L714.163,1281.56Z" style="fill:rgb(95,95,97);"/>
        </g>
        <g transform="matrix(0.189276,0,0,0.358605,13.2571,-393.41)">
            <path d="M933.979,1274.59C933.979,1270.74 928.066,1267.62 920.771,1267.62L700.955,1267.62C693.66,1267.62 687.747,1270.74 687.747,1274.59L687.747,1433.28C687.747,1437.12 693.66,1440.25 700.955,1440.25L920.771,1440.25C928.066,1440.25 933.979,1437.12 933.979,1433.28L933.979,1274.59ZM714.163,1281.56L714.163,1426.3L907.563,1426.3L907.563,1281.56L714.163,1281.56Z" style="fill:rgb(95,95,97);"/>
        </g>
        <g transform="matrix(0.189276,0,0,0.358605,54.8631,-507.219)">
            <path d="M933.979,1274.59C933.979,1270.74 928.066,1267.62 920.771,1267.62L700.955,1267.62C693.66,1267.62 687.747,1270.74 687.747,1274.59L687.747,1433.28C687.747,1437.12 693.66,1440.25 700.955,1440.25L920.771,1440.25C928.066,1440.25 933.979,1437.12 933.979,1433.28L933.979,1274.59ZM714.163,1281.56L714.163,1426.3L907.563,1426.3L907.563,1281.56L714.163,1281.56Z" style="fill:rgb(95,95,97);"/>
        </g>
        <g transform="matrix(0.189276,0,0,0.358605,54.8631,-450.314)">
            <path d="M933.979,1274.59C933.979,1270.74 928.066,1267.62 920.771,1267.62L700.955,1267.62C693.66,1267.62 687.747,1270.74 687.747,1274.59L687.747,1433.28C687.747,1437.12 693.66,1440.25 700.955,1440.25L920.771,1440.25C928.066,1440.25 933.979,1437.12 933.979,1433.28L933.979,1274.59ZM714.163,1281.56L714.163,1426.3L907.563,1426.3L907.563,1281.56L714.163,1281.56Z" style="fill:rgb(95,95,97);"/>
        </g>
        <g transform="matrix(0.189276,0,0,0.358605,54.8631,-393.41)">
            <path d="M933.979,1274.59C933.979,1270.74 928.066,1267.62 920.771,1267.62L700.955,1267.62C693.66,1267.62 687.747,1270.74 687.747,1274.59L687.747,1433.28C687.747,1437.12 693.66,1440.25 700.955,1440.25L920.771,1440.25C928.066,1440.25 933.979,1437.12 933.979,1433.28L933.979,1274.59ZM714.163,1281.56L714.163,1426.3L907.563,1426.3L907.563,1281.56L714.163,1281.56Z" style="fill:rgb(95,95,97);"/>
        </g>
        <g transform="matrix(0.189276,0,0,0.358605,-114.78,-507.219)">
            <path d="M933.979,1274.59C933.979,1270.74 928.066,1267.62 920.771,1267.62L700.955,1267.62C693.66,1267.62 687.747,1270.74 687.747,1274.59L687.747,1433.28C687.747,1437.12 693.66,1440.25 700.955,1440.25L920.771,1440.25C928.066,1440.25 933.979,1437.12 933.979,1433.28L933.979,1274.59ZM714.163,1281.56L714.163,1426.3L907.563,1426.3L907.563,1281.56L714.163,1281.56Z" style="fill:rgb(95,95,97);"/>
        </g>
        <g transform="matrix(0.189276,0,0,0.358605,-114.78,-450.314)">
            <path d="M933.979,1274.59C933.979,1270.74 928.066,1267.62 920.771,1267.62L700.955,1267.62C693.66,1267.62 687.747,1270.74 687.747,1274.59L687.747,1433.28C687.747,1437.12 693.66,1440.25 700.955,1440.25L920.771,1440.25C928.066,1440.25 933.979,1437.12 933.979,1433.28L933.979,1274.59ZM714.163,1281.56L714.163,1426.3L907.563,1426.3L907.563,1281.56L714.163,1281.56Z" style="fill:rgb(95,95,97);"/>
        </g>
        <g transform="matrix(0.189276,0,0,0.358605,-114.78,-393.41)">
            <path d="M933.979,1274.59C933.979,1270.74 928.066,1267.62 920.771,1267.62L700.955,1267.62C693.66,1267.62 687.747,1270.74 687.747,1274.59L687.747,1433.28C687.747,1437.12 693.66,1440.25 700.955,1440.25L920.771,1440.25C928.066,1440.25 933.979,1437.12 933.979,1433.28L933.979,1274.59ZM714.163,1281.56L714.163,1426.3L907.563,1426.3L907.563,1281.56L714.163,1281.56Z" style="fill:rgb(95,95,97);"/>
        </g>
        <g transform="matrix(0.189276,0,0,0.358605,-73.1742,-507.219)">
            <path d="M933.979,1274.59C933.979,1270.74 928.066,1267.62 920.771,1267.62L700.955,1267.62C693.66,1267.62 687.747,1270.74 687.747,1274.59L687.747,1433.28C687.747,1437.12 693.66,1440.25 700.955,1440.25L920.771,1440.25C928.066,1440.25 933.979,1437.12 933.979,1433.28L933.979,1274.59ZM714.163,1281.56L714.163,1426.3L907.563,1426.3L907.563,1281.56L714.163,1281.56Z" style="fill:rgb(95,95,97);"/>
        </g>
        <g transform="matrix(0.189276,0,0,0.358605,-73.1742,-450.314)">
            <path d="M933.979,1274.59C933.979,1270.74 928.066,1267.62 920.771,1267.62L700.955,1267.62C693.66,1267.62 687.747,1270.74 687.747,1274.59L687.747,1433.28C687.747,1437.12 693.66,1440.25 700.955,1440.25L920.771,1440.25C928.066,1440.25 933.979,1437.12 933.979,1433.28L933.979,1274.59ZM714.163,1281.56L714.163,1426.3L907.563,1426.3L907.563,1281.56L714.163,1281.56Z" style="fill:rgb(95,95,97);"/>
        </g>
        <g transform="matrix(0.189276,0,0,0.358605,-73.1742,-393.41)">
            <path d="M933.979,1274.59C933.979,1270.74 928.066,1267.62 920.771,1267.62L700.955,1267.62C693.66,1267.62 687.747,1270.74 687.747,1274.59L687.747,1433.28C687.747,1437.12 693.66,1440.25 700.955,1440.25L920.771,1440.25C928.066,1440.25 933.979,1437.12 933.979,1433.28L933.979,1274.59ZM714.163,1281.56L714.163,1426.3L907.563,1426.3L907.563,1281.56L714.163,1281.56Z" style="fill:rgb(95,95,97);"/>
        </g>
        <g transform="matrix(0.189276,0,0,0.358605,-242.818,-507.219)">
            <path d="M933.979,1274.59C933.979,1270.74 928.066,1267.62 920.771,1267.62L700.955,1267.62C693.66,1267.62 687.747,1270.74 687.747,1274.59L687.747,1433.28C687.747,1437.12 693.66,1440.25 700.955,1440.25L920.771,1440.25C928.066,1440.25 933.979,1437.12 933.979,1433.28L933.979,1274.59ZM714.163,1281.56L714.163,1426.3L907.563,1426.3L907.563,1281.56L714.163,1281.56Z" style="fill:rgb(95,95,97);"/>
        </g>
        <g transform="matrix(0.189276,0,0,0.358605,-242.818,-450.314)">
            <path d="M933.979,1274.59C933.979,1270.74 928.066,1267.62 920.771,1267.62L700.955,1267.62C693.66,1267.62 687.747,1270.74 687.747,1274.59L687.747,1433.28C687.747,1437.12 693.66,1440.25 700.955,1440.25L920.771,1440.25C928.066,1440.25 933.979,1437.12 933.979,1433.28L933.979,1274.59ZM714.163,1281.56L714.163,1426.3L907.563,1426.3L907.563,1281.56L714.163,1281.56Z" style="fill:rgb(95,95,97);"/>
        </g>
        <g transform="matrix(0.189276,0,0,0.358605,-242.818,-393.41)">
            <path d="M933.979,1274.59C933.979,1270.74 928.066,1267.62 920.771,1267.62L700.955,1267.62C693.66,1267.62 687.747,1270.74 687.747,1274.59L687.747,1433.28C687.747,1437.12 693.66,1440.25 700.955,1440.25L920.771,1440.25C928.066,1440.25 933.979,1437.12 933.979,1433.28L933.979,1274.59ZM714.163,1281.56L714.163,1426.3L907.563,1426.3L907.563,1281.56L714.163,1281.56Z" style="fill:rgb(95,95,97);"/>
        </g>
        <g transform="matrix(0.189276,0,0,0.358605,-201.212,-310.534)">
            <path d="M933.979,1274.59C933.979,1270.74 928.066,1267.62 920.771,1267.62L700.955,1267.62C693.66,1267.62 687.747,1270.74 687.747,1274.59L687.747,1433.28C687.747,1437.12 693.66,1440.25 700.955,1440.25L920.771,1440.25C928.066,1440.25 933.979,1437.12 933.979,1433.28L933.979,1274.59ZM714.163,1281.56L714.163,1426.3L907.563,1426.3L907.563,1281.56L714.163,1281.56Z" style="fill:rgb(95,95,97);"/>
        </g>
        <g transform="matrix(0.189276,0,0,0.358605,13.2571,-310.534)">
            <path d="M933.979,1274.59C933.979,1270.74 928.066,1267.62 920.771,1267.62L700.955,1267.62C693.66,1267.62 687.747,1270.74 687.747,1274.59L687.747,1433.28C687.747,1437.12 693.66,1440.25 700.955,1440.25L920.771,1440.25C928.066,1440.25 933.979,1437.12 933.979,1433.28L933.979,1274.59ZM714.163,1281.56L714.163,1426.3L907.563,1426.3L907.563,1281.56L714.163,1281.56Z" style="fill:rgb(95,95,97);"/>
        </g>
        <g transform="matrix(0.189276,0,0,0.358605,54.8631,-310.534)">
            <path d="M933.979,1274.59C933.979,1270.74 928.066,1267.62 920.771,1267.62L700.955,1267.62C693.66,1267.62 687.747,1270.74 687.747,1274.59L687.747,1433.28C687.747,1437.12 693.66,1440.25 700.955,1440.25L920.771,1440.25C928.066,1440.25 933.979,1437.12 933.979,1433.28L933.979,1274.59ZM714.163,1281.56L714.163,1426.3L907.563,1426.3L907.563,1281.56L714.163,1281.56Z" style="fill:rgb(95,95,97);"/>
        </g>
        <g transform="matrix(0.189276,0,0,0.358605,-242.818,-310.534)">
            <path d="M933.979,1274.59C933.979,1270.74 928.066,1267.62 920.771,1267.62L700.955,1267.62C693.66,1267.62 687.747,1270.74 687.747,1274.59L687.747,1433.28C687.747,1437.12 693.66,1440.25 700.955,1440.25L920.771,1440.25C928.066,1440.25 933.979,1437.12 933.979,1433.28L933.979,1274.59ZM714.163,1281.56L714.163,1426.3L907.563,1426.3L907.563,1281.56L714.163,1281.56Z" style="fill:rgb(95,95,97);"/>
        </g>
        <g transform="matrix(4.97078,0,0,4.97924,-2429.42,-8313.42)">
            <path d="M505.817,1704.07C505.817,1703.79 505.592,1703.57 505.315,1703.57L496.107,1703.57C495.829,1703.57 495.604,1703.79 495.604,1704.07L495.604,1715.6C495.604,1715.87 495.829,1716.1 496.107,1716.1L505.315,1716.1C505.592,1716.1 505.817,1715.87 505.817,1715.6L505.817,1704.07ZM496.61,1704.57L496.61,1715.09L504.812,1715.09L504.812,1704.57L496.61,1704.57Z" style="fill:rgb(95,95,97);"/>
        </g>
    </g>
</svg>
