<?xml version="1.0" encoding="UTF-8" standalone="no"?>
<!DOCTYPE svg PUBLIC "-//W3C//DTD SVG 1.1//EN" "http://www.w3.org/Graphics/SVG/1.1/DTD/svg11.dtd">
<svg width="100%" height="100%" viewBox="0 0 119 91" version="1.1" xmlns="http://www.w3.org/2000/svg" xmlns:xlink="http://www.w3.org/1999/xlink" xml:space="preserve" xmlns:serif="http://www.serif.com/" style="fill-rule:evenodd;clip-rule:evenodd;stroke-linejoin:round;stroke-miterlimit:2;">
    <g transform="matrix(0.246744,0,0,0.246744,44.8187,34.2731)">
        <g transform="matrix(2.08181,0,0,2.08181,-1757.16,-5078.48)">
            <path d="M942.194,2404.92C942.194,2404.92 940.081,2393.53 927.488,2392.83C916.646,2392.22 908.469,2384.38 910.411,2374.15C910.535,2373.5 910.107,2372.87 909.456,2372.75C908.804,2372.63 908.175,2373.05 908.052,2373.7C905.833,2385.39 914.968,2394.53 927.355,2395.22C937.99,2395.82 939.835,2405.36 939.835,2405.36C939.958,2406.01 940.586,2406.44 941.238,2406.32C941.889,2406.2 942.318,2405.57 942.194,2404.92Z" style="fill:rgb(95,95,97);"/>
        </g>
        <g transform="matrix(2.08181,0,0,2.08181,-1756.58,-5069.99)">
            <path d="M906.209,2431.05C906.209,2431.05 905.137,2422.13 913.808,2419.78C914.448,2419.6 914.826,2418.94 914.652,2418.3C914.479,2417.66 913.818,2417.28 913.179,2417.46C902.504,2420.36 903.824,2431.33 903.824,2431.33C903.903,2431.99 904.502,2432.46 905.16,2432.38C905.818,2432.3 906.288,2431.7 906.209,2431.05Z" style="fill:rgb(95,95,97);"/>
        </g>
        <g transform="matrix(1.33288,0,0,1.33288,-1047.73,-3275.49)">
            <path d="M951.321,2396.41C951.321,2396.41 952.936,2388.51 964.431,2386.89C978.666,2384.88 987.142,2374.14 985.2,2362.58C985.029,2361.56 984.061,2360.87 983.04,2361.04C982.019,2361.21 981.329,2362.18 981.501,2363.2C983.117,2372.83 975.757,2381.51 963.907,2383.18C949.315,2385.24 947.629,2395.75 947.629,2395.75C947.446,2396.77 948.125,2397.74 949.144,2397.93C950.163,2398.11 951.138,2397.43 951.321,2396.41Z" style="fill:rgb(95,95,97);"/>
        </g>
        <g transform="matrix(6.16216,0,0,2.63202,-4644.45,-6417.31)">
            <path d="M791.649,2495.33C791.649,2493.7 791.085,2492.38 790.39,2492.38L780.25,2492.38C779.555,2492.38 778.991,2493.7 778.991,2495.33L778.991,2524.57C778.991,2525.09 779.173,2525.52 779.397,2525.52L791.243,2525.52C791.467,2525.52 791.649,2525.09 791.649,2524.57L791.649,2495.33ZM790.837,2495.33C790.837,2494.75 790.637,2494.28 790.39,2494.28L780.25,2494.28C780.003,2494.28 779.803,2494.75 779.803,2495.33L779.803,2523.62L790.837,2523.62L790.837,2495.33Z" style="fill:rgb(95,95,97);"/>
        </g>
        <g transform="matrix(2.08181,0,0,1.02357,-1761.54,-2422.9)">
            <path d="M824.351,2511.54C824.351,2510.21 824.09,2508.93 823.626,2507.98C823.161,2507.04 822.531,2506.51 821.874,2506.51C818.642,2506.51 810.159,2506.51 806.927,2506.51C806.27,2506.51 805.64,2507.04 805.175,2507.98C804.711,2508.93 804.45,2510.21 804.45,2511.54C804.45,2514.45 804.45,2519.12 804.45,2522.01C804.45,2523.34 804.709,2524.61 805.17,2525.55C805.632,2526.48 806.257,2527.01 806.91,2527.01C810.135,2527.01 818.666,2527.01 821.891,2527.01C822.544,2527.01 823.169,2526.48 823.631,2525.55C824.092,2524.61 824.351,2523.34 824.351,2522.01L824.351,2511.54ZM821.949,2511.54L821.949,2522.01C821.949,2522.04 821.943,2522.07 821.932,2522.09C821.921,2522.11 821.907,2522.13 821.891,2522.13C818.666,2522.13 810.135,2522.13 806.91,2522.13C806.894,2522.13 806.88,2522.11 806.869,2522.09C806.858,2522.07 806.852,2522.04 806.852,2522.01C806.852,2519.12 806.852,2514.45 806.852,2511.54C806.852,2511.5 806.86,2511.47 806.874,2511.44C806.888,2511.41 806.907,2511.39 806.927,2511.39C810.159,2511.39 818.642,2511.39 821.874,2511.39C821.894,2511.39 821.913,2511.41 821.927,2511.44C821.941,2511.47 821.949,2511.5 821.949,2511.54Z" style="fill:rgb(95,95,97);"/>
        </g>
        <g transform="matrix(2.08181,0,0,1.02357,-1707.89,-2422.9)">
            <path d="M824.351,2511.54C824.351,2510.21 824.09,2508.93 823.626,2507.98C823.161,2507.04 822.531,2506.51 821.874,2506.51C818.642,2506.51 810.159,2506.51 806.927,2506.51C806.27,2506.51 805.64,2507.04 805.175,2507.98C804.711,2508.93 804.45,2510.21 804.45,2511.54C804.45,2514.45 804.45,2519.12 804.45,2522.01C804.45,2523.34 804.709,2524.61 805.17,2525.55C805.632,2526.48 806.257,2527.01 806.91,2527.01C810.135,2527.01 818.666,2527.01 821.891,2527.01C822.544,2527.01 823.169,2526.48 823.631,2525.55C824.092,2524.61 824.351,2523.34 824.351,2522.01L824.351,2511.54ZM821.949,2511.54L821.949,2522.01C821.949,2522.04 821.943,2522.07 821.932,2522.09C821.921,2522.11 821.907,2522.13 821.891,2522.13C818.666,2522.13 810.135,2522.13 806.91,2522.13C806.894,2522.13 806.88,2522.11 806.869,2522.09C806.858,2522.07 806.852,2522.04 806.852,2522.01C806.852,2519.12 806.852,2514.45 806.852,2511.54C806.852,2511.5 806.86,2511.47 806.874,2511.44C806.888,2511.41 806.907,2511.39 806.927,2511.39C810.159,2511.39 818.642,2511.39 821.874,2511.39C821.894,2511.39 821.913,2511.41 821.927,2511.44C821.941,2511.47 821.949,2511.5 821.949,2511.54Z" style="fill:rgb(95,95,97);"/>
        </g>
        <g transform="matrix(2.08181,0,0,1.02357,-1652.16,-2422.9)">
            <path d="M824.351,2511.54C824.351,2510.21 824.09,2508.93 823.626,2507.98C823.161,2507.04 822.531,2506.51 821.874,2506.51C818.642,2506.51 810.159,2506.51 806.927,2506.51C806.27,2506.51 805.64,2507.04 805.175,2507.98C804.711,2508.93 804.45,2510.21 804.45,2511.54C804.45,2514.45 804.45,2519.12 804.45,2522.01C804.45,2523.34 804.709,2524.61 805.17,2525.55C805.632,2526.48 806.257,2527.01 806.91,2527.01C810.135,2527.01 818.666,2527.01 821.891,2527.01C822.544,2527.01 823.169,2526.48 823.631,2525.55C824.092,2524.61 824.351,2523.34 824.351,2522.01L824.351,2511.54ZM821.949,2511.54L821.949,2522.01C821.949,2522.04 821.943,2522.07 821.932,2522.09C821.921,2522.11 821.907,2522.13 821.891,2522.13C818.666,2522.13 810.135,2522.13 806.91,2522.13C806.894,2522.13 806.88,2522.11 806.869,2522.09C806.858,2522.07 806.852,2522.04 806.852,2522.01C806.852,2519.12 806.852,2514.45 806.852,2511.54C806.852,2511.5 806.86,2511.47 806.874,2511.44C806.888,2511.41 806.907,2511.39 806.927,2511.39C810.159,2511.39 818.642,2511.39 821.874,2511.39C821.894,2511.39 821.913,2511.41 821.927,2511.44C821.941,2511.47 821.949,2511.5 821.949,2511.54Z" style="fill:rgb(95,95,97);"/>
        </g>
        <g transform="matrix(1.58787,0,0,1.58787,-1307.83,-3874.62)">
            <path d="M899.504,2436.41C899.504,2436.41 897.229,2425.25 885.832,2425.25C885.864,2425.25 873.928,2425.1 873.928,2414.52C873.928,2409.23 876.886,2406.17 880.43,2404.41C884.217,2402.53 888.656,2402.08 891.249,2402.08C892.118,2402.08 892.824,2401.37 892.824,2400.5C892.824,2399.63 892.118,2398.93 891.249,2398.93C888.319,2398.93 883.31,2399.47 879.031,2401.59C874.508,2403.83 870.779,2407.78 870.779,2414.52C870.779,2428 885.8,2428.4 885.8,2428.4C885.81,2428.4 885.821,2428.4 885.832,2428.4C894.657,2428.4 896.419,2437.04 896.419,2437.04C896.593,2437.89 897.425,2438.45 898.276,2438.27C899.128,2438.1 899.678,2437.27 899.504,2436.41Z" style="fill:rgb(95,95,97);"/>
        </g>
        <g transform="matrix(2.08181,0,0,2.08181,-1756.58,-5069.99)">
            <path d="M879.393,2493.09L973.754,2493.09C975.674,2493.09 977.231,2494.65 977.231,2496.57C977.231,2506.38 977.231,2544.6 977.231,2544.6C977.231,2545.27 976.693,2545.8 976.03,2545.8L768.678,2545.8C768.014,2545.8 767.477,2545.27 767.477,2544.6L767.477,2467.62C767.477,2466.31 768.078,2465.06 769.109,2464.25C773.771,2460.55 790.963,2446.93 796.545,2442.51C797.232,2441.97 798.171,2441.86 798.961,2442.24C799.752,2442.63 800.253,2443.43 800.253,2444.3L800.253,2479.05L822.281,2461.82C822.97,2461.28 823.906,2461.18 824.693,2461.56C825.48,2461.95 825.979,2462.74 825.979,2463.62L825.979,2479.1L849.165,2461.55C849.858,2461.02 850.787,2460.94 851.565,2461.32C852.342,2461.71 852.834,2462.5 852.834,2463.37L852.834,2479.09L875.72,2461.7C876.413,2461.17 877.343,2461.08 878.122,2461.47C878.901,2461.85 879.393,2462.65 879.393,2463.52L879.393,2493.09ZM797.852,2444.54L770.6,2466.13C770.144,2466.49 769.879,2467.04 769.879,2467.62L769.879,2543.4L974.829,2543.4L974.829,2496.57C974.829,2495.97 974.348,2495.49 973.754,2495.49L878.192,2495.49C877.529,2495.49 876.991,2494.95 876.991,2494.29L876.991,2463.75L852.36,2482.47C851.997,2482.75 851.508,2482.79 851.1,2482.59C850.691,2482.39 850.432,2481.97 850.432,2481.51L850.432,2463.6L825.503,2482.47C825.139,2482.75 824.651,2482.79 824.243,2482.59C823.835,2482.39 823.577,2481.97 823.577,2481.51L823.577,2463.85L799.793,2482.46C799.431,2482.74 798.939,2482.8 798.527,2482.6C798.114,2482.39 797.852,2481.97 797.852,2481.51L797.852,2444.54Z" style="fill:rgb(95,95,97);"/>
        </g>
        <g transform="matrix(2.08181,0,0,2.32664,-1773.26,-5680.66)">
            <path d="M898.707,2495.37L924.275,2495.37C924.612,2495.37 924.935,2495.24 925.162,2495.01C925.39,2494.79 925.502,2494.49 925.471,2494.19L920.241,2443.42C920.184,2442.87 919.666,2442.44 919.045,2442.44L903.937,2442.44C903.316,2442.44 902.798,2442.87 902.741,2443.42L897.512,2494.19C897.481,2494.49 897.593,2494.79 897.82,2495.01C898.048,2495.24 898.37,2495.37 898.707,2495.37ZM905.032,2444.59L900.024,2493.22L922.958,2493.22L917.95,2444.59L905.032,2444.59Z" style="fill:rgb(95,95,97);"/>
        </g>
        <g transform="matrix(2.82002,0,0,3.15166,-2365.92,-7738.51)">
            <path d="M898.707,2495.08L924.275,2495.08C924.522,2495.08 924.758,2494.99 924.926,2494.83C925.094,2494.67 925.178,2494.45 925.159,2494.23L919.929,2435.34C919.892,2434.93 919.508,2434.61 919.045,2434.61L903.937,2434.61C903.475,2434.61 903.09,2434.93 903.053,2435.34L897.824,2494.23C897.804,2494.45 897.888,2494.67 898.056,2494.83C898.224,2494.99 898.46,2495.08 898.707,2495.08ZM904.756,2436.2L899.667,2493.5L923.315,2493.5L918.226,2436.2L904.756,2436.2Z" style="fill:rgb(95,95,97);"/>
        </g>
        <g transform="matrix(2.00087,0,0,2.00087,-1676.44,-1979.03)">
            <path d="M790.078,1037.1L790.078,1102.74C790.078,1103.43 790.638,1103.99 791.327,1103.99C792.017,1103.99 792.577,1103.43 792.577,1102.74L792.577,1037.1C792.577,1036.41 792.017,1035.85 791.327,1035.85C790.638,1035.85 790.078,1036.41 790.078,1037.1Z" style="fill:rgb(95,95,97);"/>
        </g>
        <g transform="matrix(2.00087,0,0,2.00087,-1622.27,-1979.03)">
            <path d="M790.078,1037.1L790.078,1102.74C790.078,1103.43 790.638,1103.99 791.327,1103.99C792.017,1103.99 792.577,1103.43 792.577,1102.74L792.577,1037.1C792.577,1036.41 792.017,1035.85 791.327,1035.85C790.638,1035.85 790.078,1036.41 790.078,1037.1Z" style="fill:rgb(95,95,97);"/>
        </g>
        <g transform="matrix(2.00087,0,0,2.00087,-1566.82,-1979.03)">
            <path d="M790.078,1037.1L790.078,1102.74C790.078,1103.43 790.638,1103.99 791.327,1103.99C792.017,1103.99 792.577,1103.43 792.577,1102.74L792.577,1037.1C792.577,1036.41 792.017,1035.85 791.327,1035.85C790.638,1035.85 790.078,1036.41 790.078,1037.1Z" style="fill:rgb(95,95,97);"/>
        </g>
        <g transform="matrix(1.62615,0,0,1.62615,-1215.34,-1565.81)">
            <path d="M789.79,1037.1L789.79,1102.74C789.79,1103.59 790.479,1104.28 791.327,1104.28C792.176,1104.28 792.865,1103.59 792.865,1102.74L792.865,1037.1C792.865,1036.25 792.176,1035.56 791.327,1035.56C790.479,1035.56 789.79,1036.25 789.79,1037.1Z" style="fill:rgb(95,95,97);"/>
        </g>
    </g>
</svg>
