<svg width="20" height="20" viewBox="0 0 20 20" fill="none" xmlns="http://www.w3.org/2000/svg">
<path d="M10 6.45833C8.04399 6.45833 6.45833 8.04399 6.45833 10C6.45833 11.956 8.04399 13.5417 10 13.5417C11.956 13.5417 13.5417 11.956 13.5417 10C13.5417 8.04399 11.956 6.45833 10 6.45833Z" fill="white"/>
<path fill-rule="evenodd" clip-rule="evenodd" d="M10 0.625C4.82233 0.625 0.625 4.82233 0.625 10C0.625 15.1777 4.82233 19.375 10 19.375C15.1777 19.375 19.375 15.1777 19.375 10C19.375 4.82233 15.1777 0.625 10 0.625ZM2.70833 10C2.70833 5.97292 5.97292 2.70833 10 2.70833C14.0271 2.70833 17.2917 5.97292 17.2917 10C17.2917 14.0271 14.0271 17.2917 10 17.2917C5.97292 17.2917 2.70833 14.0271 2.70833 10Z" fill="white"/>
</svg>
