<svg width="16" height="16" viewBox="0 0 16 16" fill="none" xmlns="http://www.w3.org/2000/svg">
<path fill-rule="evenodd" clip-rule="evenodd" d="M4 2.16669C3.72386 2.16669 3.5 2.39054 3.5 2.66669V13.3334C3.5 13.6095 3.72386 13.8334 4 13.8334H6.66667C6.94281 13.8334 7.16667 13.6095 7.16667 13.3334V2.66669C7.16667 2.39054 6.94281 2.16669 6.66667 2.16669H4ZM9.33333 2.16669C9.05719 2.16669 8.83333 2.39054 8.83333 2.66669V13.3334C8.83333 13.6095 9.05719 13.8334 9.33333 13.8334H12C12.2761 13.8334 12.5 13.6095 12.5 13.3334V2.66669C12.5 2.39054 12.2761 2.16669 12 2.16669H9.33333Z" fill="#FFBE3D"/>
</svg>
