<svg width="18" height="18" viewBox="0 0 18 18" fill="none" xmlns="http://www.w3.org/2000/svg">
<path d="M8.99996 0.666656C13.5929 0.666656 17.3333 4.4052 17.3333 9.00481C17.3333 13.5948 13.5929 17.3333 8.99996 17.3333C4.40697 17.3333 0.666626 13.5948 0.666626 9.00481C0.666626 4.4052 4.40697 0.666656 8.99996 0.666656ZM8.0508 5.69158C7.87383 5.69158 7.70491 5.73178 7.54404 5.81218C7.34295 5.92474 7.18207 6.10161 7.09359 6.31065C7.03728 6.45537 6.9488 6.88952 6.9488 6.89756C6.86032 7.37191 6.81206 8.14374 6.81206 8.99597C6.81206 9.8088 6.86032 10.5477 6.93271 11.0301C6.94076 11.0381 7.02924 11.5768 7.12576 11.7617C7.30273 12.0994 7.64861 12.3084 8.01862 12.3084H8.0508C8.29211 12.3004 8.79887 12.0913 8.79887 12.0833C9.6515 11.7295 11.3327 10.6281 12.0083 9.89644L12.0566 9.8482C12.1451 9.75976 12.2577 9.62308 12.2818 9.59092C12.4105 9.42208 12.4749 9.21305 12.4749 9.00481C12.4749 8.77085 12.4025 8.55378 12.2657 8.3769C12.2336 8.34474 12.1129 8.20806 12.0003 8.0955C11.3407 7.38799 9.61933 6.23025 8.71843 5.8765C8.58168 5.82102 8.2358 5.69962 8.0508 5.69158Z" fill="#827D7D"/>
</svg>
