<svg width="64" height="40" viewBox="0 0 64 40" fill="none" xmlns="http://www.w3.org/2000/svg">
<path d="M0 20C0 8.95431 8.95431 0 20 0C31.0457 0 40 8.95431 40 20C40 31.0457 31.0457 40 20 40C8.95431 40 0 31.0457 0 20Z" fill="white"/>
<path d="M20 22.1159C22.8924 22.1159 25.3334 22.5859 25.3334 24.3993C25.3334 26.2133 22.8764 26.6666 20 26.6666C17.1083 26.6666 14.6667 26.1966 14.6667 24.3833C14.6667 22.5693 17.1236 22.1159 20 22.1159ZM20 13.3333C21.9594 13.3333 23.5293 14.9027 23.5293 16.8607C23.5293 18.8187 21.9594 20.3887 20 20.3887C18.0413 20.3887 16.4707 18.8187 16.4707 16.8607C16.4707 14.9027 18.0413 13.3333 20 13.3333Z" fill="#343232"/>
<path d="M46.8721 17.7477C46.6272 17.5661 46.2801 17.586 46.0581 17.808C45.814 18.0521 45.814 18.4479 46.0581 18.6919L49.5645 22.1984L49.6205 22.2467L49.6279 22.2522C49.8728 22.4339 50.2199 22.414 50.4419 22.1919L53.9484 18.6855L53.9967 18.6295L54.0022 18.6221C54.1839 18.3772 54.164 18.0301 53.9419 17.808L53.9355 17.8016L53.8795 17.7532L53.8721 17.7477C53.6272 17.5661 53.2801 17.586 53.0581 17.808L50 20.8659L46.9355 17.8016L46.8795 17.7532L46.8721 17.7477Z" fill="#ffffff"/>
<rect x="0.5" y="0.5" width="63" height="39" rx="19.5" stroke="#4E4B4B"/>
</svg>
