<svg width="18" height="20" viewBox="0 0 18 20" fill="none" xmlns="http://www.w3.org/2000/svg">
<path d="M8.99998 14C10.671 14 12 12.669 12 11C12 9.331 10.671 8 8.99998 8C7.32898 8 5.99998 9.331 5.99998 11C5.99998 12.669 7.32898 14 8.99998 14Z" fill="#827D7D"/>
<path d="M17.817 9.186C17.697 8.603 17.52 8.035 17.292 7.498C17.067 6.966 16.788 6.452 16.462 5.967C16.138 5.488 15.769 5.041 15.364 4.638C14.96 4.232 14.511 3.862 14.032 3.537C13.549 3.211 13.034 2.933 12.504 2.708C11.966 2.479 11.398 2.303 10.813 2.182C10.213 2.059 9.59398 2 8.97498 2.002V0L4.99998 3L8.97498 6V4.002C9.45898 4 9.94298 4.046 10.41 4.142C10.864 4.236 11.306 4.373 11.724 4.551C12.137 4.725 12.537 4.943 12.912 5.195C13.285 5.447 13.634 5.735 13.95 6.052C14.265 6.366 14.554 6.715 14.804 7.087C15.058 7.463 15.275 7.863 15.45 8.278C15.628 8.695 15.764 9.137 15.858 9.589C15.952 10.048 16 10.523 16 11C16 11.477 15.952 11.952 15.858 12.41C15.764 12.864 15.628 13.306 15.45 13.725C15.275 14.138 15.058 14.538 14.806 14.913C14.553 15.286 14.264 15.635 13.948 15.952C13.633 16.268 13.285 16.555 12.912 16.806C12.54 17.057 12.141 17.274 11.723 17.451C11.306 17.628 10.865 17.765 10.412 17.859C9.49198 18.047 8.50598 18.047 7.58998 17.859C7.13598 17.765 6.69398 17.628 6.27598 17.45C5.85998 17.274 5.46098 17.057 5.08698 16.805C4.71598 16.555 4.36798 16.267 4.05198 15.951C3.73698 15.635 3.44798 15.286 3.19698 14.915C2.94298 14.539 2.72598 14.139 2.55098 13.725C2.37298 13.307 2.23698 12.865 2.14298 12.413C2.11462 12.2754 2.09045 12.1365 2.07049 11.9967C1.99244 11.4499 1.55227 11 0.999981 11C0.447697 11 -0.00563054 11.449 0.055016 11.998C0.0853432 12.2725 0.128092 12.545 0.182981 12.814C0.302981 13.396 0.479981 13.964 0.707981 14.503C0.932981 15.035 1.21198 15.549 1.53898 16.034C1.86198 16.511 2.23098 16.958 2.63598 17.363C3.04198 17.77 3.48998 18.14 3.96698 18.462C4.44598 18.787 4.96098 19.066 5.49598 19.292C6.03398 19.521 6.60198 19.697 7.18698 19.818C7.77898 19.938 8.38898 20 8.99998 20C9.61098 20 10.221 19.938 10.814 19.817C11.397 19.696 11.965 19.52 12.502 19.292C13.039 19.065 13.554 18.786 14.032 18.462C14.51 18.14 14.958 17.77 15.363 17.363C15.768 16.958 16.137 16.51 16.463 16.031C16.788 15.548 17.067 15.033 17.292 14.503C17.521 13.963 17.697 13.395 17.817 12.811C17.938 12.221 18 11.611 18 11C18 10.389 17.938 9.779 17.817 9.186Z" fill="#827D7D"/>
</svg>
