<svg width="14" height="14" viewBox="0 0 14 14" fill="none" xmlns="http://www.w3.org/2000/svg">
<path d="M7.00001 0.333374C10.6867 0.333374 13.6667 3.32004 13.6667 7.00004C13.6667 10.6867 10.6867 13.6667 7.00001 13.6667C3.32001 13.6667 0.333344 10.6867 0.333344 7.00004C0.333344 3.32004 3.32001 0.333374 7.00001 0.333374ZM6.76668 3.62004C6.49334 3.62004 6.26668 3.84004 6.26668 4.12004V7.48671C6.26668 7.66004 6.36001 7.82004 6.51334 7.91337L9.12668 9.47337C9.20668 9.52004 9.29334 9.54671 9.38668 9.54671C9.55334 9.54671 9.72001 9.46004 9.81334 9.30004C9.95334 9.06671 9.88001 8.76004 9.64001 8.61337L7.26668 7.20004V4.12004C7.26668 3.84004 7.04001 3.62004 6.76668 3.62004Z" fill="#827D7D"/>
</svg>
