<svg width="22" height="22" viewBox="0 0 22 22" fill="none" xmlns="http://www.w3.org/2000/svg">
<path d="M16.4967 19.8C15.5078 19.8 15.0799 19.4579 14.4331 18.9409C13.6851 18.3436 12.7556 17.6 10.9934 17.6C9.2323 17.6 8.3028 18.3436 7.5559 18.942C6.9102 19.4579 6.4834 19.8 5.4945 19.8C4.5078 19.8 4.081 19.4579 3.4353 18.942C2.8435 18.4679 2.13844 17.9026 0.995088 17.6882C0.452259 17.5865 0 18.0477 0 18.6V18.8C0 19.3523 0.465373 19.7629 0.981566 19.9593C1.37235 20.108 1.67794 20.3525 2.0603 20.658C2.8072 21.2564 3.7356 22 5.4945 22C7.2556 22 8.184 21.2564 8.9309 20.6591C9.5777 20.1421 10.0045 19.8 10.9934 19.8C11.9834 19.8 12.4355 20.1608 13.0592 20.6591C13.8061 21.2564 14.7356 22 16.4967 22C18.2578 22 19.1873 21.2564 19.9342 20.6591C20.3065 20.3616 20.6177 20.1132 21.0187 19.9612C21.5351 19.7655 22 19.3523 22 18.8V18.6C22 18.0477 21.5478 17.5865 21.0049 17.6881C19.8599 17.9023 19.1531 18.4675 18.5603 18.9409C17.9135 19.4579 17.4856 19.8 16.4967 19.8ZM4.4 7.15L4.14029 7.21493C3.0687 7.48283 2.41717 8.5687 2.68507 9.64029L4.4 16.5C4.4 16.5 5.1568 16.5 5.4945 16.5C7.2556 16.5 8.184 15.7564 8.9309 15.1591C9.5777 14.6421 10.0045 14.3 10.9934 14.3C11.9834 14.3 12.4355 14.6608 13.0592 15.1591C13.8061 15.7564 14.7356 16.5 16.4967 16.5C16.8377 16.5 17.6 16.5 17.6 16.5L17.6297 16.3823L19.315 9.64023C19.5829 8.56866 18.9313 7.48284 17.8598 7.21495L17.6 7.15V3.3011C17.6 2.7753 17.2293 2.3243 16.7156 2.222L12.1 1.2991V1.1C12.1 0.492487 11.6075 0 11 0C10.3925 0 9.9 0.492487 9.9 1.1V1.2991L5.2844 2.222C4.7707 2.3243 4.4 2.7753 4.4 3.3011V7.15ZM6.6 4.2009L11 3.3209L15.4 4.2009V6.6L11 5.5L6.6 6.6V4.2009Z" fill="#FFFFFF"/>
</svg>
