<svg width="48" height="10" viewBox="0 0 48 10" fill="none" xmlns="http://www.w3.org/2000/svg">
<path d="M5.412 9.672C4.676 9.672 4.02 9.556 3.444 9.324C2.868 9.1 2.384 8.788 1.992 8.388C1.608 7.98 1.312 7.492 1.104 6.924C0.904 6.348 0.804 5.72 0.804 5.04C0.804 4.368 0.904 3.752 1.104 3.192C1.312 2.624 1.608 2.14 1.992 1.74C2.384 1.332 2.868 1.016 3.444 0.792C4.02 0.568 4.676 0.456 5.412 0.456C6.148 0.456 6.804 0.568 7.38 0.792C7.956 1.016 8.44 1.332 8.832 1.74C9.224 2.14 9.52 2.624 9.72 3.192C9.928 3.752 10.032 4.368 10.032 5.04C10.032 5.72 9.928 6.348 9.72 6.924C9.52 7.492 9.224 7.98 8.832 8.388C8.44 8.788 7.956 9.1 7.38 9.324C6.804 9.556 6.148 9.672 5.412 9.672ZM5.412 1.212C4.74 1.212 4.164 1.316 3.684 1.524C3.204 1.732 2.812 2.008 2.508 2.352C2.204 2.696 1.98 3.104 1.836 3.576C1.7 4.04 1.632 4.528 1.632 5.04C1.632 5.56 1.7 6.056 1.836 6.528C1.98 7 2.204 7.412 2.508 7.764C2.812 8.108 3.204 8.384 3.684 8.592C4.164 8.792 4.74 8.892 5.412 8.892C6.092 8.892 6.672 8.792 7.152 8.592C7.632 8.384 8.024 8.108 8.328 7.764C8.632 7.412 8.852 7 8.988 6.528C9.132 6.056 9.204 5.56 9.204 5.04C9.204 4.528 9.132 4.04 8.988 3.576C8.852 3.104 8.632 2.696 8.328 2.352C8.024 2.008 7.632 1.732 7.152 1.524C6.672 1.316 6.092 1.212 5.412 1.212ZM6.972 6.612V7.452C6.812 7.532 6.612 7.596 6.372 7.644C6.14 7.684 5.892 7.704 5.628 7.704C4.708 7.704 4.024 7.456 3.576 6.96C3.136 6.456 2.916 5.816 2.916 5.04C2.916 4.664 2.968 4.316 3.072 3.996C3.184 3.668 3.352 3.388 3.576 3.156C3.8 2.924 4.08 2.744 4.416 2.616C4.76 2.48 5.16 2.412 5.616 2.412C5.872 2.412 6.1 2.432 6.3 2.472C6.508 2.512 6.724 2.58 6.948 2.676V3.528C6.772 3.448 6.58 3.384 6.372 3.336C6.172 3.288 5.924 3.264 5.628 3.264C5.012 3.264 4.56 3.432 4.272 3.768C3.992 4.104 3.852 4.528 3.852 5.04C3.852 5.544 4 5.968 4.296 6.312C4.592 6.656 5.076 6.828 5.748 6.828C6.02 6.828 6.252 6.808 6.444 6.768C6.636 6.72 6.812 6.668 6.972 6.612ZM17.9073 2.136H16.1673V7.98H17.9673C18.8553 7.98 19.5233 7.74 19.9713 7.26C20.4193 6.772 20.6433 6.056 20.6433 5.112C20.6433 4.152 20.4233 3.416 19.9833 2.904C19.5433 2.392 18.8513 2.136 17.9073 2.136ZM15.0633 9V1.116H17.9553C18.5873 1.116 19.1433 1.212 19.6233 1.404C20.1033 1.596 20.4993 1.864 20.8113 2.208C21.1233 2.552 21.3553 2.968 21.5073 3.456C21.6673 3.944 21.7473 4.484 21.7473 5.076C21.7473 5.668 21.6673 6.208 21.5073 6.696C21.3553 7.184 21.1193 7.6 20.7993 7.944C20.4873 8.28 20.0913 8.54 19.6113 8.724C19.1393 8.908 18.5873 9 17.9553 9H15.0633ZM26.3894 2.148H24.7574V5.124H26.3894C27.0614 5.124 27.5254 4.996 27.7814 4.74C28.0454 4.476 28.1774 4.128 28.1774 3.696C28.1774 3.232 28.0454 2.86 27.7814 2.58C27.5254 2.292 27.0614 2.148 26.3894 2.148ZM29.2814 3.684C29.2814 4.268 29.1414 4.76 28.8614 5.16C28.5814 5.56 28.1614 5.836 27.6014 5.988L29.7374 9H28.4414L26.5934 6.12H26.5094H24.7574V9H23.6534V1.116H26.5094C27.4374 1.116 28.1294 1.344 28.5854 1.8C29.0494 2.248 29.2814 2.876 29.2814 3.684ZM34.1963 2.136H32.4563V7.98H34.2563C35.1443 7.98 35.8123 7.74 36.2603 7.26C36.7083 6.772 36.9323 6.056 36.9323 5.112C36.9323 4.152 36.7123 3.416 36.2723 2.904C35.8323 2.392 35.1403 2.136 34.1963 2.136ZM31.3523 9V1.116H34.2443C34.8763 1.116 35.4323 1.212 35.9123 1.404C36.3923 1.596 36.7883 1.864 37.1003 2.208C37.4123 2.552 37.6443 2.968 37.7963 3.456C37.9563 3.944 38.0363 4.484 38.0363 5.076C38.0363 5.668 37.9563 6.208 37.7963 6.696C37.6443 7.184 37.4083 7.6 37.0883 7.944C36.7763 8.28 36.3803 8.54 35.9003 8.724C35.4283 8.908 34.8763 9 34.2443 9H31.3523ZM43.2305 9.132C42.6225 9.132 42.0785 9.032 41.5985 8.832C41.1265 8.624 40.7305 8.344 40.4105 7.992C40.0905 7.632 39.8465 7.2 39.6785 6.696C39.5105 6.192 39.4265 5.64 39.4265 5.04C39.4265 4.448 39.5105 3.904 39.6785 3.408C39.8465 2.904 40.0905 2.476 40.4105 2.124C40.7305 1.764 41.1265 1.484 41.5985 1.284C42.0785 1.084 42.6225 0.983999 43.2305 0.983999C43.8305 0.983999 44.3665 1.084 44.8385 1.284C45.3185 1.484 45.7185 1.764 46.0385 2.124C46.3585 2.476 46.6025 2.904 46.7705 3.408C46.9385 3.904 47.0225 4.448 47.0225 5.04C47.0225 5.64 46.9385 6.192 46.7705 6.696C46.6025 7.2 46.3585 7.632 46.0385 7.992C45.7185 8.344 45.3185 8.624 44.8385 8.832C44.3665 9.032 43.8305 9.132 43.2305 9.132ZM43.2185 2.004C42.7385 2.004 42.3265 2.088 41.9825 2.256C41.6465 2.416 41.3705 2.636 41.1545 2.916C40.9385 3.188 40.7785 3.512 40.6745 3.888C40.5785 4.256 40.5305 4.644 40.5305 5.052C40.5305 5.468 40.5785 5.864 40.6745 6.24C40.7785 6.608 40.9385 6.932 41.1545 7.212C41.3705 7.484 41.6465 7.704 41.9825 7.872C42.3265 8.032 42.7385 8.112 43.2185 8.112C43.6985 8.112 44.1105 8.032 44.4545 7.872C44.7985 7.704 45.0785 7.484 45.2945 7.212C45.5105 6.932 45.6665 6.608 45.7625 6.24C45.8665 5.864 45.9185 5.468 45.9185 5.052C45.9185 4.644 45.8665 4.256 45.7625 3.888C45.6665 3.512 45.5105 3.188 45.2945 2.916C45.0785 2.636 44.7985 2.416 44.4545 2.256C44.1105 2.088 43.6985 2.004 43.2185 2.004Z" fill="white"/>
</svg>
