<svg width="20" height="22" viewBox="0 0 20 22" fill="none" xmlns="http://www.w3.org/2000/svg">
<path fill-rule="evenodd" clip-rule="evenodd" d="M3.33333 0C1.49223 0 0 1.56139 0 3.48781C0 5.41422 1.49223 6.97561 3.33333 6.97561C3.78507 6.97561 4.20817 6.87397 4.59493 6.70469L6.67299 8.8781C6.34946 9.51105 6.15385 10.2287 6.15385 11C6.15385 12.0501 6.50642 13.0058 7.07519 13.7732L4.71131 16.2456C4.44031 16.1521 4.15026 16.0976 3.84615 16.0976C2.29128 16.0976 1.02564 17.4206 1.02564 19.0488C1.02564 20.6769 2.29128 22 3.84615 22C5.40103 22 6.66667 20.6769 6.66667 19.0488C6.66667 18.7304 6.61444 18.4268 6.52507 18.1426L9.20809 15.3353C9.61656 15.473 10.0518 15.561 10.5128 15.561C12.917 15.561 14.8718 13.5156 14.8718 11C14.8718 10.336 14.7236 9.71548 14.4807 9.15252L16.4289 6.8579C16.6638 6.92916 16.9144 6.97561 17.1795 6.97561C18.7355 6.97561 20 5.65247 20 4.02439C20 2.39631 18.7355 1.07317 17.1795 1.07317C15.6235 1.07317 14.359 2.39631 14.359 4.02439C14.359 4.38531 14.4234 4.73002 14.5374 5.04929L12.7845 7.11228C12.1229 6.68737 11.3464 6.43902 10.5128 6.43902C9.77461 6.43902 9.08967 6.64466 8.48606 6.98142L6.40788 4.80789C6.56964 4.40357 6.66667 3.96019 6.66667 3.48781C6.66667 1.56139 5.17443 0 3.33333 0ZM8.71795 11C8.71795 9.96447 9.52315 9.12195 10.5128 9.12195C11.5025 9.12195 12.3077 9.96447 12.3077 11C12.3077 12.0355 11.5025 12.878 10.5128 12.878C9.52315 12.878 8.71795 12.0355 8.71795 11Z" fill="#827D7D"/>
</svg>
