<svg width="22" height="22" viewBox="0 0 22 22" fill="none" xmlns="http://www.w3.org/2000/svg">
<path d="M4 0.75C3.13805 0.75 2.3114 1.09241 1.7019 1.7019C1.09241 2.3114 0.75 3.13805 0.75 4V7C0.75 7.69036 1.30964 8.25 2 8.25C2.69036 8.25 3.25 7.69036 3.25 7V4C3.25 3.80109 3.32902 3.61032 3.46967 3.46967C3.61032 3.32902 3.80109 3.25 4 3.25H7C7.69036 3.25 8.25 2.69036 8.25 2C8.25 1.30964 7.69036 0.75 7 0.75H4Z" fill="#ffffff"/>
<path d="M15 0.75C14.3096 0.75 13.75 1.30964 13.75 2C13.75 2.69036 14.3096 3.25 15 3.25H18C18.1989 3.25 18.3897 3.32902 18.5303 3.46967C18.671 3.61032 18.75 3.80109 18.75 4V7C18.75 7.69036 19.3096 8.25 20 8.25C20.6904 8.25 21.25 7.69036 21.25 7V4C21.25 3.13805 20.9076 2.3114 20.2981 1.7019C19.6886 1.09241 18.862 0.75 18 0.75H15Z" fill="#ffffff"/>
<path d="M2 13.75C1.30964 13.75 0.75 14.3096 0.75 15V18C0.75 18.862 1.09241 19.6886 1.7019 20.2981C2.3114 20.9076 3.13805 21.25 4 21.25H7C7.69036 21.25 8.25 20.6904 8.25 20C8.25 19.3096 7.69036 18.75 7 18.75H4C3.80109 18.75 3.61032 18.671 3.46967 18.5303C3.32902 18.3897 3.25 18.1989 3.25 18V15C3.25 14.3096 2.69036 13.75 2 13.75Z" fill="#ffffff"/>
<path d="M20 13.75C19.3096 13.75 18.75 14.3096 18.75 15V18C18.75 18.1989 18.671 18.3897 18.5303 18.5303C18.3897 18.671 18.1989 18.75 18 18.75H15C14.3096 18.75 13.75 19.3096 13.75 20C13.75 20.6904 14.3096 21.25 15 21.25H18C18.862 21.25 19.6886 20.9076 20.2981 20.2981C20.9076 19.6886 21.25 18.862 21.25 18V15C21.25 14.3096 20.6904 13.75 20 13.75Z" fill="#ffffff"/>
</svg>
