<svg width="22" height="16" viewBox="0 0 22 16" fill="none" xmlns="http://www.w3.org/2000/svg">
<path d="M2 0.75C1.30964 0.75 0.75 1.30964 0.75 2C0.75 2.69036 1.30964 3.25 2 3.25H20C20.6904 3.25 21.25 2.69036 21.25 2C21.25 1.30964 20.6904 0.75 20 0.75H2Z" fill="white"/>
<path d="M2 6.75C1.30964 6.75 0.75 7.30964 0.75 8C0.75 8.69036 1.30964 9.25 2 9.25H20C20.6904 9.25 21.25 8.69036 21.25 8C21.25 7.30964 20.6904 6.75 20 6.75H2Z" fill="white"/>
<path d="M2 12.75C1.30964 12.75 0.75 13.3096 0.75 14C0.75 14.6904 1.30964 15.25 2 15.25H20C20.6904 15.25 21.25 14.6904 21.25 14C21.25 13.3096 20.6904 12.75 20 12.75H2Z" fill="white"/>
</svg>
