<svg width="18" height="16" viewBox="0 0 18 16" fill="none" xmlns="http://www.w3.org/2000/svg">
<path fill-rule="evenodd" clip-rule="evenodd" d="M17.5156 8.28125C17.5156 7.59089 16.956 7.03125 16.2656 7.03125H1.26563C0.57527 7.03125 0.015626 7.59089 0.015626 8.28125C0.015626 8.97161 0.57527 9.53125 1.26563 9.53125H16.2656C16.956 9.53125 17.5156 8.97161 17.5156 8.28125Z" fill="white"/>
<path fill-rule="evenodd" clip-rule="evenodd" d="M8.18857 1.3583C7.70042 0.870149 6.90896 0.870149 6.4208 1.3583L0.381742 7.39737C-0.106414 7.88552 -0.106414 8.67698 0.381742 9.16513L6.4208 15.2042C6.90896 15.6924 7.70042 15.6924 8.18857 15.2042C8.67673 14.716 8.67673 13.9246 8.18857 13.4364L3.03339 8.28125L8.18857 3.12607C8.67673 2.63792 8.67673 1.84646 8.18857 1.3583Z" fill="white"/>
</svg>
