<svg width="22" height="22" viewBox="0 0 22 22" fill="none" xmlns="http://www.w3.org/2000/svg">
<path d="M3 2C3 0.895431 3.89543 0 5 0H17C18.1046 0 19 0.895431 19 2C19 3.10457 18.1046 4 17 4H15C13.8954 4 13 4.89543 13 6V11C13 12.1046 13.8954 13 15 13H17C18.1046 13 19 13.8954 19 15V16C19 17.1046 18.1046 18 17 18H13C11.8954 18 11 17.1046 11 16V13C11 11.8954 10.1046 11 9 11H5C3.89543 11 3 10.1046 3 9V2Z" fill="#827D7D"/>
<path d="M0 15C0 13.8954 0.89543 13 2 13H7C8.10457 13 9 13.8954 9 15V20C9 21.1046 8.10457 22 7 22H2C0.895431 22 0 21.1046 0 20V15Z" fill="#827D7D"/>
<path d="M22 8C22 6.89543 21.1046 6 20 6H17C15.8954 6 15 6.89543 15 8V9C15 10.1046 15.8954 11 17 11H20C21.1046 11 22 10.1046 22 9V8Z" fill="#827D7D"/>
</svg>
