<svg width="10" height="8" viewBox="0 0 10 8" fill="none" xmlns="http://www.w3.org/2000/svg">
<path fill-rule="evenodd" clip-rule="evenodd" d="M0.75 3.85938C0.75 3.5142 1.02982 3.23438 1.375 3.23438H8.875C9.22018 3.23438 9.5 3.5142 9.5 3.85938C9.5 4.20455 9.22018 4.48438 8.875 4.48438H1.375C1.02982 4.48438 0.75 4.20455 0.75 3.85938Z" fill="#9B9797"/>
<path fill-rule="evenodd" clip-rule="evenodd" d="M5.41353 0.397902C5.6576 0.153824 6.05333 0.153824 6.29741 0.397902L9.31694 3.41743C9.56102 3.66151 9.56102 4.05724 9.31694 4.30132L6.29741 7.32085C6.05333 7.56493 5.6576 7.56493 5.41353 7.32085C5.16945 7.07677 5.16945 6.68104 5.41353 6.43696L7.99112 3.85938L5.41353 1.28179C5.16945 1.03771 5.16945 0.64198 5.41353 0.397902Z" fill="#9B9797"/>
</svg>
