<svg width="24" height="24" viewBox="0 0 24 24" fill="none" xmlns="http://www.w3.org/2000/svg">
<path d="M8.27977 3.00015C8.90977 3.01931 9.51977 3.12931 10.1108 3.33031H10.1698C10.2098 3.34931 10.2398 3.37031 10.2598 3.38931C10.4808 3.46031 10.6898 3.54031 10.8898 3.65031L11.2698 3.82031C11.4198 3.90031 11.5998 4.04931 11.6998 4.11031C11.7998 4.16931 11.9098 4.23031 11.9998 4.29931C13.1108 3.45031 14.4598 2.99031 15.8498 3.00015C16.4808 3.00015 17.1108 3.08931 17.7098 3.29031C21.4008 4.49031 22.7308 8.54031 21.6198 12.0803C20.9898 13.8893 19.9598 15.5403 18.6108 16.8893C16.6798 18.7593 14.5608 20.4193 12.2798 21.8493L12.0298 22.0003L11.7698 21.8393C9.48077 20.4193 7.34977 18.7593 5.40077 16.8793C4.06077 15.5303 3.02977 13.8893 2.38977 12.0803C1.25977 8.54031 2.58977 4.49031 6.32077 3.26931C6.61077 3.16931 6.90977 3.09931 7.20977 3.06031H7.32977C7.61077 3.01931 7.88977 3.00015 8.16977 3.00015H8.27977ZM17.1898 6.16031C16.7798 6.01931 16.3298 6.24031 16.1798 6.66031C16.0398 7.08031 16.2598 7.54031 16.6798 7.68931C17.3208 7.92931 17.7498 8.56031 17.7498 9.25931V9.29031C17.7308 9.51931 17.7998 9.74031 17.9398 9.91031C18.0798 10.0803 18.2898 10.1793 18.5098 10.2003C18.9198 10.1893 19.2698 9.86031 19.2998 9.43931V9.32031C19.3298 7.91931 18.4808 6.65031 17.1898 6.16031Z" fill="#827D7D"/>
<!-- <circle cx="21" cy="3" r="3" fill="white"/> -->
</svg>
