<svg width="12" height="12" viewBox="0 0 12 12" fill="none" xmlns="http://www.w3.org/2000/svg">
<path d="M6 3.875C4.8264 3.875 3.875 4.8264 3.875 6C3.875 7.1736 4.8264 8.125 6 8.125C7.1736 8.125 8.125 7.1736 8.125 6C8.125 4.8264 7.1736 3.875 6 3.875Z" fill="#ffffff"/>
<path fill-rule="evenodd" clip-rule="evenodd" d="M6 0.375C2.8934 0.375 0.375 2.8934 0.375 6C0.375 9.1066 2.8934 11.625 6 11.625C9.1066 11.625 11.625 9.1066 11.625 6C11.625 2.8934 9.1066 0.375 6 0.375ZM1.625 6C1.625 3.58375 3.58375 1.625 6 1.625C8.41625 1.625 10.375 3.58375 10.375 6C10.375 8.41625 8.41625 10.375 6 10.375C3.58375 10.375 1.625 8.41625 1.625 6Z" fill="#ffffff"/>
</svg>
