<svg width="16" height="16" viewBox="0 0 16 16" fill="none" xmlns="http://www.w3.org/2000/svg">
<path fill-rule="evenodd" clip-rule="evenodd" d="M7.57448 1.51008C7.15648 0.974749 6.51921 0.659417 5.83648 0.666625H4.67782C2.01583 0.666625 0.666504 2.20674 0.666504 5.24273V10.75C0.666504 13.588 2.41916 15.3334 5.24249 15.3334H10.7498C13.5878 15.3334 15.3331 13.588 15.3331 10.7574V7.18606C15.3404 4.2234 14.0204 2.77874 11.3145 2.77874H9.06314C8.73314 2.77874 8.42514 2.62474 8.21981 2.36808L7.57448 1.51008ZM7.26647 5.79991C7.26647 5.49309 7.59481 5.06962 7.9998 5.06658C8.40788 5.06351 8.74424 5.49309 8.74424 5.79991V7.9999H10.9331C11.2399 7.9999 11.6665 8.32822 11.6665 8.73323C11.6665 9.13824 11.2399 9.46656 10.9331 9.46656H8.73313L8.74424 11.6666C8.74424 11.9734 8.40788 12.403 7.9998 12.3999C7.59481 12.3968 7.26647 11.9734 7.26647 11.6666V9.46656H5.06648C4.75966 9.46656 4.33315 9.13824 4.33315 8.73323C4.33315 8.32822 4.75966 7.9999 5.06648 7.9999H7.26647V5.79991Z" fill="#B4B1B1"/>
</svg>
