<svg width="18" height="17" viewBox="0 0 18 17" fill="none" xmlns="http://www.w3.org/2000/svg">
<path d="M5.89985 0.500129C6.42485 0.516095 6.93318 0.607762 7.42568 0.775262H7.47485C7.50818 0.791095 7.53318 0.808595 7.54985 0.824429C7.73402 0.883595 7.90818 0.950262 8.07485 1.04193L8.39152 1.1836C8.51652 1.25026 8.66652 1.37443 8.74985 1.42526C8.83318 1.47443 8.92485 1.52526 8.99985 1.58276C9.92568 0.875262 11.0499 0.491929 12.2082 0.500129C12.734 0.500129 13.259 0.574429 13.7582 0.741929C16.834 1.74193 17.9424 5.11693 17.0165 8.06693C16.4915 9.57443 15.6332 10.9503 14.509 12.0744C12.8999 13.6328 11.134 15.0161 9.23318 16.2078L9.02485 16.3336L8.80818 16.1994C6.90068 15.0161 5.12485 13.6328 3.50068 12.0661C2.38402 10.9419 1.52485 9.57443 0.991518 8.06693C0.049851 5.11693 1.15818 1.74193 4.26735 0.724429C4.50902 0.641095 4.75818 0.582762 5.00818 0.550262H5.10818C5.34235 0.516095 5.57485 0.500129 5.80818 0.500129H5.89985ZM13.3249 3.1336C12.9832 3.0161 12.6082 3.20026 12.4832 3.55026C12.3665 3.90026 12.5499 4.2836 12.8999 4.40776C13.434 4.60776 13.7915 5.13359 13.7915 5.71609V5.74193C13.7757 5.93276 13.8332 6.11693 13.9499 6.25859C14.0665 6.40026 14.2415 6.48276 14.4249 6.50026C14.7665 6.4911 15.0582 6.21693 15.0832 5.8661V5.76693C15.1082 4.59943 14.4007 3.54193 13.3249 3.1336Z" fill="#343232"/>
</svg>
