<svg width="30" height="20" viewBox="0 0 30 20" fill="none" xmlns="http://www.w3.org/2000/svg">
<g style="mix-blend-mode:luminosity">
<path d="M0.5 0.5H29.5V19.5H0.5V0.5Z" fill="white" stroke="#E6E5E5"/>
<path fill-rule="evenodd" clip-rule="evenodd" d="M0 0H30V10H0V0Z" fill="#DF0000"/>
<path fill-rule="evenodd" clip-rule="evenodd" d="M6.91648 1.67505C6.12724 1.84466 5.42037 2.28064 4.91457 2.9098C4.40877 3.53896 4.13482 4.32299 4.13873 5.13024C4.14264 5.9375 4.42417 6.71883 4.93604 7.34307C5.44791 7.9673 6.15896 8.39642 6.94982 8.55838C6.49676 8.68948 6.02228 8.72984 5.55359 8.67717C5.0849 8.6245 4.63122 8.47981 4.21857 8.25142C3.80591 8.02303 3.44241 7.71542 3.14889 7.34624C2.85538 6.97706 2.63764 6.55356 2.50815 6.10005C2.25097 5.18842 2.3652 4.21204 2.82587 3.3844C3.28654 2.55676 4.05617 1.94518 4.96648 1.68338C5.63315 1.49171 6.24982 1.48755 6.92065 1.67505H6.91648Z" fill="white"/>
<path fill-rule="evenodd" clip-rule="evenodd" d="M6.37484 4.5833L6.579 5.2083L6.03734 4.82497L5.504 5.21664L5.69984 4.5833L5.1665 4.1958L5.829 4.18747L6.03734 3.56247L6.24567 4.18747H6.904L6.37484 4.5833ZM7.104 6.74997L7.31234 7.37914L6.77067 6.9958L6.23317 7.3833L6.43317 6.75414L5.89984 6.36247L6.56234 6.3583L6.7665 5.72914L6.97484 6.35414H7.6415L7.104 6.74997ZM9.5415 6.7333L9.74567 7.36664L9.204 6.97914L8.67067 7.36664L8.8665 6.73747L8.33317 6.34997L8.99567 6.34164L9.204 5.71664L9.41234 6.34164H10.0707L9.5415 6.7333ZM10.2665 4.5833L10.4707 5.21247L9.929 4.82913L9.39567 5.21664L9.59567 4.58747L9.05817 4.1958L9.72484 4.19163L9.92484 3.56247L10.1332 4.18747H10.7998L10.2665 4.5833ZM8.33734 3.15413L8.54567 3.78747L8.004 3.39997L7.4665 3.79163L7.6665 3.1583L7.13317 2.76663L7.7915 2.76247L7.99984 2.1333L8.20817 2.7583H8.87484L8.33734 3.15413Z" fill="white"/>
</g>
</svg>
