<svg width="16" height="16" viewBox="0 0 16 16" fill="none" xmlns="http://www.w3.org/2000/svg">
<path fill-rule="evenodd" clip-rule="evenodd" d="M10.6933 1.47352L12.4745 3.41832C12.8792 3.86025 13.2356 4.3476 13.5372 4.87144C14.2763 6.15515 14.6668 7.62406 14.6668 9.12111V11.3333C14.6668 11.8855 14.219 12.3333 13.6668 12.3333H13.302C12.7407 12.3333 12.1483 12.1639 12.0001 11.9393C11.8519 11.7147 11.8519 10.4544 11.8519 10.4544C11.8519 8.9574 11.4615 7.48849 10.7224 6.20477C10.4208 5.68093 10.0644 5.19358 9.65963 4.75165L8.42656 3.40527L10.1957 1.47352C10.3331 1.2865 10.5559 1.2865 10.6933 1.47352ZM7.58565 5.75163L5.80452 3.80684C5.66712 3.61981 5.44434 3.61981 5.30693 3.80684L3.52581 5.75163C3.12107 6.19356 2.76463 6.68091 2.46303 7.20475C1.72392 8.48847 1.3335 9.95738 1.3335 11.4544V13.6666C1.3335 14.2189 1.78121 14.6666 2.3335 14.6666H8.77796C9.33024 14.6666 9.77796 14.2189 9.77796 13.6666V11.4544C9.77796 9.95738 9.38753 8.48847 8.64843 7.20475C8.34682 6.68091 7.99038 6.19356 7.58565 5.75163Z" fill="#B4B1B1"/>
</svg>
