<svg width="18" height="16" viewBox="0 0 18 16" fill="none" xmlns="http://www.w3.org/2000/svg">
<path fill-rule="evenodd" clip-rule="evenodd" d="M10.461 2.55305C9.60546 2.28682 8.70121 2.25809 7.83259 2.46953C6.96397 2.68098 6.15929 3.12571 5.49363 3.76223C4.82798 4.39875 4.32305 5.20631 4.02596 6.10956C3.86929 6.58587 3.38338 6.83536 2.94066 6.66681C2.49793 6.49826 2.26603 5.97549 2.4227 5.49918C2.81563 4.30456 3.48344 3.2365 4.36382 2.39465C5.2442 1.5528 6.30845 0.964607 7.45727 0.684953C8.6061 0.405299 9.80204 0.4433 10.9335 0.795408C12.0606 1.14615 13.0871 1.79717 13.9181 2.68808L15.6325 4.42125V2.14499C15.6325 1.63973 16.0132 1.23014 16.4828 1.23014C16.9525 1.23014 17.3332 1.63973 17.3332 2.14499V6.53625C17.3332 7.0415 16.9525 7.45109 16.4828 7.45109H12.4012C11.9316 7.45109 11.5509 7.0415 11.5509 6.53625C11.5509 6.03099 11.9316 5.6214 12.4012 5.6214H14.3361L12.7441 4.01196C12.7376 4.00542 12.7312 3.99876 12.7249 3.992C12.0954 3.31432 11.3165 2.81928 10.461 2.55305ZM0.666504 9.46375C0.666504 8.9585 1.04721 8.54891 1.51684 8.54891H5.59848C6.06811 8.54891 6.44882 8.9585 6.44882 9.46375C6.44882 9.96901 6.06811 10.3786 5.59848 10.3786H3.66357L5.2556 11.988C5.26208 11.9946 5.26846 12.0012 5.27474 12.008C5.90432 12.6857 6.6832 13.1807 7.5387 13.447C8.39421 13.7132 9.29847 13.7419 10.1671 13.5305C11.0357 13.319 11.8404 12.8743 12.506 12.2378C13.1717 11.6013 13.6766 10.7937 13.9737 9.89044C14.1304 9.41413 14.6163 9.16464 15.059 9.33319C15.5017 9.50174 15.7336 10.0245 15.577 10.5008C15.184 11.6954 14.5162 12.7635 13.6359 13.6054C12.7555 14.4472 11.6912 15.0354 10.5424 15.315C9.39358 15.5947 8.19763 15.5567 7.06615 15.2046C5.93908 14.8539 4.91257 14.2028 4.08161 13.3119L2.36718 11.5787V13.855C2.36718 14.3603 1.98647 14.7699 1.51684 14.7699C1.04721 14.7699 0.666504 14.3603 0.666504 13.855V9.46375Z" fill="#343232"/>
</svg>
