<svg width="16" height="16" viewBox="0 0 16 16" fill="none" xmlns="http://www.w3.org/2000/svg">
<path fill-rule="evenodd" clip-rule="evenodd" d="M7.57448 1.51008C7.15648 0.974749 6.51921 0.659417 5.83648 0.666625H4.67782C2.01583 0.666625 0.666504 2.20674 0.666504 5.24273V10.75C0.666504 13.588 2.41916 15.3334 5.24249 15.3334H10.7498C13.5878 15.3334 15.3331 13.588 15.3331 10.7574V7.18606C15.3404 4.2234 14.0204 2.77874 11.3145 2.77874H9.06314C8.73314 2.77874 8.42514 2.62474 8.21981 2.36808L7.57448 1.51008ZM10.4606 6.21336L9.48102 5.14373C9.40545 5.04086 9.28292 5.04086 9.20735 5.14373L8.23432 6.20618L8.91249 6.94669C9.13509 7.18975 9.33113 7.45779 9.49701 7.7459C9.90351 8.45194 10.1182 9.25984 10.1182 10.0832V10.9332C10.3602 11.1166 10.678 11.1166 10.9158 11.1166H11.1664C11.4425 11.1166 11.6664 10.8927 11.6664 10.6166V9.34988C11.6664 8.52651 11.4516 7.71861 11.0451 7.01257C10.8792 6.72446 10.6832 6.45642 10.4606 6.21336ZM6.79216 6.42706L7.77176 7.49669C7.99436 7.73975 8.1904 8.00779 8.35627 8.2959C8.76278 9.00194 8.9775 9.80984 8.9775 10.6332V11.8999C8.9775 12.176 8.75365 12.3999 8.47751 12.3999H4.83315C4.55701 12.3999 4.33315 12.176 4.33315 11.8999V10.6332C4.33315 9.80984 4.54788 9.00194 4.95438 8.2959C5.12026 8.00779 5.3163 7.73975 5.53889 7.49669L6.51849 6.42706C6.59406 6.32419 6.71659 6.32419 6.79216 6.42706Z" fill="#B4B1B1"/>
</svg>
