<svg width="15" height="16" viewBox="0 0 15 16" fill="none" xmlns="http://www.w3.org/2000/svg">
<path fill-rule="evenodd" clip-rule="evenodd" d="M7.07472 1.51008C6.65672 0.974749 6.01946 0.659417 5.33673 0.666625H4.17807C1.51608 0.666625 0.166748 2.20674 0.166748 5.24273V10.75C0.166748 13.588 1.91941 15.3334 4.74273 15.3334H10.25C13.088 15.3334 14.8334 13.588 14.8334 10.7574V7.18606C14.8407 4.2234 13.5207 2.77874 10.8147 2.77874H8.56338C8.23338 2.77874 7.92538 2.62474 7.72005 2.36808L7.07472 1.51008ZM6.76671 5.79991C6.76671 5.49309 7.09505 5.06962 7.50004 5.06658C7.90812 5.06351 8.24449 5.49309 8.24449 5.79991V7.9999H10.4334C10.7402 7.9999 11.1667 8.32822 11.1667 8.73323C11.1667 9.13824 10.7402 9.46656 10.4334 9.46656H8.23337L8.24449 11.6666C8.24449 11.9734 7.90812 12.403 7.50004 12.3999C7.09505 12.3968 6.76671 11.9734 6.76671 11.6666V9.46656H4.56672C4.2599 9.46656 3.83339 9.13824 3.83339 8.73323C3.83339 8.32822 4.2599 7.9999 4.56672 7.9999H6.76671V5.79991Z" fill="#343232"/>
</svg>
