<svg width="10" height="10" viewBox="0 0 10 10" fill="none" xmlns="http://www.w3.org/2000/svg">
<path d="M1.58921 0.410734C1.26378 0.0852973 0.73614 0.0852973 0.410704 0.410734C0.0852668 0.736171 0.0852668 1.26381 0.410704 1.58925L3.82145 4.99999L0.410704 8.41073C0.085267 8.73617 0.085267 9.26381 0.410704 9.58924C0.73614 9.91468 1.26378 9.91468 1.58921 9.58924L4.99996 6.1785L8.4107 9.58924C8.73614 9.91468 9.26378 9.91468 9.58921 9.58924C9.91465 9.26381 9.91465 8.73617 9.58921 8.41073L6.17847 4.99999L9.58921 1.58925C9.91465 1.26381 9.91465 0.736171 9.58921 0.410734C9.26378 0.0852972 8.73614 0.0852972 8.4107 0.410734L4.99996 3.82148L1.58921 0.410734Z" fill="white"/>
</svg>
