<?xml version="1.0" encoding="utf-8"?>
<!-- Svg Vector Icons : http://www.onlinewebfonts.com/icon -->
<!DOCTYPE svg PUBLIC "-//W3C//DTD SVG 1.1//EN" "http://www.w3.org/Graphics/SVG/1.1/DTD/svg11.dtd">
<svg version="1.1" xmlns="http://www.w3.org/2000/svg" xmlns:xlink="http://www.w3.org/1999/xlink" x="0px" y="0px" viewBox="0 0 1000 1000" enable-background="new 0 0 1000 1000" xml:space="preserve">
<metadata> Svg Vector Icons : http://www.onlinewebfonts.com/icon </metadata>
<g><path d="M842.7,59c-33.7,4.3-76.3,10.7-121.6,10.7c-70.7,0-134.8-17.5-199.7-31.2C455.6,24.4,387.6,10,315.6,10C172,10,123.3,40.9,118.4,44.3L108,51.7v8v495.2V990h49V551.1c18.4-7.7,66.8-21.1,158.9-21.1c66.8,0,129.2,25.4,195.7,39.8c67.4,14.4,137.2,29.4,212.8,29.4c45,0,84.8-6.1,118.5-10.1c18.4-2.1,34.6-4.3,49-6.7V101.9V51.3C877.6,54.1,861.1,56.5,842.7,59z M842.7,539.8c-33.7,4.3-73.2,10.7-118.5,10.7c-70.7,0-137.8-14.4-202.7-28.2c-65.8-14.1-133.5-40.7-205.5-40.7c-78.7,0-128.3,9.2-158.9,18.4V79.5c18.4-7.7,67.1-20.8,158.9-20.8c66.8,0,129.2,13.2,195.7,27.6c67.4,14.4,134.1,32.5,209.8,32.5c45,0,87.9-6.1,121.6-10.1L842.7,539.8L842.7,539.8z"/></g>
</svg>