<svg width="16" height="16" viewBox="0 0 16 16" fill="none" xmlns="http://www.w3.org/2000/svg">
<path d="M11.6645 13.8666C11.0053 13.8666 10.72 13.6386 10.2888 13.2939C9.79015 12.8957 9.17048 12.4 7.99568 12.4C6.82161 12.4 6.20195 12.8957 5.70401 13.2946C5.27355 13.6386 4.98901 13.8666 4.32975 13.8666C3.67195 13.8666 3.38741 13.6386 2.95695 13.2946C2.56241 12.9785 2.09237 12.6017 1.33014 12.4588C0.968254 12.3909 0.666748 12.6984 0.666748 13.0666V13.2C0.666748 13.5681 0.976996 13.8419 1.32113 13.9728C1.58165 14.0719 1.78538 14.235 2.04028 14.4386C2.53821 14.8376 3.15715 15.3333 4.32975 15.3333C5.50381 15.3333 6.12275 14.8376 6.62068 14.4394C7.05188 14.0947 7.33641 13.8666 7.99568 13.8666C8.65568 13.8666 8.95708 14.1072 9.37288 14.4394C9.87081 14.8376 10.4905 15.3333 11.6645 15.3333C12.8386 15.3333 13.4583 14.8376 13.9562 14.4394C14.2044 14.241 14.4119 14.0754 14.6792 13.9741C15.0235 13.8436 15.3334 13.5681 15.3334 13.2V13.0666C15.3334 12.6984 15.0319 12.391 14.67 12.4587C13.9067 12.6015 13.4355 12.9783 13.0403 13.2939C12.6091 13.6386 12.3238 13.8666 11.6645 13.8666ZM3.60008 5.43329L3.42694 5.47658C2.71254 5.65518 2.2782 6.37909 2.4568 7.09348L3.60008 11.6666C3.60008 11.6666 4.10461 11.6666 4.32975 11.6666C5.50381 11.6666 6.12275 11.1709 6.62068 10.7727C7.05188 10.428 7.33641 10.2 7.99568 10.2C8.65568 10.2 8.95708 10.4405 9.37288 10.7727C9.87081 11.1709 10.4905 11.6666 11.6645 11.6666C11.8919 11.6666 12.4001 11.6666 12.4001 11.6666L12.4199 11.5882L13.5434 7.09345C13.722 6.37907 13.2876 5.65518 12.5733 5.47659L12.4001 5.43329V2.86736C12.4001 2.51683 12.1529 2.21616 11.8105 2.14796L8.73341 1.53269V1.39996C8.73341 0.994951 8.40509 0.666626 8.00008 0.666626C7.59507 0.666626 7.26675 0.99495 7.26675 1.39996V1.53269L4.18968 2.14796C3.84721 2.21616 3.60008 2.51683 3.60008 2.86736V5.43329ZM5.06675 3.46723L8.00008 2.88056L10.9334 3.46723V5.06663L8.00008 4.33329L5.06675 5.06663V3.46723Z" fill="black"/>
</svg>
