<svg width="14" height="14" viewBox="0 0 14 14" fill="none" xmlns="http://www.w3.org/2000/svg">
<path d="M6.99992 0.333374C10.6866 0.333374 13.6666 3.32004 13.6666 7.00004C13.6666 10.6867 10.6866 13.6667 6.99992 13.6667C3.31992 13.6667 0.333252 10.6867 0.333252 7.00004C0.333252 3.32004 3.31992 0.333374 6.99992 0.333374ZM6.76659 3.62004C6.49325 3.62004 6.26659 3.84004 6.26659 4.12004V7.48671C6.26659 7.66004 6.35992 7.82004 6.51325 7.91337L9.12659 9.47337C9.20658 9.52004 9.29325 9.54671 9.38659 9.54671C9.55325 9.54671 9.71992 9.46004 9.81325 9.30004C9.95325 9.06671 9.87992 8.76004 9.63992 8.61337L7.26659 7.20004V4.12004C7.26659 3.84004 7.03992 3.62004 6.76659 3.62004Z" fill="#827D7D"/>
</svg>
