<svg width="16" height="18" viewBox="0 0 16 18" fill="none" xmlns="http://www.w3.org/2000/svg">
<path fill-rule="evenodd" clip-rule="evenodd" d="M11.3333 0.666654C11.7435 0.66694 12.165 0.940659 12.1658 1.30714L12.1667 2.34186C14.4622 2.52177 15.4885 3.67596 15.4909 6.07476L15.5 13.0962C15.5033 15.7116 13.8602 17.3208 11.2265 17.325L4.79324 17.3333C2.176 17.3366 0.512355 15.6891 0.509064 13.0663L0.500008 6.12723C0.496722 3.71261 1.54293 2.56258 3.83847 2.35186L3.83764 1.31714C3.83682 0.950656 4.25513 0.667174 4.66665 0.666627C5.07834 0.666081 5.49669 0.94899 5.49752 1.31547L5.49834 2.30854L10.5 2.30188L10.4992 1.30881C10.4984 0.942325 10.9222 0.666366 11.3333 0.666654ZM10.5017 3.99335L5.5 4.00001L5.50083 5.03199C5.50083 5.39098 5.076 5.66858 4.66667 5.66668C4.26036 5.66479 3.84095 5.39265 3.84095 5.03366L3.84013 3.99335C3 4.00001 2.16664 4.41668 2.16664 6.12556V8.16668H13.8333V6.08332C13.8333 4.41668 13 3.99335 12.175 4.00001L12.1692 5.02447C12.1692 5.38263 11.7484 5.6654 11.3383 5.66668C10.9271 5.66796 10.5025 5.38429 10.5025 5.02614L10.5017 3.99335ZM3.83333 12.3333C3.83333 12.7936 4.20643 13.1667 4.66667 13.1667C5.1269 13.1667 5.5 12.7936 5.5 12.3333C5.5 11.8731 5.1269 11.5 4.66667 11.5C4.20643 11.5 3.83333 11.8731 3.83333 12.3333ZM8.83333 12.3333C8.83333 11.8731 9.20643 11.5 9.66667 11.5H11.3333C11.7936 11.5 12.1667 11.8731 12.1667 12.3333C12.1667 12.7936 11.7936 13.1667 11.3333 13.1667H9.66667C9.20643 13.1667 8.83333 12.7936 8.83333 12.3333Z" fill="#FFFFFF"/>
</svg>
