<svg width="14" height="16" viewBox="0 0 14 16" fill="none" xmlns="http://www.w3.org/2000/svg">
<path d="M11.9493 6.08094C12.1154 6.08094 12.2661 6.15344 12.3853 6.27594C12.4963 6.40677 12.5522 6.56927 12.536 6.74094C12.536 6.7976 12.0919 10.7475 11.8382 13.1117C11.6794 14.5625 10.7441 15.4433 9.3412 15.4675C8.26248 15.4917 8.0414 15.5 7.0032 15.5C5.90097 15.5 5.6564 15.4917 4.61009 15.4675C3.25419 15.435 2.31811 14.5383 2.16736 13.1117C1.9064 10.7392 1.47037 6.7976 1.46226 6.74094C1.45416 6.56927 1.50927 6.40677 1.62111 6.27594C1.73134 6.15344 1.89019 6.08094 2.05714 6.08094H11.9493ZM8.72065 0.5C9.45736 0.5 10.1154 1.01416 10.3059 1.74749L10.4421 2.35581C10.5523 2.85164 10.9818 3.20247 11.4762 3.20247H13.0726C13.3968 3.20247 13.6667 3.47164 13.6667 3.81413V4.1308C13.6667 4.46496 13.3968 4.74246 13.0726 4.74246H0.928252C0.603257 4.74246 0.333374 4.46496 0.333374 4.1308V3.81413C0.333374 3.47164 0.603257 3.20247 0.928252 3.20247H2.52468C3.01825 3.20247 3.44779 2.85164 3.55883 2.35665L3.68607 1.78832C3.88382 1.01416 4.53462 0.5 5.27943 0.5H8.72065Z" fill="white"/>
</svg>
