<svg width="14" height="14" viewBox="0 0 14 14" fill="none" xmlns="http://www.w3.org/2000/svg">
<path fill-rule="evenodd" clip-rule="evenodd" d="M6.33335 0.166626C2.9276 0.166626 0.166687 2.92754 0.166687 6.33329C0.166687 9.73905 2.9276 12.5 6.33335 12.5C7.73544 12.5 9.0289 12.0317 10.0648 11.2433L12.4108 13.5892C12.7362 13.9146 13.2638 13.9146 13.5893 13.5892C13.9147 13.2638 13.9147 12.7361 13.5893 12.4107L11.2433 10.0648C12.0317 9.02883 12.5 7.73538 12.5 6.33329C12.5 2.92754 9.73911 0.166626 6.33335 0.166626ZM1.83335 6.33329C1.83335 3.84801 3.84807 1.83329 6.33335 1.83329C8.81863 1.83329 10.8334 3.84801 10.8334 6.33329C10.8334 7.54169 10.3575 8.63828 9.58221 9.44697C9.5574 9.46667 9.53354 9.48793 9.51076 9.5107C9.48799 9.53348 9.46673 9.55734 9.44703 9.58214C8.63834 10.3574 7.54176 10.8333 6.33335 10.8333C3.84807 10.8333 1.83335 8.81857 1.83335 6.33329Z" fill="#FFFFFF"/>
</svg>
