<svg width="48" height="24" viewBox="0 0 48 24" fill="none" xmlns="http://www.w3.org/2000/svg">
<rect x="1" y="1" width="46" height="22" rx="11" stroke="#9B9797" stroke-width="2"/>
<circle cx="12" cy="12" r="12" fill="#9B9797"/>
<path d="M9.44194 8.55806C9.19786 8.31398 8.80214 8.31398 8.55806 8.55806C8.31398 8.80214 8.31398 9.19786 8.55806 9.44194L11.1161 12L8.55806 14.5581C8.31398 14.8021 8.31398 15.1979 8.55806 15.4419C8.80214 15.686 9.19786 15.686 9.44194 15.4419L12 12.8839L14.5581 15.4419C14.8021 15.686 15.1979 15.686 15.4419 15.4419C15.686 15.1979 15.686 14.8021 15.4419 14.5581L12.8839 12L15.4419 9.44194C15.686 9.19786 15.686 8.80214 15.4419 8.55806C15.1979 8.31398 14.8021 8.31398 14.5581 8.55806L12 11.1161L9.44194 8.55806Z" fill="#4E4B4B"/>
</svg>
