<?xml version="1.0" encoding="iso-8859-1"?>
<!-- Generator: Adobe Illustrator 19.0.0, SVG Export Plug-In . SVG Version: 6.00 Build 0)  -->
<svg version="1.1" id="Layer_1" xmlns="http://www.w3.org/2000/svg" xmlns:xlink="http://www.w3.org/1999/xlink" x="0px" y="0px"
	 viewBox="0 0 512 512" style="enable-background:new 0 0 512 512;" xml:space="preserve">
<g>
	<g>
		<path d="M451.062,426.027v-19.066c0-15.708-9.423-29.248-22.909-35.291l-9.852-84.893c-0.593-5.101-5.231-8.749-10.306-8.163
			c-5.101,0.593-8.755,5.206-8.164,10.307l9.213,79.383H265.301V125.258h64.819c28.91,0,53.227,21.661,56.563,50.384l9.503,81.879
			c0.593,5.101,5.234,8.747,10.306,8.163c5.101-0.593,8.755-5.206,8.164-10.307l-9.503-81.879
			c-4.425-38.102-36.682-66.833-75.033-66.833H181.888c-38.357,0-70.62,28.731-75.045,66.834L83.842,371.673
			c-13.484,6.043-22.905,19.582-22.905,35.289v19.066c-12.676,3.726-21.961,15.458-21.961,29.323v47.352
			c0,5.134,4.161,9.297,9.297,9.297h415.454c5.136,0,9.297-4.163,9.297-9.297v-47.352
			C473.023,441.485,463.74,429.754,451.062,426.027z M125.313,175.642c3.335-28.724,27.658-50.385,56.575-50.385h64.819v243.046
			H102.951L125.313,175.642z M454.43,493.406h-0.001H57.57v-38.055c0-6.601,5.37-11.971,11.971-11.971
			c0.117,0,0.231-0.014,0.346-0.017c0.117,0.004,0.229,0.017,0.346,0.017h42.389c5.136,0,9.297-4.163,9.297-9.297
			c0-5.134-4.161-9.297-9.297-9.297H79.53v-17.824c0-11.047,8.975-20.036,20.016-20.062h312.906
			c11.041,0.026,20.016,9.014,20.016,20.062v17.824H141.258c-5.136,0-9.297,4.163-9.297,9.297c0,5.134,4.161,9.297,9.297,9.297
			h300.509c0.117,0,0.231-0.014,0.347-0.017c0.117,0.004,0.229,0.017,0.347,0.017c6.6,0,11.97,5.37,11.97,11.971V493.406z"/>
	</g>
</g>
<g>
	<g>
		<path d="M331.255,0c-4.45,0-8.057,3.607-8.057,8.057v47.08c0,4.45,3.607,8.057,8.057,8.057s8.057-3.607,8.057-8.057V8.057
			C339.312,3.607,335.705,0,331.255,0z"/>
	</g>
</g>
<g>
	<g>
		<path d="M454.575,51.462c-3.145-3.146-8.247-3.146-11.394,0l-33.289,33.291c-3.146,3.147-3.146,8.248,0.001,11.394
			c1.572,1.574,3.634,2.36,5.696,2.36s4.124-0.787,5.698-2.36l33.29-33.291C457.723,59.709,457.723,54.608,454.575,51.462z"/>
	</g>
</g>
<g>
	<g>
		<path d="M497.332,166.995h-47.08c-4.45,0-8.057,3.607-8.057,8.057c0,4.45,3.607,8.057,8.057,8.057h47.08
			c4.45,0,8.057-3.607,8.057-8.057C505.389,170.603,501.781,166.995,497.332,166.995z"/>
	</g>
</g>
<g>
	<g>
		<path d="M181.664,0c-4.45,0-8.057,3.607-8.057,8.057v47.08c0,4.45,3.607,8.057,8.057,8.057c4.45,0,8.057-3.607,8.057-8.057V8.057
			C189.721,3.607,186.114,0,181.664,0z"/>
	</g>
</g>
<g>
	<g>
		<path d="M102.76,84.103L69.47,50.813c-3.146-3.147-8.248-3.147-11.394,0c-3.147,3.147-3.147,8.248-0.001,11.394l33.289,33.291
			c1.574,1.574,3.636,2.36,5.698,2.36c2.061,0,4.124-0.787,5.697-2.36C105.907,92.35,105.907,87.249,102.76,84.103z"/>
	</g>
</g>
<g>
	<g>
		<path d="M61.748,166.077h-47.08c-4.45,0-8.057,3.607-8.057,8.057c0,4.45,3.607,8.057,8.057,8.057h47.079
			c4.451,0,8.059-3.608,8.059-8.057C69.806,169.684,66.198,166.077,61.748,166.077z"/>
	</g>
</g>
<g>
</g>
<g>
</g>
<g>
</g>
<g>
</g>
<g>
</g>
<g>
</g>
<g>
</g>
<g>
</g>
<g>
</g>
<g>
</g>
<g>
</g>
<g>
</g>
<g>
</g>
<g>
</g>
<g>
</g>
</svg>
