<?xml version="1.0" encoding="UTF-8" standalone="no"?>
<!DOCTYPE svg PUBLIC "-//W3C//DTD SVG 1.1//EN" "http://www.w3.org/Graphics/SVG/1.1/DTD/svg11.dtd">
<svg width="100%" height="100%" viewBox="0 0 573 175" version="1.1" xmlns="http://www.w3.org/2000/svg" xmlns:xlink="http://www.w3.org/1999/xlink" xml:space="preserve" xmlns:serif="http://www.serif.com/" style="fill-rule:evenodd;clip-rule:evenodd;stroke-linejoin:round;stroke-miterlimit:2;">
    <g transform="matrix(1,0,0,1,-211.397,-1507.36)">
        <g transform="matrix(1,0,0,1,0.000286102,-2.03604)">
            <path id="Shape-21-copy" serif:id="Shape 21 copy" d="M215.001,1517.09C212.99,1516.97 211.397,1515.29 211.397,1513.25C211.397,1511.12 213.123,1509.4 215.25,1509.4C217.377,1509.4 219.103,1511.12 219.103,1513.25C219.103,1515.12 217.769,1516.68 216.001,1517.03L216.001,1659.16C216.001,1670.65 225.329,1680 236.796,1680L776.409,1680C776.534,1677.99 778.207,1676.4 780.25,1676.4C782.377,1676.4 784.103,1678.12 784.103,1680.25C784.103,1682.38 782.377,1684.1 780.25,1684.1C778.381,1684.1 776.821,1682.77 776.472,1681L236.796,1681C224.778,1681 215.001,1671.21 215.001,1659.16L215.001,1517.09Z" style="fill:rgb(105,187,79);"/>
        </g>
    </g>
</svg>
