<?xml version="1.0" encoding="UTF-8" standalone="no"?>
<!DOCTYPE svg PUBLIC "-//W3C//DTD SVG 1.1//EN" "http://www.w3.org/Graphics/SVG/1.1/DTD/svg11.dtd">
<svg width="100%" height="100%" viewBox="0 0 492 175" version="1.1" xmlns="http://www.w3.org/2000/svg" xmlns:xlink="http://www.w3.org/1999/xlink" xml:space="preserve" xmlns:serif="http://www.serif.com/" style="fill-rule:evenodd;clip-rule:evenodd;stroke-linejoin:round;stroke-miterlimit:2;">
    <g transform="matrix(1,0,0,1,-398.407,-2133.37)">
        <g transform="matrix(1,0,0,1,0.000286102,-2.03604)">
            <path id="Shape-21-copy-2" serif:id="Shape 21 copy 2" d="M885.499,2143.02C883.736,2142.67 882.406,2141.11 882.406,2139.25C882.406,2137.13 884.129,2135.41 886.25,2135.41C888.371,2135.41 890.094,2137.13 890.094,2139.25C890.094,2141.29 888.505,2142.96 886.5,2143.08L886.5,2285.16C886.5,2297.21 876.722,2307 864.704,2307L406.019,2307C405.669,2308.76 404.114,2310.09 402.25,2310.09C400.129,2310.09 398.406,2308.37 398.406,2306.25C398.406,2304.13 400.129,2302.41 402.25,2302.41C404.288,2302.41 405.957,2303.99 406.081,2306L864.704,2306C876.171,2306 885.499,2296.65 885.499,2285.16L885.499,2143.02Z" style="fill:rgb(105,187,79);"/>
        </g>
    </g>
</svg>
