<svg width="20" height="20" viewBox="0 0 20 20" fill="none" xmlns="http://www.w3.org/2000/svg">
<path d="M17.2997 10.9318C16.3664 11.3318 15.4331 11.7401 14.4997 12.1401C14.3497 12.2068 14.2497 12.3318 14.2497 12.4985C14.2414 12.6735 14.3414 12.7985 14.4997 12.8818C14.6497 12.9568 14.7997 13.0318 14.9497 13.0985C15.0497 13.1401 15.0497 13.1818 14.9914 13.2651C14.8081 13.5068 14.5997 13.7235 14.3581 13.9068C13.5497 14.4985 12.6248 14.6735 11.6497 14.7151C11.4664 14.7235 11.4081 14.6818 11.4081 14.4818C11.4164 13.0318 11.4164 11.5735 11.4164 10.1235C11.4164 9.99846 11.4164 9.91512 11.2414 9.91512C10.4164 9.92346 9.59975 9.92346 8.77475 9.91512C8.64142 9.91512 8.60808 9.96512 8.60808 10.0901C8.61642 10.8318 8.60808 11.5735 8.60808 12.3151C8.60808 13.0485 8.60808 13.7901 8.60808 14.5235C8.60808 14.6651 8.56642 14.7235 8.42475 14.7151C7.99975 14.6985 7.57475 14.6651 7.15808 14.5651C6.34142 14.3735 5.62475 14.0151 5.09975 13.3401C4.95808 13.1651 4.96642 13.1568 5.15808 13.0651C5.28308 13.0068 5.39975 12.9485 5.52475 12.8901C5.61642 12.8485 5.69142 12.7818 5.73308 12.6901C5.84142 12.4651 5.74142 12.2485 5.46642 12.1318C4.55808 11.7401 3.65808 11.3401 2.74975 10.9568C2.39142 10.7901 2.09975 10.9818 2.10808 11.3651C2.13308 12.1151 2.16642 12.8735 2.19975 13.6235C2.21642 13.9401 2.22475 14.2568 2.24975 14.5651C2.25808 14.7401 2.34975 14.8568 2.51642 14.9068C2.68308 14.9568 2.83308 14.8985 2.94142 14.7651C2.99142 14.7068 3.03308 14.6485 3.06642 14.5818C3.13308 14.4568 3.18308 14.4818 3.25808 14.5818C3.49142 14.9068 3.75808 15.2068 4.04975 15.4901C5.00808 16.4151 6.16642 16.9901 7.41642 17.4068C7.94142 17.5818 8.48308 17.7401 8.94142 18.0568C9.24975 18.2651 9.53308 18.5068 9.64975 18.8818C9.70808 19.0568 9.80808 19.1651 9.99975 19.1651C10.1997 19.1651 10.2998 19.0485 10.3498 18.8735C10.4081 18.6818 10.5081 18.5318 10.6497 18.3901C10.9747 18.0568 11.3748 17.8401 11.8081 17.6818C12.2664 17.5068 12.7414 17.3651 13.1997 17.1901C14.5997 16.6568 15.7998 15.8568 16.7081 14.6485C16.8414 14.4735 16.8414 14.4735 16.9748 14.6568C17.0664 14.7818 17.1498 14.9151 17.3247 14.9401C17.5914 14.9735 17.7498 14.8068 17.7664 14.4568C17.8164 13.4235 17.8581 12.3985 17.8914 11.3651C17.9081 10.9985 17.6164 10.7985 17.2997 10.9318ZM7.56642 9.04012C7.65808 8.95679 7.74975 8.93179 7.86642 8.93179C9.24142 8.93179 10.6081 8.94012 11.9831 8.93179C12.1748 8.93179 12.3247 8.96512 12.4831 9.09846C13.0581 9.56512 13.8748 9.50679 14.4081 8.99846C14.9414 8.49012 15.0164 7.66512 14.5914 7.07346C14.1581 6.46512 13.3414 6.24846 12.6997 6.61512C12.4331 6.76512 12.1831 6.81512 11.8997 6.79846C11.7914 6.79012 11.6748 6.79012 11.5664 6.79846C11.4331 6.80679 11.3831 6.77346 11.3831 6.62346C11.3914 6.10679 11.3914 5.58179 11.3831 5.06512C11.3831 4.95679 11.4248 4.89846 11.4998 4.83179C12.0581 4.31512 12.3164 3.68179 12.2581 2.92346C12.1497 1.47346 10.6748 0.490122 9.29142 0.948455C8.45808 1.22346 7.92475 1.80679 7.74975 2.66512C7.57475 3.50679 7.83308 4.24012 8.46642 4.82346C8.54975 4.89846 8.59142 4.97346 8.59142 5.09012C8.58308 5.34012 8.59142 5.58179 8.59142 5.83179C8.59142 6.08179 8.58308 6.34012 8.59142 6.59012C8.60808 6.74012 8.57475 6.80679 8.40808 6.79012C8.18308 6.77346 7.96642 6.78179 7.74142 6.79012C7.62475 6.79012 7.53308 6.75679 7.43308 6.69012C6.79142 6.24846 5.92475 6.38179 5.43308 6.99012C4.95808 7.58179 5.00808 8.44846 5.54975 8.97346C6.11642 9.52346 6.98308 9.55679 7.56642 9.04012ZM9.99142 2.46512C10.3247 2.46512 10.5914 2.72346 10.5997 3.05679C10.5997 3.39012 10.3331 3.66512 9.99975 3.65679C9.68308 3.65679 9.40808 3.39012 9.39975 3.07346C9.39142 2.74012 9.65808 2.46512 9.99142 2.46512Z" fill="white"/>
</svg>
