<svg width="20" height="22" viewBox="0 0 20 22" fill="none" xmlns="http://www.w3.org/2000/svg">
<path d="M18.7598 12.1182C17.6397 12.5982 16.5197 13.0882 15.3997 13.5682C15.2197 13.6482 15.0997 13.7982 15.0997 13.9982C15.0897 14.2082 15.2098 14.3582 15.3997 14.4582C15.5798 14.5482 15.7597 14.6382 15.9397 14.7182C16.0597 14.7682 16.0597 14.8182 15.9897 14.9182C15.7697 15.2082 15.5197 15.4682 15.2297 15.6882C14.2597 16.3982 13.1497 16.6082 11.9797 16.6582C11.7597 16.6682 11.6897 16.6182 11.6897 16.3782C11.6997 14.6382 11.6997 12.8882 11.6997 11.1482C11.6997 10.9982 11.6997 10.8982 11.4897 10.8982C10.4998 10.9082 9.51975 10.9082 8.52975 10.8982C8.36975 10.8982 8.32975 10.9582 8.32975 11.1082C8.33975 11.9982 8.32975 12.8882 8.32975 13.7782C8.32975 14.6582 8.32975 15.5482 8.32975 16.4282C8.32975 16.5982 8.27975 16.6682 8.10975 16.6582C7.59975 16.6382 7.08975 16.5982 6.58975 16.4782C5.60975 16.2482 4.74975 15.8182 4.11975 15.0082C3.94975 14.7982 3.95975 14.7882 4.18975 14.6782C4.33975 14.6082 4.47975 14.5382 4.62975 14.4682C4.73975 14.4182 4.82975 14.3382 4.87975 14.2282C5.00975 13.9582 4.88975 13.6982 4.55975 13.5582C3.46975 13.0882 2.38975 12.6082 1.29975 12.1482C0.86975 11.9482 0.51975 12.1782 0.52975 12.6382C0.55975 13.5382 0.59975 14.4482 0.63975 15.3482C0.65975 15.7282 0.66975 16.1082 0.69975 16.4782C0.70975 16.6882 0.81975 16.8282 1.01975 16.8882C1.21975 16.9482 1.39975 16.8782 1.52975 16.7182C1.58975 16.6482 1.63975 16.5782 1.67975 16.4982C1.75975 16.3482 1.81975 16.3782 1.90975 16.4982C2.18975 16.8882 2.50975 17.2482 2.85975 17.5882C4.00975 18.6982 5.39975 19.3882 6.89975 19.8882C7.52975 20.0982 8.17975 20.2882 8.72975 20.6682C9.09975 20.9182 9.43975 21.2082 9.57975 21.6582C9.64975 21.8682 9.76975 21.9982 9.99975 21.9982C10.2397 21.9982 10.3597 21.8582 10.4198 21.6482C10.4897 21.4182 10.6097 21.2382 10.7797 21.0682C11.1698 20.6682 11.6497 20.4082 12.1698 20.2182C12.7198 20.0082 13.2898 19.8382 13.8398 19.6282C15.5198 18.9882 16.9598 18.0282 18.0498 16.5782C18.2098 16.3682 18.2098 16.3682 18.3698 16.5882C18.4798 16.7382 18.5798 16.8982 18.7898 16.9282C19.1098 16.9682 19.2998 16.7682 19.3198 16.3482C19.3798 15.1082 19.4298 13.8782 19.4698 12.6382C19.4898 12.1982 19.1397 11.9582 18.7598 12.1182ZM7.07975 9.84816C7.18975 9.74816 7.29975 9.71816 7.43975 9.71816C9.08975 9.71816 10.7298 9.72816 12.3798 9.71816C12.6097 9.71816 12.7898 9.75816 12.9797 9.91816C13.6697 10.4782 14.6497 10.4082 15.2898 9.79816C15.9298 9.18816 16.0197 8.19816 15.5097 7.48816C14.9897 6.75816 14.0098 6.49816 13.2397 6.93816C12.9198 7.11816 12.6198 7.17816 12.2797 7.15816C12.1497 7.14816 12.0098 7.14816 11.8798 7.15816C11.7198 7.16816 11.6597 7.12816 11.6597 6.94816C11.6698 6.32816 11.6698 5.69816 11.6597 5.07816C11.6597 4.94816 11.7098 4.87816 11.7998 4.79816C12.4698 4.17816 12.7797 3.41816 12.7098 2.50816C12.5798 0.768159 10.8097 -0.411841 9.14975 0.138159C8.14975 0.468159 7.50975 1.16816 7.29975 2.19816C7.08975 3.20816 7.39975 4.08816 8.15975 4.78816C8.25975 4.87816 8.30975 4.96816 8.30975 5.10816C8.29975 5.40816 8.30975 5.69816 8.30975 5.99816C8.30975 6.29816 8.29975 6.60816 8.30975 6.90816C8.32975 7.08816 8.28975 7.16816 8.08975 7.14816C7.81975 7.12816 7.55975 7.13816 7.28975 7.14816C7.14975 7.14816 7.03975 7.10816 6.91975 7.02816C6.14975 6.49816 5.10975 6.65816 4.51975 7.38816C3.94975 8.09816 4.00975 9.13816 4.65975 9.76816C5.33975 10.4282 6.37975 10.4682 7.07975 9.84816ZM9.98975 1.95816C10.3897 1.95816 10.7097 2.26816 10.7197 2.66816C10.7197 3.06816 10.3997 3.39816 9.99975 3.38816C9.61975 3.38816 9.28975 3.06816 9.27975 2.68816C9.26975 2.28816 9.58975 1.95816 9.98975 1.95816Z" fill="red"/>
</svg>
