<svg width="18" height="10" viewBox="0 0 18 10" fill="none" xmlns="http://www.w3.org/2000/svg">
<path d="M15.2558 9.50452C15.7455 9.86788 16.4398 9.82801 16.8839 9.38392C17.372 8.89576 17.372 8.1043 16.8839 7.61615L9.8709 0.603196L9.75894 0.506544L9.74412 0.495544C9.2544 0.132181 8.56018 0.172058 8.11609 0.616149L1.10314 7.6291L1.00648 7.74106L0.995483 7.75588C0.63212 8.2456 0.671998 8.93982 1.11609 9.38392L1.12904 9.39687L1.241 9.49352L1.25582 9.50452C1.74554 9.86788 2.43976 9.82801 2.88385 9.38392L8.99997 3.26812L15.129 9.39687L15.241 9.49352L15.2558 9.50452Z" fill="yellow"/>
</svg>
