<svg width="24" height="32" viewBox="0 0 24 32" fill="none" xmlns="http://www.w3.org/2000/svg">
<path d="M0 0H20C22.2091 0 24 1.79086 24 4V28C24 30.2091 22.2091 32 20 32H0V0Z" fill="#413F3F"/>
<path d="M14.0029 11.8294C14.2451 11.503 14.2185 11.0401 13.9225 10.7441C13.5971 10.4186 13.0694 10.4186 12.744 10.7441L8.06868 15.4194L8.00424 15.494L7.99691 15.5039C7.75467 15.8304 7.78125 16.2932 8.07731 16.5893L12.7526 21.2646L12.8273 21.329L12.8371 21.3363C13.1636 21.5786 13.6264 21.552 13.9225 21.2559L13.9311 21.2473L13.9956 21.1726L14.0029 21.1628C14.2451 20.8363 14.2185 20.3735 13.9225 20.0774L9.84529 16L13.9311 11.914L13.9956 11.8393L14.0029 11.8294Z" fill="#686464"/>
</svg>
