<svg width="20" height="20" viewBox="0 0 20 20" fill="none" xmlns="http://www.w3.org/2000/svg">
<path fill-rule="evenodd" clip-rule="evenodd" d="M5.83333 0.625C5.25804 0.625 4.79167 1.09137 4.79167 1.66667V4.79167H1.66667C1.09137 4.79167 0.625 5.25804 0.625 5.83333C0.625 6.40863 1.09137 6.875 1.66667 6.875H4.79167V13.125H1.66667C1.09137 13.125 0.625 13.5914 0.625 14.1667C0.625 14.742 1.09137 15.2083 1.66667 15.2083H4.79167V18.3333C4.79167 18.9086 5.25804 19.375 5.83333 19.375C6.40863 19.375 6.875 18.9086 6.875 18.3333V15.2083H13.125V18.3333C13.125 18.9086 13.5914 19.375 14.1667 19.375C14.742 19.375 15.2083 18.9086 15.2083 18.3333V15.2083H18.3333C18.9086 15.2083 19.375 14.742 19.375 14.1667C19.375 13.5914 18.9086 13.125 18.3333 13.125H15.2083V6.875H18.3333C18.9086 6.875 19.375 6.40863 19.375 5.83333C19.375 5.25804 18.9086 4.79167 18.3333 4.79167H15.2083V1.66667C15.2083 1.09137 14.742 0.625 14.1667 0.625C13.5914 0.625 13.125 1.09137 13.125 1.66667V4.79167H6.875V1.66667C6.875 1.09137 6.40863 0.625 5.83333 0.625ZM6.875 13.125V6.875H13.125V13.125H6.875Z" fill="#827D7D"/>
</svg>
