<svg width="14" height="14" viewBox="0 0 14 14" fill="none" xmlns="http://www.w3.org/2000/svg">
<path fill-rule="evenodd" clip-rule="evenodd" d="M13.3228 3.74998L7.30817 0.416649C7.1075 0.305982 6.8635 0.305982 6.66283 0.416649L0.677499 3.72332C0.465499 3.84065 0.334165 4.06332 0.333499 4.30532C0.332832 4.54665 0.463499 4.77065 0.675499 4.88865L6.69017 8.24865C6.7915 8.30532 6.90283 8.33331 7.01483 8.33331C7.12683 8.33331 7.23817 8.30531 7.33883 8.24931L13.3242 4.91598C13.5362 4.79798 13.6668 4.57465 13.6668 4.33265C13.6668 4.09065 13.5355 3.86798 13.3228 3.74998ZM7.00011 9.57064L1.32344 6.41731L0.676107 7.58264L6.67611 10.916C6.77677 10.972 6.88877 11 7.00011 11C7.11144 11 7.22344 10.972 7.32344 10.916L13.3234 7.58264L12.6761 6.41731L7.00011 9.57064ZM1.32344 9.08397L7.00011 12.2373L12.6761 9.08397L13.3234 10.2493L7.32344 13.5826C7.22344 13.6386 7.11144 13.6666 7.00011 13.6666C6.88877 13.6666 6.77677 13.6386 6.67611 13.5826L0.676107 10.2493L1.32344 9.08397Z" fill="#ffffff"/>
</svg>
