<svg width="10" height="18" viewBox="0 0 10 18" fill="none" xmlns="http://www.w3.org/2000/svg">
<path d="M9.50452 2.74415C9.86788 2.25443 9.82801 1.56021 9.38392 1.11612C8.89576 0.627961 8.1043 0.627961 7.61615 1.11612L0.603196 8.12907L0.506544 8.24103L0.495544 8.25585C0.132181 8.74557 0.172058 9.43979 0.616149 9.88388L7.6291 16.8968L7.74106 16.9935L7.75588 17.0045C8.2456 17.3679 8.93982 17.328 9.38392 16.8839L9.39687 16.8709L9.49352 16.759L9.50452 16.7441C9.86788 16.2544 9.82801 15.5602 9.38392 15.1161L3.26812 9L9.39687 2.87093L9.49352 2.75897L9.50452 2.74415Z" fill="#ffffff"/>
</svg>
