<svg width="20" height="20" viewBox="0 0 20 20" fill="none" xmlns="http://www.w3.org/2000/svg">
<path d="M18.576 18.7542C18.4593 18.3958 18.2427 18.1708 17.7593 18.1792C16.5677 18.1958 15.376 18.1875 14.1843 18.1875C14.076 18.1875 13.9843 18.2042 13.976 18.0375C13.851 16.7458 13.726 15.4625 13.5927 14.1708C13.5677 13.9125 13.5677 13.9125 13.3343 14.0292C11.0427 15.1375 8.75101 16.2542 6.45101 17.3542C6.15101 17.4958 5.99268 17.6625 6.02601 17.9875C6.04268 18.1542 5.95934 18.1875 5.80934 18.1875C4.60101 18.1792 3.38434 18.1875 2.17601 18.1875C1.80101 18.1875 1.58434 18.3458 1.45101 18.6959C1.41768 18.7625 1.39268 18.8375 1.36768 18.9042V19.2958C1.38434 19.3209 1.40101 19.3375 1.40934 19.3625C1.55934 19.8458 1.75934 19.9958 2.25101 19.9958H12.0093C13.9427 19.9958 15.876 19.9958 17.8093 19.9958C17.9677 19.9958 18.1177 19.9792 18.251 19.8875C18.5677 19.6709 18.7177 19.1792 18.576 18.7542ZM7.04268 5.45418C8.95101 5.44585 10.8593 5.45418 12.7593 5.45418C13.1677 5.45418 13.1677 5.45418 13.1677 5.04585C13.1593 3.47085 12.151 2.21251 10.6177 1.88751C10.476 1.85418 10.4427 1.79585 10.4427 1.67085C10.451 1.32918 10.4343 0.979181 10.451 0.637514C10.4677 0.345848 10.376 0.129181 10.1177 0.00418091H9.88434C9.61768 0.129181 9.53434 0.345848 9.54268 0.629181C9.55934 0.970848 9.54268 1.30418 9.55101 1.64585C9.55101 1.78751 9.52601 1.86251 9.35934 1.88751C9.01768 1.94585 8.70101 2.07085 8.40101 2.25418C7.30101 2.94585 6.79268 3.94585 6.82601 5.23751C6.82601 5.40418 6.86768 5.45418 7.04268 5.45418ZM2.18434 2.61251C3.05101 2.90418 3.91768 3.22918 4.78434 3.53751C4.88434 3.57085 4.99268 3.62085 5.10101 3.62085C5.46768 3.64585 5.78434 3.40418 5.88434 3.02918C5.98434 2.62085 5.78434 2.19585 5.40934 2.06251C4.40101 1.68751 3.37601 1.32085 2.35934 0.954181C1.99268 0.829181 1.61768 1.00418 1.45101 1.36251C1.42601 1.42918 1.39268 1.49585 1.36768 1.56251V1.91251C1.50101 2.30418 1.80101 2.47918 2.18434 2.61251ZM2.36768 7.21251C3.36768 6.85418 4.37601 6.49585 5.36768 6.12918C5.82601 5.96251 6.00934 5.51251 5.83434 5.04585C5.66768 4.61251 5.29268 4.45418 4.81768 4.62085C3.90934 4.94585 3.00101 5.28751 2.08434 5.59585C1.73434 5.72918 1.46768 5.91251 1.36768 6.28752V6.60418C1.39268 6.66251 1.41768 6.72918 1.45101 6.79585C1.60934 7.17918 1.97601 7.35418 2.36768 7.21251ZM5.05101 8.07918C5.20934 8.67918 5.75101 9.08751 6.40101 9.08751C7.60101 9.08751 8.79268 9.08751 9.99268 9.08751C11.1927 9.08751 12.401 9.09585 13.601 9.08751C14.3927 9.07918 14.9927 8.48752 14.9843 7.72085C14.9843 6.96252 14.3677 6.37085 13.5843 6.37085C11.1927 6.37085 8.79268 6.37085 6.40101 6.37085C6.14268 6.37085 5.90101 6.42085 5.67601 6.55418C5.15101 6.86251 4.89268 7.48751 5.05101 8.07918ZM6.35934 14.6542C6.30101 15.2542 6.23434 15.8542 6.17601 16.4625C6.25934 16.4708 6.30934 16.4292 6.36768 16.3958C6.76768 16.2042 7.17601 16.0042 7.57601 15.8125C9.48434 14.8875 11.401 13.9625 13.3093 13.0292C13.3927 12.9875 13.4843 12.9708 13.4677 12.8292C13.4093 12.2958 13.3593 11.7708 13.3093 11.2375C13.301 11.1125 13.251 11.1042 13.151 11.1625C12.9843 11.2542 12.801 11.3375 12.626 11.4292C10.5593 12.4625 8.50934 13.5375 6.42601 14.5458C6.37601 14.5625 6.35934 14.6042 6.35934 14.6542ZM13.1927 10.0458C13.1677 9.97085 13.0927 10.0042 13.0427 10.0042C11.026 10.0042 9.00934 10.0042 6.99268 9.99585C6.84268 9.99585 6.81768 10.0542 6.80101 10.1875C6.73434 10.9208 6.65934 11.6542 6.58434 12.3792C6.55101 12.7458 6.51768 13.1125 6.47601 13.5042C6.53434 13.4792 6.57601 13.4708 6.60934 13.4542C8.76768 12.3625 10.926 11.2708 13.0843 10.1792C13.1343 10.1542 13.2177 10.1375 13.1927 10.0458ZM15.1593 3.56251C15.601 3.37918 16.0593 3.23751 16.5177 3.07085C17.0593 2.87918 17.5927 2.68751 18.126 2.48751C18.551 2.32918 18.7343 1.87085 18.5677 1.42085C18.4093 0.987514 18.026 0.812514 17.576 0.979181C16.601 1.32918 15.6343 1.67918 14.6593 2.02918C14.2843 2.16251 14.0927 2.42085 14.0927 2.80418C14.0927 3.32085 14.551 3.81251 15.1593 3.56251ZM15.151 4.62085C14.5843 4.42085 14.101 4.77085 14.101 5.53751C14.101 5.72918 14.251 5.99585 14.576 6.11251C15.601 6.49585 16.6343 6.86251 17.676 7.22085C18.001 7.33751 18.301 7.20418 18.4843 6.92085C18.7927 6.43752 18.601 5.85418 18.0677 5.66251C17.0927 5.31251 16.126 4.97085 15.151 4.62085Z" fill="#ffffff"/>
</svg>
