<svg width="20" height="20" viewBox="0 0 20 20" fill="none" xmlns="http://www.w3.org/2000/svg">
<path d="M14.5807 17.3333C13.7567 17.3333 13.4001 17.0483 12.8611 16.6174C12.2377 16.1197 11.4632 15.5 9.99466 15.5C8.52708 15.5 7.7525 16.1197 7.13008 16.6183C6.592 17.0483 6.23633 17.3333 5.41225 17.3333C4.59 17.3333 4.23433 17.0483 3.69625 16.6183C3.20308 16.2232 2.61553 15.7521 1.66274 15.5735C1.21038 15.4887 0.833496 15.8731 0.833496 16.3333V16.5C0.833496 16.9602 1.22131 17.3024 1.65147 17.4661C1.97712 17.59 2.23178 17.7938 2.55041 18.0483C3.17283 18.547 3.9465 19.1667 5.41225 19.1667C6.87983 19.1667 7.6535 18.547 8.27591 18.0493C8.81491 17.6184 9.17058 17.3333 9.99466 17.3333C10.8197 17.3333 11.1964 17.634 11.7162 18.0493C12.3386 18.547 13.1132 19.1667 14.5807 19.1667C16.0483 19.1667 16.8229 18.547 17.4453 18.0493C17.7556 17.8014 18.0149 17.5943 18.3491 17.4677C18.7794 17.3046 19.1668 16.9602 19.1668 16.5V16.3333C19.1668 15.8731 18.79 15.4888 18.3376 15.5734C17.3834 15.7519 16.7944 16.2229 16.3004 16.6174C15.7614 17.0483 15.4048 17.3333 14.5807 17.3333ZM4.50016 6.79168L4.28373 6.84578C3.39074 7.06903 2.84781 7.97392 3.07106 8.86691L4.50016 14.5833C4.50016 14.5833 5.13083 14.5833 5.41225 14.5833C6.87983 14.5833 7.6535 13.9637 8.27591 13.4659C8.81491 13.0351 9.17058 12.75 9.99466 12.75C10.8197 12.75 11.1964 13.0507 11.7162 13.4659C12.3386 13.9637 13.1132 14.5833 14.5807 14.5833C14.8649 14.5833 15.5002 14.5833 15.5002 14.5833L15.5249 14.4853L16.9293 8.86687C17.1526 7.97389 16.6096 7.06904 15.7166 6.8458L15.5002 6.79168V3.58426C15.5002 3.14609 15.1912 2.77026 14.7632 2.68501L10.9168 1.91593V1.75001C10.9168 1.24375 10.5064 0.833344 10.0002 0.833344C9.4939 0.833344 9.0835 1.24375 9.0835 1.75001V1.91593L5.23716 2.68501C4.80908 2.77026 4.50016 3.14609 4.50016 3.58426V6.79168ZM6.3335 4.33409L10.0002 3.60076L13.6668 4.33409V6.33334L10.0002 5.41668L6.3335 6.33334V4.33409Z" fill="orange"/>
</svg>
