<svg width="18" height="18" viewBox="0 0 18 18" fill="none" xmlns="http://www.w3.org/2000/svg">
<path d="M8.16658 4.62501C7.59129 4.62501 7.12492 5.09138 7.12492 5.66668V7.12501H5.66658C5.09129 7.12501 4.62492 7.59138 4.62492 8.16668C4.62492 8.74197 5.09129 9.20834 5.66658 9.20834H7.12492V10.6667C7.12492 11.242 7.59129 11.7083 8.16658 11.7083C8.74188 11.7083 9.20825 11.242 9.20825 10.6667V9.20834H10.6666C11.2419 9.20834 11.7083 8.74197 11.7083 8.16668C11.7083 7.59138 11.2419 7.12501 10.6666 7.12501H9.20825V5.66668C9.20825 5.09138 8.74188 4.62501 8.16658 4.62501Z" fill="#827D7D"/>
<path fill-rule="evenodd" clip-rule="evenodd" d="M8.16658 0.458344C3.90939 0.458344 0.458252 3.90948 0.458252 8.16668C0.458252 12.4239 3.90939 15.875 8.16658 15.875C9.91919 15.875 11.536 15.2896 12.8309 14.3041L15.7633 17.2366C16.1701 17.6434 16.8297 17.6434 17.2365 17.2366C17.6433 16.8298 17.6433 16.1702 17.2365 15.7634L14.304 12.831C15.2896 11.5361 15.8749 9.91928 15.8749 8.16668C15.8749 3.90948 12.4238 0.458344 8.16658 0.458344ZM2.54158 8.16668C2.54158 5.06007 5.05998 2.54168 8.16658 2.54168C11.2732 2.54168 13.7916 5.06007 13.7916 8.16668C13.7916 9.67718 13.1967 11.0479 12.2277 12.0588C12.1966 12.0834 12.1668 12.11 12.1383 12.1384C12.1099 12.1669 12.0833 12.1967 12.0587 12.2277C11.0478 13.1968 9.67709 13.7917 8.16658 13.7917C5.05998 13.7917 2.54158 11.2733 2.54158 8.16668Z" fill="#827D7D"/>
</svg>
