<svg width="28" height="28" viewBox="0 0 28 28" fill="none" xmlns="http://www.w3.org/2000/svg">
<path d="M20.8709 25C19.6348 25 19.0999 24.5724 18.2914 23.9261C17.3564 23.1795 16.1945 22.25 13.9918 22.25C11.7904 22.25 10.6285 23.1795 9.69488 23.9275C8.88775 24.5724 8.35425 25 7.11813 25C5.88475 25 5.35125 24.5724 4.54413 23.9275C3.80437 23.3348 2.92305 22.6282 1.49386 22.3603C0.815323 22.2331 0.25 22.8096 0.25 23.5V23.75C0.25 24.4404 0.831716 24.9537 1.47696 25.1991C1.96543 25.3849 2.34743 25.6906 2.82537 26.0725C3.759 26.8205 4.9195 27.75 7.11813 27.75C9.3195 27.75 10.48 26.8205 11.4136 26.0739C12.2221 25.4276 12.7556 25 13.9918 25C15.2293 25 15.7944 25.451 16.574 26.0739C17.5076 26.8205 18.6695 27.75 20.8709 27.75C23.0723 27.75 24.2341 26.8205 25.1678 26.0739C25.6332 25.702 26.0221 25.3915 26.5233 25.2015C27.1689 24.9568 27.75 24.4404 27.75 23.75V23.5C27.75 22.8096 27.1847 22.2332 26.5061 22.3601C25.0749 22.6278 24.1914 23.3344 23.4504 23.9261C22.6419 24.5724 22.107 25 20.8709 25ZM5.75 9.1875L5.42536 9.26866C4.08587 9.60353 3.27147 10.9609 3.60634 12.3004L5.75 20.875C5.75 20.875 6.696 20.875 7.11813 20.875C9.3195 20.875 10.48 19.9455 11.4136 19.1989C12.2221 18.5526 12.7556 18.125 13.9918 18.125C15.2293 18.125 15.7944 18.576 16.574 19.1989C17.5076 19.9455 18.6695 20.875 20.8709 20.875C21.2971 20.875 22.25 20.875 22.25 20.875L22.2871 20.7279L24.3938 12.3003C24.7286 10.9608 23.9142 9.60355 22.5747 9.26868L22.25 9.1875V4.37638C22.25 3.71913 21.7866 3.15538 21.1445 3.0275L15.375 1.87388V1.625C15.375 0.865609 14.7594 0.25 14 0.25C13.2406 0.25 12.625 0.865608 12.625 1.625V1.87388L6.8555 3.0275C6.21337 3.15538 5.75 3.71913 5.75 4.37638V9.1875ZM8.5 5.50112L14 4.40113L19.5 5.50112V8.5L14 7.125L8.5 8.5V5.50112Z" fill="#343232"/>
</svg>
