<svg width="20" height="20" viewBox="0 0 20 20" fill="none" xmlns="http://www.w3.org/2000/svg">
<path d="M14.5805 17.3335C13.7564 17.3335 13.3998 17.0484 12.8608 16.6176C12.2375 16.1198 11.4629 15.5002 9.99442 15.5002C8.52683 15.5002 7.75225 16.1198 7.12984 16.6185C6.59175 17.0484 6.23608 17.3335 5.412 17.3335C4.58975 17.3335 4.23409 17.0484 3.696 16.6185C3.20283 16.2234 2.61528 15.7523 1.66249 15.5737C1.21013 15.4889 0.833252 15.8733 0.833252 16.3335V16.5002C0.833252 16.9604 1.22106 17.3026 1.65122 17.4662C1.97687 17.5901 2.23154 17.7939 2.55017 18.0485C3.17259 18.5472 3.94625 19.1668 5.412 19.1668C6.87958 19.1668 7.65325 18.5472 8.27567 18.0494C8.81467 17.6186 9.17033 17.3335 9.99442 17.3335C10.8194 17.3335 11.1962 17.6342 11.7159 18.0494C12.3383 18.5472 13.1129 19.1668 14.5805 19.1668C16.0481 19.1668 16.8227 18.5472 17.4451 18.0494C17.7554 17.8015 18.0147 17.5945 18.3488 17.4678C18.7792 17.3047 19.1666 16.9604 19.1666 16.5002V16.3335C19.1666 15.8733 18.7897 15.4889 18.3373 15.5736C17.3832 15.752 16.7942 16.2231 16.3002 16.6176C15.7612 17.0484 15.4046 17.3335 14.5805 17.3335ZM4.49992 6.79183L4.28349 6.84594C3.3905 7.06918 2.84756 7.97408 3.07081 8.86707L4.49992 14.5835C4.49992 14.5835 5.13059 14.5835 5.412 14.5835C6.87958 14.5835 7.65325 13.9638 8.27567 13.4661C8.81467 13.0352 9.17033 12.7502 9.99442 12.7502C10.8194 12.7502 11.1962 13.0508 11.7159 13.4661C12.3383 13.9638 13.1129 14.5835 14.5805 14.5835C14.8647 14.5835 15.4999 14.5835 15.4999 14.5835L15.5247 14.4854L16.9291 8.86702C17.1523 7.97405 16.6094 7.06919 15.7164 6.84595L15.4999 6.79183V3.58441C15.4999 3.14625 15.191 2.77041 14.7629 2.68516L10.9166 1.91608V1.75016C10.9166 1.2439 10.5062 0.833496 9.99992 0.833496C9.49366 0.833496 9.08325 1.2439 9.08325 1.75016V1.91608L5.23692 2.68516C4.80883 2.77041 4.49992 3.14625 4.49992 3.58441V6.79183ZM6.33325 4.33425L9.99992 3.60091L13.6666 4.33425V6.3335L9.99992 5.41683L6.33325 6.3335V4.33425Z" fill="white"/>
</svg>
