<?xml version="1.0" encoding="UTF-8" standalone="no"?>
<!DOCTYPE svg PUBLIC "-//W3C//DTD SVG 1.1//EN" "http://www.w3.org/Graphics/SVG/1.1/DTD/svg11.dtd">
<svg width="100%" height="100%" viewBox="0 0 42 42" version="1.1" xmlns="http://www.w3.org/2000/svg" xmlns:xlink="http://www.w3.org/1999/xlink" xml:space="preserve" xmlns:serif="http://www.serif.com/" style="fill-rule:evenodd;clip-rule:evenodd;stroke-linejoin:round;stroke-miterlimit:2;">
    <g transform="matrix(1,0,0,1,-1337.49,-4649.73)">
        <path id="Shape-10" serif:id="Shape 10" d="M1358.25,4649.73C1346.78,4649.73 1337.49,4659.03 1337.49,4670.49C1337.49,4680.86 1345.08,4689.44 1355,4691L1355,4676.49L1349.73,4676.49L1349.73,4670.49L1355,4670.49L1355,4665.92C1355,4660.72 1358.1,4657.84 1362.84,4657.84C1365.11,4657.84 1367.49,4658.25 1367.49,4658.25L1367.49,4663.36L1364.87,4663.36C1362.29,4663.36 1361.49,4664.96 1361.49,4666.6L1361.49,4670.49L1367.25,4670.49L1366.32,4676.49L1361.49,4676.49L1361.49,4691C1371.41,4689.44 1379,4680.86 1379,4670.49C1379,4659.03 1369.71,4649.73 1358.25,4649.73Z" style="fill:rgb(77,77,79);fill-rule:nonzero;"/>
    </g>
</svg>
