<?xml version="1.0" encoding="UTF-8" standalone="no"?>
<!DOCTYPE svg PUBLIC "-//W3C//DTD SVG 1.1//EN" "http://www.w3.org/Graphics/SVG/1.1/DTD/svg11.dtd">
<svg width="100%" height="100%" viewBox="0 0 42 42" version="1.1" xmlns="http://www.w3.org/2000/svg" xmlns:xlink="http://www.w3.org/1999/xlink" xml:space="preserve" xmlns:serif="http://www.serif.com/" style="fill-rule:evenodd;clip-rule:evenodd;stroke-linejoin:round;stroke-miterlimit:2;">
    <g transform="matrix(1,0,0,1,-1397.74,-4649.72)">
        <path id="Shape-11" serif:id="Shape 11" d="M1418.38,4649.72C1412.78,4649.72 1412.08,4649.74 1409.87,4649.84C1407.68,4649.94 1406.18,4650.29 1404.86,4650.8C1403.51,4651.33 1402.36,4652.04 1401.21,4653.18C1400.06,4654.33 1399.36,4655.48 1398.83,4656.84C1398.32,4658.15 1397.97,4659.65 1397.87,4661.85C1397.77,4664.05 1397.74,4664.75 1397.74,4670.36C1397.74,4675.97 1397.77,4676.67 1397.87,4678.87C1397.97,4681.07 1398.32,4682.57 1398.83,4683.88C1399.36,4685.24 1400.06,4686.39 1401.21,4687.54C1402.36,4688.68 1403.51,4689.39 1404.86,4689.92C1406.18,4690.43 1407.68,4690.78 1409.87,4690.88C1412.08,4690.98 1412.78,4691 1418.38,4691C1423.99,4691 1424.69,4690.98 1426.89,4690.88C1429.09,4690.78 1430.59,4690.43 1431.9,4689.92C1433.26,4689.39 1434.41,4688.68 1435.56,4687.54C1436.71,4686.39 1437.41,4685.24 1437.94,4683.88C1438.45,4682.57 1438.8,4681.07 1438.9,4678.87C1439,4676.67 1439.03,4675.97 1439.03,4670.36C1439.03,4664.75 1439,4664.05 1438.9,4661.85C1438.8,4659.65 1438.45,4658.15 1437.94,4656.84C1437.41,4655.48 1436.71,4654.33 1435.56,4653.18C1434.41,4652.04 1433.26,4651.33 1431.9,4650.8C1430.59,4650.29 1429.09,4649.94 1426.89,4649.84C1424.69,4649.74 1423.99,4649.72 1418.38,4649.72ZM1418.38,4653.44C1423.9,4653.44 1424.55,4653.46 1426.73,4653.56C1428.74,4653.65 1429.83,4653.99 1430.56,4654.27C1431.52,4654.64 1432.21,4655.09 1432.93,4655.81C1433.65,4656.53 1434.1,4657.22 1434.48,4658.19C1434.76,4658.91 1435.09,4660.01 1435.19,4662.02C1435.29,4664.19 1435.31,4664.85 1435.31,4670.36C1435.31,4675.87 1435.29,4676.52 1435.19,4678.7C1435.09,4680.71 1434.76,4681.81 1434.48,4682.53C1434.1,4683.5 1433.65,4684.18 1432.93,4684.91C1432.21,4685.63 1431.52,4686.08 1430.56,4686.45C1429.83,4686.73 1428.74,4687.07 1426.73,4687.16C1424.55,4687.26 1423.9,4687.28 1418.38,4687.28C1412.87,4687.28 1412.22,4687.26 1410.04,4687.16C1408.03,4687.07 1406.94,4686.73 1406.21,4686.45C1405.25,4686.08 1404.56,4685.63 1403.84,4684.91C1403.12,4684.18 1402.67,4683.5 1402.29,4682.53C1402.01,4681.81 1401.67,4680.71 1401.58,4678.7C1401.48,4676.52 1401.46,4675.87 1401.46,4670.36C1401.46,4664.85 1401.48,4664.19 1401.58,4662.02C1401.67,4660.01 1402.01,4658.91 1402.29,4658.19C1402.67,4657.22 1403.12,4656.53 1403.84,4655.81C1404.56,4655.09 1405.25,4654.64 1406.21,4654.27C1406.94,4653.99 1408.03,4653.65 1410.04,4653.56C1412.22,4653.46 1412.87,4653.44 1418.38,4653.44ZM1418.38,4659.76C1412.53,4659.76 1407.79,4664.51 1407.79,4670.36C1407.79,4676.21 1412.53,4680.96 1418.38,4680.96C1424.24,4680.96 1428.98,4676.21 1428.98,4670.36C1428.98,4664.51 1424.24,4659.76 1418.38,4659.76ZM1418.38,4677.24C1414.58,4677.24 1411.5,4674.16 1411.5,4670.36C1411.5,4666.56 1414.58,4663.48 1418.38,4663.48C1422.18,4663.48 1425.27,4666.56 1425.27,4670.36C1425.27,4674.16 1422.18,4677.24 1418.38,4677.24ZM1431.88,4659.34C1431.88,4660.71 1430.77,4661.82 1429.4,4661.82C1428.03,4661.82 1426.92,4660.71 1426.92,4659.34C1426.92,4657.97 1428.03,4656.86 1429.4,4656.86C1430.77,4656.86 1431.88,4657.97 1431.88,4659.34Z" style="fill:rgb(77,77,79);"/>
    </g>
</svg>
